<svg width="847" height="520" xmlns="http://www.w3.org/2000/svg" version="1.1"><g transform="translate(0, 10)"><g class="links" fill="none" stroke-opacity="0.4"><path d="M5,351.25C213,351.25,213,366.25000000000017,421,366.25000000000017" stroke-width="247.49999999999997" style="stroke: rgb(191, 105, 105);"></path><path d="M5,64.54545454545456C213,64.54545454545456,213,59.5454545454546,421,59.5454545454546" stroke-width="64.09090909090908" style="stroke: rgb(191, 105, 105);"></path><path d="M5,28.75000000000003C213,28.75000000000003,213,13.750000000000057,421,13.750000000000057" stroke-width="7.499999999999999" style="stroke: rgb(191, 105, 105);"></path><path d="M5,162.04545454545456C213,162.04545454545456,213,167.04545454545462,421,167.04545454545462" stroke-width="130.9090909090909" style="stroke: rgb(191, 105, 105);"></path><path d="M426,366.25000000000017C634,366.25000000000017,634,376.25000000000017,842,376.25000000000017" stroke-width="247.49999999999997" style="stroke: rgb(174, 191, 105);"></path><path d="M426,63.295454545454604C634,63.295454545454604,634,73.29545454545438,842,73.29545454545438" stroke-width="56.590909090909086" style="stroke: rgb(105, 191, 139);"></path><path d="M426,31.250000000000057C634,31.250000000000057,634,31.24999999999983,842,31.24999999999983" stroke-width="7.499999999999999" style="stroke: rgb(105, 191, 139);"></path><path d="M426,14.772727272727328C634,14.772727272727328,634,14.77272727272706,842,14.77272727272706" stroke-width="5.454545454545454" style="stroke: rgb(105, 139, 191);"></path><path d="M426,11.02272727272733C634,11.02272727272733,634,1.0227272727271022,842,1.0227272727271022" stroke-width="2.0454545454545454" style="stroke: rgb(105, 139, 191);"></path><path d="M426,167.04545454545462C634,167.04545454545462,634,177.0454545454544,842,177.0454545454544" stroke-width="130.9090909090909" style="stroke: rgb(174, 105, 191);"></path></g><g class="nodes" font-family="Arial, Helvetica" font-size="10"><g><rect x="0" y="25.00000000000003" height="449.99999999999994" width="5" fill="#000"></rect><text x="11" y="250" dy="0.35em" text-anchor="start">Gender</text></g><g><rect x="421" y="101.59090909090918" height="130.909090909091" width="5" fill="#000"></rect><text x="415" y="167.04545454545467" dy="0.35em" text-anchor="end">Family</text></g><g><rect x="421" y="10.000000000000057" height="7.5" width="5" fill="#000"></rect><text x="415" y="13.750000000000057" dy="0.35em" text-anchor="end">LGBTI references</text></g><g><rect x="421" y="27.500000000000057" height="64.09090909090912" width="5" fill="#000"></rect><text x="415" y="59.54545454545462" dy="0.35em" text-anchor="end">Men and Boys</text></g><g><rect x="421" y="242.50000000000017" height="247.49999999999977" width="5" fill="#000"></rect><text x="415" y="366.25000000000006" dy="0.35em" text-anchor="end">Women girls and gender</text></g><g><rect x="842" y="111.59090909090895" height="130.90909090909122" width="5" fill="#000"></rect><text x="836" y="177.04545454545456" dy="0.35em" text-anchor="end">(192)</text></g><g><rect x="842" y="252.50000000000017" height="247.49999999999997" width="5" fill="#000"></rect><text x="836" y="376.25000000000017" dy="0.35em" text-anchor="end">(363)</text></g><g><rect x="842" y="27.49999999999983" height="7.5" width="5" fill="#000"></rect><text x="836" y="31.24999999999983" dy="0.35em" text-anchor="end">Gender Men Boys Other (11)</text></g><g><rect x="842" y="44.99999999999983" height="56.59090909090912" width="5" fill="#000"></rect><text x="836" y="73.29545454545439" dy="0.35em" text-anchor="end">Gender neutrality wording (83)</text></g><g><rect x="842" y="-1.7053025658242404e-13" height="2.045454545454504" width="5" fill="#000"></rect><text x="836" y="1.0227272727270815" dy="0.35em" text-anchor="end">LGBTI references Beg (3)</text></g><g><rect x="842" y="12.045454545454334" height="5.454545454545496" width="5" fill="#000"></rect><text x="836" y="14.772727272727082" dy="0.35em" text-anchor="end">LGBTI references Pos (8)</text></g></g></g></svg>