<svg width="100%" height="100%" xmlns="http://www.w3.org/2000/svg" version="1.1"><g transform="translate(0, 10)"><g class="links" fill="none" stroke-opacity="0.4"><path d="M5,428.4445768772349C213,428.4445768772349,213,403.4445768772346,421,403.4445768772346" stroke-width="62.868494239173614" style="stroke: rgb(191, 105, 105);"></path><path d="M5,528.2995629717918C213,528.2995629717918,213,523.2995629717916,421,523.2995629717916" stroke-width="25.454906634882796" style="stroke: rgb(191, 105, 105);"></path><path d="M5,591.6805721096545C213,591.6805721096545,213,616.6805721096542,421,616.6805721096542" stroke-width="17.25466825586015" style="stroke: rgb(191, 105, 105);"></path><path d="M5,612.9499404052444C213,612.9499404052444,213,657.9499404052442,421,657.9499404052442" stroke-width="4.1001191895113225" style="stroke: rgb(191, 105, 105);"></path><path d="M5,247.09972189114032C213,247.09972189114032,213,202.09972189114035,421,202.09972189114035" stroke-width="124.19944378228048" style="stroke: rgb(191, 105, 105);"></path><path d="M5,487.7254668255861C213,487.7254668255861,213,472.7254668255858,421,472.7254668255858" stroke-width="55.6932856575288" style="stroke: rgb(191, 105, 105);"></path><path d="M5,553.4127930075488C213,553.4127930075488,213,558.4127930075484,421,558.4127930075484" stroke-width="24.771553436630906" style="stroke: rgb(191, 105, 105);"></path><path d="M5,605.6038935240366C213,605.6038935240366,213,640.6038935240364,421,640.6038935240364" stroke-width="10.59197457290425" style="stroke: rgb(191, 105, 105);"></path><path d="M5,353.1048867699643C213,353.1048867699643,213,318.1048867699642,421,318.1048867699642" stroke-width="87.8108859753675" style="stroke: rgb(191, 105, 105);"></path><path d="M5,574.4259038537944C213,574.4259038537944,213,589.425903853794,421,589.425903853794" stroke-width="17.25466825586015" style="stroke: rgb(191, 105, 105);"></path><path d="M426,417.62415574096127C634,417.62415574096127,634,297.2943980929675,842,297.2943980929675" stroke-width="25.625744934445766" style="stroke: rgb(191, 152, 105);"></path><path d="M426,434.3663090981325C634,434.3663090981325,634,725.5582042113629,842,725.5582042113629" stroke-width="1.0250297973778306" style="stroke: rgb(191, 152, 105);"></path><path d="M426,388.4108065156931C634,388.4108065156931,634,215.96344854986086,842,215.96344854986086" stroke-width="32.80095351609058" style="stroke: rgb(191, 152, 105);"></path><path d="M426,432.1454112038139C634,432.1454112038139,634,627.6201827572507,842,627.6201827572507" stroke-width="3.4167659912594357" style="stroke: rgb(191, 152, 105);"></path><path d="M426,528.8518077075881C634,528.8518077075881,634,521.9149781485893,842,521.9149781485893" stroke-width="6.491855383392927" style="stroke: rgb(183, 191, 105);"></path><path d="M426,533.6352800953514C634,533.6352800953514,634,640.8661104489472,842,640.8661104489472" stroke-width="3.075089392133492" style="stroke: rgb(183, 191, 105);"></path><path d="M426,518.088994835121C634,518.088994835121,634,438.6928883591575,842,438.6928883591575" stroke-width="15.033770361541517" style="stroke: rgb(183, 191, 105);"></path><path d="M426,535.5999205403255C634,535.5999205403255,634,758.3770361541519,842,758.3770361541519" stroke-width="0.8541914978148589" style="stroke: rgb(183, 191, 105);"></path><path d="M426,620.0973381009137C634,620.0973381009137,634,553.959078267779,842,553.959078267779" stroke-width="5.6376638855780685" style="stroke: rgb(136, 191, 105);"></path><path d="M426,624.1120381406434C634,624.1120381406434,634,666.6746126340884,842,666.6746126340884" stroke-width="2.391736193881605" style="stroke: rgb(136, 191, 105);"></path><path d="M426,612.6658720699244C634,612.6658720699244,634,504.05641636869257,842,504.05641636869257" stroke-width="9.225268176400476" style="stroke: rgb(136, 191, 105);"></path><path d="M426,659.4020659515294C634,659.4020659515294,634,747.5228446563369,842,747.5228446563369" stroke-width="0.8541914978148589" style="stroke: rgb(105, 191, 121);"></path><path d="M426,659.9145808502184C634,659.9145808502184,634,789.7437425506556,842,789.7437425506556" stroke-width="0.17083829956297178" style="stroke: rgb(105, 191, 121);"></path><path d="M426,657.4374255065553C634,657.4374255065553,634,653.9411998410808,842,653.9411998410808" stroke-width="3.075089392133492" style="stroke: rgb(105, 191, 121);"></path><path d="M426,196.46205800556228C634,196.46205800556228,634,173.07707588398878,842,173.07707588398878" stroke-width="32.97179181565355" style="stroke: rgb(105, 191, 167);"></path><path d="M426,253.7783075089393C634,253.7783075089393,634,360.6873261819623,842,360.6873261819623" stroke-width="17.425506555423123" style="stroke: rgb(105, 191, 167);"></path><path d="M426,229.0067540723084C634,229.0067540723084,634,258.4227254668254,842,258.4227254668254" stroke-width="32.11760031783869" style="stroke: rgb(105, 191, 167);"></path><path d="M426,263.3452522844657C634,263.3452522844657,634,702.9956297179183,842,702.9956297179183" stroke-width="1.7083829956297178" style="stroke: rgb(105, 191, 167);"></path><path d="M426,159.9880810488678C634,159.9880810488678,634,79.53118792212935,842,79.53118792212935" stroke-width="39.9761620977354" style="stroke: rgb(105, 191, 167);"></path><path d="M426,475.03178386968585C634,475.03178386968585,634,387.6857369884781,842,387.6857369884781" stroke-width="16.571315057608263" style="stroke: rgb(105, 167, 191);"></path><path d="M426,490.9197457290423C634,490.9197457290423,634,413.57369884783446,842,413.57369884783446" stroke-width="15.204608661104489" style="stroke: rgb(105, 167, 191);"></path><path d="M426,455.81247516885156C634,455.81247516885156,634,331.04092173222057,842,331.04092173222057" stroke-width="21.867302344060388" style="stroke: rgb(105, 167, 191);"></path><path d="M426,499.54707985697235C634,499.54707985697235,634,691.1164084227255,842,691.1164084227255" stroke-width="2.0500595947556612" style="stroke: rgb(105, 167, 191);"></path><path d="M426,564.477552642034C634,564.477552642034,634,484.6603098927291,842,484.6603098927291" stroke-width="9.56694477552642" style="stroke: rgb(105, 121, 191);"></path><path d="M426,569.773539928486C634,569.773539928486,634,736.5832340087406,842,736.5832340087406" stroke-width="1.0250297973778306" style="stroke: rgb(105, 121, 191);"></path><path d="M426,552.8605482717518C634,552.8605482717518,634,463.04330552244727,842,463.04330552244727" stroke-width="13.667063965037743" style="stroke: rgb(105, 121, 191);"></path><path d="M426,570.5423122765194C634,570.5423122765194,634,769.0603893524038,842,769.0603893524038" stroke-width="0.5125148986889153" style="stroke: rgb(105, 121, 191);"></path><path d="M426,644.6185935637661C634,644.6185935637661,634,678.9809296781884,842,678.9809296781884" stroke-width="2.2208978943186333" style="stroke: rgb(136, 105, 191);"></path><path d="M426,637.4433849821214C634,637.4433849821214,634,599.8470401271355,842,599.8470401271355" stroke-width="4.270957489074294" style="stroke: rgb(136, 105, 191);"></path><path d="M426,641.5435041716327C634,641.5435041716327,634,613.9471593166469,842,613.9471593166469" stroke-width="3.929280889948351" style="stroke: rgb(136, 105, 191);"></path><path d="M426,645.814461660707C634,645.814461660707,634,799.9145808502186,842,799.9145808502186" stroke-width="0.17083829956297178" style="stroke: rgb(136, 105, 191);"></path><path d="M426,342.27850615812474C634,342.27850615812474,634,128.05522447357964,842,128.05522447357964" stroke-width="37.07191100516488" style="stroke: rgb(183, 105, 191);"></path><path d="M426,298.97099721891135C634,298.97099721891135,634,24.771553436630793,842,24.771553436630793" stroke-width="49.54310687326181" style="stroke: rgb(183, 105, 191);"></path><path d="M426,361.41239570917753C634,361.41239570917753,634,714.4477552642036,842,714.4477552642036" stroke-width="1.1958680969408024" style="stroke: rgb(183, 105, 191);"></path><path d="M426,589.596742153357C634,589.596742153357,634,569.5967421533571,842,569.5967421533571" stroke-width="5.6376638855780685" style="stroke: rgb(191, 105, 152);"></path><path d="M426,583.7882399682159C634,583.7882399682159,634,538.1505760826377,842,538.1505760826377" stroke-width="5.979340484704013" style="stroke: rgb(191, 105, 152);"></path><path d="M426,597.8823996821611C634,597.8823996821611,634,779.4874851013111,842,779.4874851013111" stroke-width="0.34167659912594356" style="stroke: rgb(191, 105, 152);"></path><path d="M426,595.063567739372C634,595.063567739372,634,585.0635677393723,842,585.0635677393723" stroke-width="5.295987286452125" style="stroke: rgb(191, 105, 152);"></path></g><g class="nodes" font-family="Arial, Helvetica" font-size="10"><g><rect x="0" y="185.00000000000009" height="429.99999999999983" width="5" fill="#000"></rect><text x="11" y="400" dy="0.35em" text-anchor="start">Groups</text></g><g><rect x="421" y="372.0103297576478" height="62.86849423917357" width="5" fill="#000"></rect><text x="415" y="403.44457687723457" dy="0.35em" text-anchor="end">Children Youth</text></g><g><rect x="421" y="510.5721096543502" height="25.454906634882718" width="5" fill="#000"></rect><text x="415" y="523.2995629717916" dy="0.35em" text-anchor="end">Disabled persons</text></g><g><rect x="421" y="608.0532379817241" height="17.25466825586011" width="5" fill="#000"></rect><text x="415" y="616.6805721096541" dy="0.35em" text-anchor="end">Elderly Age</text></g><g><rect x="421" y="546.027016289233" height="24.77155343663094" width="5" fill="#000"></rect><text x="415" y="558.4127930075484" dy="0.35em" text-anchor="end">Indigenous people</text></g><g><rect x="421" y="655.8998808104885" height="4.100119189511361" width="5" fill="#000"></rect><text x="415" y="657.9499404052442" dy="0.35em" text-anchor="end">Migrant workers</text></g><g><rect x="421" y="635.3079062375842" height="10.591974572904292" width="5" fill="#000"></rect><text x="415" y="640.6038935240364" dy="0.35em" text-anchor="end">Other groups</text></g><g><rect x="421" y="140.0000000000001" height="124.19944378228035" width="5" fill="#000"></rect><text x="415" y="202.0997218911403" dy="0.35em" text-anchor="end">Racial ethnic national groups</text></g><g><rect x="421" y="274.19944378228047" height="87.81088597536737" width="5" fill="#000"></rect><text x="415" y="318.10488676996414" dy="0.35em" text-anchor="end">Refugees displaced persons</text></g><g><rect x="421" y="444.8788239968214" height="55.693285657528804" width="5" fill="#000"></rect><text x="415" y="472.7254668255858" dy="0.35em" text-anchor="end">Religious groups</text></g><g><rect x="421" y="580.7985697258639" height="17.254668255860224" width="5" fill="#000"></rect><text x="415" y="589.425903853794" dy="0.35em" text-anchor="end">Social Class</text></g><g><rect x="842" y="789.6583234008741" height="0.17083829956300178" width="5" fill="#000"></rect><text x="836" y="789.7437425506556" dy="0.35em" text-anchor="end">Anti-discrimination (1)</text></g><g><rect x="842" y="351.97457290425075" height="17.425506555423226" width="5" fill="#000"></rect><text x="836" y="360.68732618196236" dy="0.35em" text-anchor="end">Anti-discrimination (102)</text></g><g><rect x="842" y="665.4787445371476" height="2.39173619388157" width="5" fill="#000"></rect><text x="836" y="666.6746126340884" dy="0.35em" text-anchor="end">Anti-discrimination (14)</text></g><g><rect x="842" y="639.3285657528804" height="3.0750893921335773" width="5" fill="#000"></rect><text x="836" y="640.8661104489472" dy="0.35em" text-anchor="end">Anti-discrimination (18)</text></g><g><rect x="842" y="597.7115613825983" height="4.2709574890743625" width="5" fill="#000"></rect><text x="836" y="599.8470401271355" dy="0.35em" text-anchor="end">Anti-discrimination (25)</text></g><g><rect x="842" y="535.1609058402857" height="5.979340484704153" width="5" fill="#000"></rect><text x="836" y="538.1505760826378" dy="0.35em" text-anchor="end">Anti-discrimination (35)</text></g><g><rect x="842" y="725.045689312674" height="1.0250297973777833" width="5" fill="#000"></rect><text x="836" y="725.5582042113629" dy="0.35em" text-anchor="end">Anti-discrimination (6)</text></g><g><rect x="842" y="405.9713945172822" height="15.204608661104544" width="5" fill="#000"></rect><text x="836" y="413.57369884783446" dy="0.35em" text-anchor="end">Anti-discrimination (89)</text></g><g><rect x="842" y="736.0707191100518" height="1.0250297973777833" width="5" fill="#000"></rect><text x="836" y="736.5832340087406" dy="0.35em" text-anchor="end">Anti-discrimination- (6)</text></g><g><rect x="842" y="625.9117997616211" height="3.4167659912593535" width="5" fill="#000"></rect><text x="836" y="627.6201827572507" dy="0.35em" text-anchor="end">Children Young Other (20)</text></g><g><rect x="842" y="551.1402463249899" height="5.637663885578149" width="5" fill="#000"></rect><text x="836" y="553.959078267779" dy="0.35em" text-anchor="end">GAge Rhetorical (33)</text></g><g><rect x="842" y="757.9499404052445" height="0.8541914978147815" width="5" fill="#000"></rect><text x="836" y="758.3770361541519" dy="0.35em" text-anchor="end">GDis Other (5)</text></g><g><rect x="842" y="518.6690504568928" height="6.491855383392931" width="5" fill="#000"></rect><text x="836" y="521.9149781485893" dy="0.35em" text-anchor="end">GDis Rhetorical (38)</text></g><g><rect x="842" y="768.8041319030593" height="0.512514898688778" width="5" fill="#000"></rect><text x="836" y="769.0603893524037" dy="0.35em" text-anchor="end">GInd Other (3)</text></g><g><rect x="842" y="479.8768375049659" height="9.566944775526395" width="5" fill="#000"></rect><text x="836" y="484.6603098927291" dy="0.35em" text-anchor="end">GInd Rhetorical (56)</text></g><g><rect x="842" y="747.0957489074295" height="0.8541914978150089" width="5" fill="#000"></rect><text x="836" y="747.522844656337" dy="0.35em" text-anchor="end">GMig Rhetorical (5)</text></g><g><rect x="842" y="799.8291617004371" height="0.17083829956300178" width="5" fill="#000"></rect><text x="836" y="799.9145808502186" dy="0.35em" text-anchor="end">GOth Other (1)</text></g><g><rect x="842" y="677.8704807310291" height="2.2208978943185684" width="5" fill="#000"></rect><text x="836" y="678.9809296781884" dy="0.35em" text-anchor="end">GOth Rhetorical (13)</text></g><g><rect x="842" y="702.1414382201034" height="1.7083829956297905" width="5" fill="#000"></rect><text x="836" y="702.9956297179183" dy="0.35em" text-anchor="end">GRa Other (10)</text></g><g><rect x="842" y="156.591179976162" height="32.971791815653546" width="5" fill="#000"></rect><text x="836" y="173.07707588398878" dy="0.35em" text-anchor="end">GRa Rhetorical (193)</text></g><g><rect x="842" y="690.0913786253477" height="2.0500595947556803" width="5" fill="#000"></rect><text x="836" y="691.1164084227255" dy="0.35em" text-anchor="end">GRe Other (12)</text></g><g><rect x="842" y="379.400079459674" height="16.571315057608217" width="5" fill="#000"></rect><text x="836" y="387.6857369884781" dy="0.35em" text-anchor="end">GRe Rhetorical (97)</text></g><g><rect x="842" y="713.8498212157332" height="1.195868096940785" width="5" fill="#000"></rect><text x="836" y="714.4477552642036" dy="0.35em" text-anchor="end">GRef Other (7)</text></g><g><rect x="842" y="109.51926897099719" height="37.07191100516482" width="5" fill="#000"></rect><text x="836" y="128.05522447357959" dy="0.35em" text-anchor="end">GRef Rhetorical (217)</text></g><g><rect x="842" y="779.3166468017481" height="0.34167659912600357" width="5" fill="#000"></rect><text x="836" y="779.4874851013111" dy="0.35em" text-anchor="end">GSoc Other (2)</text></g><g><rect x="842" y="566.777910210568" height="5.637663885578149" width="5" fill="#000"></rect><text x="836" y="569.5967421533571" dy="0.35em" text-anchor="end">GSoc Rhetorical (33)</text></g><g><rect x="842" y="284.48152562574467" height="25.62574493444572" width="5" fill="#000"></rect><text x="836" y="297.2943980929675" dy="0.35em" text-anchor="end">iGChRhet: Rhetorical (150)</text></g><g><rect x="842" y="59.54310687326165" height="39.97616209773554" width="5" fill="#000"></rect><text x="836" y="79.53118792212942" dy="0.35em" text-anchor="end">Religious groups (234)</text></g><g><rect x="842" y="320.1072705601904" height="21.867302344060363" width="5" fill="#000"></rect><text x="836" y="331.04092173222057" dy="0.35em" text-anchor="end">Substantive (128)</text></g><g><rect x="842" y="652.403655145014" height="3.0750893921335773" width="5" fill="#000"></rect><text x="836" y="653.9411998410808" dy="0.35em" text-anchor="end">Substantive (18)</text></g><g><rect x="842" y="242.36392530790604" height="32.11760031783865" width="5" fill="#000"></rect><text x="836" y="258.42272546682534" dy="0.35em" text-anchor="end">Substantive (188)</text></g><g><rect x="842" y="199.56297179181556" height="32.80095351609049" width="5" fill="#000"></rect><text x="836" y="215.9634485498608" dy="0.35em" text-anchor="end">Substantive (192)</text></g><g><rect x="842" y="611.9825188716727" height="3.929280889948359" width="5" fill="#000"></rect><text x="836" y="613.9471593166469" dy="0.35em" text-anchor="end">Substantive (23)</text></g><g><rect x="842" y="-1.1368683772161603e-13" height="49.54310687326176" width="5" fill="#000"></rect><text x="836" y="24.771553436630768" dy="0.35em" text-anchor="end">Substantive (290)</text></g><g><rect x="842" y="582.4155740961462" height="5.295987286452146" width="5" fill="#000"></rect><text x="836" y="585.0635677393723" dy="0.35em" text-anchor="end">Substantive (31)</text></g><g><rect x="842" y="499.4437822804923" height="9.225268176400505" width="5" fill="#000"></rect><text x="836" y="504.05641636869257" dy="0.35em" text-anchor="end">Substantive (54)</text></g><g><rect x="842" y="456.2097735399284" height="13.667063965037528" width="5" fill="#000"></rect><text x="836" y="463.04330552244716" dy="0.35em" text-anchor="end">Substantive (80)</text></g><g><rect x="842" y="431.17600317838674" height="15.033770361541656" width="5" fill="#000"></rect><text x="836" y="438.69288835915756" dy="0.35em" text-anchor="end">Substantive (88)</text></g></g></g></svg>