<svg width="847" height="820" xmlns="http://www.w3.org/2000/svg" version="1.1"><g transform="translate(0, 10)"><g class="links" fill="none" stroke-opacity="0.4"><path d="M5,163.16622691292883C213,163.16622691292883,213,123.16622691292899,421,123.16622691292899" stroke-width="246.33245382585753" style="stroke: rgb(191, 105, 105);"></path><path d="M5,344.27440633245385C213,344.27440633245385,213,314.2744063324541,421,314.2744063324541" stroke-width="115.88390501319262" style="stroke: rgb(191, 105, 105);"></path><path d="M5,645.3825857519789C213,645.3825857519789,213,655.3825857519788,421,655.3825857519788" stroke-width="50.65963060686016" style="stroke: rgb(191, 105, 105);"></path><path d="M5,590.6068601583114C213,590.6068601583114,213,590.6068601583113,421,590.6068601583113" stroke-width="58.89182058047494" style="stroke: rgb(191, 105, 105);"></path><path d="M5,693.1926121372031C213,693.1926121372031,213,713.1926121372029,421,713.1926121372029" stroke-width="44.96042216358839" style="stroke: rgb(191, 105, 105);"></path><path d="M5,734.353562005277C213,734.353562005277,213,764.3535620052768,421,764.3535620052768" stroke-width="37.361477572559366" style="stroke: rgb(191, 105, 105);"></path><path d="M5,756.5171503957783C213,756.5171503957783,213,796.5171503957781,421,796.5171503957781" stroke-width="6.965699208443272" style="stroke: rgb(191, 105, 105);"></path><path d="M5,524.7493403693932C213,524.7493403693932,213,514.7493403693933,421,514.7493403693933" stroke-width="72.82321899736148" style="stroke: rgb(191, 105, 105);"></path><path d="M5,445.2770448548813C213,445.2770448548813,213,425.2770448548814,421,425.2770448548814" stroke-width="86.12137203166228" style="stroke: rgb(191, 105, 105);"></path><path d="M426,123.16622691292899C634,123.16622691292899,634,123.16622691292848,842,123.16622691292848" stroke-width="246.33245382585753" style="stroke: rgb(191, 156, 105);"></path><path d="M426,314.2744063324541C634,314.2744063324541,634,314.27440633245345,842,314.27440633245345" stroke-width="115.88390501319262" style="stroke: rgb(174, 191, 105);"></path><path d="M426,655.3825857519788C634,655.3825857519788,634,655.382585751979,842,655.382585751979" stroke-width="50.65963060686016" style="stroke: rgb(122, 191, 105);"></path><path d="M426,590.6068601583113C634,590.6068601583113,634,590.6068601583115,842,590.6068601583115" stroke-width="58.89182058047494" style="stroke: rgb(105, 191, 139);"></path><path d="M426,713.1926121372029C634,713.1926121372029,634,713.1926121372032,842,713.1926121372032" stroke-width="44.96042216358839" style="stroke: rgb(105, 191, 191);"></path><path d="M426,764.3535620052768C634,764.3535620052768,634,764.3535620052772,842,764.3535620052772" stroke-width="37.361477572559366" style="stroke: rgb(105, 139, 191);"></path><path d="M426,796.5171503957781C634,796.5171503957781,634,796.5171503957786,842,796.5171503957786" stroke-width="6.965699208443272" style="stroke: rgb(122, 105, 191);"></path><path d="M426,514.7493403693933C634,514.7493403693933,634,514.7493403693932,842,514.7493403693932" stroke-width="72.82321899736148" style="stroke: rgb(174, 105, 191);"></path><path d="M426,425.2770448548814C634,425.2770448548814,634,425.2770448548813,842,425.2770448548813" stroke-width="86.12137203166228" style="stroke: rgb(191, 105, 156);"></path></g><g class="nodes" font-family="Arial, Helvetica" font-size="10"><g><rect x="0" y="40.00000000000006" height="719.9999999999999" width="5" fill="#000"></rect><text x="11" y="400" dy="0.35em" text-anchor="start">State definition</text></g><g><rect x="421" y="793.0343007915565" height="6.965699208443311" width="5" fill="#000"></rect><text x="415" y="796.5171503957781" dy="0.35em" text-anchor="end">Accession_unification</text></g><g><rect x="421" y="478.33773087071256" height="72.82321899736121" width="5" fill="#000"></rect><text x="415" y="514.7493403693932" dy="0.35em" text-anchor="end">Border delimitation</text></g><g><rect x="421" y="382.21635883905026" height="86.1213720316623" width="5" fill="#000"></rect><text x="415" y="425.2770448548814" dy="0.35em" text-anchor="end">Cross_border provision</text></g><g><rect x="421" y="745.6728232189971" height="37.36147757255935" width="5" fill="#000"></rect><text x="415" y="764.3535620052768" dy="0.35em" text-anchor="end">Independence_secession</text></g><g><rect x="421" y="2.2737367544323206e-13" height="246.33245382585758" width="5" fill="#000"></rect><text x="415" y="123.16622691292902" dy="0.35em" text-anchor="end">Nature of State</text></g><g><rect x="421" y="561.1609498680738" height="58.89182058047493" width="5" fill="#000"></rect><text x="415" y="590.6068601583113" dy="0.35em" text-anchor="end">Referendum</text></g><g><rect x="421" y="630.0527704485487" height="50.65963060685999" width="5" fill="#000"></rect><text x="415" y="655.3825857519787" dy="0.35em" text-anchor="end">Self determination</text></g><g><rect x="421" y="256.3324538258578" height="115.88390501319248" width="5" fill="#000"></rect><text x="415" y="314.274406332454" dy="0.35em" text-anchor="end">State configuration</text></g><g><rect x="421" y="690.7124010554087" height="44.96042216358842" width="5" fill="#000"></rect><text x="415" y="713.1926121372029" dy="0.35em" text-anchor="end">State symbols</text></g><g><rect x="842" y="793.0343007915569" height="6.965699208443311" width="5" fill="#000"></rect><text x="836" y="796.5171503957786" dy="0.35em" text-anchor="end">11</text></g><g><rect x="842" y="478.33773087071245" height="72.82321899736155" width="5" fill="#000"></rect><text x="836" y="514.7493403693932" dy="0.35em" text-anchor="end">115</text></g><g><rect x="842" y="382.21635883905014" height="86.1213720316623" width="5" fill="#000"></rect><text x="836" y="425.2770448548813" dy="0.35em" text-anchor="end">136</text></g><g><rect x="842" y="256.33245382585716" height="115.88390501319299" width="5" fill="#000"></rect><text x="836" y="314.2744063324536" dy="0.35em" text-anchor="end">183</text></g><g><rect x="842" y="-2.8421709430404007e-13" height="246.33245382585747" width="5" fill="#000"></rect><text x="836" y="123.16622691292845" dy="0.35em" text-anchor="end">389</text></g><g><rect x="842" y="745.6728232189976" height="37.36147757255935" width="5" fill="#000"></rect><text x="836" y="764.3535620052772" dy="0.35em" text-anchor="end">59</text></g><g><rect x="842" y="690.712401055409" height="44.96042216358853" width="5" fill="#000"></rect><text x="836" y="713.1926121372032" dy="0.35em" text-anchor="end">71</text></g><g><rect x="842" y="630.0527704485489" height="50.659630606860105" width="5" fill="#000"></rect><text x="836" y="655.3825857519789" dy="0.35em" text-anchor="end">80</text></g><g><rect x="842" y="561.160949868074" height="58.89182058047493" width="5" fill="#000"></rect><text x="836" y="590.6068601583115" dy="0.35em" text-anchor="end">93</text></g></g></g></svg>