<svg width="847" height="820" xmlns="http://www.w3.org/2000/svg" version="1.1"><g transform="translate(0, 10)"><g class="links" fill="none" stroke-opacity="0.4"><path d="M5,299.2074592074592C213,299.2074592074592,213,269.20745920745895,421,269.20745920745895" stroke-width="127.06293706293708" style="stroke: rgb(191, 105, 105);"></path><path d="M5,731.8648018648018C213,731.8648018648018,213,771.8648018648022,421,771.8648018648022" stroke-width="26.270396270396272" style="stroke: rgb(191, 105, 105);"></path><path d="M5,491.8123543123543C213,491.8123543123543,213,481.81235431235456,421,481.81235431235456" stroke-width="73.71794871794873" style="stroke: rgb(191, 105, 105);"></path><path d="M5,408.8461538461538C213,408.8461538461538,213,388.84615384615415,421,388.84615384615415" stroke-width="92.21445221445222" style="stroke: rgb(191, 105, 105);"></path><path d="M5,701.3053613053612C213,701.3053613053612,213,731.3053613053614,421,731.3053613053614" stroke-width="34.84848484848485" style="stroke: rgb(191, 105, 105);"></path><path d="M5,665.1165501165501C213,665.1165501165501,213,685.1165501165505,421,685.1165501165505" stroke-width="37.529137529137536" style="stroke: rgb(191, 105, 105);"></path><path d="M5,145.3379953379953C213,145.3379953379953,213,105.33799533799501,421,105.33799533799501" stroke-width="180.6759906759907" style="stroke: rgb(191, 105, 105);"></path><path d="M5,558.560606060606C213,558.560606060606,213,558.5606060606063,421,558.5606060606063" stroke-width="59.778554778554785" style="stroke: rgb(191, 105, 105);"></path><path d="M5,617.4009324009323C213,617.4009324009323,213,627.4009324009327,421,627.4009324009327" stroke-width="57.90209790209791" style="stroke: rgb(191, 105, 105);"></path><path d="M426,237.84382284382258C634,237.84382284382258,634,408.7762237762239,842,408.7762237762239" stroke-width="64.33566433566435" style="stroke: rgb(191, 156, 105);"></path><path d="M426,322.1503496503494C634,322.1503496503494,634,764.9358974358972,842,764.9358974358972" stroke-width="21.177156177156178" style="stroke: rgb(191, 156, 105);"></path><path d="M426,290.786713286713C634,290.786713286713,634,609.3997668997671,842,609.3997668997671" stroke-width="41.550116550116556" style="stroke: rgb(191, 156, 105);"></path><path d="M426,771.8648018648022C634,771.8648018648022,634,698.1585081585081,842,698.1585081585081" stroke-width="26.270396270396272" style="stroke: rgb(174, 191, 105);"></path><path d="M426,481.81235431235456C634,481.81235431235456,634,329.74941724941726,842,329.74941724941726" stroke-width="73.71794871794873" style="stroke: rgb(122, 191, 105);"></path><path d="M426,388.84615384615415C634,388.84615384615415,634,236.7832167832168,842,236.7832167832168" stroke-width="92.21445221445222" style="stroke: rgb(105, 191, 139);"></path><path d="M426,731.3053613053614C634,731.3053613053614,634,657.5990675990676,842,657.5990675990676" stroke-width="34.84848484848485" style="stroke: rgb(105, 191, 191);"></path><path d="M426,696.6433566433569C634,696.6433566433569,634,792.7622377622375,842,792.7622377622375" stroke-width="14.475524475524477" style="stroke: rgb(105, 139, 191);"></path><path d="M426,677.8787878787882C634,677.8787878787882,634,732.8205128205128,842,732.8205128205128" stroke-width="23.053613053613056" style="stroke: rgb(105, 139, 191);"></path><path d="M426,105.33799533799501C634,105.33799533799501,634,90.33799533799541,842,90.33799533799541" stroke-width="180.6759906759907" style="stroke: rgb(122, 105, 191);"></path><path d="M426,558.5606060606063C634,558.5606060606063,634,480.8333333333334,842,480.8333333333334" stroke-width="59.778554778554785" style="stroke: rgb(174, 105, 191);"></path><path d="M426,627.4009324009327C634,627.4009324009327,634,549.6736596736598,842,549.6736596736598" stroke-width="57.90209790209791" style="stroke: rgb(191, 105, 156);"></path></g><g class="nodes" font-family="Arial, Helvetica" font-size="10"><g><rect x="0" y="54.99999999999994" height="690.0000000000001" width="5" fill="#000"></rect><text x="11" y="400" dy="0.35em" text-anchor="start">Governance</text></g><g><rect x="421" y="14.999999999999659" height="180.67599067599076" width="5" fill="#000"></rect><text x="415" y="105.33799533799504" dy="0.35em" text-anchor="end">Civso: Civil Society</text></g><g><rect x="421" y="444.9533799533802" height="73.71794871794879" width="5" fill="#000"></rect><text x="415" y="481.8123543123546" dy="0.35em" text-anchor="end">Constitutional reform and making</text></g><g><rect x="421" y="758.729603729604" height="26.270396270396304" width="5" fill="#000"></rect><text x="415" y="771.8648018648022" dy="0.35em" text-anchor="end">Constitutional renewal and affirmation</text></g><g><rect x="421" y="342.73892773892806" height="92.21445221445214" width="5" fill="#000"></rect><text x="415" y="388.84615384615415" dy="0.35em" text-anchor="end">Elections</text></g><g><rect x="421" y="713.881118881119" height="34.848484848484986" width="5" fill="#000"></rect><text x="415" y="731.3053613053615" dy="0.35em" text-anchor="end">Electoral Commission</text></g><g><rect x="421" y="205.67599067599042" height="127.06293706293764" width="5" fill="#000"></rect><text x="415" y="269.20745920745924" dy="0.35em" text-anchor="end">Political Institutions</text></g><g><rect x="421" y="666.3519813519816" height="37.529137529137415" width="5" fill="#000"></rect><text x="415" y="685.1165501165503" dy="0.35em" text-anchor="end">Political parties reform</text></g><g><rect x="421" y="598.4498834498837" height="57.90209790209792" width="5" fill="#000"></rect><text x="415" y="627.4009324009327" dy="0.35em" text-anchor="end">Pubad: Public Administration (Civil Service)</text></g><g><rect x="421" y="528.671328671329" height="59.778554778554735" width="5" fill="#000"></rect><text x="415" y="558.5606060606063" dy="0.35em" text-anchor="end">Tral: Traditional/Religious Leaders</text></g><g><rect x="842" y="640.1748251748252" height="34.84848484848476" width="5" fill="#000"></rect><text x="836" y="657.5990675990676" dy="0.35em" text-anchor="end">130</text></g><g><rect x="842" y="520.7226107226109" height="57.90209790209792" width="5" fill="#000"></rect><text x="836" y="549.6736596736598" dy="0.35em" text-anchor="end">216</text></g><g><rect x="842" y="450.94405594405606" height="59.778554778554735" width="5" fill="#000"></rect><text x="836" y="480.8333333333334" dy="0.35em" text-anchor="end">223</text></g><g><rect x="842" y="292.8904428904429" height="73.71794871794884" width="5" fill="#000"></rect><text x="836" y="329.7494172494173" dy="0.35em" text-anchor="end">275</text></g><g><rect x="842" y="190.6759906759907" height="92.2144522144522" width="5" fill="#000"></rect><text x="836" y="236.7832167832168" dy="0.35em" text-anchor="end">344</text></g><g><rect x="842" y="5.684341886080802e-14" height="180.67599067599065" width="5" fill="#000"></rect><text x="836" y="90.33799533799538" dy="0.35em" text-anchor="end">674</text></g><g><rect x="842" y="685.0233100233099" height="26.270396270396304" width="5" fill="#000"></rect><text x="836" y="698.1585081585081" dy="0.35em" text-anchor="end">98</text></g><g><rect x="842" y="376.60839160839174" height="64.33566433566432" width="5" fill="#000"></rect><text x="836" y="408.7762237762239" dy="0.35em" text-anchor="end">Gen. Ref. to Political institutions</text></g><g><rect x="842" y="754.3473193473192" height="21.17715617715612" width="5" fill="#000"></rect><text x="836" y="764.9358974358972" dy="0.35em" text-anchor="end">New political institutions</text></g><g><rect x="842" y="721.2937062937062" height="23.053613053612935" width="5" fill="#000"></rect><text x="836" y="732.8205128205127" dy="0.35em" text-anchor="end">Other instances of political party reform and regulation</text></g><g><rect x="842" y="785.5244755244753" height="14.475524475524708" width="5" fill="#000"></rect><text x="836" y="792.7622377622376" dy="0.35em" text-anchor="end">PolParTrans: rebels transitioning to political parties</text></g><g><rect x="842" y="588.6247086247088" height="41.5501165501164" width="5" fill="#000"></rect><text x="836" y="609.399766899767" dy="0.35em" text-anchor="end">temporary institutional arrangement</text></g></g></g></svg>