<svg width="847" height="520" xmlns="http://www.w3.org/2000/svg" version="1.1"><g transform="translate(0, 10)"><g class="links" fill="none" stroke-opacity="0.9"><path d="M5,108.96527285613037C213,108.96527285613037,213,98.96527285613035,421,98.96527285613035" stroke-width="86.74698795180723" style="stroke: rgb(191, 105, 105);"></path><path d="M5,57.79588944011336C213,57.79588944011336,213,37.795889440113335,421,37.795889440113335" stroke-width="15.591778880226789" style="stroke: rgb(191, 105, 105);"></path><path d="M5,367.6470588235294C213,367.6470588235294,213,387.6470588235296,421,387.6470588235296" stroke-width="164.70588235294116" style="stroke: rgb(191, 105, 105);"></path><path d="M5,243.76328844790925C213,243.76328844790925,213,253.7632884479093,421,253.7632884479093" stroke-width="83.06165839829907" style="stroke: rgb(191, 105, 105);"></path><path d="M5,177.28561304039684C213,177.28561304039684,213,177.2856130403969,421,177.2856130403969" stroke-width="49.89369241672573" style="stroke: rgb(191, 105, 105);"></path><path d="M426,125.4712969525159C634,125.4712969525159,634,115.4712969525161,842,115.4712969525161" stroke-width="33.734939759036145" style="stroke: rgb(191, 191, 105);"></path><path d="M426,93.29553508150244C634,93.29553508150244,634,73.29553508150258,842,73.29553508150258" stroke-width="30.616583982990786" style="stroke: rgb(191, 191, 105);"></path><path d="M426,66.78951098511689C634,66.78951098511689,634,36.789510985116976,842,36.789510985116976" stroke-width="22.395464209780297" style="stroke: rgb(191, 191, 105);"></path><path d="M426,37.795889440113335C634,37.795889440113335,634,7.795889440113423,842,7.795889440113423" stroke-width="15.591778880226789" style="stroke: rgb(105, 191, 105);"></path><path d="M426,437.6824946846211C634,437.6824946846211,634,374.6208362863218,842,374.6208362863218" stroke-width="64.63501063075833" style="stroke: rgb(105, 191, 191);"></path><path d="M426,355.1878100637848C634,355.1878100637848,634,212.2324592487599,842,212.2324592487599" stroke-width="30.049610205527994" style="stroke: rgb(105, 191, 191);"></path><path d="M426,326.8391211906452C634,326.8391211906452,634,173.8837703756203,842,173.8837703756203" stroke-width="26.64776754075124" style="stroke: rgb(105, 191, 191);"></path><path d="M426,387.78880226789533C634,387.78880226789533,634,314.72714386959615,842,314.72714386959615" stroke-width="35.152374202693125" style="stroke: rgb(105, 191, 191);"></path><path d="M426,309.4046775336643C634,309.4046775336643,634,146.4493267186394,842,146.4493267186394" stroke-width="8.22111977321049" style="stroke: rgb(105, 191, 191);"></path><path d="M426,253.7632884479093C634,253.7632884479093,634,458.46917080085046,842,458.46917080085046" stroke-width="83.06165839829907" style="stroke: rgb(105, 105, 191);"></path><path d="M426,177.2856130403969C634,177.2856130403969,634,262.2041105598868,842,262.2041105598868" stroke-width="49.89369241672573" style="stroke: rgb(191, 105, 191);"></path></g><g class="nodes" font-family="Arial, Helvetica" font-size="10"><g><rect x="0" y="49.99999999999997" height="400.00000000000006" width="5" fill="#000"></rect><text x="11" y="250" dy="0.35em" text-anchor="start">Land property and environment</text></g><g><rect x="421" y="305.29411764705907" height="164.70588235294102" width="5" fill="#000"></rect><text x="415" y="387.64705882352956" dy="0.35em" text-anchor="end">Cultural heritage</text></g><g><rect x="421" y="212.23245924875977" height="83.0616583982993" width="5" fill="#000"></rect><text x="415" y="253.76328844790942" dy="0.35em" text-anchor="end">Environment</text></g><g><rect x="421" y="55.59177888022674" height="86.74698795180728" width="5" fill="#000"></rect><text x="415" y="98.96527285613038" dy="0.35em" text-anchor="end">Land reform/rights</text></g><g><rect x="421" y="29.999999999999943" height="15.591778880226798" width="5" fill="#000"></rect><text x="415" y="37.79588944011334" dy="0.35em" text-anchor="end">Pastoralist/nomadism rights</text></g><g><rect x="421" y="152.33876683203403" height="49.89369241672574" width="5" fill="#000"></rect><text x="415" y="177.2856130403969" dy="0.35em" text-anchor="end">Water or riparian (river) rights/access</text></g><g><rect x="842" y="237.2572643515239" height="49.893692416725685" width="5" fill="#000"></rect><text x="836" y="262.2041105598868" dy="0.35em" text-anchor="end">176</text></g><g><rect x="842" y="342.3033309709426" height="64.6350106307583" width="5" fill="#000"></rect><text x="836" y="374.6208362863218" dy="0.35em" text-anchor="end">228</text></g><g><rect x="842" y="416.9383416017009" height="83.06165839829902" width="5" fill="#000"></rect><text x="836" y="458.4691708008504" dy="0.35em" text-anchor="end">293</text></g><g><rect x="842" y="2.842170943040401e-14" height="15.591778880226798" width="5" fill="#000"></rect><text x="836" y="7.795889440113427" dy="0.35em" text-anchor="end">55</text></g><g><rect x="842" y="142.33876683203417" height="8.22111977321049" width="5" fill="#000"></rect><text x="836" y="146.4493267186394" dy="0.35em" text-anchor="end">Cultural Heritage Other</text></g><g><rect x="842" y="160.55988660524466" height="26.64776754075126" width="5" fill="#000"></rect><text x="836" y="173.8837703756203" dy="0.35em" text-anchor="end">Cultural Heritage: Intangible</text></g><g><rect x="842" y="297.15095676824956" height="35.15237420269307" width="5" fill="#000"></rect><text x="836" y="314.7271438695961" dy="0.35em" text-anchor="end">Cultural Heritage: Promotion of values</text></g><g><rect x="842" y="197.20765414599592" height="30.049610205527983" width="5" fill="#000"></rect><text x="836" y="212.2324592487599" dy="0.35em" text-anchor="end">Cultural Heritage: Tangible</text></g><g><rect x="842" y="98.60382707299803" height="33.73493975903614" width="5" fill="#000"></rect><text x="836" y="115.4712969525161" dy="0.35em" text-anchor="end">Land reform transfer and management</text></g><g><rect x="842" y="25.591778880226826" height="22.395464209780357" width="5" fill="#000"></rect><text x="836" y="36.789510985117005" dy="0.35em" text-anchor="end">LRR Other</text></g><g><rect x="842" y="57.98724309000718" height="30.616583982990846" width="5" fill="#000"></rect><text x="836" y="73.2955350815026" dy="0.35em" text-anchor="end">Property return restitution and dispute mechanisms</text></g></g></g></svg>