<svg width="847" height="520" xmlns="http://www.w3.org/2000/svg" version="1.1"><g transform="translate(0, 10)"><g class="links" fill="none" stroke-opacity="0.9"><path d="M5,341.3324601095499C213,341.3324601095499,213,386.3324601095499,421,386.3324601095499" stroke-width="63.09121219337938" style="stroke: rgb(191, 105, 105);"></path><path d="M5,271.80876399142653C213,271.80876399142653,213,306.80876399142653,421,306.80876399142653" stroke-width="75.95618004286736" style="stroke: rgb(191, 105, 105);"></path><path d="M5,214.57728030483446C213,214.57728030483446,213,239.57728030483463,421,239.57728030483463" stroke-width="38.50678733031675" style="stroke: rgb(191, 105, 105);"></path><path d="M5,181.57775660871636C213,181.57775660871636,213,196.5777566087165,421,196.5777566087165" stroke-width="27.492260061919506" style="stroke: rgb(191, 105, 105);"></path><path d="M5,145.9788044772565C213,145.9788044772565,213,150.9788044772564,421,150.9788044772564" stroke-width="43.70564420100024" style="stroke: rgb(191, 105, 105);"></path><path d="M5,67.42319599904737C213,67.42319599904737,213,12.42319599904742,421,12.42319599904742" stroke-width="4.846391998094785" style="stroke: rgb(191, 105, 105);"></path><path d="M5,403.93903310311975C213,403.93903310311975,213,458.93903310311975,421,458.93903310311975" stroke-width="62.12193379376042" style="stroke: rgb(191, 105, 105);"></path><path d="M5,81.56584901166943C213,81.56584901166943,213,46.56584901166951,421,46.56584901166951" stroke-width="10.397713741366992" style="stroke: rgb(191, 105, 105);"></path><path d="M5,102.80185758513932C213,102.80185758513932,213,87.80185758513937,421,87.80185758513937" stroke-width="12.160038104310551" style="stroke: rgb(191, 105, 105);"></path><path d="M5,91.74327220766848C213,91.74327220766848,213,66.74327220766851,421,66.74327220766851" stroke-width="9.957132650631102" style="stroke: rgb(191, 105, 105);"></path><path d="M5,73.10669206954034C213,73.10669206954034,213,28.10669206954037,421,28.10669206954037" stroke-width="6.520600142891165" style="stroke: rgb(191, 105, 105);"></path><path d="M5,116.50392950702549C213,116.50392950702549,213,111.50392950702549,421,111.50392950702549" stroke-width="15.244105739461778" style="stroke: rgb(191, 105, 105);"></path><path d="M426,386.3324601095499C634,386.3324601095499,634,396.33246010955014,842,396.33246010955014" stroke-width="63.09121219337938" style="stroke: rgb(191, 145, 105);"></path><path d="M426,315.70850202429153C634,315.70850202429153,634,325.70850202429176,842,325.70850202429176" stroke-width="58.15670397713742" style="stroke: rgb(191, 184, 105);"></path><path d="M426,277.7304120028578C634,277.7304120028578,634,229.22362467254126,842,229.22362467254126" stroke-width="17.799476065729937" style="stroke: rgb(191, 184, 105);"></path><path d="M426,239.57728030483463C634,239.57728030483463,634,267.3767563705647,842,267.3767563705647" stroke-width="38.50678733031675" style="stroke: rgb(158, 191, 105);"></path><path d="M426,196.5777566087165C634,196.5777566087165,634,196.57775660871653,842,196.57775660871653" stroke-width="27.492260061919506" style="stroke: rgb(118, 191, 105);"></path><path d="M426,161.0240533460347C634,161.0240533460347,634,161.0240533460348,842,161.0240533460348" stroke-width="23.61514646344368" style="stroke: rgb(105, 191, 131);"></path><path d="M426,139.17123124553459C634,139.17123124553459,634,129.17123124553456,842,129.17123124553456" stroke-width="20.09049773755656" style="stroke: rgb(105, 191, 131);"></path><path d="M426,12.42319599904742C634,12.42319599904742,634,2.423195999047279,842,2.423195999047279" stroke-width="4.846391998094785" style="stroke: rgb(105, 191, 171);"></path><path d="M426,458.93903310311975C634,458.93903310311975,634,468.9390331031199,842,468.9390331031199" stroke-width="62.12193379376042" style="stroke: rgb(105, 171, 191);"></path><path d="M426,46.56584901166951C634,46.56584901166951,634,36.56584901166926,842,36.56584901166926" stroke-width="10.397713741366992" style="stroke: rgb(105, 131, 191);"></path><path d="M426,87.80185758513937C634,87.80185758513937,634,77.80185758513912,842,77.80185758513912" stroke-width="12.160038104310551" style="stroke: rgb(118, 105, 191);"></path><path d="M426,66.74327220766851C634,66.74327220766851,634,56.743272207668255,842,56.743272207668255" stroke-width="9.957132650631102" style="stroke: rgb(158, 105, 191);"></path><path d="M426,28.10669206954037C634,28.10669206954037,634,18.106692069540227,842,18.106692069540227" stroke-width="6.520600142891165" style="stroke: rgb(191, 105, 184);"></path><path d="M426,111.50392950702549C634,111.50392950702549,634,101.50392950702535,842,101.50392950702535" stroke-width="15.244105739461778" style="stroke: rgb(191, 105, 145);"></path></g><g class="nodes" font-family="Arial, Helvetica" font-size="10"><g><rect x="0" y="64.99999999999997" height="370.00000000000006" width="5" fill="#000"></rect><text x="11" y="250" dy="0.35em" text-anchor="start">Security Sector</text></g><g><rect x="421" y="182.83162657775674" height="27.492260061919524" width="5" fill="#000"></rect><text x="415" y="196.5777566087165" dy="0.35em" text-anchor="end">Armed Forces</text></g><g><rect x="421" y="268.83067396999286" height="75.95618004286735" width="5" fill="#000"></rect><text x="415" y="306.80876399142653" dy="0.35em" text-anchor="end">Ceasefire: Ce</text></g><g><rect x="421" y="81.7218385329841" height="12.160038104310502" width="5" fill="#000"></rect><text x="415" y="87.80185758513935" dy="0.35em" text-anchor="end">Cor: Corruption</text></g><g><rect x="421" y="129.1259823767563" height="43.70564420100044" width="5" fill="#000"></rect><text x="415" y="150.97880447725652" dy="0.35em" text-anchor="end">DDR</text></g><g><rect x="421" y="220.32388663967626" height="38.50678733031657" width="5" fill="#000"></rect><text x="415" y="239.57728030483455" dy="0.35em" text-anchor="end">Police</text></g><g><rect x="421" y="61.764705882352956" height="9.957132650631138" width="5" fill="#000"></rect><text x="415" y="66.74327220766853" dy="0.35em" text-anchor="end">SsrCrOcr: Crime/Organised crime</text></g><g><rect x="421" y="24.846391998094788" height="6.520600142891226" width="5" fill="#000"></rect><text x="415" y="28.1066920695404" dy="0.35em" text-anchor="end">SsrDrugs: Drugs</text></g><g><rect x="421" y="41.366992140986014" height="10.397713741366942" width="5" fill="#000"></rect><text x="415" y="46.565849011669485" dy="0.35em" text-anchor="end">SsrFf: Withdrawal of foreign forces</text></g><g><rect x="421" y="354.7868540128602" height="63.09121219337936" width="5" fill="#000"></rect><text x="415" y="386.33246010954986" dy="0.35em" text-anchor="end">SsrGua: Security Sector</text></g><g><rect x="421" y="10.000000000000028" height="4.846391998094759" width="5" fill="#000"></rect><text x="415" y="12.423195999047408" dy="0.35em" text-anchor="end">SsrInt: Intelligence service</text></g><g><rect x="421" y="427.87806620623957" height="62.121933793760434" width="5" fill="#000"></rect><text x="415" y="458.93903310311975" dy="0.35em" text-anchor="end">SsrPsf: Rebel/opposition/Para-statal forces</text></g><g><rect x="421" y="103.8818766372946" height="15.244105739461702" width="5" fill="#000"></rect><text x="415" y="111.50392950702545" dy="0.35em" text-anchor="end">Terr: Terrorism</text></g><g><rect x="842" y="51.7647058823527" height="9.957132650631138" width="5" fill="#000"></rect><text x="836" y="56.74327220766827" dy="0.35em" text-anchor="end">113</text></g><g><rect x="842" y="31.366992140985758" height="10.397713741366942" width="5" fill="#000"></rect><text x="836" y="36.56584901166923" dy="0.35em" text-anchor="end">118</text></g><g><rect x="842" y="71.72183853298384" height="12.160038104310615" width="5" fill="#000"></rect><text x="836" y="77.80185758513915" dy="0.35em" text-anchor="end">138</text></g><g><rect x="842" y="93.88187663729445" height="15.244105739461816" width="5" fill="#000"></rect><text x="836" y="101.50392950702536" dy="0.35em" text-anchor="end">173</text></g><g><rect x="842" y="182.83162657775677" height="27.492260061919524" width="5" fill="#000"></rect><text x="836" y="196.57775660871653" dy="0.35em" text-anchor="end">312</text></g><g><rect x="842" y="248.1233627054063" height="38.50678733031674" width="5" fill="#000"></rect><text x="836" y="267.37675637056464" dy="0.35em" text-anchor="end">437</text></g><g><rect x="842" y="-1.1368683772161603e-13" height="4.846391998094759" width="5" fill="#000"></rect><text x="836" y="2.423195999047266" dy="0.35em" text-anchor="end">55</text></g><g><rect x="842" y="437.87806620623974" height="62.121933793760405" width="5" fill="#000"></rect><text x="836" y="468.9390331031199" dy="0.35em" text-anchor="end">705</text></g><g><rect x="842" y="364.78685401286043" height="63.091212193379306" width="5" fill="#000"></rect><text x="836" y="396.3324601095501" dy="0.35em" text-anchor="end">716</text></g><g><rect x="842" y="14.846391998094646" height="6.520600142891112" width="5" fill="#000"></rect><text x="836" y="18.106692069540202" dy="0.35em" text-anchor="end">74</text></g><g><rect x="842" y="296.63015003572303" height="58.15670397713737" width="5" fill="#000"></rect><text x="836" y="325.7085020242917" dy="0.35em" text-anchor="end">asefire provisions</text></g><g><rect x="842" y="119.12598237675627" height="20.09049773755669" width="5" fill="#000"></rect><text x="836" y="129.1712312455346" dy="0.35em" text-anchor="end">DDR Programme</text></g><g><rect x="842" y="149.21648011431296" height="23.615146463443807" width="5" fill="#000"></rect><text x="836" y="161.02405334603486" dy="0.35em" text-anchor="end">Demilitarisation</text></g><g><rect x="842" y="220.3238866396763" height="17.799476065730005" width="5" fill="#000"></rect><text x="836" y="229.2236246725413" dy="0.35em" text-anchor="end">General references to ceasefires</text></g></g></g></svg>