<svg width="847" height="520" xmlns="http://www.w3.org/2000/svg" version="1.1"><g transform="translate(0, 10)"><g class="links" fill="none" stroke-opacity="0.9"><path d="M5,117.03320631464345C213,117.03320631464345,213,102.03320631464344,421,102.03320631464344" stroke-width="18.813282525857375" style="stroke: rgb(191, 105, 105);"></path><path d="M5,213.84322264561786C213,213.84322264561786,213,228.84322264561783,421,228.84322264561783" stroke-width="48.60097985846489" style="stroke: rgb(191, 105, 105);"></path><path d="M5,83.42406096897115C213,83.42406096897115,213,48.424060968971226,421,48.424060968971226" stroke-width="19.79314099074578" style="stroke: rgb(191, 105, 105);"></path><path d="M5,137.90419161676647C213,137.90419161676647,213,132.9041916167665,421,132.9041916167665" stroke-width="22.928688078388678" style="stroke: rgb(191, 105, 105);"></path><path d="M5,315.0626020685901C213,315.0626020685901,213,350.06260206858997,421,350.06260206858997" stroke-width="64.08274360370169" style="stroke: rgb(191, 105, 105);"></path><path d="M5,71.76374523679912C213,71.76374523679912,213,26.763745236799185,421,26.763745236799185" stroke-width="3.5274904735982577" style="stroke: rgb(191, 105, 105);"></path><path d="M5,260.5824714207948C213,260.5824714207948,213,285.5824714207946,421,285.5824714207946" stroke-width="44.87751769188895" style="stroke: rgb(191, 105, 105);"></path><path d="M5,100.4735982580294C213,100.4735982580294,213,75.47359825802945,421,75.47359825802945" stroke-width="14.305933587370713" style="stroke: rgb(191, 105, 105);"></path><path d="M5,169.4556341861731C213,169.4556341861731,213,174.45563418617309,421,174.45563418617309" stroke-width="40.1741970604246" style="stroke: rgb(191, 105, 105);"></path><path d="M5,388.5519869352204C213,388.5519869352204,213,433.5519869352204,421,433.5519869352204" stroke-width="82.89602612955906" style="stroke: rgb(191, 105, 105);"></path><path d="M426,102.03320631464344C634,102.03320631464344,634,87.03320631464324,842,87.03320631464324" stroke-width="18.813282525857375" style="stroke: rgb(191, 152, 105);"></path><path d="M426,234.03647250952636C634,234.03647250952636,634,259.03647250952673,842,259.03647250952673" stroke-width="38.21448013064779" style="stroke: rgb(183, 191, 105);"></path><path d="M426,211.98965704953724C634,211.98965704953724,634,180.73489384866647,842,180.73489384866647" stroke-width="5.87915078933043" style="stroke: rgb(183, 191, 105);"></path><path d="M426,207.18835057158407C634,207.18835057158407,634,165.93358737071318,842,165.93358737071318" stroke-width="3.723462166575939" style="stroke: rgb(183, 191, 105);"></path><path d="M426,204.93467610234075C634,204.93467610234075,634,153.67991290146986,842,153.67991290146986" stroke-width="0.783886771910724" style="stroke: rgb(183, 191, 105);"></path><path d="M426,51.46162221012528C634,51.46162221012528,634,36.46162221012504,842,36.46162221012504" stroke-width="13.71801850843767" style="stroke: rgb(136, 191, 105);"></path><path d="M426,41.56505171475239C634,41.56505171475239,634,16.565051714752077,842,16.565051714752077" stroke-width="6.075122482308111" style="stroke: rgb(136, 191, 105);"></path><path d="M426,132.9041916167665C634,132.9041916167665,634,131.82362547632,842,131.82362547632" stroke-width="22.928688078388678" style="stroke: rgb(105, 191, 121);"></path><path d="M426,350.06260206858997C634,350.06260206858997,634,375.0626020685902,842,375.0626020685902" stroke-width="64.08274360370169" style="stroke: rgb(105, 191, 167);"></path><path d="M426,26.763745236799185C634,26.763745236799185,634,1.763745236798873,842,1.763745236798873" stroke-width="3.5274904735982577" style="stroke: rgb(105, 167, 191);"></path><path d="M426,285.5824714207946C634,285.5824714207946,634,310.58247142079483,842,310.58247142079483" stroke-width="44.87751769188895" style="stroke: rgb(105, 121, 191);"></path><path d="M426,75.47359825802945C634,75.47359825802945,634,60.47359825802926,842,60.47359825802926" stroke-width="14.305933587370713" style="stroke: rgb(136, 105, 191);"></path><path d="M426,156.3282525857376C634,156.3282525857376,634,108.39956450734876,842,108.39956450734876" stroke-width="3.91943385955362" style="stroke: rgb(183, 105, 191);"></path><path d="M426,176.41535111594987C634,176.41535111594987,634,211.80185084376728,842,211.80185084376728" stroke-width="36.25476320087098" style="stroke: rgb(183, 105, 191);"></path><path d="M426,433.5519869352204C634,433.5519869352204,634,458.5519869352207,842,458.5519869352207" stroke-width="82.89602612955906" style="stroke: rgb(191, 105, 152);"></path></g><g class="nodes" font-family="Arial, Helvetica" font-size="10"><g><rect x="0" y="70" height="360" width="5" fill="#000"></rect><text x="11" y="250" dy="0.35em" text-anchor="start">Transitional Justice</text></g><g><rect x="421" y="204.5427327163854" height="48.60097985846477" width="5" fill="#000"></rect><text x="415" y="228.84322264561777" dy="0.35em" text-anchor="end">Amnesty/pardon</text></g><g><rect x="421" y="38.527490473598334" height="19.79314099074577" width="5" fill="#000"></rect><text x="415" y="48.42406096897122" dy="0.35em" text-anchor="end">Courts</text></g><g><rect x="421" y="121.43984757757215" height="22.92868807838863" width="5" fill="#000"></rect><text x="415" y="132.90419161676647" dy="0.35em" text-anchor="end">Mechanism</text></g><g><rect x="421" y="68.3206314643441" height="14.305933587370646" width="5" fill="#000"></rect><text x="415" y="75.47359825802943" dy="0.35em" text-anchor="end">Missing</text></g><g><rect x="421" y="318.0212302667391" height="64.08274360370172" width="5" fill="#000"></rect><text x="415" y="350.06260206858997" dy="0.35em" text-anchor="end">Prisoner release</text></g><g><rect x="421" y="392.1039738704408" height="82.89602612955912" width="5" fill="#000"></rect><text x="415" y="433.5519869352204" dy="0.35em" text-anchor="end">Reconciliation</text></g><g><rect x="421" y="154.36853565596078" height="40.1741970604246" width="5" fill="#000"></rect><text x="415" y="174.45563418617309" dy="0.35em" text-anchor="end">Reparations</text></g><g><rect x="421" y="92.62656505171475" height="18.813282525857403" width="5" fill="#000"></rect><text x="415" y="102.03320631464345" dy="0.35em" text-anchor="end">TjGen: Transitional Justice General</text></g><g><rect x="421" y="25.000000000000057" height="3.5274904735982773" width="5" fill="#000"></rect><text x="415" y="26.763745236799195" dy="0.35em" text-anchor="end">Vetting</text></g><g><rect x="421" y="263.14371257485016" height="44.877517691888954" width="5" fill="#000"></rect><text x="415" y="285.5824714207946" dy="0.35em" text-anchor="end">Victims</text></g><g><rect x="842" y="120.35928143712565" height="22.92868807838886" width="5" fill="#000"></rect><text x="836" y="131.82362547632007" dy="0.35em" text-anchor="end">117</text></g><g><rect x="842" y="-2.5579538487363607e-13" height="3.5274904735982773" width="5" fill="#000"></rect><text x="836" y="1.7637452367988828" dy="0.35em" text-anchor="end">18</text></g><g><rect x="842" y="288.1437125748504" height="44.877517691888954" width="5" fill="#000"></rect><text x="836" y="310.58247142079483" dy="0.35em" text-anchor="end">229</text></g><g><rect x="842" y="343.02123026673934" height="64.08274360370186" width="5" fill="#000"></rect><text x="836" y="375.06260206859025" dy="0.35em" text-anchor="end">327</text></g><g><rect x="842" y="417.1039738704412" height="82.89602612955905" width="5" fill="#000"></rect><text x="836" y="458.5519869352207" dy="0.35em" text-anchor="end">423</text></g><g><rect x="842" y="53.320631464343904" height="14.305933587370646" width="5" fill="#000"></rect><text x="836" y="60.47359825802923" dy="0.35em" text-anchor="end">73</text></g><g><rect x="842" y="77.62656505171455" height="18.813282525857403" width="5" fill="#000"></rect><text x="836" y="87.03320631464325" dy="0.35em" text-anchor="end">96</text></g><g><rect x="842" y="153.2879695155145" height="0.7838867719107157" width="5" fill="#000"></rect><text x="836" y="153.67991290146986" dy="0.35em" text-anchor="end">Amnesty prohibition</text></g><g><rect x="842" y="239.92923244420282" height="38.21448013064759" width="5" fill="#000"></rect><text x="836" y="259.0364725095266" dy="0.35em" text-anchor="end">Amnesty/pardon proper</text></g><g><rect x="842" y="13.527490473598021" height="6.075122482308188" width="5" fill="#000"></rect><text x="836" y="16.565051714752116" dy="0.35em" text-anchor="end">International Courts</text></g><g><rect x="842" y="193.6744692433318" height="36.254763200871025" width="5" fill="#000"></rect><text x="836" y="211.8018508437673" dy="0.35em" text-anchor="end">Material reparations (includes compensation)</text></g><g><rect x="842" y="29.60261295590621" height="13.718018508437694" width="5" fill="#000"></rect><text x="836" y="36.46162221012506" dy="0.35em" text-anchor="end">National Courts</text></g><g><rect x="842" y="164.07185628742522" height="3.7234621665760415" width="5" fill="#000"></rect><text x="836" y="165.93358737071324" dy="0.35em" text-anchor="end">Power to amnesty</text></g><g><rect x="842" y="177.79531845400126" height="5.879150789330538" width="5" fill="#000"></rect><text x="836" y="180.73489384866653" dy="0.35em" text-anchor="end">Relief of other Sanctions</text></g><g><rect x="842" y="106.43984757757195" height="3.919433859553692" width="5" fill="#000"></rect><text x="836" y="108.3995645073488" dy="0.35em" text-anchor="end">symbolic reparations</text></g></g></g></svg>