<svg width="2500" height="3520" xmlns="http://www.w3.org/2000/svg" version="1.1"><g transform="translate(0, 10)"><g class="links" fill="none" stroke-opacity="8"><path d="M5,3021.0357269608435C626.25,3021.0357269608435,626.25,3076.0357269608417,1247.5,3076.0357269608417" stroke-width="67.92854607831539" style="stroke: rgb(191, 105, 105);"></path><path d="M5,1732.0401041050523C626.25,1732.0401041050523,626.25,1707.0401041050532,1247.5,1707.0401041050532" stroke-width="264.92132970543" style="stroke: rgb(191, 105, 105);"></path><path d="M5,1994.0281556843731C626.25,1994.0281556843731,626.25,1979.0281556843734,1247.5,1979.0281556843734" stroke-width="259.0547734532119" style="stroke: rgb(191, 105, 105);"></path><path d="M5,1438.3520643558506C626.25,1438.3520643558506,626.25,1403.3520643558509,1247.5,1403.3520643558509" stroke-width="322.4547497929729" style="stroke: rgb(191, 105, 105);"></path><path d="M5,1077.147166686384C626.25,1077.147166686384,626.25,1032.1471666863845,1247.5,1032.1471666863845" stroke-width="399.95504554596005" style="stroke: rgb(191, 105, 105);"></path><path d="M5,2949.8651366378813C626.25,2949.8651366378813,626.25,2994.86513663788,1247.5,2994.86513663788" stroke-width="74.41263456760913" style="stroke: rgb(191, 105, 105);"></path><path d="M5,2588.1970897906076C626.25,2588.1970897906076,626.25,2603.197089790607,1247.5,2603.197089790607" stroke-width="145.2229977522773" style="stroke: rgb(191, 105, 105);"></path><path d="M5,2728.222524547499C626.25,2728.222524547499,626.25,2753.2225245474983,1247.5,2753.2225245474983" stroke-width="134.8278717615048" style="stroke: rgb(191, 105, 105);"></path><path d="M5,661.0848219567022C626.25,661.0848219567022,626.25,606.0848219567024,1247.5,606.0848219567024" stroke-width="432.16964391340355" style="stroke: rgb(191, 105, 105);"></path><path d="M5,2225.036673370402C626.25,2225.036673370402,626.25,2220.0366733704013,1247.5,2220.0366733704013" stroke-width="202.9622619188454" style="stroke: rgb(191, 105, 105);"></path><path d="M5,2854.1476398911636C626.25,2854.1476398911636,626.25,2889.147639891163,1247.5,2889.147639891163" stroke-width="117.02235892582516" style="stroke: rgb(191, 105, 105);"></path><path d="M5,2421.0516976221465C626.25,2421.0516976221465,626.25,2426.051697622146,1247.5,2426.051697622146" stroke-width="189.06778658464452" style="stroke: rgb(191, 105, 105);"></path><path d="M1252.5,3060.7518040932205C1873.75,3060.7518040932205,1873.75,1858.0888441973245,2495,1858.0888441973245" stroke-width="37.36070034307347" style="stroke: rgb(191, 145, 105);"></path><path d="M1252.5,3104.030521708268C1873.75,3104.030521708268,1873.75,3161.2279664024627,2495,3161.2279664024627" stroke-width="9.674671714184313" style="stroke: rgb(191, 145, 105);"></path><path d="M1252.5,3109.4339287826797C1873.75,3109.4339287826797,1873.75,3499.4339287826842,2495,3499.4339287826842" stroke-width="1.13214243463859" style="stroke: rgb(191, 145, 105);"></path><path d="M1252.5,3089.312670057967C1873.75,3089.312670057967,1873.75,2621.1238613509995,2495,2621.1238613509995" stroke-width="19.761031586419023" style="stroke: rgb(191, 145, 105);"></path><path d="M1252.5,1668.3414172483158C1873.75,1668.3414172483158,1873.75,1438.8063409440408,2495,1438.8063409440408" stroke-width="48.78504672897196" style="stroke: rgb(191, 184, 105);"></path><path d="M1252.5,1834.4575890216506C1873.75,1834.4575890216506,1873.75,3121.466934816043,2495,3121.466934816043" stroke-width="10.08635987223471" style="stroke: rgb(191, 184, 105);"></path><path d="M1252.5,1742.2909026381183C1873.75,1742.2909026381183,1873.75,2245.4306163492224,2495,2245.4306163492224" stroke-width="28.303560865964748" style="stroke: rgb(191, 184, 105);"></path><path d="M1252.5,1710.436531408969C1873.75,1710.436531408969,1873.75,1951.6266414290765,2495,1951.6266414290765" stroke-width="35.40518159233408" style="stroke: rgb(191, 184, 105);"></path><path d="M1252.5,1822.7244765172143C1873.75,1822.7244765172143,1873.75,2907.3263929965706,2495,2907.3263929965706" stroke-width="13.37986513663788" style="stroke: rgb(191, 184, 105);"></path><path d="M1252.5,1808.8300011830136C1873.75,1808.8300011830136,1873.75,2811.3368035017156,2495,2811.3368035017156" stroke-width="14.409085531763871" style="stroke: rgb(191, 184, 105);"></path><path d="M1252.5,1609.264166568084C1873.75,1609.264166568084,1873.75,984.495445403996,2495,984.495445403996" stroke-width="69.36945463149178" style="stroke: rgb(191, 184, 105);"></path><path d="M1252.5,1767.9184904767556C1873.75,1767.9184904767556,1873.75,2463.8276351591135,2495,2463.8276351591135" stroke-width="22.951614811309597" style="stroke: rgb(191, 184, 105);"></path><path d="M1252.5,1790.5098781497709C1873.75,1790.5098781497709,1873.75,2496.419022832129,2495,2496.419022832129" stroke-width="22.2311605347214" style="stroke: rgb(191, 184, 105);"></path><path d="M1252.5,1996.1646752632212C1873.75,1996.1646752632212,1873.75,1810.4708387554701,2495,1810.4708387554701" stroke-width="37.87531054063646" style="stroke: rgb(158, 191, 105);"></path><path d="M1252.5,2056.3226073583355C1873.75,2056.3226073583355,1873.75,2761.5408730628183,2495,2761.5408730628183" stroke-width="15.335383887377263" style="stroke: rgb(158, 191, 105);"></path><path d="M1252.5,2084.1115580267374C1873.75,2084.1115580267374,1873.75,3080.8310658937667,2495,3080.8310658937667" stroke-width="10.395125990772508" style="stroke: rgb(158, 191, 105);"></path><path d="M1252.5,2107.320477936829C1873.75,2107.320477936829,1873.75,3441.3545486809444,2495,3441.3545486809444" stroke-width="2.470128948302378" style="stroke: rgb(158, 191, 105);"></path><path d="M1252.5,1886.912930320597C1873.75,1886.912930320597,1873.75,653.2775346030963,2495,653.2775346030963" stroke-width="74.82432272565953" style="stroke: rgb(158, 191, 105);"></path><path d="M1252.5,2031.878622974093C1873.75,2031.878622974093,1873.75,2039.7610315864167,2495,2039.7610315864167" stroke-width="33.5525848811073" style="stroke: rgb(158, 191, 105);"></path><path d="M1252.5,2071.4521471666876C1873.75,2071.4521471666876,1873.75,2786.6704128711704,2495,2786.6704128711704" stroke-width="14.923695729326866" style="stroke: rgb(158, 191, 105);"></path><path d="M1252.5,2102.8948302377867C1873.75,2102.8948302377867,1873.75,3320.700343073466,2495,3320.700343073466" stroke-width="6.381166449781143" style="stroke: rgb(158, 191, 105);"></path><path d="M1252.5,1950.776055838165C1873.75,1950.776055838165,1873.75,1256.4817224653941,2495,1256.4817224653941" stroke-width="52.90192830947593" style="stroke: rgb(158, 191, 105);"></path><path d="M1252.5,2094.50668401751C1873.75,2094.50668401751,1873.75,3101.2261918845393,2495,3101.2261918845393" stroke-width="10.395125990772508" style="stroke: rgb(158, 191, 105);"></path><path d="M1252.5,1411.637288536615C1873.75,1411.637288536615,1873.75,1379.1979178989677,2495,1379.1979178989677" stroke-width="50.43179936117355" style="stroke: rgb(118, 191, 105);"></path><path d="M1252.5,1459.238731811192C1873.75,1459.238731811192,1873.75,1605.6411924760412,2495,1605.6411924760412" stroke-width="44.7710871879806" style="stroke: rgb(118, 191, 105);"></path><path d="M1252.5,1285.9694782917315C1873.75,1285.9694782917315,1873.75,472.0501597066098,2495,472.0501597066098" stroke-width="87.68957766473441" style="stroke: rgb(118, 191, 105);"></path><path d="M1252.5,1501.5911510706264C1873.75,1501.5911510706264,1873.75,1761.5663078197078,2495,1761.5663078197078" stroke-width="39.93375133088844" style="stroke: rgb(118, 191, 105);"></path><path d="M1252.5,1555.0076895776656C1873.75,1555.0076895776656,1873.75,3039.7835088134407,2495,3039.7835088134407" stroke-width="10.909736188335502" style="stroke: rgb(118, 191, 105);"></path><path d="M1252.5,1562.5209984620853C1873.75,1562.5209984620853,1873.75,3414.150005915062,2495,3414.150005915062" stroke-width="4.116881580503963" style="stroke: rgb(118, 191, 105);"></path><path d="M1252.5,1358.1178279900635C1873.75,1358.1178279900635,1873.75,1127.2814385425274,2495,1127.2814385425274" stroke-width="56.607121731929496" style="stroke: rgb(118, 191, 105);"></path><path d="M1252.5,1535.5554241097843C1873.75,1535.5554241097843,1873.75,2321.7804329823703,2495,2321.7804329823703" stroke-width="27.99479474742695" style="stroke: rgb(118, 191, 105);"></path><path d="M1252.5,1211.6946646161136C1873.75,1211.6946646161136,1873.75,1905.3466225008854,2495,1905.3466225008854" stroke-width="37.15485626404827" style="stroke: rgb(105, 191, 131);"></path><path d="M1252.5,1170.5773098308305C1873.75,1170.5773098308305,1873.75,1495.738790961786,2495,1495.738790961786" stroke-width="45.079853306518395" style="stroke: rgb(105, 191, 131);"></path><path d="M1252.5,1231.1983911037512C1873.75,1231.1983911037512,1873.75,3453.515911510708,2495,3453.515911510708" stroke-width="1.8525967112267834" style="stroke: rgb(105, 191, 131);"></path><path d="M1252.5,1120.8145037264887C1873.75,1120.8145037264887,1873.75,1192.8078788595742,2495,1192.8078788595742" stroke-width="54.44575890216491" style="stroke: rgb(105, 191, 131);"></path><path d="M1252.5,1057.157222287946C1873.75,1057.157222287946,1873.75,820.8162782444075,2495,820.8162782444075" stroke-width="72.86880397492016" style="stroke: rgb(105, 191, 131);"></path><path d="M1252.5,926.4462321069453C1873.75,926.4462321069453,1873.75,94.27658819353758,2495,94.27658819353758" stroke-width="188.55317638708152" style="stroke: rgb(105, 191, 131);"></path><path d="M1252.5,2995.9972790725183C1873.75,2995.9972790725183,1873.75,2528.3928782680687,2495,2528.3928782680687" stroke-width="21.716550337158406" style="stroke: rgb(105, 191, 171);"></path><path d="M1252.5,3029.035253756063C1873.75,3029.035253756063,1873.75,3352.999526795222,2495,3352.999526795222" stroke-width="6.072400331243346" style="stroke: rgb(105, 191, 171);"></path><path d="M1252.5,2971.398911629007C1873.75,2971.398911629007,1873.75,2359.5179226310165,2495,2359.5179226310165" stroke-width="27.480184549863953" style="stroke: rgb(105, 191, 171);"></path><path d="M1252.5,3022.7570093457944C1873.75,3022.7570093457944,1873.75,3304.2677156039285,2495,3304.2677156039285" stroke-width="6.484088489293742" style="stroke: rgb(105, 191, 171);"></path><path d="M1252.5,3013.1852596711224C1873.75,3013.1852596711224,1873.75,2930.346030994914,2495,2930.346030994914" stroke-width="12.659410860049688" style="stroke: rgb(105, 191, 171);"></path><path d="M1252.5,2606.130367916716C1873.75,2606.130367916716,1873.75,2124.3960724003296,2495,2124.3960724003296" stroke-width="31.49414409085532" style="stroke: rgb(105, 171, 191);"></path><path d="M1252.5,2672.978232580149C1873.75,2672.978232580149,1873.75,3368.8660830474405,2495,3368.8660830474405" stroke-width="5.660712173192949" style="stroke: rgb(105, 171, 191);"></path><path d="M1252.5,2560.4844433928783C1873.75,2560.4844433928783,1873.75,1059.0790251981518,2495,1059.0790251981518" stroke-width="59.79770495682006" style="stroke: rgb(105, 171, 191);"></path><path d="M1252.5,2636.955518750739C1873.75,2636.955518750739,1873.75,2206.2007571276445,2495,2206.2007571276445" stroke-width="30.156157577191532" style="stroke: rgb(105, 171, 191);"></path><path d="M1252.5,2661.0907370164437C1873.75,2661.0907370164437,1873.75,2707.010528806341,2495,2707.010528806341" stroke-width="18.11427895421744" style="stroke: rgb(105, 171, 191);"></path><path d="M1252.5,2746.2752868803977C1873.75,2746.2752868803977,1873.75,259.01987460073076,2495,259.01987460073076" stroke-width="120.93339642730392" style="stroke: rgb(105, 131, 191);"></path><path d="M1252.5,2813.68922276115C1873.75,2813.68922276115,1873.75,2883.689222761151,2495,2883.689222761151" stroke-width="13.894475334200877" style="stroke: rgb(105, 131, 191);"></path><path d="M1252.5,515.5648882053716C1873.75,515.5648882053716,1873.75,737.5357861114369,2495,737.5357861114369" stroke-width="73.69218029102095" style="stroke: rgb(118, 105, 191);"></path><path d="M1252.5,434.3593990299309C1873.75,434.3593990299309,1873.75,373.8459718443127,2495,373.8459718443127" stroke-width="88.7187980598604" style="stroke: rgb(118, 105, 191);"></path><path d="M1252.5,698.5088134390164C1873.75,698.5088134390164,1873.75,1550.7671832485478,2495,1550.7671832485478" stroke-width="44.976931267005796" style="stroke: rgb(118, 105, 191);"></path><path d="M1252.5,737.0531172364848C1873.75,737.0531172364848,1873.75,2082.5931621909363,2495,2082.5931621909363" stroke-width="32.111676327930915" style="stroke: rgb(118, 105, 191);"></path><path d="M1252.5,650.495682006389C1873.75,650.495682006389,1873.75,1318.4573524192565,2495,1318.4573524192565" stroke-width="51.04933159824915" style="stroke: rgb(118, 105, 191);"></path><path d="M1252.5,819.3392878268078C1873.75,819.3392878268078,1873.75,3384.5267952206336,2495,3384.5267952206336" stroke-width="5.660712173192949" style="stroke: rgb(118, 105, 191);"></path><path d="M1252.5,588.6909972790733C1873.75,588.6909972790733,1873.75,903.530699160059,2495,903.530699160059" stroke-width="72.56003785638235" style="stroke: rgb(118, 105, 191);"></path><path d="M1252.5,791.190110020112C1873.75,791.190110020112,1873.75,2952.748136756183,2495,2952.748136756183" stroke-width="12.144800662486691" style="stroke: rgb(118, 105, 191);"></path><path d="M1252.5,778.0160889624993C1873.75,778.0160889624993,1873.75,2835.6429669939675,2495,2835.6429669939675" stroke-width="14.203241452738673" style="stroke: rgb(118, 105, 191);"></path><path d="M1252.5,803.0776055838172C1873.75,803.0776055838172,1873.75,3018.513545486811,2495,3018.513545486811" stroke-width="11.630190464923697" style="stroke: rgb(118, 105, 191);"></path><path d="M1252.5,812.7008162782452C1873.75,812.7008162782452,1873.75,3235.809771678695,2495,3235.809771678695" stroke-width="7.616230923932332" style="stroke: rgb(118, 105, 191);"></path><path d="M1252.5,762.0117118182901C1873.75,762.0117118182901,1873.75,2734.9704247012896,2495,2734.9704247012896" stroke-width="17.80551283567964" style="stroke: rgb(118, 105, 191);"></path><path d="M1252.5,2158.5407547616232C1873.75,2158.5407547616232,1873.75,565.8801608896216,2495,565.8801608896216" stroke-width="79.97042470128949" style="stroke: rgb(158, 105, 191);"></path><path d="M1252.5,2300.779013368035C1873.75,2300.779013368035,1873.75,3217.9362356559814,2495,3217.9362356559814" stroke-width="8.130841121495328" style="stroke: rgb(158, 105, 191);"></path><path d="M1252.5,2268.152726842541C1873.75,2268.152726842541,1873.75,2590.7967585472607,2495,2590.7967585472607" stroke-width="20.893174021057614" style="stroke: rgb(158, 105, 191);"></path><path d="M1252.5,2214.0157340589144C1873.75,2214.0157340589144,1873.75,2165.632911392403,2495,2165.632911392403" stroke-width="30.979533893292324" style="stroke: rgb(158, 105, 191);"></path><path d="M1252.5,2243.605820418786C1873.75,2243.605820418786,1873.75,2283.6827161954307,2495,2283.6827161954307" stroke-width="28.20063882645215" style="stroke: rgb(158, 105, 191);"></path><path d="M1252.5,2287.656453330179C1873.75,2287.656453330179,1873.75,2678.8962498521237,2495,2678.8962498521237" stroke-width="18.11427895421744" style="stroke: rgb(158, 105, 191);"></path><path d="M1252.5,2308.1379391931864C1873.75,2308.1379391931864,1873.75,3287.7321660948787,2495,3287.7321660948787" stroke-width="6.587010528806341" style="stroke: rgb(158, 105, 191);"></path><path d="M1252.5,2318.1213770259083C1873.75,2318.1213770259083,1873.75,3428.1639654560536,2495,3428.1639654560536" stroke-width="3.911037501478765" style="stroke: rgb(158, 105, 191);"></path><path d="M1252.5,2313.798651366379C1873.75,2313.798651366379,1873.75,3399.72435821602,2495,3399.72435821602" stroke-width="4.734413817579558" style="stroke: rgb(158, 105, 191);"></path><path d="M1252.5,2320.7973500532357C1873.75,2320.7973500532357,1873.75,3477.0152608541375,2495,3477.0152608541375" stroke-width="1.4409085531763872" style="stroke: rgb(158, 105, 191);"></path><path d="M1252.5,2850.6547971134514C1873.75,2850.6547971134514,1873.75,1711.5810954690628,2495,1711.5810954690628" stroke-width="40.03667337040104" style="stroke: rgb(191, 105, 184);"></path><path d="M1252.5,2880.0905004140545C1873.75,2880.0905004140545,1873.75,2650.421743759612,2495,2650.421743759612" stroke-width="18.834733230805632" style="stroke: rgb(191, 105, 184);"></path><path d="M1252.5,2929.029930202295C1873.75,2929.029930202295,1873.75,3199.75393351473,2495,3199.75393351473" stroke-width="8.233763161007927" style="stroke: rgb(191, 105, 184);"></path><path d="M1252.5,2920.1271737844554C1873.75,2920.1271737844554,1873.75,3180.8511770968908,2495,3180.8511770968908" stroke-width="9.571749674671715" style="stroke: rgb(191, 105, 184);"></path><path d="M1252.5,2936.800544185496C1873.75,2936.800544185496,1873.75,3270.784928427778,2495,3270.784928427778" stroke-width="7.307464805394535" style="stroke: rgb(191, 105, 184);"></path><path d="M1252.5,2943.490476753815C1873.75,2943.490476753815,1873.75,3336.9271264639788,2495,3336.9271264639788" stroke-width="6.072400331243346" style="stroke: rgb(191, 105, 184);"></path><path d="M1252.5,2947.092748136756C1873.75,2947.092748136756,1873.75,3488.3017863480454,2495,3488.3017863480454" stroke-width="1.13214243463859" style="stroke: rgb(191, 105, 184);"></path><path d="M1252.5,2909.423281675145C1873.75,2909.423281675145,1873.75,2996.780432982375,2495,2996.780432982375" stroke-width="11.836034543948895" style="stroke: rgb(191, 105, 184);"></path><path d="M1252.5,2896.506565716314C1873.75,2896.506565716314,1873.75,2859.743286407194,2495,2859.743286407194" stroke-width="13.997397373713476" style="stroke: rgb(191, 105, 184);"></path><path d="M1252.5,2506.2794274222174C1873.75,2506.2794274222174,1873.75,3141.450372648765,2495,3141.450372648765" stroke-width="9.880515793209511" style="stroke: rgb(191, 105, 145);"></path><path d="M1252.5,2421.4716668638353C1873.75,2421.4716668638353,1873.75,2396.020347805511,2495,2396.020347805511" stroke-width="25.524665799124573" style="stroke: rgb(191, 105, 145);"></path><path d="M1252.5,2496.1416065302265C1873.75,2496.1416065302265,1873.75,3060.435939902994,2495,3060.435939902994" stroke-width="10.395125990772508" style="stroke: rgb(191, 105, 145);"></path><path d="M1252.5,2484.9231042233528C1873.75,2484.9231042233528,1873.75,2974.8414763989135,2495,2974.8414763989135" stroke-width="12.041878622974092" style="stroke: rgb(191, 105, 145);"></path><path d="M1252.5,2391.881580503963C1873.75,2391.881580503963,1873.75,1996.1569856855533,2495,1996.1569856855533" stroke-width="33.6555069206199" style="stroke: rgb(191, 105, 145);"></path><path d="M1252.5,2519.659292558855C1873.75,2519.659292558855,1873.75,3465.3685082219354,2495,3465.3685082219354" stroke-width="1.8525967112267834" style="stroke: rgb(191, 105, 145);"></path><path d="M1252.5,2446.0185732875902C1873.75,2446.0185732875902,1873.75,2430.567254229266,2495,2430.567254229266" stroke-width="23.56914704838519" style="stroke: rgb(191, 105, 145);"></path><path d="M1252.5,2514.9763397610322C1873.75,2514.9763397610322,1873.75,3253.374541582871,2495,3253.374541582871" stroke-width="7.513308884419733" style="stroke: rgb(191, 105, 145);"></path><path d="M1252.5,2468.352655861824C1873.75,2468.352655861824,1873.75,2559.80066248669,2495,2559.80066248669" stroke-width="21.099018100082812" style="stroke: rgb(191, 105, 145);"></path><path d="M1252.5,2353.2858156867383C1873.75,2353.2858156867383,1873.75,1659.7947474269467,2495,1659.7947474269467" stroke-width="43.53602271382941" style="stroke: rgb(191, 105, 145);"></path></g><g class="nodes" font-family="Arial, Helvetica" font-size="10"><g><rect x="1247.5" y="3042.0714539216838" height="67.92854607831578" width="20" fill="#000"></rect><text x="1241.5" y="3076.0357269608417" dy="0.35em" text-anchor="end">Gender</text></g><g><rect x="1247.5" y="1574.579439252338" height="264.92132970542934" width="20" fill="#000"></rect><text x="1241.5" y="1707.0401041050527" dy="0.35em" text-anchor="end">Governance</text></g><g><rect x="1247.5" y="1849.5007689577674" height="259.05477345321106" width="20" fill="#000"></rect><text x="1241.5" y="1979.028155684373" dy="0.35em" text-anchor="end">Groups</text></g><g><rect x="1247.5" y="1242.1246894593644" height="322.45474979297364" width="20" fill="#000"></rect><text x="1241.5" y="1403.3520643558513" dy="0.35em" text-anchor="end">HR and equality</text></g><g><rect x="1247.5" y="832.1696439134046" height="399.9550455459598" width="20" fill="#000"></rect><text x="1241.5" y="1032.1471666863845" dy="0.35em" text-anchor="end">Implementation</text></g><g><rect x="1247.5" y="2957.658819354075" height="74.41263456760862" width="20" fill="#000"></rect><text x="1241.5" y="2994.8651366378795" dy="0.35em" text-anchor="end">Justice Sector Reform</text></g><g><rect x="1247.5" y="2530.5855909144684" height="145.22299775227748" width="20" fill="#000"></rect><text x="1241.5" y="2603.197089790607" dy="0.35em" text-anchor="end">Land property and environment</text></g><g><rect x="1247.5" y="2685.808588666746" height="134.82787176150464" width="20" fill="#000"></rect><text x="1241.5" y="2753.2225245474983" dy="0.35em" text-anchor="end">Powersharing</text></g><g><rect x="1247.5" y="390.0000000000007" height="432.1696439134039" width="20" fill="#000"></rect><text x="1241.5" y="606.0848219567026" dy="0.35em" text-anchor="end">Security Sector</text></g><g><rect x="1247.5" y="2118.5555424109784" height="202.96226191884534" width="20" fill="#000"></rect><text x="1241.5" y="2220.0366733704013" dy="0.35em" text-anchor="end">Socio-Economic Reconstruction</text></g><g><rect x="1247.5" y="2830.6364604282508" height="117.02235892582439" width="20" fill="#000"></rect><text x="1241.5" y="2889.1476398911627" dy="0.35em" text-anchor="end">State definition</text></g><g><rect x="1247.5" y="2331.517804329824" height="189.06778658464464" width="20" fill="#000"></rect><text x="1241.5" y="2426.051697622146" dy="0.35em" text-anchor="end">Transitional Justice</text></g><g><rect x="2495" y="3487.735715130726" height="1.1321424346388085" width="20" fill="#000"></rect><text x="2489" y="3488.3017863480454" dy="0.35em" text-anchor="end">Accession_unification</text></g><g><rect x="2495" y="2383.2580149059486" height="25.524665799124705" width="20" fill="#000"></rect><text x="2489" y="2396.020347805511" dy="0.35em" text-anchor="end">Amnesty/pardon</text></g><g><rect x="2495" y="2066.537324026971" height="32.111676327931036" width="20" fill="#000"></rect><text x="2489" y="2082.5931621909367" dy="0.35em" text-anchor="end">Armed Forces</text></g><g><rect x="2495" y="3284.4386608304753" height="6.587010528806331" width="20" fill="#000"></rect><text x="2489" y="3287.7321660948783" dy="0.35em" text-anchor="end">BanksCentral bank</text></g><g><rect x="2495" y="3476.2948065775495" height="1.4409085531765413" width="20" fill="#000"></rect><text x="2489" y="3477.0152608541375" dy="0.35em" text-anchor="end">BanksCross-border financial flows</text></g><g><rect x="2495" y="3397.35715130723" height="4.734413817579934" width="20" fill="#000"></rect><text x="2489" y="3399.72435821602" dy="0.35em" text-anchor="end">BanksInternational finance</text></g><g><rect x="2495" y="3426.208446705314" height="3.9110375014788588" width="20" fill="#000"></rect><text x="2489" y="3428.1639654560536" dy="0.35em" text-anchor="end">BanksPersonal or commercial banking</text></g><g><rect x="2495" y="2990.8624157104005" height="11.8360345439487" width="20" fill="#000"></rect><text x="2489" y="2996.780432982375" dy="0.35em" text-anchor="end">Border delimitation</text></g><g><rect x="2495" y="2269.582396782205" height="28.200638826452177" width="20" fill="#000"></rect><text x="2489" y="2283.6827161954307" dy="0.35em" text-anchor="end">Business</text></g><g><rect x="2495" y="329.4865728143825" height="88.71879805986009" width="20" fill="#000"></rect><text x="2489" y="373.84597184431254" dy="0.35em" text-anchor="end">Ceasefire: Ce</text></g><g><rect x="2495" y="1791.533183485152" height="37.87531054063584" width="20" fill="#000"></rect><text x="2489" y="1810.47083875547" dy="0.35em" text-anchor="end">Children Youth</text></g><g><rect x="2495" y="2307.783035608657" height="27.994794747427477" width="20" fill="#000"></rect><text x="2489" y="2321.7804329823707" dy="0.35em" text-anchor="end">Citizenship</text></g><g><rect x="2495" y="428.2053708742426" height="87.68957766473432" width="20" fill="#000"></rect><text x="2489" y="472.05015970660975" dy="0.35em" text-anchor="end">Civil and political rights</text></g><g><rect x="2495" y="949.81071808825" height="69.36945463149186" width="20" fill="#000"></rect><text x="2489" y="984.495445403996" dy="0.35em" text-anchor="end">Civso: Civil Society</text></g><g><rect x="2495" y="2231.27883591624" height="28.303560865964755" width="20" fill="#000"></rect><text x="2489" y="2245.4306163492224" dy="0.35em" text-anchor="end">Constitutional reform and making</text></g><g><rect x="2495" y="3116.4237548799256" height="10.08635987223488" width="20" fill="#000"></rect><text x="2489" y="3121.4669348160432" dy="0.35em" text-anchor="end">Constitutional renewal and affirmation</text></g><g><rect x="2495" y="2828.5413462675983" height="14.203241452738894" width="20" fill="#000"></rect><text x="2489" y="2835.642966993968" dy="0.35em" text-anchor="end">Cor: Corruption</text></g><g><rect x="2495" y="3055.2383769076077" height="10.395125990772613" width="20" fill="#000"></rect><text x="2489" y="3060.435939902994" dy="0.35em" text-anchor="end">Courts</text></g><g><rect x="2495" y="2517.5346030994897" height="21.71655033715888" width="20" fill="#000"></rect><text x="2489" y="2528.392878268069" dy="0.35em" text-anchor="end">Criminal Justice and Emergency law</text></g><g><rect x="2495" y="2852.744587720337" height="13.997397373713284" width="20" fill="#000"></rect><text x="2489" y="2859.743286407194" dy="0.35em" text-anchor="end">Cross_border provision</text></g><g><rect x="2495" y="1029.180172719742" height="59.79770495682078" width="20" fill="#000"></rect><text x="2489" y="1059.0790251981523" dy="0.35em" text-anchor="end">Cultural heritage</text></g><g><rect x="2495" y="1292.932686620132" height="51.049331598248955" width="20" fill="#000"></rect><text x="2489" y="1318.4573524192565" dy="0.35em" text-anchor="end">DDR</text></g><g><rect x="2495" y="525.8949485389769" height="79.97042470128963" width="20" fill="#000"></rect><text x="2489" y="565.8801608896217" dy="0.35em" text-anchor="end">Development or socio-economic reconstruction</text></g><g><rect x="2495" y="2753.8731811191296" height="15.335383887377247" width="20" fill="#000"></rect><text x="2489" y="2761.5408730628183" dy="0.35em" text-anchor="end">Disabled persons</text></g><g><rect x="2495" y="2876.7419850940505" height="13.89447533420116" width="20" fill="#000"></rect><text x="2489" y="2883.689222761151" dy="0.35em" text-anchor="end">Economic powersharing</text></g><g><rect x="2495" y="3075.6335028983804" height="10.395125990772613" width="20" fill="#000"></rect><text x="2489" y="3080.8310658937667" dy="0.35em" text-anchor="end">Elderly Age</text></g><g><rect x="2495" y="1933.9240506329095" height="35.405181592333975" width="20" fill="#000"></rect><text x="2489" y="1951.6266414290765" dy="0.35em" text-anchor="end">Elections</text></g><g><rect x="2495" y="2900.6364604282517" height="13.379865136637818" width="20" fill="#000"></rect><text x="2489" y="2907.3263929965706" dy="0.35em" text-anchor="end">Electoral Commission</text></g><g><rect x="2495" y="784.3818762569474" height="72.86880397492041" width="20" fill="#000"></rect><text x="2489" y="820.8162782444076" dy="0.35em" text-anchor="end">Enforcement Mechanism</text></g><g><rect x="2495" y="2191.122678339049" height="30.156157577191152" width="20" fill="#000"></rect><text x="2489" y="2206.2007571276445" dy="0.35em" text-anchor="end">Environment</text></g><g><rect x="2495" y="2611.24334555779" height="19.76103158641945" width="20" fill="#000"></rect><text x="2489" y="2621.1238613509995" dy="0.35em" text-anchor="end">Family</text></g><g><rect x="2495" y="1583.2556488820508" height="44.771087187981266" width="20" fill="#000"></rect><text x="2489" y="1605.6411924760414" dy="0.35em" text-anchor="end">Human Rights Framework</text></g><g><rect x="2495" y="1886.7691943688612" height="37.15485626404825" width="20" fill="#000"></rect><text x="2489" y="1905.3466225008854" dy="0.35em" text-anchor="end">ImUN: UN Signatory</text></g><g><rect x="2495" y="3333.890926298357" height="6.072400331243443" width="20" fill="#000"></rect><text x="2489" y="3336.9271264639788" dy="0.35em" text-anchor="end">Independence_secession</text></g><g><rect x="2495" y="2779.208565006507" height="14.923695729326937" width="20" fill="#000"></rect><text x="2489" y="2786.6704128711704" dy="0.35em" text-anchor="end">Indigenous people</text></g><g><rect x="2495" y="2150.1431444457567" height="30.979533893292228" width="20" fill="#000"></rect><text x="2489" y="2165.632911392403" dy="0.35em" text-anchor="end">International funds</text></g><g><rect x="2495" y="1165.5849994084917" height="54.44575890216447" width="20" fill="#000"></rect><text x="2489" y="1192.807878859574" dy="0.35em" text-anchor="end">International Mission/Force/Similar</text></g><g><rect x="2495" y="3349.9633266296005" height="6.072400331243443" width="20" fill="#000"></rect><text x="2489" y="3352.999526795222" dy="0.35em" text-anchor="end">JusEm: State of Emergency Provisions</text></g><g><rect x="2495" y="2345.7778303560845" height="27.480184549864134" width="20" fill="#000"></rect><text x="2489" y="2359.5179226310165" dy="0.35em" text-anchor="end">JusJu: Judiciary and courts</text></g><g><rect x="2495" y="3301.0256713592817" height="6.484088489293754" width="20" fill="#000"></rect><text x="2489" y="3304.2677156039285" dy="0.35em" text-anchor="end">JusPri: Prisons and detention</text></g><g><rect x="2495" y="2924.0163255648895" height="12.65941086005023" width="20" fill="#000"></rect><text x="2489" y="2930.3460309949146" dy="0.35em" text-anchor="end">JusTra: Traditional/ Religious Laws</text></g><g><rect x="2495" y="2108.649000354902" height="31.49414409085466" width="20" fill="#000"></rect><text x="2489" y="2124.396072400329" dy="0.35em" text-anchor="end">Land reform/rights</text></g><g><rect x="2495" y="3498.867857565365" height="1.1321424346388085" width="20" fill="#000"></rect><text x="2489" y="3499.4339287826842" dy="0.35em" text-anchor="end">LGBTI references</text></g><g><rect x="2495" y="2968.8205370874266" height="12.041878622973854" width="20" fill="#000"></rect><text x="2489" y="2974.8414763989135" dy="0.35em" text-anchor="end">Mechanism</text></g><g><rect x="2495" y="1098.9778776765627" height="56.607121731929055" width="20" fill="#000"></rect><text x="2489" y="1127.2814385425272" dy="0.35em" text-anchor="end">Media and communication</text></g><g><rect x="2495" y="3156.3906305453706" height="9.674671714184115" width="20" fill="#000"></rect><text x="2489" y="3161.2279664024627" dy="0.35em" text-anchor="end">Men and Boys</text></g><g><rect x="2495" y="3440.119484206793" height="2.4701289483018627" width="20" fill="#000"></rect><text x="2489" y="3441.354548680944" dy="0.35em" text-anchor="end">Migrant workers</text></g><g><rect x="2495" y="3249.6178871406614" height="7.51330888441953" width="20" fill="#000"></rect><text x="2489" y="3253.374541582871" dy="0.35em" text-anchor="end">Missing</text></g><g><rect x="2495" y="3213.870815095234" height="8.130841121494996" width="20" fill="#000"></rect><text x="2489" y="3217.9362356559814" dy="0.35em" text-anchor="end">National economic plan</text></g><g><rect x="2495" y="2580.350171536732" height="20.893174021057803" width="20" fill="#000"></rect><text x="2489" y="2590.7967585472607" dy="0.35em" text-anchor="end">Natural resources</text></g><g><rect x="2495" y="1691.5627587838624" height="40.03667337040133" width="20" fill="#000"></rect><text x="2489" y="1711.581095469063" dy="0.35em" text-anchor="end">Nature of State</text></g><g><rect x="2495" y="3034.3286407192727" height="10.909736188335046" width="20" fill="#000"></rect><text x="2489" y="3039.78350881344" dy="0.35em" text-anchor="end">NHRI (National HRInstitution)</text></g><g><rect x="2495" y="3317.5097598485754" height="6.381166449781631" width="20" fill="#000"></rect><text x="2489" y="3320.7003430734662" dy="0.35em" text-anchor="end">Other groups</text></g><g><rect x="2495" y="1473.1988643085267" height="45.07985330651809" width="20" fill="#000"></rect><text x="2489" y="1495.7387909617858" dy="0.35em" text-anchor="end">Other International Signatory</text></g><g><rect x="2495" y="3366.035726960844" height="5.660712173193133" width="20" fill="#000"></rect><text x="2489" y="3368.8660830474405" dy="0.35em" text-anchor="end">Pastoralist/nomadism rights</text></g><g><rect x="2495" y="1528.2787176150448" height="44.976931267005966" width="20" fill="#000"></rect><text x="2489" y="1550.7671832485478" dy="0.35em" text-anchor="end">Police</text></g><g><rect x="2495" y="1414.413817579555" height="48.78504672897179" width="20" fill="#000"></rect><text x="2489" y="1438.8063409440408" dy="0.35em" text-anchor="end">Political Institutions</text></g><g><rect x="2495" y="2804.132260735834" height="14.409085531764504" width="20" fill="#000"></rect><text x="2489" y="2811.336803501716" dy="0.35em" text-anchor="end">Political parties reform</text></g><g><rect x="2495" y="198.5531763870788" height="120.9333964273037" width="20" fill="#000"></rect><text x="2489" y="259.01987460073065" dy="0.35em" text-anchor="end">Political Powersharing</text></g><g><rect x="2495" y="1979.3292322252435" height="33.6555069206197" width="20" fill="#000"></rect><text x="2489" y="1996.1569856855533" dy="0.35em" text-anchor="end">Prisoner release</text></g><g><rect x="2495" y="1353.982018218381" height="50.431799361173944" width="20" fill="#000"></rect><text x="2489" y="1379.197917898968" dy="0.35em" text-anchor="end">Protection measures</text></g><g><rect x="2495" y="2485.3034425647684" height="22.23116053472131" width="20" fill="#000"></rect><text x="2489" y="2496.419022832129" dy="0.35em" text-anchor="end">Pubad: Public Administration (Civil Service)</text></g><g><rect x="2495" y="615.8653732402665" height="74.82432272565984" width="20" fill="#000"></rect><text x="2489" y="653.2775346030965" dy="0.35em" text-anchor="end">Racial ethnic national groups</text></g><g><rect x="2495" y="1638.026736070032" height="43.536022713830334" width="20" fill="#000"></rect><text x="2489" y="1659.7947474269472" dy="0.35em" text-anchor="end">Reconciliation</text></g><g><rect x="2495" y="3176.0653022595548" height="9.571749674671082" width="20" fill="#000"></rect><text x="2489" y="3180.8511770968903" dy="0.35em" text-anchor="end">Referendum</text></g><g><rect x="2495" y="3452.589613155095" height="1.8525967112273065" width="20" fill="#000"></rect><text x="2489" y="3453.5159115107085" dy="0.35em" text-anchor="end">Referendum for agreement</text></g><g><rect x="2495" y="1230.0307583106562" height="52.90192830947581" width="20" fill="#000"></rect><text x="2489" y="1256.4817224653941" dy="0.35em" text-anchor="end">Refugees displaced persons</text></g><g><rect x="2495" y="3412.09156512481" height="4.116881580504014" width="20" fill="#000"></rect><text x="2489" y="3414.150005915062" dy="0.35em" text-anchor="end">Regional or int. HR institutions</text></g><g><rect x="2495" y="2022.9847391458632" height="33.55258488110758" width="20" fill="#000"></rect><text x="2489" y="2039.761031586417" dy="0.35em" text-anchor="end">Religious groups</text></g><g><rect x="2495" y="2549.2511534366486" height="21.099018100083413" width="20" fill="#000"></rect><text x="2489" y="2559.8006624866903" dy="0.35em" text-anchor="end">Reparations</text></g><g><rect x="2495" y="3195.637051934226" height="8.233763161008028" width="20" fill="#000"></rect><text x="2489" y="3199.75393351473" dy="0.35em" text-anchor="end">Self determination</text></g><g><rect x="2495" y="3096.028628889153" height="10.395125990772613" width="20" fill="#000"></rect><text x="2489" y="3101.2261918845393" dy="0.35em" text-anchor="end">Social Class</text></g><g><rect x="2495" y="1741.5994321542637" height="39.9337513308883" width="20" fill="#000"></rect><text x="2489" y="1761.5663078197078" dy="0.35em" text-anchor="end">Socio-economic rights</text></g><g><rect x="2495" y="-3.183231456205249e-12" height="188.55317638708198" width="20" fill="#000"></rect><text x="2489" y="94.2765881935378" dy="0.35em" text-anchor="end">Source</text></g><g><rect x="2495" y="3012.698450254349" height="11.630190464923544" width="20" fill="#000"></rect><text x="2489" y="3018.513545486811" dy="0.35em" text-anchor="end">SsrCrOcr: Crime/Organised crime</text></g><g><rect x="2495" y="3232.001656216729" height="7.616230923932562" width="20" fill="#000"></rect><text x="2489" y="3235.809771678695" dy="0.35em" text-anchor="end">SsrDrugs: Drugs</text></g><g><rect x="2495" y="2946.6757364249397" height="12.144800662486887" width="20" fill="#000"></rect><text x="2489" y="2952.748136756183" dy="0.35em" text-anchor="end">SsrFf: Withdrawal of foreign forces</text></g><g><rect x="2495" y="700.6896959659264" height="73.69218029102103" width="20" fill="#000"></rect><text x="2489" y="737.5357861114369" dy="0.35em" text-anchor="end">SsrGua: Security Sector</text></g><g><rect x="2495" y="3381.696439134037" height="5.660712173193133" width="20" fill="#000"></rect><text x="2489" y="3384.5267952206336" dy="0.35em" text-anchor="end">SsrInt: Intelligence service</text></g><g><rect x="2495" y="867.2506802318678" height="72.56003785638222" width="20" fill="#000"></rect><text x="2489" y="903.5306991600589" dy="0.35em" text-anchor="end">SsrPsf: Rebel/opposition/Para-statal forces</text></g><g><rect x="2495" y="2641.0043771442092" height="18.834733230805796" width="20" fill="#000"></rect><text x="2489" y="2650.421743759612" dy="0.35em" text-anchor="end">State configuration</text></g><g><rect x="2495" y="3267.131196025081" height="7.307464805394375" width="20" fill="#000"></rect><text x="2489" y="3270.784928427778" dy="0.35em" text-anchor="end">State symbols</text></g><g><rect x="2495" y="2669.839110375015" height="18.114278954217298" width="20" fill="#000"></rect><text x="2489" y="2678.8962498521237" dy="0.35em" text-anchor="end">Taxation</text></g><g><rect x="2495" y="2726.0676682834496" height="17.80551283568002" width="20" fill="#000"></rect><text x="2489" y="2734.9704247012896" dy="0.35em" text-anchor="end">Terr: Terrorism</text></g><g><rect x="2495" y="3136.5101147521605" height="9.88051579321018" width="20" fill="#000"></rect><text x="2489" y="3141.4503726487656" dy="0.35em" text-anchor="end">TjGen: Transitional Justice General</text></g><g><rect x="2495" y="2452.3518277534586" height="22.95161481130981" width="20" fill="#000"></rect><text x="2489" y="2463.8276351591135" dy="0.35em" text-anchor="end">Tral: Traditional/Religious Leaders</text></g><g><rect x="2495" y="3464.442209866322" height="1.8525967112273065" width="20" fill="#000"></rect><text x="2489" y="3465.368508221936" dy="0.35em" text-anchor="end">Vetting</text></g><g><rect x="2495" y="2418.7826807050733" height="23.569147048385275" width="20" fill="#000"></rect><text x="2489" y="2430.567254229266" dy="0.35em" text-anchor="end">Victims</text></g><g><rect x="2495" y="2697.9533893292323" height="18.114278954217298" width="20" fill="#000"></rect><text x="2489" y="2707.010528806341" dy="0.35em" text-anchor="end">Water or riparian (river) rights/access</text></g><g><rect x="2495" y="1839.4084940257878" height="37.360700343073404" width="20" fill="#000"></rect><text x="2489" y="1858.0888441973245" dy="0.35em" text-anchor="end">Women girls and gender</text></g><g><rect x="0" y="445.00000000000045" height="2609.999999999999" width="20" fill="#000"></rect><text x="11" y="1750" dy="0.35em" text-anchor="start">PA-X</text></g></g></g></svg>