<svg id="mysvg" width="848" height="2300" xmlns="http://www.w3.org/2000/svg" version="1.1"><g transform="translate(0, 10)"><g class="links" fill="none" stroke-opacity="0.4"><path d="M30,496.7616580310881C219.5,496.7616580310881,219.5,451.76165803108785,409,451.76165803108785" stroke-width="34.50777202072539" style="stroke: rgb(191, 105, 105);"></path><path d="M30,1186.9170984455961C219.5,1186.9170984455961,219.5,1231.917098445596,409,1231.917098445596" stroke-width="218.54922279792746" style="stroke: rgb(191, 105, 105);"></path><path d="M30,620.4145077720207C219.5,620.4145077720207,219.5,595.4145077720211,409,595.4145077720211" stroke-width="51.76165803108808" style="stroke: rgb(191, 105, 105);"></path><path d="M30,680.8031088082902C219.5,680.8031088082902,219.5,665.8031088082903,409,665.8031088082903" stroke-width="69.01554404145078" style="stroke: rgb(191, 105, 105);"></path><path d="M30,1031.6321243523319C219.5,1031.6321243523319,219.5,1066.6321243523314,409,1066.6321243523314" stroke-width="92.02072538860104" style="stroke: rgb(191, 105, 105);"></path><path d="M30,1425.59585492228C219.5,1425.59585492228,219.5,1480.5958549222798,409,1480.5958549222798" stroke-width="258.80829015544043" style="stroke: rgb(191, 105, 105);"></path><path d="M30,902.2279792746115C219.5,902.2279792746115,219.5,917.2279792746115,409,917.2279792746115" stroke-width="40.259067357512954" style="stroke: rgb(191, 105, 105);"></path><path d="M30,841.8393782383421C219.5,841.8393782383421,219.5,846.839378238342,409,846.839378238342" stroke-width="80.51813471502591" style="stroke: rgb(191, 105, 105);"></path><path d="M30,953.9896373056996C219.5,953.9896373056996,219.5,978.9896373056994,409,978.9896373056994" stroke-width="63.26424870466321" style="stroke: rgb(191, 105, 105);"></path><path d="M30,554.2746113989638C219.5,554.2746113989638,219.5,519.2746113989637,409,519.2746113989637" stroke-width="80.51813471502591" style="stroke: rgb(191, 105, 105);"></path><path d="M30,758.4455958549223C219.5,758.4455958549223,219.5,753.4455958549224,409,753.4455958549224" stroke-width="86.26943005181347" style="stroke: rgb(191, 105, 105);"></path><path d="M30,462.2538860103627C219.5,462.2538860103627,219.5,407.25388601036235,409,407.25388601036235" stroke-width="34.50777202072539" style="stroke: rgb(191, 105, 105);"></path><path d="M439,437.38341968911897C628.5,437.38341968911897,628.5,97.38341968911894,818,97.38341968911894" stroke-width="5.751295336787565" style="stroke: rgb(191, 145, 105);"></path><path d="M439,451.76165803108785C628.5,451.76165803108785,628.5,131.7616580310882,818,131.7616580310882" stroke-width="11.50259067357513" style="stroke: rgb(191, 145, 105);"></path><path d="M439,463.264248704663C628.5,463.264248704663,628.5,153.2642487046632,818,153.2642487046632" stroke-width="11.50259067357513" style="stroke: rgb(191, 145, 105);"></path><path d="M439,443.13471502590653C628.5,443.13471502590653,628.5,113.13471502590667,818,113.13471502590667" stroke-width="5.751295336787565" style="stroke: rgb(191, 145, 105);"></path><path d="M439,1300.932642487047C628.5,1300.932642487047,628.5,1498.9119170984454,818,1498.9119170984454" stroke-width="23.00518134715026" style="stroke: rgb(191, 184, 105);"></path><path d="M439,1277.9274611398966C628.5,1277.9274611398966,628.5,1465.9067357512952,818,1465.9067357512952" stroke-width="23.00518134715026" style="stroke: rgb(191, 184, 105);"></path><path d="M439,1165.777202072539C628.5,1165.777202072539,628.5,1303.756476683937,818,1303.756476683937" stroke-width="17.253886010362695" style="stroke: rgb(191, 184, 105);"></path><path d="M439,1148.5233160621763C628.5,1148.5233160621763,628.5,1276.5025906735743,818,1276.5025906735743" stroke-width="17.253886010362695" style="stroke: rgb(191, 184, 105);"></path><path d="M439,1326.8134715025908C628.5,1326.8134715025908,628.5,1534.7927461139893,818,1534.7927461139893" stroke-width="28.756476683937823" style="stroke: rgb(191, 184, 105);"></path><path d="M439,1208.9119170984459C628.5,1208.9119170984459,628.5,1366.8911917098442,818,1366.8911917098442" stroke-width="23.00518134715026" style="stroke: rgb(191, 184, 105);"></path><path d="M439,1254.9222797927464C628.5,1254.9222797927464,628.5,1432.901554404145,818,1432.901554404145" stroke-width="23.00518134715026" style="stroke: rgb(191, 184, 105);"></path><path d="M439,1231.9170984455961C628.5,1231.9170984455961,628.5,1399.8963730569947,818,1399.8963730569947" stroke-width="23.00518134715026" style="stroke: rgb(191, 184, 105);"></path><path d="M439,1131.2694300518135C628.5,1131.2694300518135,628.5,1249.2487046632116,818,1249.2487046632116" stroke-width="17.253886010362695" style="stroke: rgb(191, 184, 105);"></path><path d="M439,1185.9067357512956C628.5,1185.9067357512956,628.5,1333.8860103626937,818,1333.8860103626937" stroke-width="23.00518134715026" style="stroke: rgb(191, 184, 105);"></path><path d="M439,595.4145077720214C628.5,595.4145077720214,628.5,435.4145077720214,818,435.4145077720214" stroke-width="5.751295336787565" style="stroke: rgb(158, 191, 105);"></path><path d="M439,578.1606217616585C628.5,578.1606217616585,628.5,388.16062176165866,818,388.16062176165866" stroke-width="5.751295336787565" style="stroke: rgb(158, 191, 105);"></path><path d="M439,583.9119170984461C628.5,583.9119170984461,628.5,403.9119170984464,818,403.9119170984464" stroke-width="5.751295336787565" style="stroke: rgb(158, 191, 105);"></path><path d="M439,589.6632124352337C628.5,589.6632124352337,628.5,419.66321243523413,818,419.66321243523413" stroke-width="5.751295336787565" style="stroke: rgb(158, 191, 105);"></path><path d="M439,572.4093264248709C628.5,572.4093264248709,628.5,372.4093264248709,818,372.4093264248709" stroke-width="5.751295336787565" style="stroke: rgb(158, 191, 105);"></path><path d="M439,601.165803108809C628.5,601.165803108809,628.5,451.16580310880914,818,451.16580310880914" stroke-width="5.751295336787565" style="stroke: rgb(158, 191, 105);"></path><path d="M439,618.4196891191718C628.5,618.4196891191718,628.5,498.41968911917235,818,498.41968911917235" stroke-width="5.751295336787565" style="stroke: rgb(158, 191, 105);"></path><path d="M439,612.6683937823842C628.5,612.6683937823842,628.5,482.6683937823846,818,482.6683937823846" stroke-width="5.751295336787565" style="stroke: rgb(158, 191, 105);"></path><path d="M439,606.9170984455966C628.5,606.9170984455966,628.5,466.9170984455969,818,466.9170984455969" stroke-width="5.751295336787565" style="stroke: rgb(158, 191, 105);"></path><path d="M439,691.6839378238348C628.5,691.6839378238348,628.5,651.6839378238345,818,651.6839378238345" stroke-width="17.253886010362695" style="stroke: rgb(118, 191, 105);"></path><path d="M439,657.1761658031091C628.5,657.1761658031091,628.5,577.1761658031091,818,577.1761658031091" stroke-width="5.751295336787565" style="stroke: rgb(118, 191, 105);"></path><path d="M439,662.9274611398968C628.5,662.9274611398968,628.5,592.927461139896,818,592.927461139896" stroke-width="5.751295336787565" style="stroke: rgb(118, 191, 105);"></path><path d="M439,651.4248704663215C628.5,651.4248704663215,628.5,561.4248704663223,818,561.4248704663223" stroke-width="5.751295336787565" style="stroke: rgb(118, 191, 105);"></path><path d="M439,645.6735751295339C628.5,645.6735751295339,628.5,545.673575129535,818,545.673575129535" stroke-width="5.751295336787565" style="stroke: rgb(118, 191, 105);"></path><path d="M439,677.3056994818659C628.5,677.3056994818659,628.5,627.3056994818658,818,627.3056994818658" stroke-width="11.50259067357513" style="stroke: rgb(118, 191, 105);"></path><path d="M439,668.6787564766844C628.5,668.6787564766844,628.5,608.6787564766837,818,608.6787564766837" stroke-width="5.751295336787565" style="stroke: rgb(118, 191, 105);"></path><path d="M439,634.1709844559587C628.5,634.1709844559587,628.5,514.1709844559598,818,514.1709844559598" stroke-width="5.751295336787565" style="stroke: rgb(118, 191, 105);"></path><path d="M439,639.9222797927463C628.5,639.9222797927463,628.5,529.9222797927473,818,529.9222797927473" stroke-width="5.751295336787565" style="stroke: rgb(118, 191, 105);"></path><path d="M439,1075.2590673575125C628.5,1075.2590673575125,628.5,1810.3367875647668,818,1810.3367875647668" stroke-width="74.76683937823834" style="stroke: rgb(105, 191, 131);"></path><path d="M439,1029.248704663212C628.5,1029.248704663212,628.5,1567.7979274611398,818,1567.7979274611398" stroke-width="17.253886010362695" style="stroke: rgb(105, 191, 131);"></path><path d="M439,1397.2020725388604C628.5,1397.2020725388604,628.5,1652.4352331606221,818,1652.4352331606221" stroke-width="23.00518134715026" style="stroke: rgb(105, 191, 171);"></path><path d="M439,1443.212435233161C628.5,1443.212435233161,628.5,1718.4455958549224,818,1718.4455958549224" stroke-width="23.00518134715026" style="stroke: rgb(105, 191, 171);"></path><path d="M439,1569.7409326424872C628.5,1569.7409326424872,628.5,1959.7409326424868,818,1959.7409326424868" stroke-width="80.51813471502591" style="stroke: rgb(105, 191, 171);"></path><path d="M439,1503.6010362694303C628.5,1503.6010362694303,628.5,1883.6010362694299,818,1883.6010362694299" stroke-width="51.76165803108808" style="stroke: rgb(105, 191, 171);"></path><path d="M439,1377.0725388601038C628.5,1377.0725388601038,628.5,1622.3056994818655,818,1622.3056994818655" stroke-width="17.253886010362695" style="stroke: rgb(105, 191, 171);"></path><path d="M439,1359.818652849741C628.5,1359.818652849741,628.5,1595.0518134715026,818,1595.0518134715026" stroke-width="17.253886010362695" style="stroke: rgb(105, 191, 171);"></path><path d="M439,1420.2072538860107C628.5,1420.2072538860107,628.5,1685.4404145077724,818,1685.4404145077724" stroke-width="23.00518134715026" style="stroke: rgb(105, 191, 171);"></path><path d="M439,1466.2176165803112C628.5,1466.2176165803112,628.5,1751.4507772020727,818,1751.4507772020727" stroke-width="23.00518134715026" style="stroke: rgb(105, 191, 171);"></path><path d="M439,928.7305699481868C628.5,928.7305699481868,628.5,1108.7305699481856,818,1108.7305699481856" stroke-width="17.253886010362695" style="stroke: rgb(105, 171, 191);"></path><path d="M439,917.2279792746116C628.5,917.2279792746116,628.5,1087.2279792746106,818,1087.2279792746106" stroke-width="5.751295336787565" style="stroke: rgb(105, 171, 191);"></path><path d="M439,911.476683937824C628.5,911.476683937824,628.5,1071.476683937823,818,1071.476683937823" stroke-width="5.751295336787565" style="stroke: rgb(105, 171, 191);"></path><path d="M439,905.7253886010363C628.5,905.7253886010363,628.5,1055.7253886010355,818,1055.7253886010355" stroke-width="5.751295336787565" style="stroke: rgb(105, 171, 191);"></path><path d="M439,899.9740932642487C628.5,899.9740932642487,628.5,1039.974093264248,818,1039.974093264248" stroke-width="5.751295336787565" style="stroke: rgb(105, 171, 191);"></path><path d="M439,878.471502590674C628.5,878.471502590674,628.5,1018.4715025906729,818,1018.4715025906729" stroke-width="17.253886010362695" style="stroke: rgb(105, 131, 191);"></path><path d="M439,815.2072538860103C628.5,815.2072538860103,628.5,875.2072538860095,818,875.2072538860095" stroke-width="5.751295336787565" style="stroke: rgb(105, 131, 191);"></path><path d="M439,809.4559585492227C628.5,809.4559585492227,628.5,859.4559585492218,818,859.4559585492218" stroke-width="5.751295336787565" style="stroke: rgb(105, 131, 191);"></path><path d="M439,820.958549222798C628.5,820.958549222798,628.5,890.9585492227973,818,890.9585492227973" stroke-width="5.751295336787565" style="stroke: rgb(105, 131, 191);"></path><path d="M439,826.7098445595856C628.5,826.7098445595856,628.5,906.7098445595846,818,906.7098445595846" stroke-width="5.751295336787565" style="stroke: rgb(105, 131, 191);"></path><path d="M439,861.2176165803113C628.5,861.2176165803113,628.5,991.2176165803102,818,991.2176165803102" stroke-width="17.253886010362695" style="stroke: rgb(105, 131, 191);"></path><path d="M439,849.7150259067361C628.5,849.7150259067361,628.5,969.7150259067348,818,969.7150259067348" stroke-width="5.751295336787565" style="stroke: rgb(105, 131, 191);"></path><path d="M439,832.4611398963732C628.5,832.4611398963732,628.5,922.4611398963721,818,922.4611398963721" stroke-width="5.751295336787565" style="stroke: rgb(105, 131, 191);"></path><path d="M439,838.2124352331608C628.5,838.2124352331608,628.5,938.2124352331596,818,938.2124352331596" stroke-width="5.751295336787565" style="stroke: rgb(105, 131, 191);"></path><path d="M439,843.9637305699484C628.5,843.9637305699484,628.5,953.9637305699471,818,953.9637305699471" stroke-width="5.751295336787565" style="stroke: rgb(105, 131, 191);"></path><path d="M439,973.238341968912C628.5,973.238341968912,628.5,1183.2383419689108,818,1183.2383419689108" stroke-width="17.253886010362695" style="stroke: rgb(118, 105, 191);"></path><path d="M439,955.9844559585491C628.5,955.9844559585491,628.5,1145.984455958548,818,1145.984455958548" stroke-width="5.751295336787565" style="stroke: rgb(118, 105, 191);"></path><path d="M439,996.2435233160622C628.5,996.2435233160622,628.5,1216.243523316061,818,1216.243523316061" stroke-width="28.756476683937823" style="stroke: rgb(118, 105, 191);"></path><path d="M439,961.7357512953367C628.5,961.7357512953367,628.5,1161.7357512953358,818,1161.7357512953358" stroke-width="5.751295336787565" style="stroke: rgb(118, 105, 191);"></path><path d="M439,950.2331606217615C628.5,950.2331606217615,628.5,1130.2331606217608,818,1130.2331606217608" stroke-width="5.751295336787565" style="stroke: rgb(118, 105, 191);"></path><path d="M439,499.14507772020715C628.5,499.14507772020715,628.5,219.14507772020764,818,219.14507772020764" stroke-width="5.751295336787565" style="stroke: rgb(158, 105, 191);"></path><path d="M439,553.7823834196893C628.5,553.7823834196893,628.5,353.78238341968967,818,353.78238341968967" stroke-width="11.50259067357513" style="stroke: rgb(158, 105, 191);"></path><path d="M439,522.1502590673574C628.5,522.1502590673574,628.5,282.1502590673577,818,282.1502590673577" stroke-width="5.751295336787565" style="stroke: rgb(158, 105, 191);"></path><path d="M439,533.6528497409327C628.5,533.6528497409327,628.5,313.65284974093316,818,313.65284974093316" stroke-width="5.751295336787565" style="stroke: rgb(158, 105, 191);"></path><path d="M439,542.2797927461141C628.5,542.2797927461141,628.5,332.27979274611465,818,332.27979274611465" stroke-width="11.50259067357513" style="stroke: rgb(158, 105, 191);"></path><path d="M439,493.3937823834196C628.5,493.3937823834196,628.5,203.3937823834199,818,203.3937823834199" stroke-width="5.751295336787565" style="stroke: rgb(158, 105, 191);"></path><path d="M439,487.642487046632C628.5,487.642487046632,628.5,187.64248704663217,818,187.64248704663217" stroke-width="5.751295336787565" style="stroke: rgb(158, 105, 191);"></path><path d="M439,504.8963730569947C628.5,504.8963730569947,628.5,234.89637305699537,818,234.89637305699537" stroke-width="5.751295336787565" style="stroke: rgb(158, 105, 191);"></path><path d="M439,527.901554404145C628.5,527.901554404145,628.5,297.90155440414543,818,297.90155440414543" stroke-width="5.751295336787565" style="stroke: rgb(158, 105, 191);"></path><path d="M439,516.3989637305698C628.5,516.3989637305698,628.5,266.3989637305704,818,266.3989637305704" stroke-width="5.751295336787565" style="stroke: rgb(158, 105, 191);"></path><path d="M439,510.6476683937823C628.5,510.6476683937823,628.5,250.6476683937831,818,250.6476683937831" stroke-width="5.751295336787565" style="stroke: rgb(158, 105, 191);"></path><path d="M439,481.89119170984446C628.5,481.89119170984446,628.5,171.89119170984443,818,171.89119170984443" stroke-width="5.751295336787565" style="stroke: rgb(158, 105, 191);"></path><path d="M439,724.6891191709847C628.5,724.6891191709847,628.5,704.6891191709842,818,704.6891191709842" stroke-width="5.751295336787565" style="stroke: rgb(191, 105, 184);"></path><path d="M439,785.0777202072544C628.5,785.0777202072544,628.5,835.0777202072529,818,835.0777202072529" stroke-width="23.00518134715026" style="stroke: rgb(191, 105, 184);"></path><path d="M439,767.8238341968918C628.5,767.8238341968918,628.5,807.8238341968904,818,807.8238341968904" stroke-width="11.50259067357513" style="stroke: rgb(191, 105, 184);"></path><path d="M439,747.6943005181352C628.5,747.6943005181352,628.5,767.6943005181338,818,767.6943005181338" stroke-width="5.751295336787565" style="stroke: rgb(191, 105, 184);"></path><path d="M439,736.1917098445599C628.5,736.1917098445599,628.5,736.1917098445592,818,736.1917098445592" stroke-width="5.751295336787565" style="stroke: rgb(191, 105, 184);"></path><path d="M439,718.937823834197C628.5,718.937823834197,628.5,688.9378238341969,818,688.9378238341969" stroke-width="5.751295336787565" style="stroke: rgb(191, 105, 184);"></path><path d="M439,713.1865284974094C628.5,713.1865284974094,628.5,673.1865284974097,818,673.1865284974097" stroke-width="5.751295336787565" style="stroke: rgb(191, 105, 184);"></path><path d="M439,741.9430051813475C628.5,741.9430051813475,628.5,751.9430051813465,818,751.9430051813465" stroke-width="5.751295336787565" style="stroke: rgb(191, 105, 184);"></path><path d="M439,756.3212435233166C628.5,756.3212435233166,628.5,786.3212435233154,818,786.3212435233154" stroke-width="11.50259067357513" style="stroke: rgb(191, 105, 184);"></path><path d="M439,730.4404145077723C628.5,730.4404145077723,628.5,720.440414507772,818,720.440414507772" stroke-width="5.751295336787565" style="stroke: rgb(191, 105, 184);"></path><path d="M439,415.8808290155437C628.5,415.8808290155437,628.5,65.88082901554438,818,65.88082901554438" stroke-width="5.751295336787565" style="stroke: rgb(191, 105, 145);"></path><path d="M439,404.3782383419686C628.5,404.3782383419686,628.5,34.378238341969364,818,34.378238341969364" stroke-width="5.751295336787565" style="stroke: rgb(191, 105, 145);"></path><path d="M439,398.62694300518103C628.5,398.62694300518103,628.5,18.62694300518163,818,18.62694300518163" stroke-width="5.751295336787565" style="stroke: rgb(191, 105, 145);"></path><path d="M439,410.12953367875616C628.5,410.12953367875616,628.5,50.1295336787571,818,50.1295336787571" stroke-width="5.751295336787565" style="stroke: rgb(191, 105, 145);"></path><path d="M439,421.6321243523313C628.5,421.6321243523313,628.5,81.63212435233166,818,81.63212435233166" stroke-width="5.751295336787565" style="stroke: rgb(191, 105, 145);"></path><path d="M439,392.87564766839347C628.5,392.87564766839347,628.5,2.875647668393896,818,2.875647668393896" stroke-width="5.751295336787565" style="stroke: rgb(191, 105, 145);"></path></g><g class="nodes" font-family="Arial, Helvetica" font-size="10"><g><rect x="409" y="434.50777202072516" height="34.5077720207255" width="30" fill="#000"></rect><text x="403" y="451.7616580310879" dy="0.35em" text-anchor="end">Gender</text></g><g><rect x="409" y="631.2953367875649" height="69.01554404145077" width="30" fill="#000"></rect><text x="403" y="665.8031088082903" dy="0.35em" text-anchor="end">Governance</text></g><g><rect x="409" y="1122.6424870466321" height="218.54922279792754" width="30" fill="#000"></rect><text x="403" y="1231.917098445596" dy="0.35em" text-anchor="end">Groups</text></g><g><rect x="409" y="1351.1917098445597" height="258.80829015544055" width="30" fill="#000"></rect><text x="403" y="1480.59585492228" dy="0.35em" text-anchor="end">HR and equality</text></g><g><rect x="409" y="389.99999999999966" height="34.5077720207255" width="30" fill="#000"></rect><text x="403" y="407.2538860103624" dy="0.35em" text-anchor="end">Implementation</text></g><g><rect x="409" y="897.098445595855" height="40.25906735751278" width="30" fill="#000"></rect><text x="403" y="917.2279792746114" dy="0.35em" text-anchor="end">Justice Sector Reform</text></g><g><rect x="409" y="947.3575129533677" height="63.26424870466303" width="30" fill="#000"></rect><text x="403" y="978.9896373056993" dy="0.35em" text-anchor="end">Land property and environment</text></g><g><rect x="409" y="1020.6217616580308" height="92.02072538860148" width="30" fill="#000"></rect><text x="403" y="1066.6321243523316" dy="0.35em" text-anchor="end">Powersharing</text></g><g><rect x="409" y="479.01554404145065" height="80.51813471502646" width="30" fill="#000"></rect><text x="403" y="519.2746113989639" dy="0.35em" text-anchor="end">Security Sector</text></g><g><rect x="409" y="806.580310880829" height="80.51813471502601" width="30" fill="#000"></rect><text x="403" y="846.839378238342" dy="0.35em" text-anchor="end">Socio-Economic Reconstruction</text></g><g><rect x="409" y="569.5336787564771" height="51.76165803108779" width="30" fill="#000"></rect><text x="403" y="595.414507772021" dy="0.35em" text-anchor="end">State definition</text></g><g><rect x="409" y="710.3108808290157" height="86.26943005181329" width="30" fill="#000"></rect><text x="403" y="753.4455958549223" dy="0.35em" text-anchor="end">Transitional Justice</text></g><g><rect x="818" y="495.54404145077854" height="5.751295336787507" width="30" fill="#000"></rect><text x="812" y="498.4196891191723" dy="0.35em" text-anchor="end">Accession_unification</text></g><g><rect x="818" y="823.5751295336778" height="23.005181347150256" width="30" fill="#000"></rect><text x="812" y="835.0777202072529" dy="0.35em" text-anchor="end">Amnesty/pardon</text></g><g><rect x="818" y="310.77720207253935" height="5.751295336787734" width="30" fill="#000"></rect><text x="812" y="313.6528497409332" dy="0.35em" text-anchor="end">Armed Forces</text></g><g><rect x="818" y="966.839378238341" height="5.751295336787734" width="30" fill="#000"></rect><text x="812" y="969.7150259067349" dy="0.35em" text-anchor="end">BanksCentral bank</text></g><g><rect x="818" y="951.0880829015533" height="5.751295336787734" width="30" fill="#000"></rect><text x="812" y="953.9637305699472" dy="0.35em" text-anchor="end">BanksCross-border financial flows</text></g><g><rect x="818" y="935.3367875647658" height="5.751295336787507" width="30" fill="#000"></rect><text x="812" y="938.2124352331596" dy="0.35em" text-anchor="end">BanksInternational finance</text></g><g><rect x="818" y="919.5854922279783" height="5.751295336787507" width="30" fill="#000"></rect><text x="812" y="922.4611398963721" dy="0.35em" text-anchor="end">BanksPersonal or commercial banking</text></g><g><rect x="818" y="479.7927461139908" height="5.751295336787734" width="30" fill="#000"></rect><text x="812" y="482.66839378238467" dy="0.35em" text-anchor="end">Border delimitation</text></g><g><rect x="818" y="903.8341968911908" height="5.751295336787507" width="30" fill="#000"></rect><text x="812" y="906.7098445595846" dy="0.35em" text-anchor="end">Business</text></g><g><rect x="818" y="348.0310880829021" height="11.502590673575014" width="30" fill="#000"></rect><text x="812" y="353.7823834196896" dy="0.35em" text-anchor="end">Ceasefire: Ce</text></g><g><rect x="818" y="1487.4093264248702" height="23.005181347150256" width="30" fill="#000"></rect><text x="812" y="1498.9119170984454" dy="0.35em" text-anchor="end">Children Youth</text></g><g><rect x="818" y="1739.9481865284974" height="23.005181347150256" width="30" fill="#000"></rect><text x="812" y="1751.4507772020725" dy="0.35em" text-anchor="end">Citizenship</text></g><g><rect x="818" y="1919.4818652849738" height="80.5181347150259" width="30" fill="#000"></rect><text x="812" y="1959.7409326424868" dy="0.35em" text-anchor="end">Civil and political rights</text></g><g><rect x="818" y="605.80310880829" height="5.751295336788189" width="30" fill="#000"></rect><text x="812" y="608.678756476684" dy="0.35em" text-anchor="end">Civso: Civil Society</text></g><g><rect x="818" y="590.0518134715022" height="5.751295336787734" width="30" fill="#000"></rect><text x="812" y="592.9274611398961" dy="0.35em" text-anchor="end">Constitutional reform and making</text></g><g><rect x="818" y="574.3005181347154" height="5.751295336786825" width="30" fill="#000"></rect><text x="812" y="577.1761658031088" dy="0.35em" text-anchor="end">Constitutional renewal and affirmation</text></g><g><rect x="818" y="295.0259067357516" height="5.751295336787734" width="30" fill="#000"></rect><text x="812" y="297.9015544041455" dy="0.35em" text-anchor="end">Cor: Corruption</text></g><g><rect x="818" y="802.0725388601028" height="11.502590673575014" width="30" fill="#000"></rect><text x="812" y="807.8238341968903" dy="0.35em" text-anchor="end">Courts</text></g><g><rect x="818" y="1100.1036269430042" height="17.25388601036275" width="30" fill="#000"></rect><text x="812" y="1108.7305699481856" dy="0.35em" text-anchor="end">Criminal Justice and Emergency law</text></g><g><rect x="818" y="464.04145077720307" height="5.751295336787734" width="30" fill="#000"></rect><text x="812" y="466.91709844559693" dy="0.35em" text-anchor="end">Cross_border provision</text></g><g><rect x="818" y="1201.8652849740922" height="28.75647668393799" width="30" fill="#000"></rect><text x="812" y="1216.2435233160613" dy="0.35em" text-anchor="end">Cultural heritage</text></g><g><rect x="818" y="326.5284974093271" height="11.502590673575014" width="30" fill="#000"></rect><text x="812" y="332.2797927461146" dy="0.35em" text-anchor="end">DDR</text></g><g><rect x="818" y="1009.8445595854915" height="17.25388601036275" width="30" fill="#000"></rect><text x="812" y="1018.4715025906729" dy="0.35em" text-anchor="end">Development or socio-economic reconstruction</text></g><g><rect x="818" y="1454.40414507772" height="23.005181347150256" width="30" fill="#000"></rect><text x="812" y="1465.906735751295" dy="0.35em" text-anchor="end">Disabled persons</text></g><g><rect x="818" y="1559.1709844559584" height="17.25388601036275" width="30" fill="#000"></rect><text x="812" y="1567.7979274611398" dy="0.35em" text-anchor="end">Economic powersharing</text></g><g><rect x="818" y="1295.1295336787557" height="17.25388601036275" width="30" fill="#000"></rect><text x="812" y="1303.756476683937" dy="0.35em" text-anchor="end">Elderly Age</text></g><g><rect x="818" y="558.5492227979286" height="5.751295336786825" width="30" fill="#000"></rect><text x="812" y="561.424870466322" dy="0.35em" text-anchor="end">Elections</text></g><g><rect x="818" y="542.7979274611413" height="5.75129533678728" width="30" fill="#000"></rect><text x="812" y="545.6735751295349" dy="0.35em" text-anchor="end">Electoral Commission</text></g><g><rect x="818" y="78.75647668393788" height="5.75129533678728" width="30" fill="#000"></rect><text x="812" y="81.63212435233152" dy="0.35em" text-anchor="end">Enforcement Mechanism</text></g><g><rect x="818" y="1158.860103626942" height="5.751295336787507" width="30" fill="#000"></rect><text x="812" y="1161.7357512953358" dy="0.35em" text-anchor="end">Environment</text></g><g><rect x="818" y="110.25906735751289" height="5.751295336787734" width="30" fill="#000"></rect><text x="812" y="113.13471502590676" dy="0.35em" text-anchor="end">Family</text></g><g><rect x="818" y="1706.9430051813472" height="23.005181347150256" width="30" fill="#000"></rect><text x="812" y="1718.4455958549224" dy="0.35em" text-anchor="end">Human Rights Framework</text></g><g><rect x="818" y="63.0051813471506" height="5.75129533678728" width="30" fill="#000"></rect><text x="812" y="65.88082901554424" dy="0.35em" text-anchor="end">ImUN: UN Signatory</text></g><g><rect x="818" y="448.29015544041533" height="5.751295336787734" width="30" fill="#000"></rect><text x="812" y="451.1658031088092" dy="0.35em" text-anchor="end">Independence_secession</text></g><g><rect x="818" y="1421.3989637305697" height="23.005181347150256" width="30" fill="#000"></rect><text x="812" y="1432.901554404145" dy="0.35em" text-anchor="end">Indigenous people</text></g><g><rect x="818" y="888.0829015544035" height="5.75129533678728" width="30" fill="#000"></rect><text x="812" y="890.9585492227972" dy="0.35em" text-anchor="end">International funds</text></g><g><rect x="818" y="47.25388601036332" height="5.75129533678728" width="30" fill="#000"></rect><text x="812" y="50.12953367875696" dy="0.35em" text-anchor="end">International Mission/Force/Similar</text></g><g><rect x="818" y="1084.3523316062167" height="5.751295336787507" width="30" fill="#000"></rect><text x="812" y="1087.2279792746103" dy="0.35em" text-anchor="end">JusEm: State of Emergency Provisions</text></g><g><rect x="818" y="1068.6010362694292" height="5.751295336787507" width="30" fill="#000"></rect><text x="812" y="1071.476683937823" dy="0.35em" text-anchor="end">JusJu: Judiciary and courts</text></g><g><rect x="818" y="1052.8497409326417" height="5.751295336787507" width="30" fill="#000"></rect><text x="812" y="1055.7253886010353" dy="0.35em" text-anchor="end">JusPri: Prisons and detention</text></g><g><rect x="818" y="1037.0984455958542" height="5.751295336787507" width="30" fill="#000"></rect><text x="812" y="1039.974093264248" dy="0.35em" text-anchor="end">JusTra: Traditional/ Religious Laws</text></g><g><rect x="818" y="1174.6113989637295" height="17.25388601036275" width="30" fill="#000"></rect><text x="812" y="1183.2383419689108" dy="0.35em" text-anchor="end">Land reform/rights</text></g><g><rect x="818" y="147.51295336787564" height="11.502590673575014" width="30" fill="#000"></rect><text x="812" y="153.26424870466315" dy="0.35em" text-anchor="end">LGBTI references</text></g><g><rect x="818" y="764.81865284974" height="5.751295336787734" width="30" fill="#000"></rect><text x="812" y="767.6943005181339" dy="0.35em" text-anchor="end">Mechanism</text></g><g><rect x="818" y="1673.9378238341972" height="23.005181347150028" width="30" fill="#000"></rect><text x="812" y="1685.4404145077722" dy="0.35em" text-anchor="end">Media and communication</text></g><g><rect x="818" y="126.01036269430062" height="11.502590673575014" width="30" fill="#000"></rect><text x="812" y="131.76165803108813" dy="0.35em" text-anchor="end">Men and Boys</text></g><g><rect x="818" y="1267.875647668393" height="17.25388601036275" width="30" fill="#000"></rect><text x="812" y="1276.5025906735743" dy="0.35em" text-anchor="end">Migrant workers</text></g><g><rect x="818" y="749.0673575129528" height="5.75129533678728" width="30" fill="#000"></rect><text x="812" y="751.9430051813464" dy="0.35em" text-anchor="end">Missing</text></g><g><rect x="818" y="872.3316062176158" height="5.751295336787734" width="30" fill="#000"></rect><text x="812" y="875.2072538860097" dy="0.35em" text-anchor="end">National economic plan</text></g><g><rect x="818" y="856.580310880828" height="5.751295336787734" width="30" fill="#000"></rect><text x="812" y="859.4559585492219" dy="0.35em" text-anchor="end">Natural resources</text></g><g><rect x="818" y="432.5388601036276" height="5.751295336787734" width="30" fill="#000"></rect><text x="812" y="435.41450777202147" dy="0.35em" text-anchor="end">Nature of State</text></g><g><rect x="818" y="1613.6787564766842" height="17.25388601036275" width="30" fill="#000"></rect><text x="812" y="1622.3056994818655" dy="0.35em" text-anchor="end">NHRI (National HRInstitution)</text></g><g><rect x="818" y="1388.3937823834194" height="23.005181347150256" width="30" fill="#000"></rect><text x="812" y="1399.8963730569944" dy="0.35em" text-anchor="end">Other groups</text></g><g><rect x="818" y="31.502590673575583" height="5.751295336787734" width="30" fill="#000"></rect><text x="812" y="34.37823834196945" dy="0.35em" text-anchor="end">Other International Signatory</text></g><g><rect x="818" y="1143.1088082901542" height="5.751295336787734" width="30" fill="#000"></rect><text x="812" y="1145.984455958548" dy="0.35em" text-anchor="end">Pastoralist/nomadism rights</text></g><g><rect x="818" y="279.2746113989639" height="5.751295336787734" width="30" fill="#000"></rect><text x="812" y="282.15025906735775" dy="0.35em" text-anchor="end">Police</text></g><g><rect x="818" y="643.0569948186532" height="17.25388601036275" width="30" fill="#000"></rect><text x="812" y="651.6839378238345" dy="0.35em" text-anchor="end">Political Institutions</text></g><g><rect x="818" y="621.5544041450781" height="11.502590673575014" width="30" fill="#000"></rect><text x="812" y="627.3056994818656" dy="0.35em" text-anchor="end">Political parties reform</text></g><g><rect x="818" y="1772.9533678756477" height="74.76683937823805" width="30" fill="#000"></rect><text x="812" y="1810.3367875647668" dy="0.35em" text-anchor="end">Political Powersharing</text></g><g><rect x="818" y="733.3160621761655" height="5.75129533678728" width="30" fill="#000"></rect><text x="812" y="736.1917098445591" dy="0.35em" text-anchor="end">Prisoner release</text></g><g><rect x="818" y="1640.932642487047" height="23.005181347150256" width="30" fill="#000"></rect><text x="812" y="1652.435233160622" dy="0.35em" text-anchor="end">Protection measures</text></g><g><rect x="818" y="527.0466321243536" height="5.751295336787734" width="30" fill="#000"></rect><text x="812" y="529.9222797927474" dy="0.35em" text-anchor="end">Pubad: Public Administration (Civil Service)</text></g><g><rect x="818" y="1520.4145077720204" height="28.75647668393799" width="30" fill="#000"></rect><text x="812" y="1534.7927461139893" dy="0.35em" text-anchor="end">Racial ethnic national groups</text></g><g><rect x="818" y="717.5647668393782" height="5.75129533678728" width="30" fill="#000"></rect><text x="812" y="720.4404145077718" dy="0.35em" text-anchor="end">Reconciliation</text></g><g><rect x="818" y="416.7875647668403" height="5.75129533678728" width="30" fill="#000"></rect><text x="812" y="419.66321243523396" dy="0.35em" text-anchor="end">Referendum</text></g><g><rect x="818" y="15.751295336787848" height="5.751295336787734" width="30" fill="#000"></rect><text x="812" y="18.626943005181715" dy="0.35em" text-anchor="end">Referendum for agreement</text></g><g><rect x="818" y="1240.6217616580302" height="17.25388601036275" width="30" fill="#000"></rect><text x="812" y="1249.2487046632116" dy="0.35em" text-anchor="end">Refugees displaced persons</text></g><g><rect x="818" y="1586.4248704663212" height="17.253886010362976" width="30" fill="#000"></rect><text x="812" y="1595.0518134715026" dy="0.35em" text-anchor="end">Regional or int. HR institutions</text></g><g><rect x="818" y="1355.388601036269" height="23.005181347150483" width="30" fill="#000"></rect><text x="812" y="1366.8911917098442" dy="0.35em" text-anchor="end">Religious groups</text></g><g><rect x="818" y="780.5699481865278" height="11.502590673575014" width="30" fill="#000"></rect><text x="812" y="786.3212435233153" dy="0.35em" text-anchor="end">Reparations</text></g><g><rect x="818" y="401.0362694300526" height="5.751295336787734" width="30" fill="#000"></rect><text x="812" y="403.91191709844645" dy="0.35em" text-anchor="end">Self determination</text></g><g><rect x="818" y="1322.3834196891185" height="23.005181347150483" width="30" fill="#000"></rect><text x="812" y="1333.8860103626937" dy="0.35em" text-anchor="end">Social Class</text></g><g><rect x="818" y="1857.7202072538857" height="51.76165803108802" width="30" fill="#000"></rect><text x="812" y="1883.6010362694296" dy="0.35em" text-anchor="end">Socio-economic rights</text></g><g><rect x="818" y="1.1368683772161603e-13" height="5.751295336787734" width="30" fill="#000"></rect><text x="812" y="2.875647668393981" dy="0.35em" text-anchor="end">Source</text></g><g><rect x="818" y="263.5233160621766" height="5.75129533678728" width="30" fill="#000"></rect><text x="812" y="266.39896373057024" dy="0.35em" text-anchor="end">SsrCrOcr: Crime/Organised crime</text></g><g><rect x="818" y="247.77202072538932" height="5.75129533678728" width="30" fill="#000"></rect><text x="812" y="250.64766839378296" dy="0.35em" text-anchor="end">SsrDrugs: Drugs</text></g><g><rect x="818" y="232.0207253886016" height="5.751295336787734" width="30" fill="#000"></rect><text x="812" y="234.89637305699546" dy="0.35em" text-anchor="end">SsrFf: Withdrawal of foreign forces</text></g><g><rect x="818" y="216.26943005181386" height="5.751295336787734" width="30" fill="#000"></rect><text x="812" y="219.14507772020772" dy="0.35em" text-anchor="end">SsrGua: Security Sector</text></g><g><rect x="818" y="200.51813471502612" height="5.751295336787734" width="30" fill="#000"></rect><text x="812" y="203.39378238342" dy="0.35em" text-anchor="end">SsrInt: Intelligence service</text></g><g><rect x="818" y="184.7668393782384" height="5.751295336787734" width="30" fill="#000"></rect><text x="812" y="187.64248704663225" dy="0.35em" text-anchor="end">SsrPsf: Rebel/opposition/Para-statal forces</text></g><g><rect x="818" y="385.28497409326485" height="5.751295336787734" width="30" fill="#000"></rect><text x="812" y="388.1606217616587" dy="0.35em" text-anchor="end">State configuration</text></g><g><rect x="818" y="369.5336787564771" height="5.751295336787734" width="30" fill="#000"></rect><text x="812" y="372.409326424871" dy="0.35em" text-anchor="end">State symbols</text></g><g><rect x="818" y="982.5906735751288" height="17.25388601036275" width="30" fill="#000"></rect><text x="812" y="991.2176165803102" dy="0.35em" text-anchor="end">Taxation</text></g><g><rect x="818" y="169.01554404145065" height="5.751295336787734" width="30" fill="#000"></rect><text x="812" y="171.89119170984452" dy="0.35em" text-anchor="end">Terr: Terrorism</text></g><g><rect x="818" y="701.8134715025905" height="5.751295336787734" width="30" fill="#000"></rect><text x="812" y="704.6891191709843" dy="0.35em" text-anchor="end">TjGen: Transitional Justice General</text></g><g><rect x="818" y="511.29533678756604" height="5.751295336787507" width="30" fill="#000"></rect><text x="812" y="514.1709844559598" dy="0.35em" text-anchor="end">Tral: Traditional/Religious Leaders</text></g><g><rect x="818" y="686.0621761658032" height="5.75129533678728" width="30" fill="#000"></rect><text x="812" y="688.9378238341968" dy="0.35em" text-anchor="end">Vetting</text></g><g><rect x="818" y="670.3108808290159" height="5.75129533678728" width="30" fill="#000"></rect><text x="812" y="673.1865284974095" dy="0.35em" text-anchor="end">Victims</text></g><g><rect x="818" y="1127.357512953367" height="5.75129533678728" width="30" fill="#000"></rect><text x="812" y="1130.2331606217606" dy="0.35em" text-anchor="end">Water or riparian (river) rights/access</text></g><g><rect x="818" y="94.50777202072516" height="5.751295336787734" width="30" fill="#000"></rect><text x="812" y="97.38341968911902" dy="0.35em" text-anchor="end">Women girls and gender</text></g><g><rect x="0" y="445" height="1110" width="30" fill="#000"></rect><text x="36" y="1000" dy="0.35em" text-anchor="start">PA-X</text></g></g></g></svg>