<svg id="mysvg" width="847" height="720" xmlns="http://www.w3.org/2000/svg" version="1.1"><g transform="translate(0, 10)"><g class="links" fill="none" stroke-opacity="0.4"><path d="M5,328.1704410011919C213,328.1704410011919,213,353.1704410011918,421,353.1704410011918" stroke-width="48.24791418355185" style="stroke: rgb(191, 105, 105);"></path><path d="M5,232.52681764004768C213,232.52681764004768,213,227.52681764004762,421,227.52681764004762" stroke-width="19.535160905840286" style="stroke: rgb(191, 105, 105);"></path><path d="M5,194.7675804529201C213,194.7675804529201,213,159.76758045291996,421,159.76758045291996" stroke-width="13.241954707985698" style="stroke: rgb(191, 105, 105);"></path><path d="M5,186.5733015494636C213,186.5733015494636,213,141.5733015494635,421,141.5733015494635" stroke-width="3.1466030989272946" style="stroke: rgb(191, 105, 105);"></path><path d="M5,399.9523241954708C213,399.9523241954708,213,434.95232419547074,421,434.95232419547074" stroke-width="95.31585220500597" style="stroke: rgb(191, 105, 105);"></path><path d="M5,282.6758045292014C213,282.6758045292014,213,297.67580452920134,421,297.67580452920134" stroke-width="42.74135876042909" style="stroke: rgb(191, 105, 105);"></path><path d="M5,251.79976162097734C213,251.79976162097734,213,256.7997616209773,421,256.7997616209773" stroke-width="19.01072705601907" style="stroke: rgb(191, 105, 105);"></path><path d="M5,218.69487485101308C213,218.69487485101308,213,203.69487485101305,421,203.69487485101305" stroke-width="8.128724672228845" style="stroke: rgb(191, 105, 105);"></path><path d="M5,481.3051251489869C213,481.3051251489869,213,526.3051251489869,421,526.3051251489869" stroke-width="67.38974970202622" style="stroke: rgb(191, 105, 105);"></path><path d="M5,208.0095351609058C213,208.0095351609058,213,183.00953516090573,421,183.00953516090573" stroke-width="13.241954707985698" style="stroke: rgb(191, 105, 105);"></path><path d="M426,342.2884386174016C634,342.2884386174016,634,412.2884386174018,842,412.2884386174018" stroke-width="19.66626936829559" style="stroke: rgb(191, 152, 105);"></path><path d="M426,329.4398092967818C634,329.4398092967818,634,379.4398092967821,842,379.4398092967821" stroke-width="0.7866507747318237" style="stroke: rgb(191, 152, 105);"></path><path d="M426,364.7079856972586C634,364.7079856972586,634,444.70798569725866,842,444.70798569725866" stroke-width="25.172824791418357" style="stroke: rgb(191, 152, 105);"></path><path d="M426,331.1442193087007C634,331.1442193087007,634,391.144219308701,842,391.144219308701" stroke-width="2.622169249106079" style="stroke: rgb(191, 152, 105);"></path><path d="M426,223.2657926102502C634,223.2657926102502,634,203.26579261025037,842,203.26579261025037" stroke-width="4.98212157330155" style="stroke: rgb(183, 191, 105);"></path><path d="M426,219.59475566150172C634,219.59475566150172,634,189.5947556615018,842,189.5947556615018" stroke-width="2.359952324195471" style="stroke: rgb(183, 191, 105);"></path><path d="M426,231.52562574493436C634,231.52562574493436,634,242.70560190703233,842,242.70560190703233" stroke-width="11.537544696066746" style="stroke: rgb(183, 191, 105);"></path><path d="M426,218.08700834326572C634,218.08700834326572,634,178.08700834326575,842,178.08700834326575" stroke-width="0.6555423122765197" style="stroke: rgb(183, 191, 105);"></path><path d="M426,157.14541120381386C634,157.14541120381386,634,57.4076281287247,842,57.4076281287247" stroke-width="4.32657926102503" style="stroke: rgb(136, 191, 105);"></path><path d="M426,154.06436233611424C634,154.06436233611424,634,34.06436233611471,842,34.06436233611471" stroke-width="1.8355184743742552" style="stroke: rgb(136, 191, 105);"></path><path d="M426,162.84862932061958C634,162.84862932061958,634,87.17520858164471,842,87.17520858164471" stroke-width="7.079856972586413" style="stroke: rgb(136, 191, 105);"></path><path d="M426,140.3277711561381C634,140.3277711561381,634,0.3277711561386009,842,0.3277711561386009" stroke-width="0.6555423122765197" style="stroke: rgb(105, 191, 121);"></path><path d="M426,140.72109654350402C634,140.72109654350402,634,10.72109654350456,842,10.72109654350456" stroke-width="0.13110846245530394" style="stroke: rgb(105, 191, 121);"></path><path d="M426,141.9666269368294C634,141.9666269368294,634,21.966626936829773,842,21.966626936829773" stroke-width="2.359952324195471" style="stroke: rgb(105, 191, 121);"></path><path d="M426,439.27890345649575C634,439.27890345649575,634,549.2789034564958,842,549.2789034564958" stroke-width="25.303933253873662" style="stroke: rgb(105, 191, 167);"></path><path d="M426,395.2920143027413C634,395.2920143027413,634,485.2920143027414,842,485.2920143027414" stroke-width="13.373063170441002" style="stroke: rgb(105, 191, 167);"></path><path d="M426,414.3027413587604C634,414.3027413587604,634,514.3027413587605,842,514.3027413587605" stroke-width="24.648390941597143" style="stroke: rgb(105, 191, 167);"></path><path d="M426,387.94994040524426C634,387.94994040524426,634,467.94994040524426,842,467.94994040524426" stroke-width="1.3110846245530394" style="stroke: rgb(105, 191, 167);"></path><path d="M426,467.2705601907031C634,467.2705601907031,634,598.1883194278903,842,598.1883194278903" stroke-width="30.679380214541123" style="stroke: rgb(105, 191, 167);"></path><path d="M426,284.23718712753265C634,284.23718712753265,634,314.237187127533,842,314.237187127533" stroke-width="12.717520858164482" style="stroke: rgb(105, 167, 191);"></path><path d="M426,296.43027413587595C634,296.43027413587595,634,336.43027413587635,842,336.43027413587635" stroke-width="11.668653158522051" style="stroke: rgb(105, 167, 191);"></path><path d="M426,310.6555423122764C634,310.6555423122764,634,360.6555423122768,842,360.6555423122768" stroke-width="16.781883194278905" style="stroke: rgb(105, 167, 191);"></path><path d="M426,277.0917759237186C634,277.0917759237186,634,297.09177592371896,842,297.09177592371896" stroke-width="1.5733015494636473" style="stroke: rgb(105, 167, 191);"></path><path d="M426,252.14541120381395C634,252.14541120381395,634,262.14541120381426,842,262.14541120381426" stroke-width="7.342073897497021" style="stroke: rgb(105, 121, 191);"></path><path d="M426,248.08104886769954C634,248.08104886769954,634,226.54350417163295,842,226.54350417163295" stroke-width="0.7866507747318237" style="stroke: rgb(105, 121, 191);"></path><path d="M426,261.0607866507746C634,261.0607866507746,634,281.0607866507749,842,281.0607866507749" stroke-width="10.488676996424315" style="stroke: rgb(105, 121, 191);"></path><path d="M426,247.49106078665068C634,247.49106078665068,634,215.95351609058415,842,215.95351609058415" stroke-width="0.3933253873659118" style="stroke: rgb(105, 121, 191);"></path><path d="M426,203.6293206197854C634,203.6293206197854,634,153.62932061978537,842,153.62932061978537" stroke-width="1.7044100119189514" style="stroke: rgb(136, 105, 191);"></path><path d="M426,206.1203814064362C634,206.1203814064362,634,166.1203814064362,842,166.1203814064362" stroke-width="3.2777115613825987" style="stroke: rgb(136, 105, 191);"></path><path d="M426,201.26936829558994C634,201.26936829558994,634,141.2693682955899,842,141.2693682955899" stroke-width="3.0154946364719906" style="stroke: rgb(136, 105, 191);"></path><path d="M426,199.6960667461263C634,199.6960667461263,634,129.6960667461262,842,129.6960667461262" stroke-width="0.13110846245530394" style="stroke: rgb(136, 105, 191);"></path><path d="M426,507.7532777115614C634,507.7532777115614,634,637.7532777115612,842,637.7532777115612" stroke-width="28.450536352800956" style="stroke: rgb(183, 105, 191);"></path><path d="M426,540.989272943981C634,540.989272943981,634,680.9892729439806,842,680.9892729439806" stroke-width="38.02145411203814" style="stroke: rgb(183, 105, 191);"></path><path d="M426,493.06912991656736C634,493.06912991656736,634,572.3897497020262,842,572.3897497020262" stroke-width="0.9177592371871276" style="stroke: rgb(183, 105, 191);"></path><path d="M426,182.8784266984504C634,182.8784266984504,634,102.87842669845043,842,102.87842669845043" stroke-width="4.32657926102503" style="stroke: rgb(191, 105, 152);"></path><path d="M426,187.33611442193072C634,187.33611442193072,634,117.33611442193076,842,117.33611442193076" stroke-width="4.588796185935638" style="stroke: rgb(191, 105, 152);"></path><path d="M426,176.51966626936817C634,176.51966626936817,634,45.113230035757,842,45.113230035757" stroke-width="0.2622169249106079" style="stroke: rgb(191, 105, 152);"></path><path d="M426,178.68295589988068C634,178.68295589988068,634,71.60309892729441,842,71.60309892729441" stroke-width="4.0643623361144225" style="stroke: rgb(191, 105, 152);"></path></g><g class="nodes" font-family="Arial, Helvetica" font-size="10"><g><rect x="0" y="184.99999999999994" height="330.0000000000001" width="5" fill="#000"></rect><text x="11" y="350" dy="0.35em" text-anchor="start">Groups</text></g><g><rect x="421" y="329.0464839094159" height="48.24791418355187" width="5" fill="#000"></rect><text x="415" y="353.1704410011918" dy="0.35em" text-anchor="end">Children Youth</text></g><g><rect x="421" y="217.75923718712747" height="19.535160905840257" width="5" fill="#000"></rect><text x="415" y="227.5268176400476" dy="0.35em" text-anchor="end">Disabled persons</text></g><g><rect x="421" y="153.1466030989271" height="13.24195470798577" width="5" fill="#000"></rect><text x="415" y="159.76758045292" dy="0.35em" text-anchor="end">Elderly Age</text></g><g><rect x="421" y="247.29439809296773" height="19.010727056019107" width="5" fill="#000"></rect><text x="415" y="256.7997616209773" dy="0.35em" text-anchor="end">Indigenous people</text></g><g><rect x="421" y="139.99999999999986" height="3.146603098927244" width="5" fill="#000"></rect><text x="415" y="141.57330154946348" dy="0.35em" text-anchor="end">Migrant workers</text></g><g><rect x="421" y="199.63051251489864" height="8.128724672228827" width="5" fill="#000"></rect><text x="415" y="203.69487485101305" dy="0.35em" text-anchor="end">Other groups</text></g><g><rect x="421" y="387.29439809296775" height="95.31585220500602" width="5" fill="#000"></rect><text x="415" y="434.95232419547074" dy="0.35em" text-anchor="end">Racial ethnic national groups</text></g><g><rect x="421" y="492.6102502979738" height="67.38974970202634" width="5" fill="#000"></rect><text x="415" y="526.3051251489869" dy="0.35em" text-anchor="end">Refugees displaced persons</text></g><g><rect x="421" y="276.3051251489868" height="42.74135876042908" width="5" fill="#000"></rect><text x="415" y="297.67580452920134" dy="0.35em" text-anchor="end">Religious groups</text></g><g><rect x="421" y="176.38855780691287" height="13.24195470798577" width="5" fill="#000"></rect><text x="415" y="183.00953516090576" dy="0.35em" text-anchor="end">Social Class</text></g><g><rect x="842" y="10.655542312276907" height="0.1311084624551313" width="5" fill="#000"></rect><text x="836" y="10.721096543504473" dy="0.35em" text-anchor="end">Anti-discrimination (1)</text></g><g><rect x="842" y="478.6054827175209" height="13.373063170441014" width="5" fill="#000"></rect><text x="836" y="485.2920143027414" dy="0.35em" text-anchor="end">Anti-discrimination (102)</text></g><g><rect x="842" y="33.146603098927585" height="1.835518474374112" width="5" fill="#000"></rect><text x="836" y="34.06436233611464" dy="0.35em" text-anchor="end">Anti-discrimination (14)</text></g><g><rect x="842" y="188.41477949940406" height="2.3599523241955467" width="5" fill="#000"></rect><text x="836" y="189.59475566150184" dy="0.35em" text-anchor="end">Anti-discrimination (18)</text></g><g><rect x="842" y="164.4815256257449" height="3.2777115613826027" width="5" fill="#000"></rect><text x="836" y="166.1203814064362" dy="0.35em" text-anchor="end">Anti-discrimination (25)</text></g><g><rect x="842" y="115.04171632896293" height="4.588796185935621" width="5" fill="#000"></rect><text x="836" y="117.33611442193074" dy="0.35em" text-anchor="end">Anti-discrimination (35)</text></g><g><rect x="842" y="379.04648390941617" height="0.786650774731811" width="5" fill="#000"></rect><text x="836" y="379.4398092967821" dy="0.35em" text-anchor="end">Anti-discrimination (6)</text></g><g><rect x="842" y="330.59594755661533" height="11.668653158522034" width="5" fill="#000"></rect><text x="836" y="336.43027413587635" dy="0.35em" text-anchor="end">Anti-discrimination (89)</text></g><g><rect x="842" y="226.15017878426704" height="0.7866507747319247" width="5" fill="#000"></rect><text x="836" y="226.543504171633" dy="0.35em" text-anchor="end">Anti-discrimination- (6)</text></g><g><rect x="842" y="389.833134684148" height="2.6221692491060367" width="5" fill="#000"></rect><text x="836" y="391.144219308701" dy="0.35em" text-anchor="end">Other (20)</text></g><g><rect x="842" y="55.24433849821219" height="4.326579261025017" width="5" fill="#000"></rect><text x="836" y="57.407628128724696" dy="0.35em" text-anchor="end">GAge Rhetorical (33)</text></g><g><rect x="842" y="177.7592371871275" height="0.655542312276566" width="5" fill="#000"></rect><text x="836" y="178.08700834326578" dy="0.35em" text-anchor="end">Other (5)</text></g><g><rect x="842" y="200.7747318235996" height="4.982121573301583" width="5" fill="#000"></rect><text x="836" y="203.2657926102504" dy="0.35em" text-anchor="end">GDis Rhetorical (38)</text></g><g><rect x="842" y="215.7568533969012" height="0.39332538736584866" width="5" fill="#000"></rect><text x="836" y="215.95351609058412" dy="0.35em" text-anchor="end">Other (3)</text></g><g><rect x="842" y="258.47437425506575" height="7.342073897497016" width="5" fill="#000"></rect><text x="836" y="262.14541120381426" dy="0.35em" text-anchor="end">GInd Rhetorical (56)</text></g><g><rect x="842" y="3.410605131648481e-13" height="0.655542312276566" width="5" fill="#000"></rect><text x="836" y="0.32777115613862406" dy="0.35em" text-anchor="end">GMig Rhetorical (5)</text></g><g><rect x="842" y="129.63051251489856" height="0.13110846245535868" width="5" fill="#000"></rect><text x="836" y="129.69606674612623" dy="0.35em" text-anchor="end">Other (1)</text></g><g><rect x="842" y="152.7771156138259" height="1.7044100119189807" width="5" fill="#000"></rect><text x="836" y="153.6293206197854" dy="0.35em" text-anchor="end">GOth Rhetorical (13)</text></g><g><rect x="842" y="467.29439809296775" height="1.311084624553132" width="5" fill="#000"></rect><text x="836" y="467.9499404052443" dy="0.35em" text-anchor="end">Other (10)</text></g><g><rect x="842" y="536.6269368295589" height="25.30393325387371" width="5" fill="#000"></rect><text x="836" y="549.2789034564958" dy="0.35em" text-anchor="end">GRa Rhetorical (193)</text></g><g><rect x="842" y="296.30512514898714" height="1.573301549463622" width="5" fill="#000"></rect><text x="836" y="297.09177592371896" dy="0.35em" text-anchor="end">Other (12)</text></g><g><rect x="842" y="307.87842669845077" height="12.717520858164562" width="5" fill="#000"></rect><text x="836" y="314.23718712753305" dy="0.35em" text-anchor="end">GRe Rhetorical (97)</text></g><g><rect x="842" y="571.9308700834326" height="0.917759237187056" width="5" fill="#000"></rect><text x="836" y="572.3897497020262" dy="0.35em" text-anchor="end">Other (7)</text></g><g><rect x="842" y="623.5280095351607" height="28.450536352800924" width="5" fill="#000"></rect><text x="836" y="637.7532777115612" dy="0.35em" text-anchor="end">GRef Rhetorical (217)</text></g><g><rect x="842" y="44.9821215733017" height="0.26221692491049" width="5" fill="#000"></rect><text x="836" y="45.11323003575694" dy="0.35em" text-anchor="end">Other (2)</text></g><g><rect x="842" y="100.71513706793792" height="4.326579261025017" width="5" fill="#000"></rect><text x="836" y="102.87842669845043" dy="0.35em" text-anchor="end">GSoc Rhetorical (33)</text></g><g><rect x="842" y="402.455303933254" height="19.666269368295445" width="5" fill="#000"></rect><text x="836" y="412.28843861740177" dy="0.35em" text-anchor="end">iGChRhet: Rhetorical (150)</text></g><g><rect x="842" y="582.8486293206197" height="30.679380214541027" width="5" fill="#000"></rect><text x="836" y="598.1883194278902" dy="0.35em" text-anchor="end">Religious groups (234)</text></g><g><rect x="842" y="352.26460071513736" height="16.781883194278805" width="5" fill="#000"></rect><text x="836" y="360.6555423122768" dy="0.35em" text-anchor="end">Substantive (128)</text></g><g><rect x="842" y="20.78665077473204" height="2.3599523241955467" width="5" fill="#000"></rect><text x="836" y="21.96662693682981" dy="0.35em" text-anchor="end">Substantive (18)</text></g><g><rect x="842" y="501.9785458879619" height="24.648390941596972" width="5" fill="#000"></rect><text x="836" y="514.3027413587604" dy="0.35em" text-anchor="end">Substantive (188)</text></g><g><rect x="842" y="432.12157330154946" height="25.172824791418293" width="5" fill="#000"></rect><text x="836" y="444.7079856972586" dy="0.35em" text-anchor="end">Substantive (192)</text></g><g><rect x="842" y="139.7616209773539" height="3.015494636471999" width="5" fill="#000"></rect><text x="836" y="141.2693682955899" dy="0.35em" text-anchor="end">Substantive (23)</text></g><g><rect x="842" y="661.9785458879616" height="38.0214541120381" width="5" fill="#000"></rect><text x="836" y="680.9892729439806" dy="0.35em" text-anchor="end">Substantive (290)</text></g><g><rect x="842" y="69.5709177592372" height="4.0643623361143" width="5" fill="#000"></rect><text x="836" y="71.60309892729435" dy="0.35em" text-anchor="end">Substantive (31)</text></g><g><rect x="842" y="83.6352800953515" height="7.079856972586413" width="5" fill="#000"></rect><text x="836" y="87.17520858164471" dy="0.35em" text-anchor="end">Substantive (54)</text></g><g><rect x="842" y="275.81644815256277" height="10.488676996424374" width="5" fill="#000"></rect><text x="836" y="281.06078665077496" dy="0.35em" text-anchor="end">Substantive (80)</text></g><g><rect x="842" y="236.93682955899897" height="11.537544696066789" width="5" fill="#000"></rect><text x="836" y="242.70560190703236" dy="0.35em" text-anchor="end">Substantive (88)</text></g></g></g></svg>