<svg id="mysvg" width="847" height="820" xmlns="http://www.w3.org/2000/svg" version="1.1"><g transform="translate(0, 10)"><g class="links" fill="none" stroke-opacity="0.4"><path d="M5,515.5466879489226C213,515.5466879489226,213,550.5466879489226,421,550.5466879489226" stroke-width="338.9066241021548" style="stroke: rgb(191, 105, 105);"></path><path d="M5,320.04988028731043C213,320.04988028731043,213,345.04988028731043,421,345.04988028731043" stroke-width="52.08699122106943" style="stroke: rgb(191, 105, 105);"></path><path d="M5,188.35395051875497C213,188.35395051875497,213,183.3539505187549,421,183.3539505187549" stroke-width="58.910614525139664" style="stroke: rgb(191, 105, 105);"></path><path d="M5,269.6687948922586C213,269.6687948922586,213,284.66879489225835,421,284.66879489225835" stroke-width="48.67517956903431" style="stroke: rgb(191, 105, 105);"></path><path d="M5,231.5702314445331C213,231.5702314445331,213,236.57023144453302,421,236.57023144453302" stroke-width="27.521947326416598" style="stroke: rgb(191, 105, 105);"></path><path d="M5,126.14525139664804C213,126.14525139664804,213,101.1452513966482,421,101.1452513966482" stroke-width="19.106145251396647" style="stroke: rgb(191, 105, 105);"></path><path d="M5,147.29848363926575C213,147.29848363926575,213,132.29848363926587,421,132.29848363926587" stroke-width="23.200319233838787" style="stroke: rgb(191, 105, 105);"></path><path d="M5,115.79608938547486C213,115.79608938547486,213,80.79608938547509,421,80.79608938547509" stroke-width="1.5921787709497206" style="stroke: rgb(191, 105, 105);"></path><path d="M426,684.1759776536313C634,684.1759776536313,634,764.1759776536312,842,764.1759776536312" stroke-width="71.64804469273743" style="stroke: rgb(191, 162, 105);"></path><path d="M426,621.6260973663209C634,621.6260973663209,634,691.6260973663208,842,691.6260973663208" stroke-width="53.45171588188348" style="stroke: rgb(191, 162, 105);"></path><path d="M426,523.3659217877096C634,523.3659217877096,634,563.3659217877097,842,563.3659217877097" stroke-width="24.337589784517156" style="stroke: rgb(191, 162, 105);"></path><path d="M426,577.9549082202715C634,577.9549082202715,634,637.9549082202715,842,637.9549082202715" stroke-width="33.890662410215484" style="stroke: rgb(191, 162, 105);"></path><path d="M426,548.2721468475659C634,548.2721468475659,634,598.272146847566,842,598.272146847566" stroke-width="25.47486033519553" style="stroke: rgb(191, 162, 105);"></path><path d="M426,443.52952913008784C634,443.52952913008784,634,443.52952913008795,842,443.52952913008795" stroke-width="18.423782920989623" style="stroke: rgb(191, 162, 105);"></path><path d="M426,397.9249800478851C634,397.9249800478851,634,367.92498004788524,842,367.92498004788524" stroke-width="11.372705506783719" style="stroke: rgb(191, 162, 105);"></path><path d="M426,382.7992817238627C634,382.7992817238627,634,332.7992817238631,842,332.7992817238631" stroke-width="3.411811652035116" style="stroke: rgb(191, 162, 105);"></path><path d="M426,388.3719074221867C634,388.3719074221867,634,348.3719074221871,842,348.3719074221871" stroke-width="7.733439744612928" style="stroke: rgb(191, 162, 105);"></path><path d="M426,410.88986432561853C634,410.88986432561853,634,390.8898643256186,842,390.8898643256186" stroke-width="14.55706304868316" style="stroke: rgb(191, 162, 105);"></path><path d="M426,480.94573024740623C634,480.94573024740623,634,500.9457302474064,842,500.9457302474064" stroke-width="20.015961691939346" style="stroke: rgb(191, 162, 105);"></path><path d="M426,461.8395849960096C634,461.8395849960096,634,471.83958499600976,842,471.83958499600976" stroke-width="18.19632881085395" style="stroke: rgb(191, 162, 105);"></path><path d="M426,501.07541899441344C634,501.07541899441344,634,531.0754189944137,842,531.0754189944137" stroke-width="20.24341580207502" style="stroke: rgb(191, 162, 105);"></path><path d="M426,426.24301675977654C634,426.24301675977654,634,416.2430167597766,842,416.2430167597766" stroke-width="16.14924181963288" style="stroke: rgb(191, 162, 105);"></path><path d="M426,345.04988028731043C634,345.04988028731043,634,295.0498802873108,842,295.0498802873108" stroke-width="52.08699122106943" style="stroke: rgb(162, 191, 105);"></path><path d="M426,198.70710295291295C634,198.70710295291295,634,115.50678371907446,842,115.50678371907446" stroke-width="28.20430965682362" style="stroke: rgb(105, 191, 105);"></path><path d="M426,172.54988028731037C634,172.54988028731037,634,79.34956105347182,842,79.34956105347182" stroke-width="24.110135674381485" style="stroke: rgb(105, 191, 105);"></path><path d="M426,157.5379090183559C634,157.5379090183559,634,25.231444533120527,842,25.231444533120527" stroke-width="5.913806863527534" style="stroke: rgb(105, 191, 105);"></path><path d="M426,154.23982442138862C634,154.23982442138862,634,11.933359936153114,842,11.933359936153114" stroke-width="0.6823623304070231" style="stroke: rgb(105, 191, 105);"></path><path d="M426,284.66879489225835C634,284.66879489225835,634,234.66879489225897,842,234.66879489225897" stroke-width="48.67517956903431" style="stroke: rgb(105, 191, 162);"></path><path d="M426,236.57023144453302C634,236.57023144453302,634,186.57023144453342,842,186.57023144453342" stroke-width="27.521947326416598" style="stroke: rgb(105, 162, 191);"></path><path d="M426,101.1452513966482C634,101.1452513966482,634,47.74142059058303,842,47.74142059058303" stroke-width="19.106145251396647" style="stroke: rgb(105, 105, 191);"></path><path d="M426,132.29848363926587C634,132.29848363926587,634,151.2090981644058,842,151.2090981644058" stroke-width="23.200319233838787" style="stroke: rgb(162, 105, 191);"></path><path d="M426,80.79608938547509C634,80.79608938547509,634,0.7960893854748035,842,0.7960893854748035" stroke-width="1.5921787709497206" style="stroke: rgb(191, 105, 162);"></path></g><g class="nodes" font-family="Arial, Helvetica" font-size="10"><g><rect x="0" y="115" height="570" width="5" fill="#000"></rect><text x="11" y="400" dy="0.35em" text-anchor="start">Powersharing</text></g><g><rect x="421" y="153.8986432561851" height="58.910614525139636" width="5" fill="#000"></rect><text x="415" y="183.3539505187549" dy="0.35em" text-anchor="end">Economic powersharing</text></g><g><rect x="421" y="91.59217877094989" height="19.106145251396583" width="5" fill="#000"></rect><text x="415" y="101.14525139664818" dy="0.35em" text-anchor="end">Joint Command Structure</text></g><g><rect x="421" y="222.80925778132473" height="27.521947326416466" width="5" fill="#000"></rect><text x="415" y="236.57023144453296" dy="0.35em" text-anchor="end">Merger of forces</text></g><g><rect x="421" y="260.3312051077412" height="48.675179569034526" width="5" fill="#000"></rect><text x="415" y="284.66879489225846" dy="0.35em" text-anchor="end">Military powersharing</text></g><g><rect x="421" y="80.00000000000023" height="1.5921787709496584" width="5" fill="#000"></rect><text x="415" y="80.79608938547506" dy="0.35em" text-anchor="end">Other</text></g><g><rect x="421" y="381.09337589784514" height="338.9066241021547" width="5" fill="#000"></rect><text x="415" y="550.5466879489225" dy="0.35em" text-anchor="end">Political Powersharing</text></g><g><rect x="421" y="120.69832402234647" height="23.200319233838627" width="5" fill="#000"></rect><text x="415" y="132.29848363926578" dy="0.35em" text-anchor="end">Proportionality</text></g><g><rect x="421" y="319.0063846767757" height="52.08699122106941" width="5" fill="#000"></rect><text x="415" y="345.04988028731043" dy="0.35em" text-anchor="end">Territorial powersharing</text></g><g><rect x="842" y="139.6089385474864" height="23.20031923383874" width="5" fill="#000"></rect><text x="836" y="151.20909816440576" dy="0.35em" text-anchor="end">(102)</text></g><g><rect x="842" y="172.80925778132513" height="27.521947326416694" width="5" fill="#000"></rect><text x="836" y="186.57023144453348" dy="0.35em" text-anchor="end">(121)</text></g><g><rect x="842" y="101.40462889066265" height="28.20430965682374" width="5" fill="#000"></rect><text x="836" y="115.50678371907452" dy="0.35em" text-anchor="end">(124)</text></g><g><rect x="842" y="210.33120510774182" height="48.6751795690343" width="5" fill="#000"></rect><text x="836" y="234.66879489225897" dy="0.35em" text-anchor="end">(214)</text></g><g><rect x="842" y="269.0063846767761" height="52.08699122106941" width="5" fill="#000"></rect><text x="836" y="295.0498802873108" dy="0.35em" text-anchor="end">(229)</text></g><g><rect x="842" y="728.3519553072625" height="71.64804469273747" width="5" fill="#000"></rect><text x="836" y="764.1759776536312" dy="0.35em" text-anchor="end">(315)</text></g><g><rect x="842" y="-5.684341886080802e-14" height="1.5921787709496584" width="5" fill="#000"></rect><text x="836" y="0.7960893854747724" dy="0.35em" text-anchor="end">(7)</text></g><g><rect x="842" y="38.18834796488471" height="19.106145251396356" width="5" fill="#000"></rect><text x="836" y="47.74142059058289" dy="0.35em" text-anchor="end">(84)</text></g><g><rect x="842" y="520.9537110933761" height="20.243415802074992" width="5" fill="#000"></rect><text x="836" y="531.0754189944137" dy="0.35em" text-anchor="end">Autonomy (89)</text></g><g><rect x="842" y="621.0095770151637" height="33.89066241021533" width="5" fill="#000"></rect><text x="836" y="637.9549082202714" dy="0.35em" text-anchor="end">Executive coalition (149)</text></g><g><rect x="842" y="490.93774940143675" height="20.015961691939424" width="5" fill="#000"></rect><text x="836" y="500.94573024740646" dy="0.35em" text-anchor="end">Federal or similarly sub-divided (88)</text></g><g><rect x="842" y="22.27454110135676" height="5.913806863527952" width="5" fill="#000"></rect><text x="836" y="25.231444533120737" dy="0.35em" text-anchor="end">Fiscal federalism ()</text></g><g><rect x="842" y="362.23862729449337" height="11.372705506783632" width="5" fill="#000"></rect><text x="836" y="367.9249800478852" dy="0.35em" text-anchor="end">Form of veto or communal majority (50)</text></g><g><rect x="842" y="344.50518754988065" height="7.733439744612724" width="5" fill="#000"></rect><text x="836" y="348.371907422187" dy="0.35em" text-anchor="end">International involvement (34)</text></g><g><rect x="842" y="462.7414205905828" height="18.19632881085397" width="5" fill="#000"></rect><text x="836" y="471.83958499600976" dy="0.35em" text-anchor="end">Local and Municipal (80)</text></g><g><rect x="842" y="11.592178770949602" height="0.6823623304071589" width="5" fill="#000"></rect><text x="836" y="11.933359936153181" dy="0.35em" text-anchor="end">Other ()</text></g><g><rect x="842" y="408.1683958499602" height="16.149241819632948" width="5" fill="#000"></rect><text x="836" y="416.24301675977665" dy="0.35em" text-anchor="end">Other (71)</text></g><g><rect x="842" y="383.611332801277" height="14.557063048683176" width="5" fill="#000"></rect><text x="836" y="390.8898643256186" dy="0.35em" text-anchor="end">Other form of political powersharing (64)</text></g><g><rect x="842" y="434.3176376695931" height="18.42378292098965" width="5" fill="#000"></rect><text x="836" y="443.52952913008795" dy="0.35em" text-anchor="end">Other Proportionality (81)</text></g><g><rect x="842" y="585.5347166799683" height="25.474860335195444" width="5" fill="#000"></rect><text x="836" y="598.272146847566" dy="0.35em" text-anchor="end">Proportionality in the legislature (112)</text></g><g><rect x="842" y="331.09337589784553" height="3.4118116520351123" width="5" fill="#000"></rect><text x="836" y="332.7992817238631" dy="0.35em" text-anchor="end">Segmental autonomy (15)</text></g><g><rect x="842" y="67.29449321628107" height="24.11013567438158" width="5" fill="#000"></rect><text x="836" y="79.34956105347186" dy="0.35em" text-anchor="end">Sharing of resources ()</text></g><g><rect x="842" y="664.900239425379" height="53.4517158818835" width="5" fill="#000"></rect><text x="836" y="691.6260973663208" dy="0.35em" text-anchor="end">State level powersharing (235)</text></g><g><rect x="842" y="551.1971268954511" height="24.33758978451715" width="5" fill="#000"></rect><text x="836" y="563.3659217877097" dy="0.35em" text-anchor="end">Sub-state level powersharing (107)</text></g></g></g></svg>