<svg id="mysvg" width="847" height="1020" xmlns="http://www.w3.org/2000/svg" version="1.1"><g transform="translate(0, 10)"><g class="links" fill="none" stroke-opacity="0.4"><path d="M5,359.240344717523C213,359.240344717523,213,354.24034471752327,421,354.24034471752327" stroke-width="87.58378550909671" style="stroke: rgb(191, 105, 105);"></path><path d="M5,741.1235237791252C213,741.1235237791252,213,776.1235237791251,421,776.1235237791251" stroke-width="77.75295244174913" style="stroke: rgb(191, 105, 105);"></path><path d="M5,527.7944462176825C213,527.7944462176825,213,542.7944462176821,421,542.7944462176821" stroke-width="152.2885413341845" style="stroke: rgb(191, 105, 105);"></path><path d="M5,280.7724225981486C213,280.7724225981486,213,265.77242259814886,421,265.77242259814886" stroke-width="69.35205872965209" style="stroke: rgb(191, 105, 105);"></path><path d="M5,236.62304500478757C213,236.62304500478757,213,211.62304500478805,421,211.62304500478805" stroke-width="18.9466964570699" style="stroke: rgb(191, 105, 105);"></path><path d="M5,223.5748483881262C213,223.5748483881262,213,188.57484838812672,421,188.57484838812672" stroke-width="7.149696776252793" style="stroke: rgb(191, 105, 105);"></path><path d="M5,653.0928822215127C213,653.0928822215127,213,678.0928822215128,421,678.0928822215128" stroke-width="98.30833067347591" style="stroke: rgb(191, 105, 105);"></path><path d="M5,427.3412065113308C213,427.3412065113308,213,432.34120651133105,421,432.34120651133105" stroke-width="48.61793807851899" style="stroke: rgb(191, 105, 105);"></path><path d="M426,337.0810724545166C634,337.0810724545166,634,277.08107245451663,842,277.08107245451663" stroke-width="17.159272263006702" style="stroke: rgb(191, 162, 105);"></path><path d="M426,357.36833705713383C634,357.36833705713383,634,307.36833705713383,842,307.36833705713383" stroke-width="23.4152569422279" style="stroke: rgb(191, 162, 105);"></path><path d="M426,319.47494414299405C634,319.47494414299405,634,249.47494414299422,842,249.47494414299422" stroke-width="18.0529843600383" style="stroke: rgb(191, 162, 105);"></path><path d="M426,383.55410150015973C634,383.55410150015973,634,343.5541015001597,842,343.5541015001597" stroke-width="28.95627194382381" style="stroke: rgb(191, 162, 105);"></path><path d="M426,757.5343121608678C634,757.5343121608678,634,858.0130864985636,842,858.0130864985636" stroke-width="11.975742100223428" style="stroke: rgb(162, 191, 105);"></path><path d="M426,747.4353654644108C634,747.4353654644108,634,837.9141398021064,842,837.9141398021064" stroke-width="8.222151292690713" style="stroke: rgb(162, 191, 105);"></path><path d="M426,789.2610916054896C634,789.2610916054896,634,969.2610916054898,842,969.2610916054898" stroke-width="51.47781678902011" style="stroke: rgb(162, 191, 105);"></path><path d="M426,740.285668688158C634,740.285668688158,634,820.7644430258536,842,820.7644430258536" stroke-width="6.077242259814874" style="stroke: rgb(162, 191, 105);"></path><path d="M426,505.0797957229486C634,505.0797957229486,634,466.4618576444304,842,466.4618576444304" stroke-width="12.154484519629747" style="stroke: rgb(105, 191, 105);"></path><path d="M426,487.83115225023874C634,487.83115225023874,634,429.2132141717202,842,429.2132141717202" stroke-width="8.043408873284392" style="stroke: rgb(105, 191, 105);"></path><path d="M426,495.42770507500734C634,495.42770507500734,634,446.8097669964889,842,446.8097669964889" stroke-width="7.149696776252793" style="stroke: rgb(105, 191, 105);"></path><path d="M426,481.30705394190807C634,481.30705394190807,634,412.68911586338953,842,412.68911586338953" stroke-width="5.004787743376955" style="stroke: rgb(105, 191, 105);"></path><path d="M426,542.5263325885726C634,542.5263325885726,634,533.9083945100543,842,533.9083945100543" stroke-width="13.405681455473987" style="stroke: rgb(105, 191, 105);"></path><path d="M426,476.1235237791248C634,476.1235237791248,634,397.5055857006064,842,397.5055857006064" stroke-width="5.362272582189595" style="stroke: rgb(105, 191, 105);"></path><path d="M426,587.3013086498557C634,587.3013086498557,634,608.6833705713373,842,608.6833705713373" stroke-width="17.516757101819344" style="stroke: rgb(105, 191, 105);"></path><path d="M426,467.27577401851204C634,467.27577401851204,634,368.6578359399935,842,368.6578359399935" stroke-width="1.2511969358442387" style="stroke: rgb(105, 191, 105);"></path><path d="M426,556.8257261410781C634,556.8257261410781,634,558.2077880625599,842,558.2077880625599" stroke-width="15.193105649537186" style="stroke: rgb(105, 191, 105);"></path><path d="M426,516.2511969358436C634,516.2511969358436,634,487.6332588573256,842,487.6332588573256" stroke-width="10.18831790616023" style="stroke: rgb(105, 191, 105);"></path><path d="M426,470.6718799872321C634,470.6718799872321,634,382.0539419087136,842,382.0539419087136" stroke-width="5.541015001595914" style="stroke: rgb(105, 191, 105);"></path><path d="M426,528.5844238748796C634,528.5844238748796,634,509.96648579636155,842,509.96648579636155" stroke-width="14.478135971911906" style="stroke: rgb(105, 191, 105);"></path><path d="M426,607.4992020427699C634,607.4992020427699,634,638.8812639642514,842,638.8812639642514" stroke-width="22.879029684008938" style="stroke: rgb(105, 191, 105);"></path><path d="M426,571.4826045323964C634,571.4826045323964,634,582.864666453878,842,582.864666453878" stroke-width="14.120651133099265" style="stroke: rgb(105, 191, 105);"></path><path d="M426,293.03064155761274C634,293.03064155761274,634,223.0306415576128,842,223.0306415576128" stroke-width="14.835620810724546" style="stroke: rgb(105, 191, 162);"></path><path d="M426,281.1442706670924C634,281.1442706670924,634,201.14427066709246,842,201.14427066709246" stroke-width="8.937120970315991" style="stroke: rgb(105, 191, 162);"></path><path d="M426,234.0456431535271C634,234.0456431535271,634,84.04564315352728,842,84.04564315352728" stroke-width="5.8984998404085545" style="stroke: rgb(105, 191, 162);"></path><path d="M426,255.49473348228554C634,255.49473348228554,634,145.49473348228565,842,145.49473348228565" stroke-width="9.11586338972231" style="stroke: rgb(105, 191, 162);"></path><path d="M426,239.49728694541986C634,239.49728694541986,634,99.49728694541996,842,99.49728694541996" stroke-width="5.004787743376955" style="stroke: rgb(105, 191, 162);"></path><path d="M426,248.70252154484535C634,248.70252154484535,634,128.70252154484533,842,128.70252154484533" stroke-width="4.468560485157996" style="stroke: rgb(105, 191, 162);"></path><path d="M426,244.23396105968735C634,244.23396105968735,634,114.23396105968742,842,114.23396105968742" stroke-width="4.468560485157996" style="stroke: rgb(105, 191, 162);"></path><path d="M426,264.6105968720079C634,264.6105968720079,634,164.610596872008,842,164.610596872008" stroke-width="9.11586338972231" style="stroke: rgb(105, 191, 162);"></path><path d="M426,272.92211937440175C634,272.92211937440175,634,182.92211937440186,842,182.92211937440186" stroke-width="7.5071816150654325" style="stroke: rgb(105, 191, 162);"></path><path d="M426,206.35014363230164C634,206.35014363230164,634,46.35014363230134,842,46.35014363230134" stroke-width="8.400893712097032" style="stroke: rgb(105, 162, 191);"></path><path d="M426,215.82349186083658C634,215.82349186083658,634,65.82349186083654,842,65.82349186083654" stroke-width="10.54580274497287" style="stroke: rgb(105, 162, 191);"></path><path d="M426,221.096393233323C634,221.096393233323,634,1004.9999999999999,842,1004.9999999999999" stroke-width="0" style="stroke: rgb(105, 162, 191);"></path><path d="M426,188.75359080753304C634,188.75359080753304,634,28.753590807532657,842,28.753590807532657" stroke-width="6.792211937440153" style="stroke: rgb(105, 105, 191);"></path><path d="M426,185.0893712097035C634,185.0893712097035,634,5.089371209703216,842,5.089371209703216" stroke-width="0.17874241940631982" style="stroke: rgb(105, 105, 191);"></path><path d="M426,185.26811362910982C634,185.26811362910982,634,15.268113629109479,842,15.268113629109479" stroke-width="0.17874241940631982" style="stroke: rgb(105, 105, 191);"></path><path d="M426,633.4072773699329C634,633.4072773699329,634,753.4072773699329,842,753.4072773699329" stroke-width="8.937120970315991" style="stroke: rgb(162, 105, 191);"></path><path d="M426,697.4864347270984C634,697.4864347270984,634,903.7615703798275,842,903.7615703798275" stroke-width="59.5212256623045" style="stroke: rgb(162, 105, 191);"></path><path d="M426,643.9530801149057C634,643.9530801149057,634,773.9530801149056,842,773.9530801149056" stroke-width="12.154484519629747" style="stroke: rgb(162, 105, 191);"></path><path d="M426,658.8780721353334C634,658.8780721353334,634,798.8780721353332,842,798.8780721353332" stroke-width="17.695499521225663" style="stroke: rgb(162, 105, 191);"></path><path d="M426,428.23013086498565C634,428.23013086498565,634,700.5186721991699,842,700.5186721991699" stroke-width="17.516757101819344" style="stroke: rgb(191, 105, 162);"></path><path d="M426,446.8193424832429C634,446.8193424832429,634,729.1078838174273,842,729.1078838174273" stroke-width="19.66166613469518" style="stroke: rgb(191, 105, 162);"></path><path d="M426,415.80753271624644C634,415.80753271624644,634,678.0960740504307,842,678.0960740504307" stroke-width="7.328439195659112" style="stroke: rgb(191, 105, 162);"></path><path d="M426,410.0877752952442C634,410.0877752952442,634,662.3763166294285,842,662.3763166294285" stroke-width="4.111075646345356" style="stroke: rgb(191, 105, 162);"></path></g><g class="nodes" font-family="Arial, Helvetica" font-size="10"><g><rect x="0" y="219.99999999999983" height="560.0000000000003" width="5" fill="#000"></rect><text x="11" y="500" dy="0.35em" text-anchor="start">HR and equality</text></g><g><rect x="421" y="408.03223747207153" height="48.617938078518364" width="5" fill="#000"></rect><text x="415" y="432.3412065113307" dy="0.35em" text-anchor="end">Citizenship</text></g><g><rect x="421" y="466.6501755505899" height="152.28854133418497" width="5" fill="#000"></rect><text x="415" y="542.7944462176824" dy="0.35em" text-anchor="end">Civil and political rights</text></g><g><rect x="421" y="737.2470475582505" height="77.75295244174913" width="5" fill="#000"></rect><text x="415" y="776.1235237791251" dy="0.35em" text-anchor="end">Human Rights Framework</text></g><g><rect x="421" y="628.9387168847749" height="98.30833067347567" width="5" fill="#000"></rect><text x="415" y="678.0928822215127" dy="0.35em" text-anchor="end">Media and communication</text></g><g><rect x="421" y="202.1496967762531" height="18.94669645706972" width="5" fill="#000"></rect><text x="415" y="211.62304500478797" dy="0.35em" text-anchor="end">NHRI (National HRInstitution)</text></g><g><rect x="421" y="310.4484519629749" height="87.58378550909663" width="5" fill="#000"></rect><text x="415" y="354.2403447175232" dy="0.35em" text-anchor="end">Protection measures</text></g><g><rect x="421" y="185.00000000000034" height="7.1496967762527674" width="5" fill="#000"></rect><text x="415" y="188.57484838812672" dy="0.35em" text-anchor="end">Regional or int. HR institutions</text></g><g><rect x="421" y="231.09639323332283" height="69.35205872965207" width="5" fill="#000"></rect><text x="415" y="265.77242259814886" dy="0.35em" text-anchor="end">Socio-economic rights</text></g><g><rect x="842" y="96.99489307373148" height="5.004787743376937" width="5" fill="#000"></rect><text x="836" y="99.49728694541994" dy="0.35em" text-anchor="end">Adequate standard of living</text></g><g><rect x="842" y="833.803064155761" height="8.222151292690796" width="5" fill="#000"></rect><text x="836" y="837.9141398021064" dy="0.35em" text-anchor="end">Bill of Rights</text></g><g><rect x="842" y="5.000000000000057" height="0.17874241940626234" width="5" fill="#000"></rect><text x="836" y="5.089371209703188" dy="0.35em" text-anchor="end">Body tasked</text></g><g><rect x="842" y="575.8043408873284" height="14.120651133099159" width="5" fill="#000"></rect><text x="836" y="582.864666453878" dy="0.35em" text-anchor="end">Other</text></g><g><rect x="842" y="691.7602936482602" height="17.516757101819394" width="5" fill="#000"></rect><text x="836" y="700.5186721991699" dy="0.35em" text-anchor="end">Citizen general</text></g><g><rect x="842" y="719.2770507500796" height="19.661666134695224" width="5" fill="#000"></rect><text x="836" y="729.1078838174273" dy="0.35em" text-anchor="end">Citizens specific rights</text></g><g><rect x="842" y="674.4318544526012" height="7.32843919565903" width="5" fill="#000"></rect><text x="836" y="678.0960740504307" dy="0.35em" text-anchor="end">Citizenship delimitation</text></g><g><rect x="842" y="660.3207788062558" height="4.111075646345398" width="5" fill="#000"></rect><text x="836" y="662.3763166294285" dy="0.35em" text-anchor="end">Other</text></g><g><rect x="842" y="160.05266517714682" height="9.115863389722335" width="5" fill="#000"></rect><text x="836" y="164.610596872008" dy="0.35em" text-anchor="end">Cultural rights</text></g><g><rect x="842" y="140.93680178742449" height="9.115863389722335" width="5" fill="#000"></rect><text x="836" y="145.49473348228565" dy="0.35em" text-anchor="end">Education</text></g><g><rect x="842" y="443.23491860836253" height="7.149696776252995" width="5" fill="#000"></rect><text x="836" y="446.80976699648903" dy="0.35em" text-anchor="end">Equality</text></g><g><rect x="842" y="482.53909990424546" height="10.188317906160137" width="5" fill="#000"></rect><text x="836" y="487.63325885732553" dy="0.35em" text-anchor="end">Fair trial</text></g><g><rect x="842" y="550.6112352377913" height="15.193105649537074" width="5" fill="#000"></rect><text x="836" y="558.2077880625599" dy="0.35em" text-anchor="end">Freedom of association</text></g><g><rect x="842" y="599.9249920204276" height="17.516757101819394" width="5" fill="#000"></rect><text x="836" y="608.6833705713373" dy="0.35em" text-anchor="end">Freedom of movement</text></g><g><rect x="842" y="368.03223747207136" height="1.2511969358442911" width="5" fill="#000"></rect><text x="836" y="368.6578359399935" dy="0.35em" text-anchor="end">Freedom of speech</text></g><g><rect x="842" y="748.9387168847749" height="8.937120970315846" width="5" fill="#000"></rect><text x="836" y="753.4072773699328" dy="0.35em" text-anchor="end">Governance of Media</text></g><g><rect x="842" y="81.096393233323" height="5.898499840408476" width="5" fill="#000"></rect><text x="836" y="84.04564315352724" dy="0.35em" text-anchor="end">Health</text></g><g><rect x="842" y="817.7258218959461" height="6.077242259814966" width="5" fill="#000"></rect><text x="836" y="820.7644430258536" dy="0.35em" text-anchor="end">Other</text></g><g><rect x="842" y="852.0252154484518" height="11.975742100223442" width="5" fill="#000"></rect><text x="836" y="858.0130864985636" dy="0.35em" text-anchor="end">HrfSp: Isolated rights</text></g><g><rect x="842" y="394.8244494095116" height="5.362272582189462" width="5" fill="#000"></rect><text x="836" y="397.50558570060633" dy="0.35em" text-anchor="end">Humane treatment in detention</text></g><g><rect x="842" y="943.5221832109797" height="51.47781678902015" width="5" fill="#000"></rect><text x="836" y="969.2610916054898" dy="0.35em" text-anchor="end">Incorporation of human rights treaties...</text></g><g><rect x="842" y="527.2055537823173" height="13.405681455473996" width="5" fill="#000"></rect><text x="836" y="533.9083945100543" dy="0.35em" text-anchor="end">Liberty and security of person</text></g><g><rect x="842" y="460.38461538461553" height="12.154484519629932" width="5" fill="#000"></rect><text x="836" y="466.4618576444305" dy="0.35em" text-anchor="end">Life</text></g><g><rect x="842" y="767.8758378550907" height="12.154484519629705" width="5" fill="#000"></rect><text x="836" y="773.9530801149056" dy="0.35em" text-anchor="end">Media Logistics</text></g><g><rect x="842" y="790.0303223747204" height="17.695499521225656" width="5" fill="#000"></rect><text x="836" y="798.8780721353332" dy="0.35em" text-anchor="end">Other</text></g><g><rect x="842" y="874.0009575486753" height="59.52122566230446" width="5" fill="#000"></rect><text x="836" y="903.7615703798275" dy="0.35em" text-anchor="end">Media Roles</text></g><g><rect x="842" y="42.149696776252824" height="8.400893712097286" width="5" fill="#000"></rect><text x="836" y="46.35014363230147" dy="0.35em" text-anchor="end">Mentions of NHRI</text></g><g><rect x="842" y="25.35748483881258" height="6.792211937440243" width="5" fill="#000"></rect><text x="836" y="28.753590807532703" dy="0.35em" text-anchor="end">Monitoring calls</text></g><g><rect x="842" y="60.55059048835011" height="10.545802744972889" width="5" fill="#000"></rect><text x="836" y="65.82349186083655" dy="0.35em" text-anchor="end">New or fundamentally revised NHRI</text></g><g><rect x="842" y="1004.9999999999999" height="NaN" width="5" fill="#000"></rect><text x="836" y="NaN" dy="0.35em" text-anchor="end">Other NHRI</text></g><g><rect x="842" y="15.17874241940632" height="0.17874241940626234" width="5" fill="#000"></rect><text x="836" y="15.26811362910945" dy="0.35em" text-anchor="end">Other regional or int. HR institutions</text></g><g><rect x="842" y="379.28343440791565" height="5.541015001595952" width="5" fill="#000"></rect><text x="836" y="382.0539419087136" dy="0.35em" text-anchor="end">Privacy and family life</text></g><g><rect x="842" y="215.61283115225052" height="14.83562081072455" width="5" fill="#000"></rect><text x="836" y="223.0306415576128" dy="0.35em" text-anchor="end">Property</text></g><g><rect x="842" y="268.50143632301325" height="17.159272263006642" width="5" fill="#000"></rect><text x="836" y="277.0810724545166" dy="0.35em" text-anchor="end">ProtCiv: Protection of civilians</text></g><g><rect x="842" y="295.6607085860199" height="23.41525694222787" width="5" fill="#000"></rect><text x="836" y="307.36833705713383" dy="0.35em" text-anchor="end">ProtGrp: Protection of groups</text></g><g><rect x="842" y="240.44845196297507" height="18.05298436003818" width="5" fill="#000"></rect><text x="836" y="249.47494414299416" dy="0.35em" text-anchor="end">ProtLgl: Protection of rights and legal frameworks</text></g><g><rect x="842" y="329.07596552824776" height="28.956271943823594" width="5" fill="#000"></rect><text x="836" y="343.55410150015956" dy="0.35em" text-anchor="end">Other protection measures</text></g><g><rect x="842" y="179.16852856686916" height="7.507181615065292" width="5" fill="#000"></rect><text x="836" y="182.9221193744018" dy="0.35em" text-anchor="end">Other</text></g><g><rect x="842" y="126.46824130226634" height="4.46856048515815" width="5" fill="#000"></rect><text x="836" y="128.7025215448454" dy="0.35em" text-anchor="end">Shelter/housing</text></g><g><rect x="842" y="410.18672199170106" height="5.004787743376937" width="5" fill="#000"></rect><text x="836" y="412.68911586338953" dy="0.35em" text-anchor="end">Slavery</text></g><g><rect x="842" y="111.99968081710841" height="4.468560485157923" width="5" fill="#000"></rect><text x="836" y="114.23396105968737" dy="0.35em" text-anchor="end">Social security</text></g><g><rect x="842" y="627.441749122247" height="22.879029684008856" width="5" fill="#000"></rect><text x="836" y="638.8812639642514" dy="0.35em" text-anchor="end">Thought opinion conscience and religion</text></g><g><rect x="842" y="425.191509735078" height="8.043408873284534" width="5" fill="#000"></rect><text x="836" y="429.21321417172027" dy="0.35em" text-anchor="end">Torture</text></g><g><rect x="842" y="502.7274178104056" height="14.478135971911797" width="5" fill="#000"></rect><text x="836" y="509.9664857963615" dy="0.35em" text-anchor="end">Vote and take part</text></g><g><rect x="842" y="196.67571018193445" height="8.937120970316073" width="5" fill="#000"></rect><text x="836" y="201.14427066709248" dy="0.35em" text-anchor="end">Work</text></g></g></g></svg>