<svg id="mysvg" width="847" height="520" xmlns="http://www.w3.org/2000/svg" version="1.1"><g transform="translate(0, 10)"><g class="links" fill="none" stroke-opacity="0.4"><path d="M5,168.4508990318119C213,168.4508990318119,213,168.45089903181184,421,168.45089903181184" stroke-width="128.40940525587828" style="stroke: rgb(191, 105, 105);"></path><path d="M5,47.952973720608604C213,47.952973720608604,213,27.952973720608632,421,27.952973720608632" stroke-width="35.90594744121715" style="stroke: rgb(191, 105, 105);"></path><path d="M5,388.7551867219917C213,388.7551867219917,213,408.75518672199166,421,408.75518672199166" stroke-width="162.4896265560166" style="stroke: rgb(191, 105, 105);"></path><path d="M5,85.07607192254498C213,85.07607192254498,213,75.07607192254497,421,75.07607192254497" stroke-width="38.3402489626556" style="stroke: rgb(191, 105, 105);"></path><path d="M5,270.08298755186723C213,270.08298755186723,213,280.0829875518674,421,280.0829875518674" stroke-width="74.85477178423236" style="stroke: rgb(191, 105, 105);"></path><path d="M426,201.31396957123093C634,201.31396957123093,634,211.31396957123084,842,211.31396957123084" stroke-width="62.68326417704011" style="stroke: rgb(191, 191, 105);"></path><path d="M426,150.19363762102347C634,150.19363762102347,634,150.19363762102338,842,150.19363762102338" stroke-width="39.55739972337482" style="stroke: rgb(191, 191, 105);"></path><path d="M426,117.33056708160439C634,117.33056708160439,634,107.3305670816043,842,107.3305670816043" stroke-width="26.168741355463347" style="stroke: rgb(191, 191, 105);"></path><path d="M426,27.952973720608632C634,27.952973720608632,634,17.952973720608547,842,17.952973720608547" stroke-width="35.90594744121715" style="stroke: rgb(105, 191, 105);"></path><path d="M426,408.75518672199166C634,408.75518672199166,634,418.7551867219917,842,418.7551867219917" stroke-width="162.4896265560166" style="stroke: rgb(105, 191, 191);"></path><path d="M426,75.07607192254497C634,75.07607192254497,634,65.07607192254488,842,65.07607192254488" stroke-width="38.3402489626556" style="stroke: rgb(105, 105, 191);"></path><path d="M426,280.0829875518674C634,280.0829875518674,634,290.08298755186706,842,290.08298755186706" stroke-width="74.85477178423236" style="stroke: rgb(191, 105, 191);"></path></g><g class="nodes" font-family="Arial, Helvetica" font-size="10"><g><rect x="0" y="30.00000000000003" height="439.99999999999994" width="5" fill="#000"></rect><text x="11" y="250" dy="0.35em" text-anchor="start">Justice Sector Reform</text></g><g><rect x="421" y="104.24619640387272" height="128.40940525587848" width="5" fill="#000"></rect><text x="415" y="168.45089903181196" dy="0.35em" text-anchor="end">Criminal Justice and Emergency law</text></g><g><rect x="421" y="10.000000000000057" height="35.90594744121711" width="5" fill="#000"></rect><text x="415" y="27.95297372060861" dy="0.35em" text-anchor="end">JusEm: State of Emergency Provisions</text></g><g><rect x="421" y="327.5103734439834" height="162.48962655601656" width="5" fill="#000"></rect><text x="415" y="408.75518672199166" dy="0.35em" text-anchor="end">JusJu: Judiciary and courts</text></g><g><rect x="421" y="55.905947441217165" height="38.34024896265555" width="5" fill="#000"></rect><text x="415" y="75.07607192254494" dy="0.35em" text-anchor="end">JusPri: Prisons and detention</text></g><g><rect x="421" y="242.6556016597512" height="74.85477178423218" width="5" fill="#000"></rect><text x="415" y="280.0829875518673" dy="0.35em" text-anchor="end">JusTra: Traditional/ Religious Laws</text></g><g><rect x="842" y="252.6556016597509" height="74.85477178423258" width="5" fill="#000"></rect><text x="836" y="290.0829875518672" dy="0.35em" text-anchor="end">(123)</text></g><g><rect x="842" y="337.51037344398344" height="162.48962655601656" width="5" fill="#000"></rect><text x="836" y="418.7551867219917" dy="0.35em" text-anchor="end">(267)</text></g><g><rect x="842" y="-2.842170943040401e-14" height="35.90594744121711" width="5" fill="#000"></rect><text x="836" y="17.952973720608526" dy="0.35em" text-anchor="end">(59)</text></g><g><rect x="842" y="45.90594744121708" height="38.34024896265555" width="5" fill="#000"></rect><text x="836" y="65.07607192254486" dy="0.35em" text-anchor="end">(63)</text></g><g><rect x="842" y="130.41493775933597" height="39.55739972337483" width="5" fill="#000"></rect><text x="836" y="150.19363762102338" dy="0.35em" text-anchor="end">Criminal Justice System Reform</text></g><g><rect x="842" y="94.24619640387263" height="26.16874135546334" width="5" fill="#000"></rect><text x="836" y="107.3305670816043" dy="0.35em" text-anchor="end">Delimitation of powers in Criminal Justice System</text></g><g><rect x="842" y="179.9723374827108" height="62.68326417704009" width="5" fill="#000"></rect><text x="836" y="211.31396957123084" dy="0.35em" text-anchor="end">Reform to specific laws</text></g></g></g></svg>