<svg id="mysvg" width="847" height="520" xmlns="http://www.w3.org/2000/svg" version="1.1"><g transform="translate(0, 10)"><g class="links" fill="none" stroke-opacity="0.4"><path d="M5,137.89300202839758C213,137.89300202839758,213,92.89300202839767,421,92.89300202839767" stroke-width="145.78600405679512" style="stroke: rgb(191, 105, 105);"></path><path d="M5,397.1932048681541C213,397.1932048681541,213,402.19320486815417,421,402.19320486815417" stroke-width="14.822515212981745" style="stroke: rgb(191, 105, 105);"></path><path d="M5,337.7155172413793C213,337.7155172413793,213,322.7155172413796,421,322.7155172413796" stroke-width="38.088235294117645" style="stroke: rgb(191, 105, 105);"></path><path d="M5,239.0238336713996C213,239.0238336713996,213,204.0238336713998,421,204.0238336713998" stroke-width="56.47565922920893" style="stroke: rgb(191, 105, 105);"></path><path d="M5,292.9665314401622C213,292.9665314401622,213,267.96653144016244,421,267.96653144016244" stroke-width="51.40973630831643" style="stroke: rgb(191, 105, 105);"></path><path d="M5,373.2707910750507C213,373.2707910750507,213,368.2707910750508,421,368.2707910750508" stroke-width="33.022312373225155" style="stroke: rgb(191, 105, 105);"></path><path d="M5,410.6085192697768C213,410.6085192697768,213,425.6085192697768,421,425.6085192697768" stroke-width="12.008113590263692" style="stroke: rgb(191, 105, 105);"></path><path d="M5,428.80831643002017C213,428.80831643002017,213,463.8083164300202,421,463.8083164300202" stroke-width="7.129817444219067" style="stroke: rgb(191, 105, 105);"></path><path d="M5,420.92799188640964C213,420.92799188640964,213,445.9279918864097,421,445.9279918864097" stroke-width="8.630831643002029" style="stroke: rgb(191, 105, 105);"></path><path d="M5,433.68661257606476C213,433.68661257606476,213,478.6866125760648,421,478.6866125760648" stroke-width="2.6267748478701827" style="stroke: rgb(191, 105, 105);"></path><path d="M426,70.94066937119686C634,70.94066937119686,634,50.940669371196584,842,50.940669371196584" stroke-width="101.88133874239351" style="stroke: rgb(191, 152, 105);"></path><path d="M426,142.23884381338755C634,142.23884381338755,634,260.1242393509127,842,260.1242393509127" stroke-width="40.71501014198783" style="stroke: rgb(191, 152, 105);"></path><path d="M426,164.19117647058835C634,164.19117647058835,634,474.65263691683606,842,474.65263691683606" stroke-width="3.189655172413793" style="stroke: rgb(191, 152, 105);"></path><path d="M426,402.19320486815417C634,402.19320486815417,634,375.8696754563897,842,375.8696754563897" stroke-width="14.822515212981745" style="stroke: rgb(183, 191, 105);"></path><path d="M426,322.7155172413796C634,322.7155172413796,634,309.52586206896547,842,309.52586206896547" stroke-width="38.088235294117645" style="stroke: rgb(136, 191, 105);"></path><path d="M426,204.0238336713998C634,204.0238336713998,634,140.11916835699782,842,140.11916835699782" stroke-width="56.47565922920893" style="stroke: rgb(105, 191, 121);"></path><path d="M426,267.96653144016244C634,267.96653144016244,634,204.0618661257603,842,204.0618661257603" stroke-width="51.40973630831643" style="stroke: rgb(105, 191, 167);"></path><path d="M426,377.6521298174443C634,377.6521298174443,634,421.2931034482761,842,421.2931034482761" stroke-width="12.008113590263692" style="stroke: rgb(105, 167, 191);"></path><path d="M426,361.70385395537534C634,361.70385395537534,634,348.51419878296156,842,348.51419878296156" stroke-width="19.88843813387424" style="stroke: rgb(105, 167, 191);"></path><path d="M426,384.2190669371197C634,384.2190669371197,634,499.4371196754566,842,499.4371196754566" stroke-width="1.1257606490872212" style="stroke: rgb(105, 167, 191);"></path><path d="M426,425.6085192697768C634,425.6085192697768,634,399.28498985801235,842,399.28498985801235" stroke-width="12.008113590263692" style="stroke: rgb(105, 121, 191);"></path><path d="M426,463.8083164300202C634,463.8083164300202,634,459.4929006085195,842,459.4929006085195" stroke-width="7.129817444219067" style="stroke: rgb(136, 105, 191);"></path><path d="M426,445.9279918864097C634,445.9279918864097,634,441.612576064909,842,441.612576064909" stroke-width="8.630831643002029" style="stroke: rgb(183, 105, 191);"></path><path d="M426,478.6866125760648C634,478.6866125760648,634,487.56085192697793,842,487.56085192697793" stroke-width="2.6267748478701827" style="stroke: rgb(191, 105, 152);"></path></g><g class="nodes" font-family="Arial, Helvetica" font-size="10"><g><rect x="0" y="65" height="370" width="5" fill="#000"></rect><text x="11" y="250" dy="0.35em" text-anchor="start">Socio-Economic Reconstruction</text></g><g><rect x="421" y="419.60446247464495" height="12.008113590263747" width="5" fill="#000"></rect><text x="415" y="425.6085192697768" dy="0.35em" text-anchor="end">BanksCentral bank</text></g><g><rect x="421" y="477.37322515212975" height="2.626774847870138" width="5" fill="#000"></rect><text x="415" y="478.6866125760648" dy="0.35em" text-anchor="end">BanksCross-border financial flows</text></g><g><rect x="421" y="441.6125760649087" height="8.630831643002011" width="5" fill="#000"></rect><text x="415" y="445.9279918864097" dy="0.35em" text-anchor="end">BanksInternational finance</text></g><g><rect x="421" y="460.2434077079107" height="7.129817444219043" width="5" fill="#000"></rect><text x="415" y="463.8083164300202" dy="0.35em" text-anchor="end">BanksPersonal or commercial banking</text></g><g><rect x="421" y="242.26166328600422" height="51.409736308316496" width="5" fill="#000"></rect><text x="415" y="267.9665314401625" dy="0.35em" text-anchor="end">Business</text></g><g><rect x="421" y="20.000000000000114" height="145.78600405679524" width="5" fill="#000"></rect><text x="415" y="92.89300202839773" dy="0.35em" text-anchor="end">Development or socio-economic reconstruction</text></g><g><rect x="421" y="175.78600405679535" height="56.47565922920887" width="5" fill="#000"></rect><text x="415" y="204.02383367139979" dy="0.35em" text-anchor="end">International funds</text></g><g><rect x="421" y="394.7819472616633" height="14.82251521298167" width="5" fill="#000"></rect><text x="415" y="402.1932048681541" dy="0.35em" text-anchor="end">National economic plan</text></g><g><rect x="421" y="303.67139959432075" height="38.08823529411745" width="5" fill="#000"></rect><text x="415" y="322.7155172413795" dy="0.35em" text-anchor="end">Natural resources</text></g><g><rect x="421" y="351.7596348884382" height="33.02231237322508" width="5" fill="#000"></rect><text x="415" y="368.27079107505074" dy="0.35em" text-anchor="end">Taxation</text></g><g><rect x="842" y="498.874239350913" height="1.1257606490871694" width="5" fill="#000"></rect><text x="836" y="499.4371196754566" dy="0.35em" text-anchor="end">Other</text></g><g><rect x="842" y="486.24746450304286" height="2.626774847870138" width="5" fill="#000"></rect><text x="836" y="487.56085192697793" dy="0.35em" text-anchor="end">(14)</text></g><g><rect x="842" y="290.4817444219066" height="38.088235294117794" width="5" fill="#000"></rect><text x="836" y="309.5258620689655" dy="0.35em" text-anchor="end">(203)</text></g><g><rect x="842" y="178.35699797160208" height="51.409736308316724" width="5" fill="#000"></rect><text x="836" y="204.06186612576045" dy="0.35em" text-anchor="end">(274)</text></g><g><rect x="842" y="111.88133874239334" height="56.47565922920876" width="5" fill="#000"></rect><text x="836" y="140.1191683569977" dy="0.35em" text-anchor="end">(301)</text></g><g><rect x="842" y="455.92799188641" height="7.129817444219157" width="5" fill="#000"></rect><text x="836" y="459.49290060851956" dy="0.35em" text-anchor="end">(38)</text></g><g><rect x="842" y="437.297160243408" height="8.630831643002011" width="5" fill="#000"></rect><text x="836" y="441.612576064909" dy="0.35em" text-anchor="end">(46)</text></g><g><rect x="842" y="393.2809330628805" height="12.008113590263747" width="5" fill="#000"></rect><text x="836" y="399.28498985801235" dy="0.35em" text-anchor="end">(64)</text></g><g><rect x="842" y="368.4584178498988" height="14.82251521298167" width="5" fill="#000"></rect><text x="836" y="375.86967545638964" dy="0.35em" text-anchor="end">(79)</text></g><g><rect x="842" y="-1.7053025658242404e-13" height="101.88133874239351" width="5" fill="#000"></rect><text x="836" y="50.940669371196584" dy="0.35em" text-anchor="end">DevSoc: Socio-Economic Development</text></g><g><rect x="842" y="239.7667342799188" height="40.71501014198782" width="5" fill="#000"></rect><text x="836" y="260.1242393509127" dy="0.35em" text-anchor="end">Humanitarian assistance</text></g><g><rect x="842" y="473.05780933062914" height="3.1896551724137225" width="5" fill="#000"></rect><text x="836" y="474.652636916836" dy="0.35em" text-anchor="end">Infrastructure and reconstruction</text></g><g><rect x="842" y="415.2890466531442" height="12.008113590263747" width="5" fill="#000"></rect><text x="836" y="421.2931034482761" dy="0.35em" text-anchor="end">Power to Tax</text></g><g><rect x="842" y="338.5699797160244" height="19.888438133874388" width="5" fill="#000"></rect><text x="836" y="348.5141987829616" dy="0.35em" text-anchor="end">Reform of Taxation</text></g></g></g></svg>