<svg width="848" height="520" xmlns="http://www.w3.org/2000/svg" version="1.1"><g transform="translate(0, 10)"><g class="links" fill="none" stroke-opacity="0.4"><path d="M5,218.44173441734415C107.875,218.44173441734415,107.875,218.44173441734418,210.75,218.44173441734418" stroke-width="436.8834688346883" style="stroke: rgb(191, 105, 105);"></path><path d="M5,439.5392953929539C107.875,439.5392953929539,107.875,481.409214092141,210.75,481.409214092141" stroke-width="5.311653116531165" style="stroke: rgb(191, 105, 105);"></path><path d="M5,468.13008130081295C107.875,468.13008130081295,107.875,452.8184281842818,210.75,452.8184281842818" stroke-width="31.86991869918699" style="stroke: rgb(191, 191, 105);"></path><path d="M5,492.03252032520317C107.875,492.03252032520317,107.875,492.0325203252033,210.75,492.0325203252033" stroke-width="15.934959349593495" style="stroke: rgb(191, 191, 105);"></path><path d="M215.75,234.37669376693768C318.625,234.37669376693768,318.625,239.37669376693768,421.5,239.37669376693768" stroke-width="468.7533875338753" style="stroke: rgb(105, 191, 105);"></path><path d="M215.75,489.37669376693776C318.625,489.37669376693776,318.625,484.37669376693765,421.5,484.37669376693765" stroke-width="21.24661246612466" style="stroke: rgb(105, 191, 191);"></path><path d="M426.5,250C529.375,250,529.375,250,632.25,250" stroke-width="489.99999999999994" style="stroke: rgb(105, 105, 191);"></path><path d="M637.25,231.40921409214093C740.125,231.40921409214093,740.125,226.4092140921409,843,226.4092140921409" stroke-width="452.8184281842818" style="stroke: rgb(191, 105, 191);"></path><path d="M637.25,476.4092140921409C740.125,476.4092140921409,740.125,481.4092140921409,843,481.4092140921409" stroke-width="37.18157181571816" style="stroke: rgb(191, 105, 191);"></path></g><g class="nodes" font-family="Arial, Helvetica" font-size="10"><g><rect x="843" y="0" height="452.81842818428186" width="5" fill="#000"></rect><text x="837" y="226.40921409214093" dy="0.35em" text-anchor="end">0</text></g><g><rect x="843" y="462.81842818428186" height="37.181571815718144" width="5" fill="#000"></rect><text x="837" y="481.4092140921409" dy="0.35em" text-anchor="end">1</text></g><g><rect x="632.25" y="5.000000000000028" height="489.99999999999994" width="5" fill="#000"></rect><text x="626.25" y="250" dy="0.35em" text-anchor="end">0</text></g><g><rect x="210.75" y="2.842170943040401e-14" height="468.75338753387535" width="5" fill="#000"></rect><text x="204.75" y="234.3766937669377" dy="0.35em" text-anchor="end">0</text></g><g><rect x="210.75" y="478.7533875338754" height="21.24661246612459" width="5" fill="#000"></rect><text x="204.75" y="489.3766937669377" dy="0.35em" text-anchor="end">1</text></g><g><rect x="421.5" y="5.000000000000028" height="489.99999999999994" width="5" fill="#000"></rect><text x="415.5" y="250" dy="0.35em" text-anchor="end">0</text></g><g><rect x="0" y="0" height="442.19512195121945" width="5" fill="#000"></rect><text x="11" y="221.09756097560972" dy="0.35em" text-anchor="start">0</text></g><g><rect x="0" y="452.19512195121945" height="47.80487804878055" width="5" fill="#000"></rect><text x="11" y="476.0975609756097" dy="0.35em" text-anchor="start">1</text></g></g></g></svg>