<svg width="847" height="520" xmlns="http://www.w3.org/2000/svg" version="1.1"><g transform="translate(0, 10)"><g class="links" fill="none" stroke-opacity="0.4"><path d="M5,19.390243902438744C213,19.390243902438744,213,139.39024390243904,421,139.39024390243904" stroke-width="8.536585365853659" style="stroke: rgb(191, 105, 105);"></path><path d="M5,23.94308943089403C213,23.94308943089403,213,348.9024390243904,421,348.9024390243904" stroke-width="0.5691056910569106" style="stroke: rgb(191, 105, 105);"></path><path d="M5,113.17073170731676C213,113.17073170731676,213,187.47967479674796,421,187.47967479674796" stroke-width="6.829268292682927" style="stroke: rgb(191, 120, 105);"></path><path d="M5,116.86991869918667C213,116.86991869918667,213,351.7479674796749,421,351.7479674796749" stroke-width="0.5691056910569106" style="stroke: rgb(191, 120, 105);"></path><path d="M5,92.07317073170705C213,92.07317073170705,213,178.08943089430895,421,178.08943089430895" stroke-width="11.951219512195122" style="stroke: rgb(191, 135, 105);"></path><path d="M5,98.33333333333307C213,98.33333333333307,213,334.34959349593504,421,334.34959349593504" stroke-width="0.5691056910569106" style="stroke: rgb(191, 135, 105);"></path><path d="M5,99.18699186991843C213,99.18699186991843,213,350.8943089430895,421,350.8943089430895" stroke-width="1.1382113821138211" style="stroke: rgb(191, 135, 105);"></path><path d="M5,66.13821138211358C213,66.13821138211358,213,164.4308943089431,421,164.4308943089431" stroke-width="15.365853658536585" style="stroke: rgb(191, 150, 105);"></path><path d="M5,74.67479674796724C213,74.67479674796724,213,333.21138211382123,421,333.21138211382123" stroke-width="1.7073170731707317" style="stroke: rgb(191, 150, 105);"></path><path d="M5,75.81300813008104C213,75.81300813008104,213,350.0406504065042,421,350.0406504065042" stroke-width="0.5691056910569106" style="stroke: rgb(191, 150, 105);"></path><path d="M5,40.772357723576974C213,40.772357723576974,213,150.2032520325203,421,150.2032520325203" stroke-width="13.089430894308943" style="stroke: rgb(191, 166, 105);"></path><path d="M5,47.6016260162599C213,47.6016260162599,213,332.0731707317074,421,332.0731707317074" stroke-width="0.5691056910569106" style="stroke: rgb(191, 166, 105);"></path><path d="M5,48.17073170731681C213,48.17073170731681,213,349.4715447154473,421,349.4715447154473" stroke-width="0.5691056910569106" style="stroke: rgb(191, 166, 105);"></path><path d="M5,300.9349593495932C213,300.9349593495932,213,238.41463414634146,421,238.41463414634146" stroke-width="6.260162601626016" style="stroke: rgb(191, 181, 105);"></path><path d="M5,304.3495934959347C213,304.3495934959347,213,355.16260162601634,421,355.16260162601634" stroke-width="0.5691056910569106" style="stroke: rgb(191, 181, 105);"></path><path d="M5,275.2439024390241C213,275.2439024390241,213,354.59349593495944,421,354.59349593495944" stroke-width="0.5691056910569106" style="stroke: rgb(186, 191, 105);"></path><path d="M5,272.96747967479644C213,272.96747967479644,213,231.01626016260164,421,231.01626016260164" stroke-width="3.9837398373983737" style="stroke: rgb(186, 191, 105);"></path><path d="M5,233.86178861788582C213,233.86178861788582,213,222.479674796748,421,222.479674796748" stroke-width="6.260162601626016" style="stroke: rgb(171, 191, 105);"></path><path d="M5,219.593495934959C213,219.593495934959,213,353.17073170731715,421,353.17073170731715" stroke-width="1.1382113821138211" style="stroke: rgb(155, 191, 105);"></path><path d="M5,215.3252032520322C213,215.3252032520322,213,216.78861788617888,421,216.78861788617888" stroke-width="5.121951219512195" style="stroke: rgb(155, 191, 105);"></path><path d="M5,218.4552845528452C213,218.4552845528452,213,336.3414634146342,421,336.3414634146342" stroke-width="1.1382113821138211" style="stroke: rgb(155, 191, 105);"></path><path d="M5,220.44715447154437C213,220.44715447154437,213,368.57723577235777,421,368.57723577235777" stroke-width="0.5691056910569106" style="stroke: rgb(155, 191, 105);"></path><path d="M5,402.479674796748C213,402.479674796748,213,356.86991869918705,421,356.86991869918705" stroke-width="0.5691056910569106" style="stroke: rgb(140, 191, 105);"></path><path d="M5,393.9430894308943C213,393.9430894308943,213,268.5772357723577,421,268.5772357723577" stroke-width="15.365853658536585" style="stroke: rgb(140, 191, 105);"></path><path d="M5,401.9105691056911C213,401.9105691056911,213,338.33333333333337,421,338.33333333333337" stroke-width="0.5691056910569106" style="stroke: rgb(140, 191, 105);"></path><path d="M5,375.69105691056905C213,375.69105691056905,213,356.01626016260167,421,356.01626016260167" stroke-width="1.1382113821138211" style="stroke: rgb(125, 191, 105);"></path><path d="M5,373.41463414634137C213,373.41463414634137,213,259.18699186991864,421,259.18699186991864" stroke-width="3.4146341463414633" style="stroke: rgb(125, 191, 105);"></path><path d="M5,341.4634146341462C213,341.4634146341462,213,248.3739837398374,421,248.3739837398374" stroke-width="3.4146341463414633" style="stroke: rgb(110, 191, 105);"></path><path d="M5,286.6666666666664C213,286.6666666666664,213,234.14634146341461,421,234.14634146341461" stroke-width="2.2764227642276422" style="stroke: rgb(105, 191, 115);"></path><path d="M5,461.50406504065063C213,461.50406504065063,213,303.86178861788613,421,303.86178861788613" stroke-width="13.089430894308943" style="stroke: rgb(105, 191, 130);"></path><path d="M5,468.33333333333354C213,468.33333333333354,213,369.7154471544716,421,369.7154471544716" stroke-width="0.5691056910569106" style="stroke: rgb(105, 191, 130);"></path><path d="M5,438.41463414634165C213,438.41463414634165,213,290.7723577235772,421,290.7723577235772" stroke-width="13.089430894308943" style="stroke: rgb(105, 191, 145);"></path><path d="M5,170.81300813008102C213,170.81300813008102,213,203.9837398373984,421,203.9837398373984" stroke-width="5.691056910569106" style="stroke: rgb(105, 191, 161);"></path><path d="M5,173.94308943089402C213,173.94308943089402,213,368.00813008130086,421,368.00813008130086" stroke-width="0.5691056910569106" style="stroke: rgb(105, 191, 161);"></path><path d="M5,185.65040650406476C213,185.65040650406476,213,208.25203252032523,421,208.25203252032523" stroke-width="2.845528455284553" style="stroke: rgb(105, 191, 176);"></path><path d="M5,499.43089430894344C213,499.43089430894344,213,321.21951219512187,421,321.21951219512187" stroke-width="1.1382113821138211" style="stroke: rgb(105, 191, 191);"></path><path d="M5,155.40650406504037C213,155.40650406504037,213,198.57723577235774,421,198.57723577235774" stroke-width="5.121951219512195" style="stroke: rgb(105, 176, 191);"></path><path d="M5,248.13008130081263C213,248.13008130081263,213,226.7479674796748,421,226.7479674796748" stroke-width="2.2764227642276422" style="stroke: rgb(105, 161, 191);"></path><path d="M5,249.55284552845492C213,249.55284552845492,213,354.02439024390253,421,354.02439024390253" stroke-width="0.5691056910569106" style="stroke: rgb(105, 161, 191);"></path><path d="M5,129.7154471544712C213,129.7154471544712,213,334.91869918699194,421,334.91869918699194" stroke-width="0.5691056910569106" style="stroke: rgb(105, 145, 191);"></path><path d="M5,128.29268292682892C213,128.29268292682892,213,192.03252032520325,421,192.03252032520325" stroke-width="2.2764227642276422" style="stroke: rgb(105, 145, 191);"></path><path d="M5,416.74796747967497C213,416.74796747967497,213,280.2439024390244,421,280.2439024390244" stroke-width="7.967479674796747" style="stroke: rgb(105, 130, 191);"></path><path d="M5,421.0162601626018C213,421.0162601626018,213,357.43902439024396,421,357.43902439024396" stroke-width="0.5691056910569106" style="stroke: rgb(105, 130, 191);"></path><path d="M5,421.5853658536587C213,421.5853658536587,213,369.1463414634147,421,369.1463414634147" stroke-width="0.5691056910569106" style="stroke: rgb(105, 130, 191);"></path><path d="M5,199.3495934959347C213,199.3495934959347,213,211.95121951219514,421,211.95121951219514" stroke-width="4.5528455284552845" style="stroke: rgb(105, 115, 191);"></path><path d="M5,201.9105691056908C213,201.9105691056908,213,335.48780487804885,421,335.48780487804885" stroke-width="0.5691056910569106" style="stroke: rgb(105, 115, 191);"></path><path d="M5,202.4796747967477C213,202.4796747967477,213,352.3170731707318,421,352.3170731707318" stroke-width="0.5691056910569106" style="stroke: rgb(105, 115, 191);"></path><path d="M5,141.42276422764198C213,141.42276422764198,213,194.59349593495938,421,194.59349593495938" stroke-width="2.845528455284553" style="stroke: rgb(110, 105, 191);"></path><path d="M5,356.8699186991868C213,356.8699186991868,213,253.78048780487802,421,253.78048780487802" stroke-width="7.3983739837398375" style="stroke: rgb(125, 105, 191);"></path><path d="M5,361.13821138211364C213,361.13821138211364,213,337.479674796748,421,337.479674796748" stroke-width="1.1382113821138211" style="stroke: rgb(125, 105, 191);"></path><path d="M5,2.5609756097558134C213,2.5609756097558134,213,132.5609756097561,421,132.5609756097561" stroke-width="5.121951219512195" style="stroke: rgb(140, 105, 191);"></path><path d="M5,483.73983739837433C213,483.73983739837433,213,315.52845528455276,421,315.52845528455276" stroke-width="10.24390243902439" style="stroke: rgb(155, 105, 191);"></path><path d="M5,328.0487804878048C213,328.0487804878048,213,244.95934959349594,421,244.95934959349594" stroke-width="3.4146341463414633" style="stroke: rgb(171, 105, 191);"></path><path d="M5,315.4878048780487C213,315.4878048780487,213,242.39837398373982,421,242.39837398373982" stroke-width="1.7073170731707317" style="stroke: rgb(186, 105, 191);"></path><path d="M5,260.40650406504034C213,260.40650406504034,213,228.45528455284554,421,228.45528455284554" stroke-width="1.1382113821138211" style="stroke: rgb(191, 105, 181);"></path><path d="M426,151.91056910569105C634,151.91056910569105,634,146.91056910569094,842,146.91056910569094" stroke-width="43.82113821138211" style="stroke: rgb(191, 105, 166);"></path><path d="M426,241.8292682926829C634,241.8292682926829,634,277.6422764227641,842,277.6422764227641" stroke-width="55.203252032520325" style="stroke: rgb(191, 105, 166);"></path><path d="M426,176.3821138211382C634,176.3821138211382,634,186.50406504065023,842,186.50406504065023" stroke-width="5.121951219512195" style="stroke: rgb(191, 105, 166);"></path><path d="M426,196.58536585365852C634,196.58536585365852,634,217.2764227642274,842,217.2764227642274" stroke-width="35.28455284552845" style="stroke: rgb(191, 105, 166);"></path><path d="M426,295.609756097561C634,295.609756097561,634,348.8211382113822,842,348.8211382113822" stroke-width="52.357723577235774" style="stroke: rgb(191, 105, 166);"></path><path d="M426,336.9105691056911C634,336.9105691056911,634,306.95121951219494,842,306.95121951219494" stroke-width="3.4146341463414633" style="stroke: rgb(191, 105, 150);"></path><path d="M426,332.6422764227643C634,332.6422764227643,634,189.34959349593478,842,189.34959349593478" stroke-width="0.5691056910569106" style="stroke: rgb(191, 105, 150);"></path><path d="M426,334.06504065040656C634,334.06504065040656,634,236.05691056910544,842,236.05691056910544" stroke-width="2.2764227642276422" style="stroke: rgb(191, 105, 150);"></path><path d="M426,332.0731707317074C634,332.0731707317074,634,169.10569105691044,842,169.10569105691044" stroke-width="0.5691056910569106" style="stroke: rgb(191, 105, 150);"></path><path d="M426,355.7317073170733C634,355.7317073170733,634,310.6504065040649,842,310.6504065040649" stroke-width="3.9837398373983737" style="stroke: rgb(191, 105, 135);"></path><path d="M426,350.3252032520326C634,350.3252032520326,634,171.09756097560964,842,171.09756097560964" stroke-width="3.4146341463414633" style="stroke: rgb(191, 105, 135);"></path><path d="M426,352.8861788617888C634,352.8861788617888,634,238.04878048780463,842,238.04878048780463" stroke-width="1.7073170731707317" style="stroke: rgb(191, 105, 135);"></path><path d="M426,368.2926829268293C634,368.2926829268293,634,173.37398373983726,842,173.37398373983726" stroke-width="1.1382113821138211" style="stroke: rgb(191, 105, 120);"></path><path d="M426,369.4308943089431C634,369.4308943089431,634,239.47154471544692,842,239.47154471544692" stroke-width="1.1382113821138211" style="stroke: rgb(191, 105, 120);"></path></g><g class="nodes" font-family="Arial, Helvetica" font-size="10"><g><rect x="421" y="130" height="191.78861788617894" width="5" fill="#000"></rect><text x="415" y="225.89430894308947" dy="0.35em" text-anchor="end">0</text></g><g><rect x="421" y="331.78861788617894" height="6.829268292682968" width="5" fill="#000"></rect><text x="415" y="335.2032520325204" dy="0.35em" text-anchor="end">1</text></g><g><rect x="421" y="348.6178861788619" height="9.105691056910473" width="5" fill="#000"></rect><text x="415" y="353.17073170731715" dy="0.35em" text-anchor="end">2</text></g><g><rect x="421" y="367.7235772357724" height="2.2764227642276182" width="5" fill="#000"></rect><text x="415" y="368.8617886178862" dy="0.35em" text-anchor="end">3</text></g><g><rect x="842" y="124.99999999999989" height="48.94308943089425" width="5" fill="#000"></rect><text x="836" y="149.471544715447" dy="0.35em" text-anchor="end">Africa (excl MENA)</text></g><g><rect x="842" y="183.94308943089413" height="5.691056910569046" width="5" fill="#000"></rect><text x="836" y="186.78861788617866" dy="0.35em" text-anchor="end">Americas</text></g><g><rect x="842" y="199.63414634146318" height="40.406504065040735" width="5" fill="#000"></rect><text x="836" y="219.83739837398355" dy="0.35em" text-anchor="end">Asia and Pacific</text></g><g><rect x="842" y="250.04065040650391" height="62.60162601626038" width="5" fill="#000"></rect><text x="836" y="281.3414634146341" dy="0.35em" text-anchor="end">Europe and Eurasia</text></g><g><rect x="842" y="322.6422764227643" height="52.35772357723579" width="5" fill="#000"></rect><text x="836" y="348.8211382113822" dy="0.35em" text-anchor="end">Middle East and North Africa</text></g><g><rect x="0" y="-2.8421709430404007e-13" height="5.121951219512198" width="5" fill="#000"></rect><text x="11" y="2.5609756097558147" dy="0.35em" text-anchor="start">1990</text></g><g><rect x="0" y="15.121951219511914" height="9.105691056910587" width="5" fill="#000"></rect><text x="11" y="19.674796747967207" dy="0.35em" text-anchor="start">1991</text></g><g><rect x="0" y="34.2276422764225" height="14.227642276422785" width="5" fill="#000"></rect><text x="11" y="41.34146341463389" dy="0.35em" text-anchor="start">1992</text></g><g><rect x="0" y="58.455284552845285" height="17.642276422764212" width="5" fill="#000"></rect><text x="11" y="67.27642276422739" dy="0.35em" text-anchor="start">1993</text></g><g><rect x="0" y="86.0975609756095" height="13.658536585365795" width="5" fill="#000"></rect><text x="11" y="92.9268292682924" dy="0.35em" text-anchor="start">1994</text></g><g><rect x="0" y="109.75609756097529" height="7.398373983739816" width="5" fill="#000"></rect><text x="11" y="113.4552845528452" dy="0.35em" text-anchor="start">1995</text></g><g><rect x="0" y="127.15447154471511" height="2.8455284552845796" width="5" fill="#000"></rect><text x="11" y="128.5772357723574" dy="0.35em" text-anchor="start">1996</text></g><g><rect x="0" y="139.9999999999997" height="2.8455284552845796" width="5" fill="#000"></rect><text x="11" y="141.42276422764198" dy="0.35em" text-anchor="start">1997</text></g><g><rect x="0" y="152.84552845528427" height="5.121951219512198" width="5" fill="#000"></rect><text x="11" y="155.40650406504037" dy="0.35em" text-anchor="start">1998</text></g><g><rect x="0" y="167.96747967479646" height="6.260162601626007" width="5" fill="#000"></rect><text x="11" y="171.09756097560947" dy="0.35em" text-anchor="start">1999</text></g><g><rect x="0" y="184.22764227642247" height="2.8455284552845796" width="5" fill="#000"></rect><text x="11" y="185.65040650406476" dy="0.35em" text-anchor="start">2000</text></g><g><rect x="0" y="197.07317073170705" height="5.691056910569046" width="5" fill="#000"></rect><text x="11" y="199.91869918699157" dy="0.35em" text-anchor="start">2001</text></g><g><rect x="0" y="212.7642276422761" height="7.967479674796721" width="5" fill="#000"></rect><text x="11" y="216.74796747967446" dy="0.35em" text-anchor="start">2002</text></g><g><rect x="0" y="230.73170731707282" height="6.260162601626007" width="5" fill="#000"></rect><text x="11" y="233.86178861788582" dy="0.35em" text-anchor="start">2003</text></g><g><rect x="0" y="246.99186991869882" height="2.8455284552845796" width="5" fill="#000"></rect><text x="11" y="248.41463414634111" dy="0.35em" text-anchor="start">2004</text></g><g><rect x="0" y="259.83739837398343" height="1.1382113821138091" width="5" fill="#000"></rect><text x="11" y="260.40650406504034" dy="0.35em" text-anchor="start">2005</text></g><g><rect x="0" y="270.97560975609724" height="4.55284552845535" width="5" fill="#000"></rect><text x="11" y="273.2520325203249" dy="0.35em" text-anchor="start">2006</text></g><g><rect x="0" y="285.5284552845526" height="2.2764227642276182" width="5" fill="#000"></rect><text x="11" y="286.6666666666664" dy="0.35em" text-anchor="start">2007</text></g><g><rect x="0" y="297.8048780487802" height="6.829268292683082" width="5" fill="#000"></rect><text x="11" y="301.21951219512175" dy="0.35em" text-anchor="start">2008</text></g><g><rect x="0" y="314.6341463414633" height="1.7073170731707705" width="5" fill="#000"></rect><text x="11" y="315.4878048780487" dy="0.35em" text-anchor="start">2009</text></g><g><rect x="0" y="326.34146341463406" height="3.4146341463414274" width="5" fill="#000"></rect><text x="11" y="328.0487804878048" dy="0.35em" text-anchor="start">2010</text></g><g><rect x="0" y="339.7560975609755" height="3.4146341463414274" width="5" fill="#000"></rect><text x="11" y="341.4634146341462" dy="0.35em" text-anchor="start">2011</text></g><g><rect x="0" y="353.1707317073169" height="8.536585365853739" width="5" fill="#000"></rect><text x="11" y="357.4390243902438" dy="0.35em" text-anchor="start">2012</text></g><g><rect x="0" y="371.70731707317066" height="4.55284552845535" width="5" fill="#000"></rect><text x="11" y="373.98373983739833" dy="0.35em" text-anchor="start">2013</text></g><g><rect x="0" y="386.260162601626" height="16.504065040650573" width="5" fill="#000"></rect><text x="11" y="394.5121951219513" dy="0.35em" text-anchor="start">2014</text></g><g><rect x="0" y="412.7642276422766" height="9.105691056910587" width="5" fill="#000"></rect><text x="11" y="417.3170731707319" dy="0.35em" text-anchor="start">2015</text></g><g><rect x="0" y="431.86991869918717" height="13.089430894308975" width="5" fill="#000"></rect><text x="11" y="438.41463414634165" dy="0.35em" text-anchor="start">2016</text></g><g><rect x="0" y="454.95934959349614" height="13.658536585365965" width="5" fill="#000"></rect><text x="11" y="461.7886178861791" dy="0.35em" text-anchor="start">2017</text></g><g><rect x="0" y="478.61788617886214" height="10.243902439024396" width="5" fill="#000"></rect><text x="11" y="483.73983739837433" dy="0.35em" text-anchor="start">2018</text></g><g><rect x="0" y="498.86178861788653" height="1.1382113821138091" width="5" fill="#000"></rect><text x="11" y="499.43089430894344" dy="0.35em" text-anchor="start">2019</text></g></g></g></svg>