<svg width="847" height="520" xmlns="http://www.w3.org/2000/svg" version="1.1"><g transform="translate(0, 10)"><g class="links" fill="none" stroke-opacity="0.4"><path d="M5,19.67479674796737C213,19.67479674796737,213,149.1056910569105,421,149.1056910569105" stroke-width="9.105691056910569" style="stroke: rgb(191, 105, 105);"></path><path d="M5,113.45528455284558C213,113.45528455284558,213,202.88617886178852,421,202.88617886178852" stroke-width="7.3983739837398375" style="stroke: rgb(191, 121, 105);"></path><path d="M5,92.9268292682926C213,92.9268292682926,213,192.3577235772357,421,192.3577235772357" stroke-width="13.658536585365853" style="stroke: rgb(191, 137, 105);"></path><path d="M5,67.2764227642275C213,67.2764227642275,213,176.70731707317063,421,176.70731707317063" stroke-width="17.642276422764226" style="stroke: rgb(191, 153, 105);"></path><path d="M5,41.341463414633935C213,41.341463414633935,213,160.77235772357716,421,160.77235772357716" stroke-width="14.227642276422763" style="stroke: rgb(191, 169, 105);"></path><path d="M5,301.219512195122C213,301.219512195122,213,260.65040650406496,421,260.65040650406496" stroke-width="6.829268292682927" style="stroke: rgb(191, 185, 105);"></path><path d="M5,273.25203252032514C213,273.25203252032514,213,252.68292682926818,421,252.68292682926818" stroke-width="4.5528455284552845" style="stroke: rgb(180, 191, 105);"></path><path d="M5,233.86178861788625C213,233.86178861788625,213,243.29268292682917,421,243.29268292682917" stroke-width="6.260162601626016" style="stroke: rgb(164, 191, 105);"></path><path d="M5,216.74796747967483C213,216.74796747967483,213,236.17886178861778,421,236.17886178861778" stroke-width="7.967479674796747" style="stroke: rgb(148, 191, 105);"></path><path d="M5,394.51219512195127C213,394.51219512195127,213,293.94308943089425,421,293.94308943089425" stroke-width="16.504065040650406" style="stroke: rgb(132, 191, 105);"></path><path d="M5,373.98373983739845C213,373.98373983739845,213,283.41463414634137,421,283.41463414634137" stroke-width="4.5528455284552845" style="stroke: rgb(116, 191, 105);"></path><path d="M5,341.4634146341464C213,341.4634146341464,213,270.8943089430893,421,270.8943089430893" stroke-width="3.4146341463414633" style="stroke: rgb(105, 191, 110);"></path><path d="M5,286.6666666666667C213,286.6666666666667,213,256.09756097560967,421,256.09756097560967" stroke-width="2.2764227642276422" style="stroke: rgb(105, 191, 126);"></path><path d="M5,461.788617886179C213,461.788617886179,213,331.21951219512187,421,331.21951219512187" stroke-width="13.658536585365853" style="stroke: rgb(105, 191, 143);"></path><path d="M5,438.4146341463415C213,438.4146341463415,213,317.8455284552845,421,317.8455284552845" stroke-width="13.089430894308943" style="stroke: rgb(105, 191, 159);"></path><path d="M5,171.09756097560984C213,171.09756097560984,213,220.52845528455276,421,220.52845528455276" stroke-width="6.260162601626016" style="stroke: rgb(105, 191, 175);"></path><path d="M5,185.65040650406513C213,185.65040650406513,213,225.08130081300806,421,225.08130081300806" stroke-width="2.845528455284553" style="stroke: rgb(105, 191, 191);"></path><path d="M5,499.4308943089432C213,499.4308943089432,213,348.86178861788613,421,348.86178861788613" stroke-width="1.1382113821138211" style="stroke: rgb(105, 175, 191);"></path><path d="M5,155.40650406504074C213,155.40650406504074,213,214.83739837398366,421,214.83739837398366" stroke-width="5.121951219512195" style="stroke: rgb(105, 159, 191);"></path><path d="M5,248.41463414634154C213,248.41463414634154,213,247.84552845528447,421,247.84552845528447" stroke-width="2.845528455284553" style="stroke: rgb(105, 143, 191);"></path><path d="M5,128.57723577235777C213,128.57723577235777,213,208.00813008130075,421,208.00813008130075" stroke-width="2.845528455284553" style="stroke: rgb(105, 126, 191);"></path><path d="M5,417.3170731707318C213,417.3170731707318,213,306.74796747967474,421,306.74796747967474" stroke-width="9.105691056910569" style="stroke: rgb(105, 110, 191);"></path><path d="M5,199.91869918699186C213,199.91869918699186,213,229.34959349593487,421,229.34959349593487" stroke-width="5.691056910569106" style="stroke: rgb(116, 105, 191);"></path><path d="M5,141.42276422764235C213,141.42276422764235,213,210.8536585365853,421,210.8536585365853" stroke-width="2.845528455284553" style="stroke: rgb(132, 105, 191);"></path><path d="M5,357.439024390244C213,357.439024390244,213,276.8699186991869,421,276.8699186991869" stroke-width="8.536585365853659" style="stroke: rgb(148, 105, 191);"></path><path d="M5,2.2764227642275285C213,2.2764227642275285,213,142.27642276422756,421,142.27642276422756" stroke-width="4.5528455284552845" style="stroke: rgb(164, 105, 191);"></path><path d="M5,4.837398373983626C213,4.837398373983626,213,359.71544715447175,421,359.71544715447175" stroke-width="0.5691056910569106" style="stroke: rgb(164, 105, 191);"></path><path d="M5,483.7398373983741C213,483.7398373983741,213,343.17073170731703,421,343.17073170731703" stroke-width="10.24390243902439" style="stroke: rgb(180, 105, 191);"></path><path d="M5,328.04878048780483C213,328.04878048780483,213,267.4796747967478,421,267.4796747967478" stroke-width="3.4146341463414633" style="stroke: rgb(191, 105, 185);"></path><path d="M5,315.48780487804885C213,315.48780487804885,213,264.9186991869918,421,264.9186991869918" stroke-width="1.7073170731707317" style="stroke: rgb(191, 105, 169);"></path><path d="M5,260.4065040650406C213,260.4065040650406,213,249.83739837398363,421,249.83739837398363" stroke-width="1.1382113821138211" style="stroke: rgb(191, 105, 153);"></path><path d="M426,164.18699186991861C634,164.18699186991861,634,149.1869918699189,842,149.1869918699189" stroke-width="48.3739837398374" style="stroke: rgb(191, 105, 137);"></path><path d="M426,265.77235772357716C634,265.77235772357716,634,281.34146341463406,842,281.34146341463406" stroke-width="62.60162601626016" style="stroke: rgb(191, 105, 137);"></path><path d="M426,191.21951219512187C634,191.21951219512187,634,186.78861788617877,842,186.78861788617877" stroke-width="5.691056910569106" style="stroke: rgb(191, 105, 137);"></path><path d="M426,214.26829268292676C634,214.26829268292676,634,219.83739837398372,842,219.83739837398372" stroke-width="40.40650406504065" style="stroke: rgb(191, 105, 137);"></path><path d="M426,323.25203252032514C634,323.25203252032514,634,348.821138211382,842,348.821138211382" stroke-width="52.357723577235774" style="stroke: rgb(191, 105, 137);"></path><path d="M426,359.71544715447175C634,359.71544715447175,634,173.65853658536605,842,173.65853658536605" stroke-width="0.5691056910569106" style="stroke: rgb(191, 105, 121);"></path></g><g class="nodes" font-family="Arial, Helvetica" font-size="10"><g><rect x="421" y="139.99999999999991" height="209.43089430894332" width="5" fill="#000"></rect><text x="415" y="244.71544715447158" dy="0.35em" text-anchor="end">0</text></g><g><rect x="421" y="359.43089430894327" height="0.5691056910568477" width="5" fill="#000"></rect><text x="415" y="359.7154471544717" dy="0.35em" text-anchor="end">1</text></g><g><rect x="842" y="125.0000000000002" height="48.94308943089402" width="5" fill="#000"></rect><text x="836" y="149.4715447154472" dy="0.35em" text-anchor="end">Africa (excl MENA)</text></g><g><rect x="842" y="183.94308943089422" height="5.691056910569159" width="5" fill="#000"></rect><text x="836" y="186.7886178861788" dy="0.35em" text-anchor="end">Americas</text></g><g><rect x="842" y="199.63414634146338" height="40.40650406504062" width="5" fill="#000"></rect><text x="836" y="219.8373983739837" dy="0.35em" text-anchor="end">Asia and Pacific</text></g><g><rect x="842" y="250.040650406504" height="62.60162601626013" width="5" fill="#000"></rect><text x="836" y="281.34146341463406" dy="0.35em" text-anchor="end">Europe and Eurasia</text></g><g><rect x="842" y="322.6422764227641" height="52.357723577235674" width="5" fill="#000"></rect><text x="836" y="348.82113821138194" dy="0.35em" text-anchor="end">Middle East and North Africa</text></g><g><rect x="0" y="-1.1368683772161603e-13" height="5.121951219512198" width="5" fill="#000"></rect><text x="11" y="2.5609756097559853" dy="0.35em" text-anchor="start">1990</text></g><g><rect x="0" y="15.121951219512084" height="9.105691056910473" width="5" fill="#000"></rect><text x="11" y="19.67479674796732" dy="0.35em" text-anchor="start">1991</text></g><g><rect x="0" y="34.22764227642256" height="14.227642276422841" width="5" fill="#000"></rect><text x="11" y="41.34146341463398" dy="0.35em" text-anchor="start">1992</text></g><g><rect x="0" y="58.4552845528454" height="17.64227642276427" width="5" fill="#000"></rect><text x="11" y="67.27642276422753" dy="0.35em" text-anchor="start">1993</text></g><g><rect x="0" y="86.09756097560967" height="13.658536585365994" width="5" fill="#000"></rect><text x="11" y="92.92682926829266" dy="0.35em" text-anchor="start">1994</text></g><g><rect x="0" y="109.75609756097566" height="7.398373983739816" width="5" fill="#000"></rect><text x="11" y="113.45528455284557" dy="0.35em" text-anchor="start">1995</text></g><g><rect x="0" y="127.15447154471548" height="2.8455284552845796" width="5" fill="#000"></rect><text x="11" y="128.57723577235777" dy="0.35em" text-anchor="start">1996</text></g><g><rect x="0" y="140.00000000000006" height="2.8455284552845796" width="5" fill="#000"></rect><text x="11" y="141.42276422764235" dy="0.35em" text-anchor="start">1997</text></g><g><rect x="0" y="152.84552845528464" height="5.121951219512198" width="5" fill="#000"></rect><text x="11" y="155.40650406504074" dy="0.35em" text-anchor="start">1998</text></g><g><rect x="0" y="167.96747967479683" height="6.260162601626007" width="5" fill="#000"></rect><text x="11" y="171.09756097560984" dy="0.35em" text-anchor="start">1999</text></g><g><rect x="0" y="184.22764227642284" height="2.845528455284466" width="5" fill="#000"></rect><text x="11" y="185.65040650406507" dy="0.35em" text-anchor="start">2000</text></g><g><rect x="0" y="197.0731707317073" height="5.691056910569159" width="5" fill="#000"></rect><text x="11" y="199.9186991869919" dy="0.35em" text-anchor="start">2001</text></g><g><rect x="0" y="212.76422764227647" height="7.9674796747967775" width="5" fill="#000"></rect><text x="11" y="216.74796747967486" dy="0.35em" text-anchor="start">2002</text></g><g><rect x="0" y="230.73170731707324" height="6.260162601626007" width="5" fill="#000"></rect><text x="11" y="233.86178861788625" dy="0.35em" text-anchor="start">2003</text></g><g><rect x="0" y="246.99186991869925" height="2.845528455284466" width="5" fill="#000"></rect><text x="11" y="248.41463414634148" dy="0.35em" text-anchor="start">2004</text></g><g><rect x="0" y="259.8373983739837" height="1.1382113821138091" width="5" fill="#000"></rect><text x="11" y="260.4065040650406" dy="0.35em" text-anchor="start">2005</text></g><g><rect x="0" y="270.9756097560975" height="4.55284552845535" width="5" fill="#000"></rect><text x="11" y="273.2520325203252" dy="0.35em" text-anchor="start">2006</text></g><g><rect x="0" y="285.5284552845529" height="2.2764227642276182" width="5" fill="#000"></rect><text x="11" y="286.6666666666667" dy="0.35em" text-anchor="start">2007</text></g><g><rect x="0" y="297.8048780487805" height="6.829268292682968" width="5" fill="#000"></rect><text x="11" y="301.219512195122" dy="0.35em" text-anchor="start">2008</text></g><g><rect x="0" y="314.63414634146346" height="1.7073170731706568" width="5" fill="#000"></rect><text x="11" y="315.4878048780488" dy="0.35em" text-anchor="start">2009</text></g><g><rect x="0" y="326.3414634146341" height="3.414634146341541" width="5" fill="#000"></rect><text x="11" y="328.0487804878049" dy="0.35em" text-anchor="start">2010</text></g><g><rect x="0" y="339.75609756097566" height="3.414634146341541" width="5" fill="#000"></rect><text x="11" y="341.46341463414643" dy="0.35em" text-anchor="start">2011</text></g><g><rect x="0" y="353.1707317073172" height="8.536585365853625" width="5" fill="#000"></rect><text x="11" y="357.439024390244" dy="0.35em" text-anchor="start">2012</text></g><g><rect x="0" y="371.7073170731708" height="4.5528455284552365" width="5" fill="#000"></rect><text x="11" y="373.98373983739845" dy="0.35em" text-anchor="start">2013</text></g><g><rect x="0" y="386.26016260162606" height="16.504065040650488" width="5" fill="#000"></rect><text x="11" y="394.5121951219513" dy="0.35em" text-anchor="start">2014</text></g><g><rect x="0" y="412.7642276422765" height="9.105691056910473" width="5" fill="#000"></rect><text x="11" y="417.31707317073176" dy="0.35em" text-anchor="start">2015</text></g><g><rect x="0" y="431.869918699187" height="13.08943089430909" width="5" fill="#000"></rect><text x="11" y="438.41463414634154" dy="0.35em" text-anchor="start">2016</text></g><g><rect x="0" y="454.9593495934961" height="13.658536585365823" width="5" fill="#000"></rect><text x="11" y="461.788617886179" dy="0.35em" text-anchor="start">2017</text></g><g><rect x="0" y="478.6178861788619" height="10.243902439024396" width="5" fill="#000"></rect><text x="11" y="483.7398373983741" dy="0.35em" text-anchor="start">2018</text></g><g><rect x="0" y="498.8617886178863" height="1.1382113821138091" width="5" fill="#000"></rect><text x="11" y="499.4308943089432" dy="0.35em" text-anchor="start">2019</text></g></g></g></svg>