<svg width="847" height="520" xmlns="http://www.w3.org/2000/svg" version="1.1"><g transform="translate(0, 10)"><g class="links" fill="none" stroke-opacity="0.4"><path d="M5,19.674796747967342C213,19.674796747967342,213,139.67479674796732,421,139.67479674796732" stroke-width="9.105691056910569" style="stroke: rgb(191, 105, 105);"></path><path d="M5,113.45528455284544C213,113.45528455284544,213,192.3170731707315,421,192.3170731707315" stroke-width="7.3983739837398375" style="stroke: rgb(191, 120, 105);"></path><path d="M5,92.64227642276417C213,92.64227642276417,213,182.0731707317071,421,182.0731707317071" stroke-width="13.089430894308943" style="stroke: rgb(191, 135, 105);"></path><path d="M5,99.4715447154471C213,99.4715447154471,213,340.60975609756105,421,340.60975609756105" stroke-width="0.5691056910569106" style="stroke: rgb(191, 135, 105);"></path><path d="M5,67.27642276422753C213,67.27642276422753,213,166.70731707317054,421,166.70731707317054" stroke-width="17.642276422764226" style="stroke: rgb(191, 150, 105);"></path><path d="M5,41.05691056910557C213,41.05691056910557,213,151.05691056910553,421,151.05691056910553" stroke-width="13.658536585365853" style="stroke: rgb(191, 166, 105);"></path><path d="M5,48.170731707316946C213,48.170731707316946,213,352.31707317073193,421,352.31707317073193" stroke-width="0.5691056910569106" style="stroke: rgb(191, 166, 105);"></path><path d="M5,301.2195121951218C213,301.2195121951218,213,245.52845528455262,421,245.52845528455262" stroke-width="6.829268292682927" style="stroke: rgb(191, 181, 105);"></path><path d="M5,275.24390243902434C213,275.24390243902434,213,355.73170731707336,421,355.73170731707336" stroke-width="0.5691056910569106" style="stroke: rgb(186, 191, 105);"></path><path d="M5,272.96747967479666C213,272.96747967479666,213,237.84552845528435,421,237.84552845528435" stroke-width="3.9837398373983737" style="stroke: rgb(186, 191, 105);"></path><path d="M5,233.86178861788605C213,233.86178861788605,213,229.3089430894307,421,229.3089430894307" stroke-width="6.260162601626016" style="stroke: rgb(171, 191, 105);"></path><path d="M5,218.73983739837394C213,218.73983739837394,213,354.02439024390264,421,354.02439024390264" stroke-width="1.7073170731707317" style="stroke: rgb(155, 191, 105);"></path><path d="M5,215.32520325203248C213,215.32520325203248,213,223.6178861788616,421,223.6178861788616" stroke-width="5.121951219512195" style="stroke: rgb(155, 191, 105);"></path><path d="M5,220.16260162601623C213,220.16260162601623,213,368.86178861788636,421,368.86178861788636" stroke-width="1.1382113821138211" style="stroke: rgb(155, 191, 105);"></path><path d="M5,402.479674796748C213,402.479674796748,213,356.86991869918717,421,356.86991869918717" stroke-width="0.5691056910569106" style="stroke: rgb(140, 191, 105);"></path><path d="M5,394.2276422764227C213,394.2276422764227,213,277.9674796747965,421,277.9674796747965" stroke-width="15.934959349593495" style="stroke: rgb(140, 191, 105);"></path><path d="M5,373.9837398373983C213,373.9837398373983,213,267.7235772357721,421,267.7235772357721" stroke-width="4.5528455284552845" style="stroke: rgb(125, 191, 105);"></path><path d="M5,341.4634146341461C213,341.4634146341461,213,255.77235772357704,421,255.77235772357704" stroke-width="3.4146341463414633" style="stroke: rgb(110, 191, 105);"></path><path d="M5,286.6666666666665C213,286.6666666666665,213,240.97560975609733,421,240.97560975609733" stroke-width="2.2764227642276422" style="stroke: rgb(105, 191, 115);"></path><path d="M5,461.21951219512204C213,461.21951219512204,213,312.682926829268,421,312.682926829268" stroke-width="12.520325203252032" style="stroke: rgb(105, 191, 130);"></path><path d="M5,468.3333333333334C213,468.3333333333334,213,358.008130081301,421,358.008130081301" stroke-width="0.5691056910569106" style="stroke: rgb(105, 191, 130);"></path><path d="M5,467.7642276422765C213,467.7642276422765,213,341.74796747967486,421,341.74796747967486" stroke-width="0.5691056910569106" style="stroke: rgb(105, 191, 130);"></path><path d="M5,438.41463414634154C213,438.41463414634154,213,299.8780487804876,421,299.8780487804876" stroke-width="13.089430894308943" style="stroke: rgb(105, 191, 145);"></path><path d="M5,171.09756097560964C213,171.09756097560964,213,209.95934959349574,421,209.95934959349574" stroke-width="6.260162601626016" style="stroke: rgb(105, 191, 161);"></path><path d="M5,185.65040650406493C213,185.65040650406493,213,214.51219512195104,421,214.51219512195104" stroke-width="2.845528455284553" style="stroke: rgb(105, 191, 176);"></path><path d="M5,499.43089430894315C213,499.43089430894315,213,329.7560975609753,421,329.7560975609753" stroke-width="1.1382113821138211" style="stroke: rgb(105, 191, 191);"></path><path d="M5,155.40650406504054C213,155.40650406504054,213,204.26829268292664,421,204.26829268292664" stroke-width="5.121951219512195" style="stroke: rgb(105, 176, 191);"></path><path d="M5,248.13008130081286C213,248.13008130081286,213,233.5772357723575,421,233.5772357723575" stroke-width="2.2764227642276422" style="stroke: rgb(105, 161, 191);"></path><path d="M5,249.55284552845515C213,249.55284552845515,213,355.16260162601645,421,355.16260162601645" stroke-width="0.5691056910569106" style="stroke: rgb(105, 161, 191);"></path><path d="M5,128.5772357723578C213,128.5772357723578,213,197.43902439024373,421,197.43902439024373" stroke-width="2.845528455284553" style="stroke: rgb(105, 145, 191);"></path><path d="M5,416.4634146341463C213,416.4634146341463,213,289.6341463414632,421,289.6341463414632" stroke-width="7.3983739837398375" style="stroke: rgb(105, 130, 191);"></path><path d="M5,421.0162601626016C213,421.0162601626016,213,357.4390243902441,421,357.4390243902441" stroke-width="0.5691056910569106" style="stroke: rgb(105, 130, 191);"></path><path d="M5,420.4471544715447C213,420.4471544715447,213,341.17886178861795,421,341.17886178861795" stroke-width="0.5691056910569106" style="stroke: rgb(105, 130, 191);"></path><path d="M5,421.5853658536585C213,421.5853658536585,213,369.71544715447175,421,369.71544715447175" stroke-width="0.5691056910569106" style="stroke: rgb(105, 130, 191);"></path><path d="M5,199.63414634146332C213,199.63414634146332,213,218.4959349593494,421,218.4959349593494" stroke-width="5.121951219512195" style="stroke: rgb(105, 115, 191);"></path><path d="M5,202.47967479674787C213,202.47967479674787,213,352.88617886178884,421,352.88617886178884" stroke-width="0.5691056910569106" style="stroke: rgb(105, 115, 191);"></path><path d="M5,141.42276422764226C213,141.42276422764226,213,200.28455284552828,421,200.28455284552828" stroke-width="2.845528455284553" style="stroke: rgb(110, 105, 191);"></path><path d="M5,357.1544715447153C213,357.1544715447153,213,261.46341463414615,421,261.46341463414615" stroke-width="7.967479674796747" style="stroke: rgb(125, 105, 191);"></path><path d="M5,361.4227642276421C213,361.4227642276421,213,356.30081300813026,421,356.30081300813026" stroke-width="0.5691056910569106" style="stroke: rgb(125, 105, 191);"></path><path d="M5,2.560975609756069C213,2.560975609756069,213,132.56097560975593,421,132.56097560975593" stroke-width="5.121951219512195" style="stroke: rgb(140, 105, 191);"></path><path d="M5,483.73983739837405C213,483.73983739837405,213,324.0650406504062,421,324.0650406504062" stroke-width="10.24390243902439" style="stroke: rgb(155, 105, 191);"></path><path d="M5,328.04878048780455C213,328.04878048780455,213,252.3577235772356,421,252.3577235772356" stroke-width="3.4146341463414633" style="stroke: rgb(171, 105, 191);"></path><path d="M5,315.48780487804856C213,315.48780487804856,213,249.79674796747946,421,249.79674796747946" stroke-width="1.7073170731707317" style="stroke: rgb(186, 105, 191);"></path><path d="M5,260.40650406504056C213,260.40650406504056,213,235.28455284552825,421,235.28455284552825" stroke-width="1.1382113821138211" style="stroke: rgb(191, 105, 181);"></path><path d="M426,152.76422764227624C634,152.76422764227624,634,147.76422764227647,842,147.76422764227647" stroke-width="45.52845528455285" style="stroke: rgb(191, 105, 166);"></path><path d="M426,248.08943089430875C634,248.08943089430875,634,280.48780487804873,842,280.48780487804873" stroke-width="60.89430894308943" style="stroke: rgb(191, 105, 166);"></path><path d="M426,178.37398373983723C634,178.37398373983723,634,186.78861788617888,842,186.78861788617888" stroke-width="5.691056910569106" style="stroke: rgb(191, 105, 166);"></path><path d="M426,199.43089430894292C634,199.43089430894292,634,217.84552845528464,842,217.84552845528464" stroke-width="36.422764227642276" style="stroke: rgb(191, 105, 166);"></path><path d="M426,304.43089430894287C634,304.43089430894287,634,348.5365853658535,842,348.5365853658535" stroke-width="51.78861788617886" style="stroke: rgb(191, 105, 166);"></path><path d="M426,353.73983739837416C634,353.73983739837416,634,172.23577235772365,842,172.23577235772365" stroke-width="3.4146341463414633" style="stroke: rgb(191, 105, 150);"></path><path d="M426,357.72357723577255C634,357.72357723577255,634,312.07317073170725,842,312.07317073170725" stroke-width="1.1382113821138211" style="stroke: rgb(191, 105, 150);"></path><path d="M426,356.3008130081303C634,356.3008130081303,634,237.47967479674801,842,237.47967479674801" stroke-width="1.7073170731707317" style="stroke: rgb(191, 105, 150);"></path><path d="M426,340.60975609756105C634,340.60975609756105,634,236.3414634146342,842,236.3414634146342" stroke-width="0.5691056910569106" style="stroke: rgb(191, 105, 135);"></path><path d="M426,341.74796747967486C634,341.74796747967486,634,374.71544715447146,842,374.71544715447146" stroke-width="0.5691056910569106" style="stroke: rgb(191, 105, 135);"></path><path d="M426,341.17886178861795C634,341.17886178861795,634,311.2195121951219,842,311.2195121951219" stroke-width="0.5691056910569106" style="stroke: rgb(191, 105, 135);"></path><path d="M426,369.14634146341484C634,369.14634146341484,634,239.18699186991876,842,239.18699186991876" stroke-width="1.7073170731707317" style="stroke: rgb(191, 105, 120);"></path></g><g class="nodes" font-family="Arial, Helvetica" font-size="10"><g><rect x="421" y="129.99999999999983" height="200.3252032520327" width="5" fill="#000"></rect><text x="415" y="230.16260162601617" dy="0.35em" text-anchor="end">0</text></g><g><rect x="421" y="340.32520325203257" height="1.7073170731708842" width="5" fill="#000"></rect><text x="415" y="341.178861788618" dy="0.35em" text-anchor="end">1</text></g><g><rect x="421" y="352.03252032520345" height="6.260162601626007" width="5" fill="#000"></rect><text x="415" y="355.16260162601645" dy="0.35em" text-anchor="end">2</text></g><g><rect x="421" y="368.29268292682946" height="1.7073170731707705" width="5" fill="#000"></rect><text x="415" y="369.14634146341484" dy="0.35em" text-anchor="end">3</text></g><g><rect x="842" y="125.00000000000006" height="48.943089430894275" width="5" fill="#000"></rect><text x="836" y="149.47154471544718" dy="0.35em" text-anchor="end">Africa (excl MENA)</text></g><g><rect x="842" y="183.94308943089433" height="5.691056910569159" width="5" fill="#000"></rect><text x="836" y="186.7886178861789" dy="0.35em" text-anchor="end">Americas</text></g><g><rect x="842" y="199.6341463414635" height="40.40650406504051" width="5" fill="#000"></rect><text x="836" y="219.83739837398375" dy="0.35em" text-anchor="end">Asia and Pacific</text></g><g><rect x="842" y="250.040650406504" height="62.60162601626007" width="5" fill="#000"></rect><text x="836" y="281.34146341463406" dy="0.35em" text-anchor="end">Europe and Eurasia</text></g><g><rect x="842" y="322.6422764227641" height="52.3577235772359" width="5" fill="#000"></rect><text x="836" y="348.82113821138205" dy="0.35em" text-anchor="end">Middle East and North Africa</text></g><g><rect x="0" y="-2.842170943040401e-14" height="5.121951219512084" width="5" fill="#000"></rect><text x="11" y="2.5609756097560137" dy="0.35em" text-anchor="start">1990</text></g><g><rect x="0" y="15.121951219512056" height="9.105691056910587" width="5" fill="#000"></rect><text x="11" y="19.67479674796735" dy="0.35em" text-anchor="start">1991</text></g><g><rect x="0" y="34.22764227642264" height="14.227642276422785" width="5" fill="#000"></rect><text x="11" y="41.341463414634035" dy="0.35em" text-anchor="start">1992</text></g><g><rect x="0" y="58.45528455284543" height="17.64227642276427" width="5" fill="#000"></rect><text x="11" y="67.27642276422756" dy="0.35em" text-anchor="start">1993</text></g><g><rect x="0" y="86.0975609756097" height="13.658536585365823" width="5" fill="#000"></rect><text x="11" y="92.92682926829261" dy="0.35em" text-anchor="start">1994</text></g><g><rect x="0" y="109.75609756097552" height="7.398373983739987" width="5" fill="#000"></rect><text x="11" y="113.45528455284551" dy="0.35em" text-anchor="start">1995</text></g><g><rect x="0" y="127.1544715447155" height="2.845528455284466" width="5" fill="#000"></rect><text x="11" y="128.57723577235774" dy="0.35em" text-anchor="start">1996</text></g><g><rect x="0" y="139.99999999999997" height="2.845528455284466" width="5" fill="#000"></rect><text x="11" y="141.4227642276422" dy="0.35em" text-anchor="start">1997</text></g><g><rect x="0" y="152.84552845528444" height="5.121951219512198" width="5" fill="#000"></rect><text x="11" y="155.40650406504054" dy="0.35em" text-anchor="start">1998</text></g><g><rect x="0" y="167.96747967479664" height="6.260162601626007" width="5" fill="#000"></rect><text x="11" y="171.09756097560964" dy="0.35em" text-anchor="start">1999</text></g><g><rect x="0" y="184.22764227642264" height="2.8455284552845796" width="5" fill="#000"></rect><text x="11" y="185.65040650406493" dy="0.35em" text-anchor="start">2000</text></g><g><rect x="0" y="197.07317073170722" height="5.691056910569159" width="5" fill="#000"></rect><text x="11" y="199.9186991869918" dy="0.35em" text-anchor="start">2001</text></g><g><rect x="0" y="212.76422764227638" height="7.967479674796664" width="5" fill="#000"></rect><text x="11" y="216.7479674796747" dy="0.35em" text-anchor="start">2002</text></g><g><rect x="0" y="230.73170731707305" height="6.260162601626007" width="5" fill="#000"></rect><text x="11" y="233.86178861788605" dy="0.35em" text-anchor="start">2003</text></g><g><rect x="0" y="246.99186991869905" height="2.8455284552845796" width="5" fill="#000"></rect><text x="11" y="248.41463414634134" dy="0.35em" text-anchor="start">2004</text></g><g><rect x="0" y="259.83739837398366" height="1.1382113821138091" width="5" fill="#000"></rect><text x="11" y="260.40650406504056" dy="0.35em" text-anchor="start">2005</text></g><g><rect x="0" y="270.97560975609747" height="4.5528455284552365" width="5" fill="#000"></rect><text x="11" y="273.2520325203251" dy="0.35em" text-anchor="start">2006</text></g><g><rect x="0" y="285.5284552845527" height="2.2764227642276182" width="5" fill="#000"></rect><text x="11" y="286.6666666666665" dy="0.35em" text-anchor="start">2007</text></g><g><rect x="0" y="297.8048780487803" height="6.829268292682855" width="5" fill="#000"></rect><text x="11" y="301.21951219512175" dy="0.35em" text-anchor="start">2008</text></g><g><rect x="0" y="314.6341463414632" height="1.7073170731706568" width="5" fill="#000"></rect><text x="11" y="315.4878048780485" dy="0.35em" text-anchor="start">2009</text></g><g><rect x="0" y="326.34146341463384" height="3.414634146341541" width="5" fill="#000"></rect><text x="11" y="328.0487804878046" dy="0.35em" text-anchor="start">2010</text></g><g><rect x="0" y="339.7560975609754" height="3.414634146341541" width="5" fill="#000"></rect><text x="11" y="341.46341463414615" dy="0.35em" text-anchor="start">2011</text></g><g><rect x="0" y="353.1707317073169" height="8.536585365853739" width="5" fill="#000"></rect><text x="11" y="357.4390243902438" dy="0.35em" text-anchor="start">2012</text></g><g><rect x="0" y="371.70731707317066" height="4.55284552845535" width="5" fill="#000"></rect><text x="11" y="373.98373983739833" dy="0.35em" text-anchor="start">2013</text></g><g><rect x="0" y="386.260162601626" height="16.504065040650403" width="5" fill="#000"></rect><text x="11" y="394.5121951219512" dy="0.35em" text-anchor="start">2014</text></g><g><rect x="0" y="412.7642276422764" height="9.105691056910644" width="5" fill="#000"></rect><text x="11" y="417.31707317073176" dy="0.35em" text-anchor="start">2015</text></g><g><rect x="0" y="431.86991869918705" height="13.089430894308975" width="5" fill="#000"></rect><text x="11" y="438.41463414634154" dy="0.35em" text-anchor="start">2016</text></g><g><rect x="0" y="454.95934959349603" height="13.658536585365823" width="5" fill="#000"></rect><text x="11" y="461.78861788617894" dy="0.35em" text-anchor="start">2017</text></g><g><rect x="0" y="478.61788617886185" height="10.243902439024396" width="5" fill="#000"></rect><text x="11" y="483.73983739837405" dy="0.35em" text-anchor="start">2018</text></g><g><rect x="0" y="498.86178861788625" height="1.1382113821138091" width="5" fill="#000"></rect><text x="11" y="499.43089430894315" dy="0.35em" text-anchor="start">2019</text></g></g></g></svg>