<svg width="847" height="520" xmlns="http://www.w3.org/2000/svg" version="1.1"><g transform="translate(0, 10)"><g class="links" fill="none" stroke-opacity="0.4"><path d="M5,19.3902439024392C213,19.3902439024392,213,149.3902439024392,421,149.3902439024392" stroke-width="8.536585365853659" style="stroke: rgb(191, 105, 105);"></path><path d="M5,23.943089430894485C213,23.943089430894485,213,351.1788617886179,421,351.1788617886179" stroke-width="0.5691056910569106" style="stroke: rgb(191, 105, 105);"></path><path d="M5,113.45528455284564C213,113.45528455284564,213,202.31707317073185,421,202.31707317073185" stroke-width="7.3983739837398375" style="stroke: rgb(191, 121, 105);"></path><path d="M5,92.64227642276437C213,92.64227642276437,213,192.07317073170745,421,192.07317073170745" stroke-width="13.089430894308943" style="stroke: rgb(191, 137, 105);"></path><path d="M5,99.4715447154473C213,99.4715447154473,213,351.7479674796748,421,351.7479674796748" stroke-width="0.5691056910569106" style="stroke: rgb(191, 137, 105);"></path><path d="M5,67.27642276422779C213,67.27642276422779,213,176.70731707317088,421,176.70731707317088" stroke-width="17.642276422764226" style="stroke: rgb(191, 153, 105);"></path><path d="M5,41.34146341463433C213,41.34146341463433,213,160.77235772357741,421,160.77235772357741" stroke-width="14.227642276422763" style="stroke: rgb(191, 169, 105);"></path><path d="M5,300.65040650406513C213,300.65040650406513,213,256.6666666666668,421,256.6666666666668" stroke-width="5.691056910569106" style="stroke: rgb(191, 185, 105);"></path><path d="M5,304.06504065040656C213,304.06504065040656,213,355.44715447154465,421,355.44715447154465" stroke-width="1.1382113821138211" style="stroke: rgb(191, 185, 105);"></path><path d="M5,275.24390243902445C213,275.24390243902445,213,354.0243902439024,421,354.0243902439024" stroke-width="0.5691056910569106" style="stroke: rgb(180, 191, 105);"></path><path d="M5,272.9674796747968C213,272.9674796747968,213,250.12195121951234,421,250.12195121951234" stroke-width="3.9837398373983737" style="stroke: rgb(180, 191, 105);"></path><path d="M5,233.8617886178862C213,233.8617886178862,213,241.01626016260178,421,241.01626016260178" stroke-width="6.260162601626016" style="stroke: rgb(164, 191, 105);"></path><path d="M5,216.46341463414632C213,216.46341463414632,213,234.18699186991884,421,234.18699186991884" stroke-width="7.3983739837398375" style="stroke: rgb(148, 191, 105);"></path><path d="M5,220.4471544715447C213,220.4471544715447,213,353.4552845528455,421,353.4552845528455" stroke-width="0.5691056910569106" style="stroke: rgb(148, 191, 105);"></path><path d="M5,402.479674796748C213,402.479674796748,213,358.57723577235765,421,358.57723577235765" stroke-width="0.5691056910569106" style="stroke: rgb(132, 191, 105);"></path><path d="M5,394.2276422764227C213,394.2276422764227,213,286.82926829268314,421,286.82926829268314" stroke-width="15.934959349593495" style="stroke: rgb(132, 191, 105);"></path><path d="M5,375.69105691056916C213,375.69105691056916,213,357.72357723577227,421,357.72357723577227" stroke-width="1.1382113821138211" style="stroke: rgb(116, 191, 105);"></path><path d="M5,373.4146341463415C213,373.4146341463415,213,277.15447154471565,421,277.15447154471565" stroke-width="3.4146341463414633" style="stroke: rgb(116, 191, 105);"></path><path d="M5,342.8861788617886C213,342.8861788617886,213,356.86991869918694,421,356.86991869918694" stroke-width="0.5691056910569106" style="stroke: rgb(105, 191, 110);"></path><path d="M5,341.17886178861784C213,341.17886178861784,213,265.48780487804896,421,265.48780487804896" stroke-width="2.845528455284553" style="stroke: rgb(105, 191, 110);"></path><path d="M5,286.3821138211382C213,286.3821138211382,213,252.96747967479686,421,252.96747967479686" stroke-width="1.7073170731707317" style="stroke: rgb(105, 191, 126);"></path><path d="M5,287.520325203252C213,287.520325203252,213,354.5934959349593,421,354.5934959349593" stroke-width="0.5691056910569106" style="stroke: rgb(105, 191, 126);"></path><path d="M5,461.78861788617877C213,461.78861788617877,213,322.6829268292685,421,322.6829268292685" stroke-width="13.658536585365853" style="stroke: rgb(105, 191, 143);"></path><path d="M5,444.6747967479675C213,444.6747967479675,213,359.71544715447146,421,359.71544715447146" stroke-width="0.5691056910569106" style="stroke: rgb(105, 191, 159);"></path><path d="M5,438.130081300813C213,438.130081300813,213,309.5934959349596,421,309.5934959349596" stroke-width="12.520325203252032" style="stroke: rgb(105, 191, 159);"></path><path d="M5,170.81300813008133C213,170.81300813008133,213,219.10569105691073,421,219.10569105691073" stroke-width="5.691056910569106" style="stroke: rgb(105, 191, 175);"></path><path d="M5,173.94308943089433C213,173.94308943089433,213,352.8861788617886,421,352.8861788617886" stroke-width="0.5691056910569106" style="stroke: rgb(105, 191, 175);"></path><path d="M5,185.65040650406507C213,185.65040650406507,213,223.37398373983757,421,223.37398373983757" stroke-width="2.845528455284553" style="stroke: rgb(105, 191, 191);"></path><path d="M5,499.430894308943C213,499.430894308943,213,340.3252032520328,421,340.3252032520328" stroke-width="1.1382113821138211" style="stroke: rgb(105, 175, 191);"></path><path d="M5,155.40650406504068C213,155.40650406504068,213,213.69918699187008,421,213.69918699187008" stroke-width="5.121951219512195" style="stroke: rgb(105, 159, 191);"></path><path d="M5,248.41463414634148C213,248.41463414634148,213,245.56910569105708,421,245.56910569105708" stroke-width="2.845528455284553" style="stroke: rgb(105, 143, 191);"></path><path d="M5,128.57723577235782C213,128.57723577235782,213,207.43902439024407,421,207.43902439024407" stroke-width="2.845528455284553" style="stroke: rgb(105, 126, 191);"></path><path d="M5,417.0325203252032C213,417.0325203252032,213,299.06504065040673,421,299.06504065040673" stroke-width="8.536585365853659" style="stroke: rgb(105, 110, 191);"></path><path d="M5,421.5853658536586C213,421.5853658536586,213,359.14634146341456,421,359.14634146341456" stroke-width="0.5691056910569106" style="stroke: rgb(105, 110, 191);"></path><path d="M5,199.91869918699192C213,199.91869918699192,213,227.64227642276438,421,227.64227642276438" stroke-width="5.691056910569106" style="stroke: rgb(116, 105, 191);"></path><path d="M5,141.13821138211392C213,141.13821138211392,213,210.00000000000014,421,210.00000000000014" stroke-width="2.2764227642276422" style="stroke: rgb(132, 105, 191);"></path><path d="M5,142.5609756097562C213,142.5609756097562,213,352.3170731707317,421,352.3170731707317" stroke-width="0.5691056910569106" style="stroke: rgb(132, 105, 191);"></path><path d="M5,357.43902439024384C213,357.43902439024384,213,271.17886178861806,421,271.17886178861806" stroke-width="8.536585365853659" style="stroke: rgb(148, 105, 191);"></path><path d="M5,2.560975609756268C213,2.560975609756268,213,142.56097560975627,421,142.56097560975627" stroke-width="5.121951219512195" style="stroke: rgb(164, 105, 191);"></path><path d="M5,483.7398373983739C213,483.7398373983739,213,334.6341463414637,421,334.6341463414637" stroke-width="10.24390243902439" style="stroke: rgb(180, 105, 191);"></path><path d="M5,327.7642276422763C213,327.7642276422763,213,262.6422764227644,421,262.6422764227644" stroke-width="2.845528455284553" style="stroke: rgb(191, 105, 185);"></path><path d="M5,329.47154471544707C213,329.47154471544707,213,356.30081300813004,421,356.30081300813004" stroke-width="0.5691056910569106" style="stroke: rgb(191, 105, 185);"></path><path d="M5,315.48780487804873C213,315.48780487804873,213,260.36585365853676,421,260.36585365853676" stroke-width="1.7073170731707317" style="stroke: rgb(191, 105, 169);"></path><path d="M5,260.4065040650407C213,260.4065040650407,213,247.56097560975624,421,247.56097560975624" stroke-width="1.1382113821138211" style="stroke: rgb(191, 105, 153);"></path><path d="M426,160.77235772357741C634,160.77235772357741,634,145.77235772357733,842,145.77235772357733" stroke-width="41.54471544715447" style="stroke: rgb(191, 105, 137);"></path><path d="M426,257.80487804878067C634,257.80487804878067,634,281.3414634146342,842,281.3414634146342" stroke-width="62.60162601626016" style="stroke: rgb(191, 105, 137);"></path><path d="M426,184.10569105691076C634,184.10569105691076,634,186.50406504065043,842,186.50406504065043" stroke-width="5.121951219512195" style="stroke: rgb(191, 105, 137);"></path><path d="M426,206.58536585365871C634,206.58536585365871,634,219.55284552845524,842,219.55284552845524" stroke-width="39.83739837398374" style="stroke: rgb(191, 105, 137);"></path><path d="M426,315.00000000000017C634,315.00000000000017,634,348.53658536585374,842,348.53658536585374" stroke-width="51.78861788617886" style="stroke: rgb(191, 105, 137);"></path><path d="M426,354.5934959349593C634,354.5934959349593,634,170.24390243902445,842,170.24390243902445" stroke-width="7.3983739837398375" style="stroke: rgb(191, 105, 121);"></path><path d="M426,358.5772357723577C634,358.5772357723577,634,189.34959349593498,842,189.34959349593498" stroke-width="0.5691056910569106" style="stroke: rgb(191, 105, 121);"></path><path d="M426,359.1463414634146C634,359.1463414634146,634,239.75609756097558,842,239.75609756097558" stroke-width="0.5691056910569106" style="stroke: rgb(191, 105, 121);"></path><path d="M426,359.7154471544715C634,359.7154471544715,634,374.7154471544717,842,374.7154471544717" stroke-width="0.5691056910569106" style="stroke: rgb(191, 105, 121);"></path></g><g class="nodes" font-family="Arial, Helvetica" font-size="10"><g><rect x="421" y="140.00000000000017" height="200.89430894308921" width="5" fill="#000"></rect><text x="415" y="240.44715447154476" dy="0.35em" text-anchor="end">0</text></g><g><rect x="421" y="350.8943089430894" height="9.105691056910473" width="5" fill="#000"></rect><text x="415" y="355.44715447154465" dy="0.35em" text-anchor="end">1</text></g><g><rect x="842" y="125.00000000000009" height="48.94308943089425" width="5" fill="#000"></rect><text x="836" y="149.4715447154472" dy="0.35em" text-anchor="end">Africa (excl MENA)</text></g><g><rect x="842" y="183.94308943089433" height="5.691056910569046" width="5" fill="#000"></rect><text x="836" y="186.78861788617886" dy="0.35em" text-anchor="end">Americas</text></g><g><rect x="842" y="199.63414634146338" height="40.406504065040735" width="5" fill="#000"></rect><text x="836" y="219.83739837398375" dy="0.35em" text-anchor="end">Asia and Pacific</text></g><g><rect x="842" y="250.0406504065041" height="62.60162601626024" width="5" fill="#000"></rect><text x="836" y="281.34146341463423" dy="0.35em" text-anchor="end">Europe and Eurasia</text></g><g><rect x="842" y="322.6422764227643" height="52.35772357723556" width="5" fill="#000"></rect><text x="836" y="348.8211382113821" dy="0.35em" text-anchor="end">Middle East and North Africa</text></g><g><rect x="0" y="1.7053025658242404e-13" height="5.121951219512198" width="5" fill="#000"></rect><text x="11" y="2.5609756097562695" dy="0.35em" text-anchor="start">1990</text></g><g><rect x="0" y="15.121951219512368" height="9.105691056910587" width="5" fill="#000"></rect><text x="11" y="19.67479674796766" dy="0.35em" text-anchor="start">1991</text></g><g><rect x="0" y="34.227642276422955" height="14.227642276422728" width="5" fill="#000"></rect><text x="11" y="41.34146341463432" dy="0.35em" text-anchor="start">1992</text></g><g><rect x="0" y="58.45528455284568" height="17.642276422764212" width="5" fill="#000"></rect><text x="11" y="67.27642276422779" dy="0.35em" text-anchor="start">1993</text></g><g><rect x="0" y="86.0975609756099" height="13.658536585365823" width="5" fill="#000"></rect><text x="11" y="92.9268292682928" dy="0.35em" text-anchor="start">1994</text></g><g><rect x="0" y="109.75609756097572" height="7.398373983739816" width="5" fill="#000"></rect><text x="11" y="113.45528455284563" dy="0.35em" text-anchor="start">1995</text></g><g><rect x="0" y="127.15447154471553" height="2.8455284552845796" width="5" fill="#000"></rect><text x="11" y="128.57723577235782" dy="0.35em" text-anchor="start">1996</text></g><g><rect x="0" y="140.0000000000001" height="2.845528455284466" width="5" fill="#000"></rect><text x="11" y="141.42276422764235" dy="0.35em" text-anchor="start">1997</text></g><g><rect x="0" y="152.84552845528458" height="5.121951219512198" width="5" fill="#000"></rect><text x="11" y="155.40650406504068" dy="0.35em" text-anchor="start">1998</text></g><g><rect x="0" y="167.96747967479678" height="6.260162601626007" width="5" fill="#000"></rect><text x="11" y="171.09756097560978" dy="0.35em" text-anchor="start">1999</text></g><g><rect x="0" y="184.22764227642278" height="2.8455284552845796" width="5" fill="#000"></rect><text x="11" y="185.65040650406507" dy="0.35em" text-anchor="start">2000</text></g><g><rect x="0" y="197.07317073170736" height="5.691056910569046" width="5" fill="#000"></rect><text x="11" y="199.9186991869919" dy="0.35em" text-anchor="start">2001</text></g><g><rect x="0" y="212.7642276422764" height="7.9674796747967775" width="5" fill="#000"></rect><text x="11" y="216.7479674796748" dy="0.35em" text-anchor="start">2002</text></g><g><rect x="0" y="230.7317073170732" height="6.260162601626007" width="5" fill="#000"></rect><text x="11" y="233.8617886178862" dy="0.35em" text-anchor="start">2003</text></g><g><rect x="0" y="246.9918699186992" height="2.8455284552845796" width="5" fill="#000"></rect><text x="11" y="248.41463414634148" dy="0.35em" text-anchor="start">2004</text></g><g><rect x="0" y="259.8373983739838" height="1.1382113821138091" width="5" fill="#000"></rect><text x="11" y="260.4065040650407" dy="0.35em" text-anchor="start">2005</text></g><g><rect x="0" y="270.9756097560976" height="4.5528455284552365" width="5" fill="#000"></rect><text x="11" y="273.2520325203252" dy="0.35em" text-anchor="start">2006</text></g><g><rect x="0" y="285.5284552845528" height="2.2764227642277035" width="5" fill="#000"></rect><text x="11" y="286.6666666666667" dy="0.35em" text-anchor="start">2007</text></g><g><rect x="0" y="297.80487804878055" height="6.829268292682798" width="5" fill="#000"></rect><text x="11" y="301.219512195122" dy="0.35em" text-anchor="start">2008</text></g><g><rect x="0" y="314.63414634146335" height="1.7073170731706568" width="5" fill="#000"></rect><text x="11" y="315.4878048780487" dy="0.35em" text-anchor="start">2009</text></g><g><rect x="0" y="326.341463414634" height="3.414634146341541" width="5" fill="#000"></rect><text x="11" y="328.0487804878048" dy="0.35em" text-anchor="start">2010</text></g><g><rect x="0" y="339.75609756097555" height="3.414634146341484" width="5" fill="#000"></rect><text x="11" y="341.46341463414626" dy="0.35em" text-anchor="start">2011</text></g><g><rect x="0" y="353.17073170731703" height="8.536585365853739" width="5" fill="#000"></rect><text x="11" y="357.4390243902439" dy="0.35em" text-anchor="start">2012</text></g><g><rect x="0" y="371.70731707317077" height="4.5528455284552365" width="5" fill="#000"></rect><text x="11" y="373.9837398373984" dy="0.35em" text-anchor="start">2013</text></g><g><rect x="0" y="386.260162601626" height="16.504065040650403" width="5" fill="#000"></rect><text x="11" y="394.5121951219512" dy="0.35em" text-anchor="start">2014</text></g><g><rect x="0" y="412.7642276422764" height="9.105691056910558" width="5" fill="#000"></rect><text x="11" y="417.3170731707317" dy="0.35em" text-anchor="start">2015</text></g><g><rect x="0" y="431.869918699187" height="13.089430894308862" width="5" fill="#000"></rect><text x="11" y="438.4146341463414" dy="0.35em" text-anchor="start">2016</text></g><g><rect x="0" y="454.95934959349586" height="13.658536585365823" width="5" fill="#000"></rect><text x="11" y="461.78861788617877" dy="0.35em" text-anchor="start">2017</text></g><g><rect x="0" y="478.6178861788617" height="10.243902439024396" width="5" fill="#000"></rect><text x="11" y="483.7398373983739" dy="0.35em" text-anchor="start">2018</text></g><g><rect x="0" y="498.8617886178861" height="1.1382113821138091" width="5" fill="#000"></rect><text x="11" y="499.430894308943" dy="0.35em" text-anchor="start">2019</text></g></g></g></svg>