<svg width="847" height="520" xmlns="http://www.w3.org/2000/svg" version="1.1"><g transform="translate(0, 10)"><g class="links" fill="none" stroke-opacity="0.4"><path d="M5,19.674796747967626C213,19.674796747967626,213,149.67479674796755,421,149.67479674796755" stroke-width="9.105691056910569" style="stroke: rgb(191, 105, 105);"></path><path d="M5,113.45528455284567C213,113.45528455284567,213,203.45528455284554,421,203.45528455284554" stroke-width="7.3983739837398375" style="stroke: rgb(191, 121, 105);"></path><path d="M5,92.92682926829274C213,92.92682926829274,213,192.92682926829272,421,192.92682926829272" stroke-width="13.658536585365853" style="stroke: rgb(191, 137, 105);"></path><path d="M5,67.27642276422779C213,67.27642276422779,213,177.27642276422768,421,177.27642276422768" stroke-width="17.642276422764226" style="stroke: rgb(191, 153, 105);"></path><path d="M5,41.341463414634305C213,41.341463414634305,213,161.3414634146342,421,161.3414634146342" stroke-width="14.227642276422763" style="stroke: rgb(191, 169, 105);"></path><path d="M5,300.93495934959356C213,300.93495934959356,213,260.9349593495935,421,260.9349593495935" stroke-width="6.260162601626016" style="stroke: rgb(191, 185, 105);"></path><path d="M5,304.34959349593504C213,304.34959349593504,213,359.7154471544715,421,359.7154471544715" stroke-width="0.5691056910569106" style="stroke: rgb(191, 185, 105);"></path><path d="M5,273.2520325203253C213,273.2520325203253,213,253.2520325203252,421,253.2520325203252" stroke-width="4.5528455284552845" style="stroke: rgb(180, 191, 105);"></path><path d="M5,233.8617886178864C213,233.8617886178864,213,243.8617886178862,421,243.8617886178862" stroke-width="6.260162601626016" style="stroke: rgb(164, 191, 105);"></path><path d="M5,216.74796747967508C213,216.74796747967508,213,236.7479674796748,421,236.7479674796748" stroke-width="7.967479674796747" style="stroke: rgb(148, 191, 105);"></path><path d="M5,394.5121951219512C213,394.5121951219512,213,293.94308943089436,421,293.94308943089436" stroke-width="16.504065040650406" style="stroke: rgb(132, 191, 105);"></path><path d="M5,373.9837398373984C213,373.9837398373984,213,283.4146341463415,421,283.4146341463415" stroke-width="4.5528455284552845" style="stroke: rgb(116, 191, 105);"></path><path d="M5,341.4634146341463C213,341.4634146341463,213,270.8943089430894,421,270.8943089430894" stroke-width="3.4146341463414633" style="stroke: rgb(105, 191, 110);"></path><path d="M5,286.66666666666674C213,286.66666666666674,213,256.6666666666667,421,256.6666666666667" stroke-width="2.2764227642276422" style="stroke: rgb(105, 191, 126);"></path><path d="M5,461.78861788617877C213,461.78861788617877,213,331.219512195122,421,331.219512195122" stroke-width="13.658536585365853" style="stroke: rgb(105, 191, 143);"></path><path d="M5,438.4146341463415C213,438.4146341463415,213,317.84552845528464,421,317.84552845528464" stroke-width="13.089430894308943" style="stroke: rgb(105, 191, 159);"></path><path d="M5,171.0975609756101C213,171.0975609756101,213,221.09756097560978,421,221.09756097560978" stroke-width="6.260162601626016" style="stroke: rgb(105, 191, 175);"></path><path d="M5,185.6504065040654C213,185.6504065040654,213,225.65040650406507,421,225.65040650406507" stroke-width="2.845528455284553" style="stroke: rgb(105, 191, 191);"></path><path d="M5,499.430894308943C213,499.430894308943,213,348.86178861788625,421,348.86178861788625" stroke-width="1.1382113821138211" style="stroke: rgb(105, 175, 191);"></path><path d="M5,155.406504065041C213,155.406504065041,213,215.40650406504068,421,215.40650406504068" stroke-width="5.121951219512195" style="stroke: rgb(105, 159, 191);"></path><path d="M5,248.41463414634168C213,248.41463414634168,213,248.41463414634148,421,248.41463414634148" stroke-width="2.845528455284553" style="stroke: rgb(105, 143, 191);"></path><path d="M5,128.57723577235802C213,128.57723577235802,213,208.57723577235777,421,208.57723577235777" stroke-width="2.845528455284553" style="stroke: rgb(105, 126, 191);"></path><path d="M5,417.3170731707316C213,417.3170731707316,213,306.74796747967486,421,306.74796747967486" stroke-width="9.105691056910569" style="stroke: rgb(105, 110, 191);"></path><path d="M5,199.91869918699211C213,199.91869918699211,213,229.9186991869919,421,229.9186991869919" stroke-width="5.691056910569106" style="stroke: rgb(116, 105, 191);"></path><path d="M5,141.4227642276426C213,141.4227642276426,213,211.42276422764232,421,211.42276422764232" stroke-width="2.845528455284553" style="stroke: rgb(132, 105, 191);"></path><path d="M5,357.43902439024396C213,357.43902439024396,213,276.869918699187,421,276.869918699187" stroke-width="8.536585365853659" style="stroke: rgb(148, 105, 191);"></path><path d="M5,2.5609756097562397C213,2.5609756097562397,213,142.56097560975616,421,142.56097560975616" stroke-width="5.121951219512195" style="stroke: rgb(164, 105, 191);"></path><path d="M5,483.7398373983739C213,483.7398373983739,213,343.17073170731715,421,343.17073170731715" stroke-width="10.24390243902439" style="stroke: rgb(180, 105, 191);"></path><path d="M5,328.0487804878048C213,328.0487804878048,213,267.47967479674793,421,267.47967479674793" stroke-width="3.4146341463414633" style="stroke: rgb(191, 105, 185);"></path><path d="M5,315.4878048780488C213,315.4878048780488,213,264.9186991869919,421,264.9186991869919" stroke-width="1.7073170731707317" style="stroke: rgb(191, 105, 169);"></path><path d="M5,260.4065040650408C213,260.4065040650408,213,250.40650406504065,421,250.40650406504065" stroke-width="1.1382113821138211" style="stroke: rgb(191, 105, 153);"></path><path d="M426,164.4715447154472C634,164.4715447154472,634,149.47154471544715,842,149.47154471544715" stroke-width="48.94308943089431" style="stroke: rgb(191, 105, 137);"></path><path d="M426,265.7723577235773C634,265.7723577235773,634,281.3414634146341,842,281.3414634146341" stroke-width="62.60162601626016" style="stroke: rgb(191, 105, 137);"></path><path d="M426,191.7886178861789C634,191.7886178861789,634,186.78861788617886,842,186.78861788617886" stroke-width="5.691056910569106" style="stroke: rgb(191, 105, 137);"></path><path d="M426,214.55284552845532C634,214.55284552845532,634,219.55284552845532,842,219.55284552845532" stroke-width="39.83739837398374" style="stroke: rgb(191, 105, 137);"></path><path d="M426,323.25203252032526C634,323.25203252032526,634,348.82113821138205,842,348.82113821138205" stroke-width="52.357723577235774" style="stroke: rgb(191, 105, 137);"></path><path d="M426,359.7154471544715C634,359.7154471544715,634,239.75609756097566,842,239.75609756097566" stroke-width="0.5691056910569106" style="stroke: rgb(191, 105, 121);"></path></g><g class="nodes" font-family="Arial, Helvetica" font-size="10"><g><rect x="421" y="140.00000000000006" height="209.430894308943" width="5" fill="#000"></rect><text x="415" y="244.71544715447158" dy="0.35em" text-anchor="end">0</text></g><g><rect x="421" y="359.43089430894304" height="0.5691056910568477" width="5" fill="#000"></rect><text x="415" y="359.71544715447146" dy="0.35em" text-anchor="end">2</text></g><g><rect x="842" y="125" height="48.943089430894304" width="5" fill="#000"></rect><text x="836" y="149.47154471544715" dy="0.35em" text-anchor="end">Africa (excl MENA)</text></g><g><rect x="842" y="183.9430894308943" height="5.691056910569159" width="5" fill="#000"></rect><text x="836" y="186.78861788617888" dy="0.35em" text-anchor="end">Americas</text></g><g><rect x="842" y="199.63414634146346" height="40.406504065040565" width="5" fill="#000"></rect><text x="836" y="219.83739837398375" dy="0.35em" text-anchor="end">Asia and Pacific</text></g><g><rect x="842" y="250.04065040650403" height="62.60162601626013" width="5" fill="#000"></rect><text x="836" y="281.34146341463406" dy="0.35em" text-anchor="end">Europe and Eurasia</text></g><g><rect x="842" y="322.64227642276416" height="52.357723577235845" width="5" fill="#000"></rect><text x="836" y="348.82113821138205" dy="0.35em" text-anchor="end">Middle East and North Africa</text></g><g><rect x="0" y="1.4210854715202004e-13" height="5.121951219512198" width="5" fill="#000"></rect><text x="11" y="2.560975609756241" dy="0.35em" text-anchor="start">1990</text></g><g><rect x="0" y="15.12195121951234" height="9.105691056910587" width="5" fill="#000"></rect><text x="11" y="19.674796747967633" dy="0.35em" text-anchor="start">1991</text></g><g><rect x="0" y="34.22764227642293" height="14.227642276422756" width="5" fill="#000"></rect><text x="11" y="41.341463414634305" dy="0.35em" text-anchor="start">1992</text></g><g><rect x="0" y="58.45528455284568" height="17.642276422764127" width="5" fill="#000"></rect><text x="11" y="67.27642276422775" dy="0.35em" text-anchor="start">1993</text></g><g><rect x="0" y="86.09756097560981" height="13.658536585365937" width="5" fill="#000"></rect><text x="11" y="92.92682926829278" dy="0.35em" text-anchor="start">1994</text></g><g><rect x="0" y="109.75609756097575" height="7.398373983739987" width="5" fill="#000"></rect><text x="11" y="113.45528455284574" dy="0.35em" text-anchor="start">1995</text></g><g><rect x="0" y="127.15447154471573" height="2.8455284552845796" width="5" fill="#000"></rect><text x="11" y="128.57723577235802" dy="0.35em" text-anchor="start">1996</text></g><g><rect x="0" y="140.0000000000003" height="2.8455284552845796" width="5" fill="#000"></rect><text x="11" y="141.4227642276426" dy="0.35em" text-anchor="start">1997</text></g><g><rect x="0" y="152.8455284552849" height="5.121951219512198" width="5" fill="#000"></rect><text x="11" y="155.406504065041" dy="0.35em" text-anchor="start">1998</text></g><g><rect x="0" y="167.9674796747971" height="6.260162601626007" width="5" fill="#000"></rect><text x="11" y="171.0975609756101" dy="0.35em" text-anchor="start">1999</text></g><g><rect x="0" y="184.2276422764231" height="2.845528455284466" width="5" fill="#000"></rect><text x="11" y="185.65040650406533" dy="0.35em" text-anchor="start">2000</text></g><g><rect x="0" y="197.07317073170756" height="5.691056910569159" width="5" fill="#000"></rect><text x="11" y="199.91869918699214" dy="0.35em" text-anchor="start">2001</text></g><g><rect x="0" y="212.76422764227672" height="7.967479674796664" width="5" fill="#000"></rect><text x="11" y="216.74796747967505" dy="0.35em" text-anchor="start">2002</text></g><g><rect x="0" y="230.7317073170734" height="6.260162601626007" width="5" fill="#000"></rect><text x="11" y="233.8617886178864" dy="0.35em" text-anchor="start">2003</text></g><g><rect x="0" y="246.9918699186994" height="2.845528455284466" width="5" fill="#000"></rect><text x="11" y="248.41463414634163" dy="0.35em" text-anchor="start">2004</text></g><g><rect x="0" y="259.8373983739839" height="1.1382113821138091" width="5" fill="#000"></rect><text x="11" y="260.4065040650408" dy="0.35em" text-anchor="start">2005</text></g><g><rect x="0" y="270.9756097560977" height="4.5528455284552365" width="5" fill="#000"></rect><text x="11" y="273.2520325203253" dy="0.35em" text-anchor="start">2006</text></g><g><rect x="0" y="285.52845528455293" height="2.2764227642276182" width="5" fill="#000"></rect><text x="11" y="286.66666666666674" dy="0.35em" text-anchor="start">2007</text></g><g><rect x="0" y="297.80487804878055" height="6.829268292682855" width="5" fill="#000"></rect><text x="11" y="301.219512195122" dy="0.35em" text-anchor="start">2008</text></g><g><rect x="0" y="314.6341463414634" height="1.7073170731706568" width="5" fill="#000"></rect><text x="11" y="315.48780487804873" dy="0.35em" text-anchor="start">2009</text></g><g><rect x="0" y="326.34146341463406" height="3.414634146341541" width="5" fill="#000"></rect><text x="11" y="328.04878048780483" dy="0.35em" text-anchor="start">2010</text></g><g><rect x="0" y="339.7560975609756" height="3.414634146341541" width="5" fill="#000"></rect><text x="11" y="341.4634146341464" dy="0.35em" text-anchor="start">2011</text></g><g><rect x="0" y="353.17073170731715" height="8.536585365853625" width="5" fill="#000"></rect><text x="11" y="357.43902439024396" dy="0.35em" text-anchor="start">2012</text></g><g><rect x="0" y="371.70731707317077" height="4.5528455284552365" width="5" fill="#000"></rect><text x="11" y="373.9837398373984" dy="0.35em" text-anchor="start">2013</text></g><g><rect x="0" y="386.260162601626" height="16.50406504065029" width="5" fill="#000"></rect><text x="11" y="394.51219512195115" dy="0.35em" text-anchor="start">2014</text></g><g><rect x="0" y="412.7642276422763" height="9.1056910569107" width="5" fill="#000"></rect><text x="11" y="417.31707317073165" dy="0.35em" text-anchor="start">2015</text></g><g><rect x="0" y="431.869918699187" height="13.089430894308862" width="5" fill="#000"></rect><text x="11" y="438.4146341463414" dy="0.35em" text-anchor="start">2016</text></g><g><rect x="0" y="454.95934959349586" height="13.658536585365823" width="5" fill="#000"></rect><text x="11" y="461.78861788617877" dy="0.35em" text-anchor="start">2017</text></g><g><rect x="0" y="478.6178861788617" height="10.243902439024396" width="5" fill="#000"></rect><text x="11" y="483.7398373983739" dy="0.35em" text-anchor="start">2018</text></g><g><rect x="0" y="498.8617886178861" height="1.1382113821138091" width="5" fill="#000"></rect><text x="11" y="499.430894308943" dy="0.35em" text-anchor="start">2019</text></g></g></g></svg>