<svg width="847" height="520" xmlns="http://www.w3.org/2000/svg" version="1.1"><g transform="translate(0, 10)"><g class="links" fill="none" stroke-opacity="0.4"><path d="M5,19.10569105691063C213,19.10569105691063,213,137.96747967479666,421,137.96747967479666" stroke-width="7.967479674796747" style="stroke: rgb(191, 105, 105);"></path><path d="M5,23.658536585365916C213,23.658536585365916,213,344.6341463414636,421,344.6341463414636" stroke-width="1.1382113821138211" style="stroke: rgb(191, 105, 105);"></path><path d="M5,112.88617886178864C213,112.88617886178864,213,180.36585365853654,421,180.36585365853654" stroke-width="6.260162601626016" style="stroke: rgb(191, 120, 105);"></path><path d="M5,116.3008130081301C213,116.3008130081301,213,316.138211382114,421,316.138211382114" stroke-width="0.5691056910569106" style="stroke: rgb(191, 120, 105);"></path><path d="M5,116.86991869918701C213,116.86991869918701,213,346.62601626016277,421,346.62601626016277" stroke-width="0.5691056910569106" style="stroke: rgb(191, 120, 105);"></path><path d="M5,91.21951219512201C213,91.21951219512201,213,172.11382113821134,421,172.11382113821134" stroke-width="10.24390243902439" style="stroke: rgb(191, 135, 105);"></path><path d="M5,97.19512195121958C213,97.19512195121958,213,315.00000000000017,421,315.00000000000017" stroke-width="1.7073170731707317" style="stroke: rgb(191, 135, 105);"></path><path d="M5,98.9024390243903C213,98.9024390243903,213,365.7317073170733,421,365.7317073170733" stroke-width="1.7073170731707317" style="stroke: rgb(191, 135, 105);"></path><path d="M5,65.85365853658544C213,65.85365853658544,213,159.5934959349593,421,159.5934959349593" stroke-width="14.796747967479675" style="stroke: rgb(191, 150, 105);"></path><path d="M5,74.67479674796755C213,74.67479674796755,213,346.05691056910587,421,346.05691056910587" stroke-width="0.5691056910569106" style="stroke: rgb(191, 150, 105);"></path><path d="M5,73.82113821138218C213,73.82113821138218,213,313.5772357723579,421,313.5772357723579" stroke-width="1.1382113821138211" style="stroke: rgb(191, 150, 105);"></path><path d="M5,75.5284552845529C213,75.5284552845529,213,364.308943089431,421,364.308943089431" stroke-width="1.1382113821138211" style="stroke: rgb(191, 150, 105);"></path><path d="M5,39.34959349593504C213,39.34959349593504,213,147.07317073170725,421,147.07317073170725" stroke-width="10.24390243902439" style="stroke: rgb(191, 166, 105);"></path><path d="M5,46.178861788617965C213,46.178861788617965,213,311.3008130081302,421,311.3008130081302" stroke-width="3.4146341463414633" style="stroke: rgb(191, 166, 105);"></path><path d="M5,48.170731707317145C213,48.170731707317145,213,345.48780487804896,421,345.48780487804896" stroke-width="0.5691056910569106" style="stroke: rgb(191, 166, 105);"></path><path d="M5,300.650406504065C213,300.650406504065,213,224.47154471544712,421,224.47154471544712" stroke-width="5.691056910569106" style="stroke: rgb(191, 181, 105);"></path><path d="M5,304.06504065040644C213,304.06504065040644,213,326.6666666666667,421,326.6666666666667" stroke-width="1.1382113821138211" style="stroke: rgb(191, 181, 105);"></path><path d="M5,274.959349593496C213,274.959349593496,213,324.39024390243907,421,324.39024390243907" stroke-width="1.1382113821138211" style="stroke: rgb(186, 191, 105);"></path><path d="M5,272.6829268292683C213,272.6829268292683,213,218.78048780487805,421,218.78048780487805" stroke-width="3.4146341463414633" style="stroke: rgb(186, 191, 105);"></path><path d="M5,233.29268292682926C213,233.29268292682926,213,211.66666666666666,421,211.66666666666666" stroke-width="5.121951219512195" style="stroke: rgb(171, 191, 105);"></path><path d="M5,236.42276422764226C213,236.42276422764226,213,322.68292682926835,421,322.68292682926835" stroke-width="1.1382113821138211" style="stroke: rgb(171, 191, 105);"></path><path d="M5,216.17886178861784C213,216.17886178861784,213,205.69105691056907,421,205.69105691056907" stroke-width="6.829268292682927" style="stroke: rgb(155, 191, 105);"></path><path d="M5,220.16260162601623C213,220.16260162601623,213,321.54471544715454,421,321.54471544715454" stroke-width="1.1382113821138211" style="stroke: rgb(155, 191, 105);"></path><path d="M5,402.1951219512194C213,402.1951219512194,213,350.3252032520326,421,350.3252032520326" stroke-width="1.1382113821138211" style="stroke: rgb(140, 191, 105);"></path><path d="M5,393.3739837398373C213,393.3739837398373,213,250.9349593495935,421,250.9349593495935" stroke-width="14.227642276422763" style="stroke: rgb(140, 191, 105);"></path><path d="M5,401.0569105691056C213,401.0569105691056,213,331.2195121951219,421,331.2195121951219" stroke-width="1.1382113821138211" style="stroke: rgb(140, 191, 105);"></path><path d="M5,373.9837398373983C213,373.9837398373983,213,330.0813008130081,421,330.0813008130081" stroke-width="1.1382113821138211" style="stroke: rgb(125, 191, 105);"></path><path d="M5,372.56097560975604C213,372.56097560975604,213,242.96747967479672,421,242.96747967479672" stroke-width="1.7073170731707317" style="stroke: rgb(125, 191, 105);"></path><path d="M5,375.1219512195121C213,375.1219512195121,213,349.1869918699188,421,349.1869918699188" stroke-width="1.1382113821138211" style="stroke: rgb(125, 191, 105);"></path><path d="M5,375.97560975609747C213,375.97560975609747,213,368.0081300813009,421,368.0081300813009" stroke-width="0.5691056910569106" style="stroke: rgb(125, 191, 105);"></path><path d="M5,341.4634146341461C213,341.4634146341461,213,233.0081300813008,421,233.0081300813008" stroke-width="3.4146341463414633" style="stroke: rgb(110, 191, 105);"></path><path d="M5,287.23577235772353C213,287.23577235772353,213,325.5284552845529,421,325.5284552845529" stroke-width="1.1382113821138211" style="stroke: rgb(105, 191, 115);"></path><path d="M5,286.0975609756097C213,286.0975609756097,213,221.05691056910567,421,221.05691056910567" stroke-width="1.1382113821138211" style="stroke: rgb(105, 191, 115);"></path><path d="M5,460.93495934959344C213,460.93495934959344,213,281.6666666666667,421,281.6666666666667" stroke-width="11.951219512195122" style="stroke: rgb(105, 191, 130);"></path><path d="M5,468.0487804878048C213,468.0487804878048,213,353.17073170731715,421,353.17073170731715" stroke-width="1.1382113821138211" style="stroke: rgb(105, 191, 130);"></path><path d="M5,467.19512195121945C213,467.19512195121945,213,333.780487804878,421,333.780487804878" stroke-width="0.5691056910569106" style="stroke: rgb(105, 191, 130);"></path><path d="M5,437.84552845528447C213,437.84552845528447,213,269.7154471544716,421,269.7154471544716" stroke-width="11.951219512195122" style="stroke: rgb(105, 191, 145);"></path><path d="M5,444.3902439024389C213,444.3902439024389,213,352.03252032520334,421,352.03252032520334" stroke-width="1.1382113821138211" style="stroke: rgb(105, 191, 145);"></path><path d="M5,170.52845528455296C213,170.52845528455296,213,192.31707317073167,421,192.31707317073167" stroke-width="5.121951219512195" style="stroke: rgb(105, 191, 161);"></path><path d="M5,173.94308943089442C213,173.94308943089442,213,366.8699186991871,421,366.8699186991871" stroke-width="0.5691056910569106" style="stroke: rgb(105, 191, 161);"></path><path d="M5,173.3739837398375C213,173.3739837398375,213,320.1219512195123,421,320.1219512195123" stroke-width="0.5691056910569106" style="stroke: rgb(105, 191, 161);"></path><path d="M5,186.78861788617897C213,186.78861788617897,213,367.439024390244,421,367.439024390244" stroke-width="0.5691056910569106" style="stroke: rgb(105, 191, 176);"></path><path d="M5,185.08130081300823C213,185.08130081300823,213,195.73170731707313,421,195.73170731707313" stroke-width="1.7073170731707317" style="stroke: rgb(105, 191, 176);"></path><path d="M5,186.21951219512206C213,186.21951219512206,213,320.6910569105692,421,320.6910569105692" stroke-width="0.5691056910569106" style="stroke: rgb(105, 191, 176);"></path><path d="M5,499.4308943089431C213,499.4308943089431,213,297.8861788617886,421,297.8861788617886" stroke-width="1.1382113821138211" style="stroke: rgb(105, 191, 191);"></path><path d="M5,153.69918699186996C213,153.69918699186996,213,188.9024390243902,421,188.9024390243902" stroke-width="1.7073170731707317" style="stroke: rgb(105, 176, 191);"></path><path d="M5,155.69105691056916C213,155.69105691056916,213,318.69918699187,421,318.69918699187" stroke-width="2.2764227642276422" style="stroke: rgb(105, 176, 191);"></path><path d="M5,157.3983739837399C213,157.3983739837399,213,347.4796747967481,421,347.4796747967481" stroke-width="1.1382113821138211" style="stroke: rgb(105, 176, 191);"></path><path d="M5,247.84552845528452C213,247.84552845528452,213,215.0813008130081,421,215.0813008130081" stroke-width="1.7073170731707317" style="stroke: rgb(105, 161, 191);"></path><path d="M5,249.55284552845526C213,249.55284552845526,213,348.3333333333335,421,348.3333333333335" stroke-width="0.5691056910569106" style="stroke: rgb(105, 161, 191);"></path><path d="M5,248.98373983739836C213,248.98373983739836,213,323.53658536585374,421,323.53658536585374" stroke-width="0.5691056910569106" style="stroke: rgb(105, 161, 191);"></path><path d="M5,128.29268292682926C213,128.29268292682926,213,184.63414634146335,421,184.63414634146335" stroke-width="2.2764227642276422" style="stroke: rgb(105, 145, 191);"></path><path d="M5,129.71544715447155C213,129.71544715447155,213,316.7073170731709,421,316.7073170731709" stroke-width="0.5691056910569106" style="stroke: rgb(105, 145, 191);"></path><path d="M5,415.6097560975609C213,415.6097560975609,213,260.89430894308947,421,260.89430894308947" stroke-width="5.691056910569106" style="stroke: rgb(105, 130, 191);"></path><path d="M5,419.3089430894308C213,419.3089430894308,213,332.6422764227642,421,332.6422764227642" stroke-width="1.7073170731707317" style="stroke: rgb(105, 130, 191);"></path><path d="M5,420.4471544715446C213,420.4471544715446,213,351.178861788618,421,351.178861788618" stroke-width="0.5691056910569106" style="stroke: rgb(105, 130, 191);"></path><path d="M5,421.3008130081299C213,421.3008130081299,213,368.86178861788625,421,368.86178861788625" stroke-width="1.1382113821138211" style="stroke: rgb(105, 130, 191);"></path><path d="M5,199.9186991869919C213,199.9186991869919,213,199.43089430894307,421,199.43089430894307" stroke-width="5.691056910569106" style="stroke: rgb(105, 115, 191);"></path><path d="M5,141.13821138211384C213,141.13821138211384,213,186.910569105691,421,186.910569105691" stroke-width="2.2764227642276422" style="stroke: rgb(110, 105, 191);"></path><path d="M5,142.56097560975613C213,142.56097560975613,213,317.2764227642278,421,317.2764227642278" stroke-width="0.5691056910569106" style="stroke: rgb(110, 105, 191);"></path><path d="M5,356.8699186991868C213,356.8699186991868,213,238.41463414634143,421,238.41463414634143" stroke-width="7.3983739837398375" style="stroke: rgb(125, 105, 191);"></path><path d="M5,361.13821138211364C213,361.13821138211364,213,328.9430894308943,421,328.9430894308943" stroke-width="1.1382113821138211" style="stroke: rgb(125, 105, 191);"></path><path d="M5,1.9918699186992437C213,1.9918699186992437,213,131.99186991869914,421,131.99186991869914" stroke-width="3.9837398373983737" style="stroke: rgb(140, 105, 191);"></path><path d="M5,4.552845528455341C213,4.552845528455341,213,309.0243902439026,421,309.0243902439026" stroke-width="1.1382113821138211" style="stroke: rgb(140, 105, 191);"></path><path d="M5,483.4552845528455C213,483.4552845528455,213,292.47967479674793,421,292.47967479674793" stroke-width="9.674796747967479" style="stroke: rgb(155, 105, 191);"></path><path d="M5,488.57723577235777C213,488.57723577235777,213,369.71544715447163,421,369.71544715447163" stroke-width="0.5691056910569106" style="stroke: rgb(155, 105, 191);"></path><path d="M5,327.47967479674776C213,327.47967479674776,213,230.16260162601623,421,230.16260162601623" stroke-width="2.2764227642276422" style="stroke: rgb(171, 105, 191);"></path><path d="M5,329.1869918699185C213,329.1869918699185,213,327.8048780487805,421,327.8048780487805" stroke-width="1.1382113821138211" style="stroke: rgb(171, 105, 191);"></path><path d="M5,315.4878048780487C213,315.4878048780487,213,228.17073170731703,421,228.17073170731703" stroke-width="1.7073170731707317" style="stroke: rgb(186, 105, 191);"></path><path d="M5,260.4065040650407C213,260.4065040650407,213,216.5040650406504,421,216.5040650406504" stroke-width="1.1382113821138211" style="stroke: rgb(191, 105, 181);"></path><path d="M426,146.2195121951219C634,146.2195121951219,634,141.21951219512212,842,141.21951219512212" stroke-width="32.4390243902439" style="stroke: rgb(191, 105, 166);"></path><path d="M426,227.31707317073165C634,227.31707317073165,634,275.08130081300817,842,275.08130081300817" stroke-width="50.08130081300813" style="stroke: rgb(191, 105, 166);"></path><path d="M426,165.2845528455284C634,165.2845528455284,634,186.78861788617888,842,186.78861788617888" stroke-width="5.691056910569106" style="stroke: rgb(191, 105, 166);"></path><path d="M426,185.20325203252025C634,185.20325203252025,634,216.70731707317069,842,216.70731707317069" stroke-width="34.146341463414636" style="stroke: rgb(191, 105, 166);"></path><path d="M426,275.4065040650406C634,275.4065040650406,634,345.691056910569,842,345.691056910569" stroke-width="46.09756097560975" style="stroke: rgb(191, 105, 166);"></path><path d="M426,327.80487804878067C634,327.80487804878067,634,304.10569105691064,842,304.10569105691064" stroke-width="7.967479674796747" style="stroke: rgb(191, 105, 150);"></path><path d="M426,314.1463414634148C634,314.1463414634148,634,163.13008130081317,842,163.13008130081317" stroke-width="11.382113821138212" style="stroke: rgb(191, 105, 150);"></path><path d="M426,321.8292682926831C634,321.8292682926831,634,235.77235772357722,842,235.77235772357722" stroke-width="3.9837398373983737" style="stroke: rgb(191, 105, 150);"></path><path d="M426,332.9268292682928C634,332.9268292682928,634,369.8780487804877,842,369.8780487804877" stroke-width="2.2764227642276422" style="stroke: rgb(191, 105, 150);"></path><path d="M426,350.3252032520327C634,350.3252032520327,634,309.2276422764228,842,309.2276422764228" stroke-width="2.2764227642276422" style="stroke: rgb(191, 105, 135);"></path><path d="M426,346.05691056910587C634,346.05691056910587,634,170.81300813008147,842,170.81300813008147" stroke-width="3.9837398373983737" style="stroke: rgb(191, 105, 135);"></path><path d="M426,348.61788617886197C634,348.61788617886197,634,238.3333333333333,842,238.3333333333333" stroke-width="1.1382113821138211" style="stroke: rgb(191, 105, 135);"></path><path d="M426,352.6016260162603C634,352.6016260162603,634,372.1544715447153,842,372.1544715447153" stroke-width="2.2764227642276422" style="stroke: rgb(191, 105, 135);"></path><path d="M426,364.308943089431C634,364.308943089431,634,173.37398373983754,842,173.37398373983754" stroke-width="1.1382113821138211" style="stroke: rgb(191, 105, 120);"></path><path d="M426,367.15447154471553C634,367.15447154471553,634,311.5040650406504,842,311.5040650406504" stroke-width="2.2764227642276422" style="stroke: rgb(191, 105, 120);"></path><path d="M426,365.4471544715448C634,365.4471544715448,634,239.4715447154471,842,239.4715447154471" stroke-width="1.1382113821138211" style="stroke: rgb(191, 105, 120);"></path><path d="M426,369.14634146341473C634,369.14634146341473,634,374.1463414634145,842,374.1463414634145" stroke-width="1.7073170731707317" style="stroke: rgb(191, 105, 120);"></path></g><g class="nodes" font-family="Arial, Helvetica" font-size="10"><g><rect x="421" y="129.99999999999994" height="168.4552845528457" width="5" fill="#000"></rect><text x="415" y="214.22764227642278" dy="0.35em" text-anchor="end">0</text></g><g><rect x="421" y="308.4552845528457" height="25.60975609756099" width="5" fill="#000"></rect><text x="415" y="321.2601626016262" dy="0.35em" text-anchor="end">1</text></g><g><rect x="421" y="344.0650406504067" height="9.674796747967434" width="5" fill="#000"></rect><text x="415" y="348.9024390243904" dy="0.35em" text-anchor="end">2</text></g><g><rect x="421" y="363.7398373983741" height="6.260162601626007" width="5" fill="#000"></rect><text x="415" y="366.8699186991871" dy="0.35em" text-anchor="end">3</text></g><g><rect x="842" y="125.00000000000017" height="48.94308943089416" width="5" fill="#000"></rect><text x="836" y="149.47154471544724" dy="0.35em" text-anchor="end">Africa (excl MENA)</text></g><g><rect x="842" y="183.94308943089433" height="5.691056910569046" width="5" fill="#000"></rect><text x="836" y="186.78861788617886" dy="0.35em" text-anchor="end">Americas</text></g><g><rect x="842" y="199.63414634146338" height="40.406504065040735" width="5" fill="#000"></rect><text x="836" y="219.83739837398375" dy="0.35em" text-anchor="end">Asia and Pacific</text></g><g><rect x="842" y="250.0406504065041" height="62.60162601625996" width="5" fill="#000"></rect><text x="836" y="281.34146341463406" dy="0.35em" text-anchor="end">Europe and Eurasia</text></g><g><rect x="842" y="322.6422764227641" height="52.35772357723579" width="5" fill="#000"></rect><text x="836" y="348.821138211382" dy="0.35em" text-anchor="end">Middle East and North Africa</text></g><g><rect x="0" y="5.684341886080802e-14" height="5.121951219512198" width="5" fill="#000"></rect><text x="11" y="2.560975609756156" dy="0.35em" text-anchor="start">1990</text></g><g><rect x="0" y="15.121951219512255" height="9.105691056910587" width="5" fill="#000"></rect><text x="11" y="19.674796747967548" dy="0.35em" text-anchor="start">1991</text></g><g><rect x="0" y="34.22764227642284" height="14.227642276422756" width="5" fill="#000"></rect><text x="11" y="41.34146341463422" dy="0.35em" text-anchor="start">1992</text></g><g><rect x="0" y="58.4552845528456" height="17.642276422764212" width="5" fill="#000"></rect><text x="11" y="67.2764227642277" dy="0.35em" text-anchor="start">1993</text></g><g><rect x="0" y="86.09756097560981" height="13.658536585365823" width="5" fill="#000"></rect><text x="11" y="92.92682926829272" dy="0.35em" text-anchor="start">1994</text></g><g><rect x="0" y="109.75609756097563" height="7.398373983739816" width="5" fill="#000"></rect><text x="11" y="113.45528455284554" dy="0.35em" text-anchor="start">1995</text></g><g><rect x="0" y="127.15447154471545" height="2.8455284552845796" width="5" fill="#000"></rect><text x="11" y="128.57723577235774" dy="0.35em" text-anchor="start">1996</text></g><g><rect x="0" y="140.00000000000003" height="2.8455284552845796" width="5" fill="#000"></rect><text x="11" y="141.42276422764232" dy="0.35em" text-anchor="start">1997</text></g><g><rect x="0" y="152.8455284552846" height="5.121951219512255" width="5" fill="#000"></rect><text x="11" y="155.40650406504074" dy="0.35em" text-anchor="start">1998</text></g><g><rect x="0" y="167.96747967479686" height="6.260162601626007" width="5" fill="#000"></rect><text x="11" y="171.09756097560987" dy="0.35em" text-anchor="start">1999</text></g><g><rect x="0" y="184.22764227642287" height="2.845528455284466" width="5" fill="#000"></rect><text x="11" y="185.6504065040651" dy="0.35em" text-anchor="start">2000</text></g><g><rect x="0" y="197.07317073170734" height="5.691056910569046" width="5" fill="#000"></rect><text x="11" y="199.91869918699186" dy="0.35em" text-anchor="start">2001</text></g><g><rect x="0" y="212.76422764227638" height="7.9674796747967775" width="5" fill="#000"></rect><text x="11" y="216.74796747967477" dy="0.35em" text-anchor="start">2002</text></g><g><rect x="0" y="230.73170731707316" height="6.260162601626007" width="5" fill="#000"></rect><text x="11" y="233.86178861788616" dy="0.35em" text-anchor="start">2003</text></g><g><rect x="0" y="246.99186991869917" height="2.8455284552845796" width="5" fill="#000"></rect><text x="11" y="248.41463414634146" dy="0.35em" text-anchor="start">2004</text></g><g><rect x="0" y="259.8373983739838" height="1.1382113821138091" width="5" fill="#000"></rect><text x="11" y="260.4065040650407" dy="0.35em" text-anchor="start">2005</text></g><g><rect x="0" y="270.9756097560976" height="4.5528455284552365" width="5" fill="#000"></rect><text x="11" y="273.2520325203252" dy="0.35em" text-anchor="start">2006</text></g><g><rect x="0" y="285.5284552845528" height="2.2764227642276182" width="5" fill="#000"></rect><text x="11" y="286.66666666666663" dy="0.35em" text-anchor="start">2007</text></g><g><rect x="0" y="297.80487804878044" height="6.829268292682855" width="5" fill="#000"></rect><text x="11" y="301.21951219512187" dy="0.35em" text-anchor="start">2008</text></g><g><rect x="0" y="314.6341463414633" height="1.7073170731706568" width="5" fill="#000"></rect><text x="11" y="315.4878048780486" dy="0.35em" text-anchor="start">2009</text></g><g><rect x="0" y="326.34146341463395" height="3.4146341463414274" width="5" fill="#000"></rect><text x="11" y="328.04878048780466" dy="0.35em" text-anchor="start">2010</text></g><g><rect x="0" y="339.7560975609754" height="3.414634146341541" width="5" fill="#000"></rect><text x="11" y="341.46341463414615" dy="0.35em" text-anchor="start">2011</text></g><g><rect x="0" y="353.1707317073169" height="8.536585365853739" width="5" fill="#000"></rect><text x="11" y="357.4390243902438" dy="0.35em" text-anchor="start">2012</text></g><g><rect x="0" y="371.70731707317066" height="4.5528455284552365" width="5" fill="#000"></rect><text x="11" y="373.9837398373983" dy="0.35em" text-anchor="start">2013</text></g><g><rect x="0" y="386.2601626016259" height="16.504065040650403" width="5" fill="#000"></rect><text x="11" y="394.5121951219511" dy="0.35em" text-anchor="start">2014</text></g><g><rect x="0" y="412.7642276422763" height="9.105691056910587" width="5" fill="#000"></rect><text x="11" y="417.3170731707316" dy="0.35em" text-anchor="start">2015</text></g><g><rect x="0" y="431.8699186991869" height="13.089430894308975" width="5" fill="#000"></rect><text x="11" y="438.41463414634137" dy="0.35em" text-anchor="start">2016</text></g><g><rect x="0" y="454.95934959349586" height="13.658536585365937" width="5" fill="#000"></rect><text x="11" y="461.7886178861788" dy="0.35em" text-anchor="start">2017</text></g><g><rect x="0" y="478.6178861788618" height="10.243902439024396" width="5" fill="#000"></rect><text x="11" y="483.739837398374" dy="0.35em" text-anchor="start">2018</text></g><g><rect x="0" y="498.8617886178862" height="1.1382113821138091" width="5" fill="#000"></rect><text x="11" y="499.4308943089431" dy="0.35em" text-anchor="start">2019</text></g></g></g></svg>