<svg width="847" height="520" xmlns="http://www.w3.org/2000/svg" version="1.1"><g transform="translate(0, 10)"><g class="links" fill="none" stroke-opacity="0.4"><path d="M5,19.6747967479674C213,19.6747967479674,213,144.10569105691047,421,144.10569105691047" stroke-width="9.105691056910569" style="stroke: rgb(191, 105, 105);"></path><path d="M5,113.45528455284544C213,113.45528455284544,213,196.74796747967466,421,196.74796747967466" stroke-width="7.3983739837398375" style="stroke: rgb(191, 121, 105);"></path><path d="M5,92.64227642276423C213,92.64227642276423,213,186.50406504065026,421,186.50406504065026" stroke-width="13.089430894308943" style="stroke: rgb(191, 136, 105);"></path><path d="M5,99.47154471544715C213,99.47154471544715,213,351.30081300813026,421,351.30081300813026" stroke-width="0.5691056910569106" style="stroke: rgb(191, 136, 105);"></path><path d="M5,67.27642276422765C213,67.27642276422765,213,171.1382113821137,421,171.1382113821137" stroke-width="17.642276422764226" style="stroke: rgb(191, 152, 105);"></path><path d="M5,41.05691056910557C213,41.05691056910557,213,155.48780487804868,421,155.48780487804868" stroke-width="13.658536585365853" style="stroke: rgb(191, 167, 105);"></path><path d="M5,48.170731707316946C213,48.170731707316946,213,363.5772357723578,421,363.5772357723578" stroke-width="0.5691056910569106" style="stroke: rgb(191, 167, 105);"></path><path d="M5,300.9349593495937C213,300.9349593495937,213,253.0894308943088,421,253.0894308943088" stroke-width="6.260162601626016" style="stroke: rgb(191, 183, 105);"></path><path d="M5,304.3495934959352C213,304.3495934959352,213,352.4390243902441,421,352.4390243902441" stroke-width="0.5691056910569106" style="stroke: rgb(191, 183, 105);"></path><path d="M5,273.25203252032543C213,273.25203252032543,213,245.4065040650405,421,245.4065040650405" stroke-width="4.5528455284552845" style="stroke: rgb(183, 191, 105);"></path><path d="M5,233.86178861788633C213,233.86178861788633,213,236.5853658536584,421,236.5853658536584" stroke-width="6.260162601626016" style="stroke: rgb(167, 191, 105);"></path><path d="M5,220.44715447154485C213,220.44715447154485,213,351.86991869918717,421,351.86991869918717" stroke-width="0.5691056910569106" style="stroke: rgb(152, 191, 105);"></path><path d="M5,216.46341463414646C213,216.46341463414646,213,229.75609756097546,421,229.75609756097546" stroke-width="7.3983739837398375" style="stroke: rgb(152, 191, 105);"></path><path d="M5,394.51219512195127C213,394.51219512195127,213,285.52845528455276,421,285.52845528455276" stroke-width="16.504065040650406" style="stroke: rgb(136, 191, 105);"></path><path d="M5,373.98373983739845C213,373.98373983739845,213,274.9999999999999,421,274.9999999999999" stroke-width="4.5528455284552845" style="stroke: rgb(121, 191, 105);"></path><path d="M5,341.4634146341465C213,341.4634146341465,213,262.4796747967478,421,262.4796747967478" stroke-width="3.4146341463414633" style="stroke: rgb(105, 191, 105);"></path><path d="M5,286.6666666666669C213,286.6666666666669,213,248.82113821138196,421,248.82113821138196" stroke-width="2.2764227642276422" style="stroke: rgb(105, 191, 121);"></path><path d="M5,461.50406504065063C213,461.50406504065063,213,322.52032520325196,421,322.52032520325196" stroke-width="13.089430894308943" style="stroke: rgb(105, 191, 136);"></path><path d="M5,468.33333333333354C213,468.33333333333354,213,353.008130081301,421,353.008130081301" stroke-width="0.5691056910569106" style="stroke: rgb(105, 191, 136);"></path><path d="M5,438.4146341463416C213,438.4146341463416,213,309.43089430894304,421,309.43089430894304" stroke-width="13.089430894308943" style="stroke: rgb(105, 191, 152);"></path><path d="M5,171.09756097560992C213,171.09756097560992,213,214.3902439024389,421,214.3902439024389" stroke-width="6.260162601626016" style="stroke: rgb(105, 191, 167);"></path><path d="M5,185.65040650406522C213,185.65040650406522,213,218.9430894308942,421,218.9430894308942" stroke-width="2.845528455284553" style="stroke: rgb(105, 191, 183);"></path><path d="M5,499.4308943089432C213,499.4308943089432,213,339.8780487804877,421,339.8780487804877" stroke-width="1.1382113821138211" style="stroke: rgb(105, 183, 191);"></path><path d="M5,155.4065040650407C213,155.4065040650407,213,208.6991869918698,421,208.6991869918698" stroke-width="5.121951219512195" style="stroke: rgb(105, 167, 191);"></path><path d="M5,248.1300813008132C213,248.1300813008132,213,240.85365853658521,421,240.85365853658521" stroke-width="2.2764227642276422" style="stroke: rgb(105, 152, 191);"></path><path d="M5,249.5528455284555C213,249.5528455284555,213,364.14634146341473,421,364.14634146341473" stroke-width="0.5691056910569106" style="stroke: rgb(105, 152, 191);"></path><path d="M5,128.57723577235774C213,128.57723577235774,213,201.86991869918688,421,201.86991869918688" stroke-width="2.845528455284553" style="stroke: rgb(105, 136, 191);"></path><path d="M5,417.3170731707318C213,417.3170731707318,213,298.33333333333326,421,298.33333333333326" stroke-width="9.105691056910569" style="stroke: rgb(105, 121, 191);"></path><path d="M5,199.91869918699194C213,199.91869918699194,213,223.211382113821,421,223.211382113821" stroke-width="5.691056910569106" style="stroke: rgb(105, 105, 191);"></path><path d="M5,141.42276422764232C213,141.42276422764232,213,204.71544715447143,421,204.71544715447143" stroke-width="2.845528455284553" style="stroke: rgb(121, 105, 191);"></path><path d="M5,357.43902439024413C213,357.43902439024413,213,268.4552845528454,421,268.4552845528454" stroke-width="8.536585365853659" style="stroke: rgb(136, 105, 191);"></path><path d="M5,2.276422764227557C213,2.276422764227557,213,137.27642276422753,421,137.27642276422753" stroke-width="4.5528455284552845" style="stroke: rgb(152, 105, 191);"></path><path d="M5,4.837398373983654C213,4.837398373983654,213,350.73170731707336,421,350.73170731707336" stroke-width="0.5691056910569106" style="stroke: rgb(152, 105, 191);"></path><path d="M5,483.73983739837416C213,483.73983739837416,213,334.1869918699186,421,334.1869918699186" stroke-width="10.24390243902439" style="stroke: rgb(167, 105, 191);"></path><path d="M5,329.4715447154473C213,329.4715447154473,213,364.71544715447163,421,364.71544715447163" stroke-width="0.5691056910569106" style="stroke: rgb(183, 105, 191);"></path><path d="M5,327.7642276422765C213,327.7642276422765,213,259.3495934959348,421,259.3495934959348" stroke-width="2.845528455284553" style="stroke: rgb(183, 105, 191);"></path><path d="M5,315.48780487804896C213,315.48780487804896,213,257.0731707317072,421,257.0731707317072" stroke-width="1.7073170731707317" style="stroke: rgb(191, 105, 183);"></path><path d="M5,260.4065040650409C213,260.4065040650409,213,242.56097560975596,421,242.56097560975596" stroke-width="1.1382113821138211" style="stroke: rgb(191, 105, 167);"></path><path d="M426,158.33333333333323C634,158.33333333333323,634,148.33333333333312,842,148.33333333333312" stroke-width="46.666666666666664" style="stroke: rgb(191, 105, 152);"></path><path d="M426,257.6422764227641C634,257.6422764227641,634,281.05691056910575,842,281.05691056910575" stroke-width="62.03252032520325" style="stroke: rgb(191, 105, 152);"></path><path d="M426,184.22764227642264C634,184.22764227642264,634,186.50406504065023,842,186.50406504065023" stroke-width="5.121951219512195" style="stroke: rgb(191, 105, 152);"></path><path d="M426,206.7073170731706C634,206.7073170731706,634,219.55284552845515,842,219.55284552845515" stroke-width="39.83739837398374" style="stroke: rgb(191, 105, 152);"></path><path d="M426,314.5528455284551C634,314.5528455284551,634,348.53658536585374,842,348.53658536585374" stroke-width="51.78861788617886" style="stroke: rgb(191, 105, 152);"></path><path d="M426,364.71544715447163C634,364.71544715447163,634,312.35772357723584,842,312.35772357723584" stroke-width="0.5691056910569106" style="stroke: rgb(191, 105, 136);"></path><path d="M426,364.14634146341473C634,364.14634146341473,634,239.7560975609755,842,239.7560975609755" stroke-width="0.5691056910569106" style="stroke: rgb(191, 105, 136);"></path><path d="M426,363.5772357723578C634,363.5772357723578,634,173.65853658536562,842,173.65853658536562" stroke-width="0.5691056910569106" style="stroke: rgb(191, 105, 136);"></path><path d="M426,351.30081300813026C634,351.30081300813026,634,172.5203252032518,842,172.5203252032518" stroke-width="1.7073170731707317" style="stroke: rgb(191, 105, 121);"></path><path d="M426,352.4390243902441C634,352.4390243902441,634,189.34959349593478,842,189.34959349593478" stroke-width="0.5691056910569106" style="stroke: rgb(191, 105, 121);"></path><path d="M426,353.008130081301C634,353.008130081301,634,374.7154471544717,842,374.7154471544717" stroke-width="0.5691056910569106" style="stroke: rgb(191, 105, 121);"></path></g><g class="nodes" font-family="Arial, Helvetica" font-size="10"><g><rect x="421" y="134.9999999999999" height="205.44715447154496" width="5" fill="#000"></rect><text x="415" y="237.72357723577238" dy="0.35em" text-anchor="end">0</text></g><g><rect x="421" y="350.4471544715449" height="2.845528455284466" width="5" fill="#000"></rect><text x="415" y="351.8699186991871" dy="0.35em" text-anchor="end">2</text></g><g><rect x="421" y="363.29268292682934" height="1.7073170731707705" width="5" fill="#000"></rect><text x="415" y="364.14634146341473" dy="0.35em" text-anchor="end">3</text></g><g><rect x="842" y="124.99999999999977" height="48.94308943089436" width="5" fill="#000"></rect><text x="836" y="149.47154471544695" dy="0.35em" text-anchor="end">Africa (excl MENA)</text></g><g><rect x="842" y="183.94308943089413" height="5.691056910569159" width="5" fill="#000"></rect><text x="836" y="186.7886178861787" dy="0.35em" text-anchor="end">Americas</text></g><g><rect x="842" y="199.6341463414633" height="40.40650406504085" width="5" fill="#000"></rect><text x="836" y="219.83739837398372" dy="0.35em" text-anchor="end">Asia and Pacific</text></g><g><rect x="842" y="250.04065040650414" height="62.601626016260155" width="5" fill="#000"></rect><text x="836" y="281.34146341463423" dy="0.35em" text-anchor="end">Europe and Eurasia</text></g><g><rect x="842" y="322.6422764227643" height="52.3577235772359" width="5" fill="#000"></rect><text x="836" y="348.8211382113823" dy="0.35em" text-anchor="end">Middle East and North Africa</text></g><g><rect x="0" y="-8.526512829121202e-14" height="5.121951219512198" width="5" fill="#000"></rect><text x="11" y="2.5609756097560137" dy="0.35em" text-anchor="start">1990</text></g><g><rect x="0" y="15.121951219512113" height="9.10569105691053" width="5" fill="#000"></rect><text x="11" y="19.674796747967378" dy="0.35em" text-anchor="start">1991</text></g><g><rect x="0" y="34.22764227642264" height="14.227642276422898" width="5" fill="#000"></rect><text x="11" y="41.34146341463409" dy="0.35em" text-anchor="start">1992</text></g><g><rect x="0" y="58.45528455284554" height="17.642276422764212" width="5" fill="#000"></rect><text x="11" y="67.27642276422765" dy="0.35em" text-anchor="start">1993</text></g><g><rect x="0" y="86.09756097560975" height="13.658536585365766" width="5" fill="#000"></rect><text x="11" y="92.92682926829264" dy="0.35em" text-anchor="start">1994</text></g><g><rect x="0" y="109.75609756097552" height="7.39837398373993" width="5" fill="#000"></rect><text x="11" y="113.45528455284548" dy="0.35em" text-anchor="start">1995</text></g><g><rect x="0" y="127.15447154471545" height="2.8455284552845796" width="5" fill="#000"></rect><text x="11" y="128.57723577235774" dy="0.35em" text-anchor="start">1996</text></g><g><rect x="0" y="140.00000000000003" height="2.8455284552845796" width="5" fill="#000"></rect><text x="11" y="141.42276422764232" dy="0.35em" text-anchor="start">1997</text></g><g><rect x="0" y="152.8455284552846" height="5.121951219512312" width="5" fill="#000"></rect><text x="11" y="155.40650406504076" dy="0.35em" text-anchor="start">1998</text></g><g><rect x="0" y="167.96747967479692" height="6.260162601626007" width="5" fill="#000"></rect><text x="11" y="171.09756097560992" dy="0.35em" text-anchor="start">1999</text></g><g><rect x="0" y="184.22764227642293" height="2.845528455284466" width="5" fill="#000"></rect><text x="11" y="185.65040650406516" dy="0.35em" text-anchor="start">2000</text></g><g><rect x="0" y="197.0731707317074" height="5.691056910569159" width="5" fill="#000"></rect><text x="11" y="199.91869918699197" dy="0.35em" text-anchor="start">2001</text></g><g><rect x="0" y="212.76422764227655" height="7.9674796747967775" width="5" fill="#000"></rect><text x="11" y="216.74796747967494" dy="0.35em" text-anchor="start">2002</text></g><g><rect x="0" y="230.73170731707333" height="6.260162601626064" width="5" fill="#000"></rect><text x="11" y="233.86178861788636" dy="0.35em" text-anchor="start">2003</text></g><g><rect x="0" y="246.9918699186994" height="2.8455284552845796" width="5" fill="#000"></rect><text x="11" y="248.41463414634168" dy="0.35em" text-anchor="start">2004</text></g><g><rect x="0" y="259.837398373984" height="1.1382113821138091" width="5" fill="#000"></rect><text x="11" y="260.4065040650409" dy="0.35em" text-anchor="start">2005</text></g><g><rect x="0" y="270.9756097560978" height="4.552845528455293" width="5" fill="#000"></rect><text x="11" y="273.25203252032543" dy="0.35em" text-anchor="start">2006</text></g><g><rect x="0" y="285.5284552845531" height="2.2764227642276182" width="5" fill="#000"></rect><text x="11" y="286.6666666666669" dy="0.35em" text-anchor="start">2007</text></g><g><rect x="0" y="297.8048780487807" height="6.829268292682855" width="5" fill="#000"></rect><text x="11" y="301.21951219512215" dy="0.35em" text-anchor="start">2008</text></g><g><rect x="0" y="314.6341463414636" height="1.7073170731706568" width="5" fill="#000"></rect><text x="11" y="315.4878048780489" dy="0.35em" text-anchor="start">2009</text></g><g><rect x="0" y="326.34146341463423" height="3.414634146341541" width="5" fill="#000"></rect><text x="11" y="328.048780487805" dy="0.35em" text-anchor="start">2010</text></g><g><rect x="0" y="339.7560975609758" height="3.414634146341541" width="5" fill="#000"></rect><text x="11" y="341.46341463414655" dy="0.35em" text-anchor="start">2011</text></g><g><rect x="0" y="353.1707317073173" height="8.536585365853512" width="5" fill="#000"></rect><text x="11" y="357.4390243902441" dy="0.35em" text-anchor="start">2012</text></g><g><rect x="0" y="371.7073170731708" height="4.5528455284552365" width="5" fill="#000"></rect><text x="11" y="373.98373983739845" dy="0.35em" text-anchor="start">2013</text></g><g><rect x="0" y="386.26016260162606" height="16.50406504065046" width="5" fill="#000"></rect><text x="11" y="394.5121951219513" dy="0.35em" text-anchor="start">2014</text></g><g><rect x="0" y="412.7642276422765" height="9.105691056910587" width="5" fill="#000"></rect><text x="11" y="417.3170731707318" dy="0.35em" text-anchor="start">2015</text></g><g><rect x="0" y="431.8699186991871" height="13.089430894309032" width="5" fill="#000"></rect><text x="11" y="438.41463414634165" dy="0.35em" text-anchor="start">2016</text></g><g><rect x="0" y="454.95934959349614" height="13.658536585365823" width="5" fill="#000"></rect><text x="11" y="461.78861788617905" dy="0.35em" text-anchor="start">2017</text></g><g><rect x="0" y="478.61788617886197" height="10.243902439024339" width="5" fill="#000"></rect><text x="11" y="483.7398373983741" dy="0.35em" text-anchor="start">2018</text></g><g><rect x="0" y="498.8617886178863" height="1.1382113821138091" width="5" fill="#000"></rect><text x="11" y="499.4308943089432" dy="0.35em" text-anchor="start">2019</text></g></g></g></svg>