<svg width="847" height="520" xmlns="http://www.w3.org/2000/svg" version="1.1"><g transform="translate(0, 10)"><g class="links" fill="none" stroke-opacity="0.4"><path d="M5,19.67479674796757C213,19.67479674796757,213,139.67479674796743,421,139.67479674796743" stroke-width="9.105691056910569" style="stroke: rgb(191, 105, 105);"></path><path d="M5,113.45528455284555C213,113.45528455284555,213,193.45528455284543,421,193.45528455284543" stroke-width="7.3983739837398375" style="stroke: rgb(191, 120, 105);"></path><path d="M5,92.92682926829274C213,92.92682926829274,213,182.9268292682926,421,182.9268292682926" stroke-width="13.658536585365853" style="stroke: rgb(191, 135, 105);"></path><path d="M5,67.27642276422768C213,67.27642276422768,213,167.27642276422756,421,167.27642276422756" stroke-width="17.642276422764226" style="stroke: rgb(191, 150, 105);"></path><path d="M5,41.34146341463425C213,41.34146341463425,213,151.3414634146341,421,151.3414634146341" stroke-width="14.227642276422763" style="stroke: rgb(191, 166, 105);"></path><path d="M5,301.2195121951219C213,301.2195121951219,213,250.08130081300803,421,250.08130081300803" stroke-width="6.829268292682927" style="stroke: rgb(191, 181, 105);"></path><path d="M5,273.2520325203252C213,273.2520325203252,213,242.11382113821128,421,242.11382113821128" stroke-width="4.5528455284552845" style="stroke: rgb(186, 191, 105);"></path><path d="M5,233.86178861788616C213,233.86178861788616,213,232.72357723577227,421,232.72357723577227" stroke-width="6.260162601626016" style="stroke: rgb(171, 191, 105);"></path><path d="M5,216.7479674796749C213,216.7479674796749,213,225.60975609756088,421,225.60975609756088" stroke-width="7.967479674796747" style="stroke: rgb(155, 191, 105);"></path><path d="M5,394.5121951219512C213,394.5121951219512,213,282.80487804878044,421,282.80487804878044" stroke-width="16.504065040650406" style="stroke: rgb(140, 191, 105);"></path><path d="M5,373.9837398373983C213,373.9837398373983,213,272.27642276422756,421,272.27642276422756" stroke-width="4.5528455284552845" style="stroke: rgb(125, 191, 105);"></path><path d="M5,341.4634146341461C213,341.4634146341461,213,259.7560975609755,421,259.7560975609755" stroke-width="3.4146341463414633" style="stroke: rgb(110, 191, 105);"></path><path d="M5,286.66666666666663C213,286.66666666666663,213,245.52845528455273,421,245.52845528455273" stroke-width="2.2764227642276422" style="stroke: rgb(105, 191, 115);"></path><path d="M5,461.7886178861788C213,461.7886178861788,213,319.51219512195115,421,319.51219512195115" stroke-width="13.658536585365853" style="stroke: rgb(105, 191, 130);"></path><path d="M5,444.67479674796743C213,444.67479674796743,213,369.71544715447163,421,369.71544715447163" stroke-width="0.5691056910569106" style="stroke: rgb(105, 191, 145);"></path><path d="M5,438.13008130081295C213,438.13008130081295,213,306.42276422764223,421,306.42276422764223" stroke-width="12.520325203252032" style="stroke: rgb(105, 191, 145);"></path><path d="M5,170.81300813008136C213,170.81300813008136,213,210.2439024390243,421,210.2439024390243" stroke-width="5.691056910569106" style="stroke: rgb(105, 191, 161);"></path><path d="M5,173.94308943089436C213,173.94308943089436,213,358.5772357723578,421,358.5772357723578" stroke-width="0.5691056910569106" style="stroke: rgb(105, 191, 161);"></path><path d="M5,185.6504065040651C213,185.6504065040651,213,214.51219512195115,421,214.51219512195115" stroke-width="2.845528455284553" style="stroke: rgb(105, 191, 176);"></path><path d="M5,499.43089430894304C213,499.43089430894304,213,337.1544715447154,421,337.1544715447154" stroke-width="1.1382113821138211" style="stroke: rgb(105, 191, 191);"></path><path d="M5,155.40650406504065C213,155.40650406504065,213,204.83739837398366,421,204.83739837398366" stroke-width="5.121951219512195" style="stroke: rgb(105, 176, 191);"></path><path d="M5,248.41463414634146C213,248.41463414634146,213,237.27642276422756,421,237.27642276422756" stroke-width="2.845528455284553" style="stroke: rgb(105, 161, 191);"></path><path d="M5,128.5772357723578C213,128.5772357723578,213,198.57723577235765,421,198.57723577235765" stroke-width="2.845528455284553" style="stroke: rgb(105, 145, 191);"></path><path d="M5,417.31707317073165C213,417.31707317073165,213,295.60975609756093,421,295.60975609756093" stroke-width="9.105691056910569" style="stroke: rgb(105, 130, 191);"></path><path d="M5,199.91869918699194C213,199.91869918699194,213,218.78048780487796,421,218.78048780487796" stroke-width="5.691056910569106" style="stroke: rgb(105, 115, 191);"></path><path d="M5,141.1382113821139C213,141.1382113821139,213,201.13821138211372,421,201.13821138211372" stroke-width="2.2764227642276422" style="stroke: rgb(110, 105, 191);"></path><path d="M5,142.56097560975618C213,142.56097560975618,213,348.00813008130086,421,348.00813008130086" stroke-width="0.5691056910569106" style="stroke: rgb(110, 105, 191);"></path><path d="M5,357.43902439024373C213,357.43902439024373,213,265.7317073170731,421,265.7317073170731" stroke-width="8.536585365853659" style="stroke: rgb(125, 105, 191);"></path><path d="M5,2.560975609756183C213,2.560975609756183,213,132.56097560975604,421,132.56097560975604" stroke-width="5.121951219512195" style="stroke: rgb(140, 105, 191);"></path><path d="M5,483.73983739837394C213,483.73983739837394,213,331.4634146341463,421,331.4634146341463" stroke-width="10.24390243902439" style="stroke: rgb(155, 105, 191);"></path><path d="M5,328.04878048780466C213,328.04878048780466,213,256.34146341463406,421,256.34146341463406" stroke-width="3.4146341463414633" style="stroke: rgb(171, 105, 191);"></path><path d="M5,315.2032520325202C213,315.2032520325202,213,254.06504065040642,421,254.06504065040642" stroke-width="1.1382113821138211" style="stroke: rgb(186, 105, 191);"></path><path d="M5,316.0569105691056C213,316.0569105691056,213,359.14634146341473,421,359.14634146341473" stroke-width="0.5691056910569106" style="stroke: rgb(186, 105, 191);"></path><path d="M5,260.4065040650407C213,260.4065040650407,213,239.26829268292673,421,239.26829268292673" stroke-width="1.1382113821138211" style="stroke: rgb(191, 105, 181);"></path><path d="M426,154.18699186991864C634,154.18699186991864,634,149.18699186991861,842,149.18699186991861" stroke-width="48.3739837398374" style="stroke: rgb(191, 105, 166);"></path><path d="M426,254.06504065040644C634,254.06504065040644,634,281.34146341463423,842,281.34146341463423" stroke-width="62.60162601626016" style="stroke: rgb(191, 105, 166);"></path><path d="M426,180.93495934959344C634,180.93495934959344,634,186.50406504065026,842,186.50406504065026" stroke-width="5.121951219512195" style="stroke: rgb(191, 105, 166);"></path><path d="M426,203.13008130081295C634,203.13008130081295,634,219.26829268292673,842,219.26829268292673" stroke-width="39.26829268292683" style="stroke: rgb(191, 105, 166);"></path><path d="M426,311.54471544715443C634,311.54471544715443,634,348.8211382113822,842,348.8211382113822" stroke-width="52.357723577235774" style="stroke: rgb(191, 105, 166);"></path><path d="M426,369.71544715447163C634,369.71544715447163,634,189.3495934959348,842,189.3495934959348" stroke-width="0.5691056910569106" style="stroke: rgb(191, 105, 150);"></path><path d="M426,358.5772357723578C634,358.5772357723578,634,173.65853658536577,842,173.65853658536577" stroke-width="0.5691056910569106" style="stroke: rgb(191, 105, 135);"></path><path d="M426,359.14634146341473C634,359.14634146341473,634,239.75609756097552,842,239.75609756097552" stroke-width="0.5691056910569106" style="stroke: rgb(191, 105, 135);"></path><path d="M426,348.00813008130086C634,348.00813008130086,634,239.18699186991861,842,239.18699186991861" stroke-width="0.5691056910569106" style="stroke: rgb(191, 105, 120);"></path></g><g class="nodes" font-family="Arial, Helvetica" font-size="10"><g><rect x="421" y="129.99999999999994" height="207.72357723577247" width="5" fill="#000"></rect><text x="415" y="233.8617886178862" dy="0.35em" text-anchor="end">0</text></g><g><rect x="421" y="347.7235772357724" height="0.5691056910569614" width="5" fill="#000"></rect><text x="415" y="348.00813008130086" dy="0.35em" text-anchor="end">1</text></g><g><rect x="421" y="358.29268292682934" height="1.1382113821138091" width="5" fill="#000"></rect><text x="415" y="358.86178861788625" dy="0.35em" text-anchor="end">2</text></g><g><rect x="421" y="369.43089430894315" height="0.5691056910568477" width="5" fill="#000"></rect><text x="415" y="369.7154471544716" dy="0.35em" text-anchor="end">3</text></g><g><rect x="842" y="124.99999999999991" height="48.94308943089425" width="5" fill="#000"></rect><text x="836" y="149.47154471544704" dy="0.35em" text-anchor="end">Africa (excl MENA)</text></g><g><rect x="842" y="183.94308943089416" height="5.691056910569159" width="5" fill="#000"></rect><text x="836" y="186.78861788617874" dy="0.35em" text-anchor="end">Americas</text></g><g><rect x="842" y="199.63414634146332" height="40.40650406504085" width="5" fill="#000"></rect><text x="836" y="219.83739837398375" dy="0.35em" text-anchor="end">Asia and Pacific</text></g><g><rect x="842" y="250.04065040650417" height="62.60162601626013" width="5" fill="#000"></rect><text x="836" y="281.34146341463423" dy="0.35em" text-anchor="end">Europe and Eurasia</text></g><g><rect x="842" y="322.6422764227643" height="52.35772357723579" width="5" fill="#000"></rect><text x="836" y="348.8211382113822" dy="0.35em" text-anchor="end">Middle East and North Africa</text></g><g><rect x="0" y="8.526512829121202e-14" height="5.121951219512198" width="5" fill="#000"></rect><text x="11" y="2.560975609756184" dy="0.35em" text-anchor="start">1990</text></g><g><rect x="0" y="15.121951219512283" height="9.105691056910587" width="5" fill="#000"></rect><text x="11" y="19.674796747967576" dy="0.35em" text-anchor="start">1991</text></g><g><rect x="0" y="34.22764227642287" height="14.2276422764227" width="5" fill="#000"></rect><text x="11" y="41.34146341463422" dy="0.35em" text-anchor="start">1992</text></g><g><rect x="0" y="58.45528455284557" height="17.64227642276424" width="5" fill="#000"></rect><text x="11" y="67.27642276422769" dy="0.35em" text-anchor="start">1993</text></g><g><rect x="0" y="86.09756097560981" height="13.658536585365823" width="5" fill="#000"></rect><text x="11" y="92.92682926829272" dy="0.35em" text-anchor="start">1994</text></g><g><rect x="0" y="109.75609756097563" height="7.398373983739873" width="5" fill="#000"></rect><text x="11" y="113.45528455284557" dy="0.35em" text-anchor="start">1995</text></g><g><rect x="0" y="127.1544715447155" height="2.8455284552845796" width="5" fill="#000"></rect><text x="11" y="128.5772357723578" dy="0.35em" text-anchor="start">1996</text></g><g><rect x="0" y="140.00000000000009" height="2.845528455284466" width="5" fill="#000"></rect><text x="11" y="141.42276422764232" dy="0.35em" text-anchor="start">1997</text></g><g><rect x="0" y="152.84552845528455" height="5.121951219512255" width="5" fill="#000"></rect><text x="11" y="155.40650406504068" dy="0.35em" text-anchor="start">1998</text></g><g><rect x="0" y="167.9674796747968" height="6.260162601626007" width="5" fill="#000"></rect><text x="11" y="171.0975609756098" dy="0.35em" text-anchor="start">1999</text></g><g><rect x="0" y="184.2276422764228" height="2.8455284552845796" width="5" fill="#000"></rect><text x="11" y="185.6504065040651" dy="0.35em" text-anchor="start">2000</text></g><g><rect x="0" y="197.0731707317074" height="5.691056910569159" width="5" fill="#000"></rect><text x="11" y="199.91869918699197" dy="0.35em" text-anchor="start">2001</text></g><g><rect x="0" y="212.76422764227655" height="7.967479674796607" width="5" fill="#000"></rect><text x="11" y="216.74796747967486" dy="0.35em" text-anchor="start">2002</text></g><g><rect x="0" y="230.73170731707316" height="6.260162601626007" width="5" fill="#000"></rect><text x="11" y="233.86178861788616" dy="0.35em" text-anchor="start">2003</text></g><g><rect x="0" y="246.99186991869917" height="2.8455284552845796" width="5" fill="#000"></rect><text x="11" y="248.41463414634146" dy="0.35em" text-anchor="start">2004</text></g><g><rect x="0" y="259.8373983739838" height="1.1382113821138091" width="5" fill="#000"></rect><text x="11" y="260.4065040650407" dy="0.35em" text-anchor="start">2005</text></g><g><rect x="0" y="270.9756097560976" height="4.5528455284552365" width="5" fill="#000"></rect><text x="11" y="273.2520325203252" dy="0.35em" text-anchor="start">2006</text></g><g><rect x="0" y="285.5284552845528" height="2.2764227642276182" width="5" fill="#000"></rect><text x="11" y="286.66666666666663" dy="0.35em" text-anchor="start">2007</text></g><g><rect x="0" y="297.80487804878044" height="6.829268292682855" width="5" fill="#000"></rect><text x="11" y="301.21951219512187" dy="0.35em" text-anchor="start">2008</text></g><g><rect x="0" y="314.6341463414633" height="1.7073170731706568" width="5" fill="#000"></rect><text x="11" y="315.4878048780486" dy="0.35em" text-anchor="start">2009</text></g><g><rect x="0" y="326.34146341463395" height="3.4146341463414274" width="5" fill="#000"></rect><text x="11" y="328.04878048780466" dy="0.35em" text-anchor="start">2010</text></g><g><rect x="0" y="339.7560975609754" height="3.414634146341541" width="5" fill="#000"></rect><text x="11" y="341.46341463414615" dy="0.35em" text-anchor="start">2011</text></g><g><rect x="0" y="353.1707317073169" height="8.536585365853739" width="5" fill="#000"></rect><text x="11" y="357.4390243902438" dy="0.35em" text-anchor="start">2012</text></g><g><rect x="0" y="371.70731707317066" height="4.55284552845535" width="5" fill="#000"></rect><text x="11" y="373.98373983739833" dy="0.35em" text-anchor="start">2013</text></g><g><rect x="0" y="386.260162601626" height="16.504065040650346" width="5" fill="#000"></rect><text x="11" y="394.5121951219512" dy="0.35em" text-anchor="start">2014</text></g><g><rect x="0" y="412.76422764227635" height="9.105691056910587" width="5" fill="#000"></rect><text x="11" y="417.31707317073165" dy="0.35em" text-anchor="start">2015</text></g><g><rect x="0" y="431.86991869918694" height="13.089430894308975" width="5" fill="#000"></rect><text x="11" y="438.4146341463414" dy="0.35em" text-anchor="start">2016</text></g><g><rect x="0" y="454.9593495934959" height="13.658536585365823" width="5" fill="#000"></rect><text x="11" y="461.7886178861788" dy="0.35em" text-anchor="start">2017</text></g><g><rect x="0" y="478.61788617886174" height="10.243902439024396" width="5" fill="#000"></rect><text x="11" y="483.73983739837394" dy="0.35em" text-anchor="start">2018</text></g><g><rect x="0" y="498.86178861788613" height="1.1382113821138091" width="5" fill="#000"></rect><text x="11" y="499.43089430894304" dy="0.35em" text-anchor="start">2019</text></g></g></g></svg>