<svg width="847" height="520" xmlns="http://www.w3.org/2000/svg" version="1.1"><g transform="translate(0, 10)"><g class="links" fill="none" stroke-opacity="0.4"><path d="M5,19.674796747967342C213,19.674796747967342,213,138.53658536585348,421,138.53658536585348" stroke-width="9.105691056910569" style="stroke: rgb(191, 105, 105);"></path><path d="M5,113.45528455284538C213,113.45528455284538,213,191.7479674796746,421,191.7479674796746" stroke-width="7.3983739837398375" style="stroke: rgb(191, 120, 105);"></path><path d="M5,92.642276422764C213,92.642276422764,213,181.5040650406502,421,181.5040650406502" stroke-width="13.089430894308943" style="stroke: rgb(191, 135, 105);"></path><path d="M5,99.47154471544692C213,99.47154471544692,213,331.5040650406506,421,331.5040650406506" stroke-width="0.5691056910569106" style="stroke: rgb(191, 135, 105);"></path><path d="M5,67.27642276422742C213,67.27642276422742,213,166.1382113821136,421,166.1382113821136" stroke-width="17.642276422764226" style="stroke: rgb(191, 150, 105);"></path><path d="M5,41.34146341463402C213,41.34146341463402,213,150.20325203252014,421,150.20325203252014" stroke-width="14.227642276422763" style="stroke: rgb(191, 166, 105);"></path><path d="M5,300.93495934959344C213,300.93495934959344,213,244.10569105691036,421,244.10569105691036" stroke-width="6.260162601626016" style="stroke: rgb(191, 181, 105);"></path><path d="M5,304.3495934959349C213,304.3495934959349,213,332.6422764227644,421,332.6422764227644" stroke-width="0.5691056910569106" style="stroke: rgb(191, 181, 105);"></path><path d="M5,275.24390243902445C213,275.24390243902445,213,367.4390243902441,421,367.4390243902441" stroke-width="0.5691056910569106" style="stroke: rgb(186, 191, 105);"></path><path d="M5,272.9674796747968C213,272.9674796747968,213,236.70731707317054,421,236.70731707317054" stroke-width="3.9837398373983737" style="stroke: rgb(186, 191, 105);"></path><path d="M5,233.5772357723577C213,233.5772357723577,213,228.45528455284534,421,228.45528455284534" stroke-width="5.691056910569106" style="stroke: rgb(171, 191, 105);"></path><path d="M5,236.7073170731707C213,236.7073170731707,213,349.4715447154473,421,349.4715447154473" stroke-width="0.5691056910569106" style="stroke: rgb(171, 191, 105);"></path><path d="M5,219.5934959349593C213,219.5934959349593,213,348.048780487805,421,348.048780487805" stroke-width="2.2764227642276422" style="stroke: rgb(155, 191, 105);"></path><path d="M5,215.60975609756093C213,215.60975609756093,213,222.76422764227624,421,222.76422764227624" stroke-width="5.691056910569106" style="stroke: rgb(155, 191, 105);"></path><path d="M5,401.0569105691056C213,401.0569105691056,213,352.03252032520334,421,352.03252032520334" stroke-width="1.1382113821138211" style="stroke: rgb(140, 191, 105);"></path><path d="M5,402.1951219512194C213,402.1951219512194,213,368.2926829268294,421,368.2926829268294" stroke-width="1.1382113821138211" style="stroke: rgb(140, 191, 105);"></path><path d="M5,393.0894308943088C213,393.0894308943088,213,272.84552845528435,421,272.84552845528435" stroke-width="13.658536585365853" style="stroke: rgb(140, 191, 105);"></path><path d="M5,400.20325203252025C213,400.20325203252025,213,334.3495934959351,421,334.3495934959351" stroke-width="0.5691056910569106" style="stroke: rgb(140, 191, 105);"></path><path d="M5,375.69105691056905C213,375.69105691056905,213,350.8943089430895,421,350.8943089430895" stroke-width="1.1382113821138211" style="stroke: rgb(125, 191, 105);"></path><path d="M5,373.13008130081295C213,373.13008130081295,213,264.59349593495915,421,264.59349593495915" stroke-width="2.845528455284553" style="stroke: rgb(125, 191, 105);"></path><path d="M5,374.8373983739837C213,374.8373983739837,213,333.7804878048782,421,333.7804878048782" stroke-width="0.5691056910569106" style="stroke: rgb(125, 191, 105);"></path><path d="M5,341.4634146341462C213,341.4634146341462,213,253.4959349593494,421,253.4959349593494" stroke-width="3.4146341463414633" style="stroke: rgb(110, 191, 105);"></path><path d="M5,286.66666666666663C213,286.66666666666663,213,239.83739837398352,421,239.83739837398352" stroke-width="2.2764227642276422" style="stroke: rgb(105, 191, 115);"></path><path d="M5,461.21951219512204C213,461.21951219512204,213,304.14634146341444,421,304.14634146341444" stroke-width="12.520325203252032" style="stroke: rgb(105, 191, 130);"></path><path d="M5,468.04878048780495C213,468.04878048780495,213,369.4308943089432,421,369.4308943089432" stroke-width="1.1382113821138211" style="stroke: rgb(105, 191, 130);"></path><path d="M5,437.56097560975616C213,437.56097560975616,213,292.19512195121933,421,292.19512195121933" stroke-width="11.382113821138212" style="stroke: rgb(105, 191, 145);"></path><path d="M5,444.10569105691064C213,444.10569105691064,213,355.16260162601634,421,355.16260162601634" stroke-width="1.7073170731707317" style="stroke: rgb(105, 191, 145);"></path><path d="M5,170.52845528455285C213,170.52845528455285,213,208.82113821138194,421,208.82113821138194" stroke-width="5.121951219512195" style="stroke: rgb(105, 191, 161);"></path><path d="M5,173.9430894308943C213,173.9430894308943,213,346.62601626016277,421,346.62601626016277" stroke-width="0.5691056910569106" style="stroke: rgb(105, 191, 161);"></path><path d="M5,173.3739837398374C213,173.3739837398374,213,332.0731707317075,421,332.0731707317075" stroke-width="0.5691056910569106" style="stroke: rgb(105, 191, 161);"></path><path d="M5,185.65040650406505C213,185.65040650406505,213,212.80487804878032,421,212.80487804878032" stroke-width="2.845528455284553" style="stroke: rgb(105, 191, 176);"></path><path d="M5,499.4308943089434C213,499.4308943089434,213,320.65040650406485,421,320.65040650406485" stroke-width="1.1382113821138211" style="stroke: rgb(105, 191, 191);"></path><path d="M5,155.40650406504065C213,155.40650406504065,213,203.69918699186974,421,203.69918699186974" stroke-width="5.121951219512195" style="stroke: rgb(105, 176, 191);"></path><path d="M5,248.13008130081298C213,248.13008130081298,213,232.4390243902437,421,232.4390243902437" stroke-width="2.2764227642276422" style="stroke: rgb(105, 161, 191);"></path><path d="M5,249.55284552845526C213,249.55284552845526,213,366.86991869918717,421,366.86991869918717" stroke-width="0.5691056910569106" style="stroke: rgb(105, 161, 191);"></path><path d="M5,128.57723577235768C213,128.57723577235768,213,196.86991869918683,421,196.86991869918683" stroke-width="2.845528455284553" style="stroke: rgb(105, 145, 191);"></path><path d="M5,416.1788617886179C213,416.1788617886179,213,283.0894308943088,421,283.0894308943088" stroke-width="6.829268292682927" style="stroke: rgb(105, 130, 191);"></path><path d="M5,419.8780487804878C213,419.8780487804878,213,334.918699186992,421,334.918699186992" stroke-width="0.5691056910569106" style="stroke: rgb(105, 130, 191);"></path><path d="M5,421.0162601626016C213,421.0162601626016,213,353.4552845528456,421,353.4552845528456" stroke-width="1.7073170731707317" style="stroke: rgb(105, 130, 191);"></path><path d="M5,199.91869918699177C213,199.91869918699177,213,217.07317073170714,421,217.07317073170714" stroke-width="5.691056910569106" style="stroke: rgb(105, 115, 191);"></path><path d="M5,141.42276422764226C213,141.42276422764226,213,199.71544715447138,421,199.71544715447138" stroke-width="2.845528455284553" style="stroke: rgb(110, 105, 191);"></path><path d="M5,357.1544715447154C213,357.1544715447154,213,259.1869918699185,421,259.1869918699185" stroke-width="7.967479674796747" style="stroke: rgb(125, 105, 191);"></path><path d="M5,361.42276422764223C213,361.42276422764223,213,333.2113821138213,421,333.2113821138213" stroke-width="0.5691056910569106" style="stroke: rgb(125, 105, 191);"></path><path d="M5,1.991869918698931C213,1.991869918698931,213,131.99186991869902,421,131.99186991869902" stroke-width="3.9837398373983737" style="stroke: rgb(140, 105, 191);"></path><path d="M5,4.552845528455029C213,4.552845528455029,213,345.7723577235774,421,345.7723577235774" stroke-width="1.1382113821138211" style="stroke: rgb(140, 105, 191);"></path><path d="M5,483.4552845528458C213,483.4552845528458,213,315.24390243902417,421,315.24390243902417" stroke-width="9.674796747967479" style="stroke: rgb(155, 105, 191);"></path><path d="M5,488.57723577235805C213,488.57723577235805,213,356.30081300813015,421,356.30081300813015" stroke-width="0.5691056910569106" style="stroke: rgb(155, 105, 191);"></path><path d="M5,327.76422764227624C213,327.76422764227624,213,250.3658536585364,421,250.3658536585364" stroke-width="2.845528455284553" style="stroke: rgb(171, 105, 191);"></path><path d="M5,329.471544715447C213,329.471544715447,213,350.0406504065042,421,350.0406504065042" stroke-width="0.5691056910569106" style="stroke: rgb(171, 105, 191);"></path><path d="M5,315.4878048780487C213,315.4878048780487,213,248.08943089430872,421,248.08943089430872" stroke-width="1.7073170731707317" style="stroke: rgb(186, 105, 191);"></path><path d="M5,260.4065040650407C213,260.4065040650407,213,234.14634146341444,421,234.14634146341444" stroke-width="1.1382113821138211" style="stroke: rgb(191, 105, 181);"></path><path d="M426,149.34959349593478C634,149.34959349593478,634,144.34959349593487,842,144.34959349593487" stroke-width="38.699186991869915" style="stroke: rgb(191, 105, 166);"></path><path d="M426,241.82926829268274C634,241.82926829268274,634,281.05691056910564,842,281.05691056910564" stroke-width="62.03252032520325" style="stroke: rgb(191, 105, 166);"></path><path d="M426,170.97560975609738C634,170.97560975609738,634,186.21951219512187,842,186.21951219512187" stroke-width="4.5528455284552845" style="stroke: rgb(191, 105, 166);"></path><path d="M426,192.03252032520308C634,192.03252032520308,634,218.41463414634143,842,218.41463414634143" stroke-width="37.5609756097561" style="stroke: rgb(191, 105, 166);"></path><path d="M426,297.03252032520305C634,297.03252032520305,634,346.8292682926829,842,346.8292682926829" stroke-width="48.3739837398374" style="stroke: rgb(191, 105, 166);"></path><path d="M426,368.008130081301C634,368.008130081301,634,172.52032520325196,842,172.52032520325196" stroke-width="2.845528455284553" style="stroke: rgb(191, 105, 150);"></path><path d="M426,369.71544715447175C634,369.71544715447175,634,374.7154471544716,842,374.7154471544716" stroke-width="0.5691056910569106" style="stroke: rgb(191, 105, 150);"></path><path d="M426,347.7642276422766C634,347.7642276422766,634,168.53658536585357,842,168.53658536585357" stroke-width="5.121951219512195" style="stroke: rgb(191, 105, 135);"></path><path d="M426,352.6016260162603C634,352.6016260162603,634,238.9024390243902,842,238.9024390243902" stroke-width="2.2764227642276422" style="stroke: rgb(191, 105, 135);"></path><path d="M426,350.8943089430896C634,350.8943089430896,634,189.06504065040642,842,189.06504065040642" stroke-width="1.1382113821138211" style="stroke: rgb(191, 105, 135);"></path><path d="M426,355.1626016260164C634,355.1626016260164,634,373.0081300813008,842,373.0081300813008" stroke-width="2.845528455284553" style="stroke: rgb(191, 105, 135);"></path><path d="M426,334.3495934959351C634,334.3495934959351,634,312.35772357723573,842,312.35772357723573" stroke-width="0.5691056910569106" style="stroke: rgb(191, 105, 120);"></path><path d="M426,334.918699186992C634,334.918699186992,634,371.3008130081301,842,371.3008130081301" stroke-width="0.5691056910569106" style="stroke: rgb(191, 105, 120);"></path><path d="M426,333.7804878048782C634,333.7804878048782,634,237.47967479674793,842,237.47967479674793" stroke-width="0.5691056910569106" style="stroke: rgb(191, 105, 120);"></path><path d="M426,332.3577235772359C634,332.3577235772359,634,164.83739837398363,842,164.83739837398363" stroke-width="2.2764227642276422" style="stroke: rgb(191, 105, 120);"></path></g><g class="nodes" font-family="Arial, Helvetica" font-size="10"><g><rect x="421" y="129.99999999999983" height="191.2195121951223" width="5" fill="#000"></rect><text x="415" y="225.609756097561" dy="0.35em" text-anchor="end">0</text></g><g><rect x="421" y="331.2195121951221" height="3.9837398373983888" width="5" fill="#000"></rect><text x="415" y="333.2113821138213" dy="0.35em" text-anchor="end">1</text></g><g><rect x="421" y="345.2032520325205" height="11.382113821138205" width="5" fill="#000"></rect><text x="415" y="350.8943089430896" dy="0.35em" text-anchor="end">2</text></g><g><rect x="421" y="366.5853658536587" height="3.414634146341484" width="5" fill="#000"></rect><text x="415" y="368.29268292682946" dy="0.35em" text-anchor="end">3</text></g><g><rect x="842" y="124.99999999999991" height="48.943089430894304" width="5" fill="#000"></rect><text x="836" y="149.47154471544707" dy="0.35em" text-anchor="end">Africa (excl MENA)</text></g><g><rect x="842" y="183.94308943089422" height="5.691056910569159" width="5" fill="#000"></rect><text x="836" y="186.7886178861788" dy="0.35em" text-anchor="end">Americas</text></g><g><rect x="842" y="199.63414634146338" height="40.40650406504062" width="5" fill="#000"></rect><text x="836" y="219.8373983739837" dy="0.35em" text-anchor="end">Asia and Pacific</text></g><g><rect x="842" y="250.040650406504" height="62.601626016260184" width="5" fill="#000"></rect><text x="836" y="281.34146341463406" dy="0.35em" text-anchor="end">Europe and Eurasia</text></g><g><rect x="842" y="322.6422764227642" height="52.3577235772359" width="5" fill="#000"></rect><text x="836" y="348.82113821138216" dy="0.35em" text-anchor="end">Middle East and North Africa</text></g><g><rect x="0" y="-2.5579538487363607e-13" height="5.121951219512312" width="5" fill="#000"></rect><text x="11" y="2.5609756097559" dy="0.35em" text-anchor="start">1990</text></g><g><rect x="0" y="15.121951219512056" height="9.105691056910587" width="5" fill="#000"></rect><text x="11" y="19.67479674796735" dy="0.35em" text-anchor="start">1991</text></g><g><rect x="0" y="34.22764227642264" height="14.22764227642267" width="5" fill="#000"></rect><text x="11" y="41.34146341463398" dy="0.35em" text-anchor="start">1992</text></g><g><rect x="0" y="58.45528455284531" height="17.642276422764212" width="5" fill="#000"></rect><text x="11" y="67.27642276422742" dy="0.35em" text-anchor="start">1993</text></g><g><rect x="0" y="86.09756097560953" height="13.658536585365937" width="5" fill="#000"></rect><text x="11" y="92.9268292682925" dy="0.35em" text-anchor="start">1994</text></g><g><rect x="0" y="109.75609756097546" height="7.39837398373993" width="5" fill="#000"></rect><text x="11" y="113.45528455284543" dy="0.35em" text-anchor="start">1995</text></g><g><rect x="0" y="127.15447154471539" height="2.8455284552845796" width="5" fill="#000"></rect><text x="11" y="128.57723577235768" dy="0.35em" text-anchor="start">1996</text></g><g><rect x="0" y="139.99999999999997" height="2.8455284552845796" width="5" fill="#000"></rect><text x="11" y="141.42276422764226" dy="0.35em" text-anchor="start">1997</text></g><g><rect x="0" y="152.84552845528455" height="5.121951219512198" width="5" fill="#000"></rect><text x="11" y="155.40650406504065" dy="0.35em" text-anchor="start">1998</text></g><g><rect x="0" y="167.96747967479675" height="6.260162601626007" width="5" fill="#000"></rect><text x="11" y="171.09756097560975" dy="0.35em" text-anchor="start">1999</text></g><g><rect x="0" y="184.22764227642276" height="2.845528455284466" width="5" fill="#000"></rect><text x="11" y="185.650406504065" dy="0.35em" text-anchor="start">2000</text></g><g><rect x="0" y="197.07317073170722" height="5.691056910569159" width="5" fill="#000"></rect><text x="11" y="199.9186991869918" dy="0.35em" text-anchor="start">2001</text></g><g><rect x="0" y="212.76422764227638" height="7.9674796747967775" width="5" fill="#000"></rect><text x="11" y="216.74796747967477" dy="0.35em" text-anchor="start">2002</text></g><g><rect x="0" y="230.73170731707316" height="6.260162601626007" width="5" fill="#000"></rect><text x="11" y="233.86178861788616" dy="0.35em" text-anchor="start">2003</text></g><g><rect x="0" y="246.99186991869917" height="2.8455284552845796" width="5" fill="#000"></rect><text x="11" y="248.41463414634146" dy="0.35em" text-anchor="start">2004</text></g><g><rect x="0" y="259.8373983739838" height="1.1382113821138091" width="5" fill="#000"></rect><text x="11" y="260.4065040650407" dy="0.35em" text-anchor="start">2005</text></g><g><rect x="0" y="270.9756097560976" height="4.5528455284552365" width="5" fill="#000"></rect><text x="11" y="273.2520325203252" dy="0.35em" text-anchor="start">2006</text></g><g><rect x="0" y="285.5284552845528" height="2.2764227642276182" width="5" fill="#000"></rect><text x="11" y="286.66666666666663" dy="0.35em" text-anchor="start">2007</text></g><g><rect x="0" y="297.80487804878044" height="6.829268292682855" width="5" fill="#000"></rect><text x="11" y="301.21951219512187" dy="0.35em" text-anchor="start">2008</text></g><g><rect x="0" y="314.6341463414633" height="1.7073170731706568" width="5" fill="#000"></rect><text x="11" y="315.4878048780486" dy="0.35em" text-anchor="start">2009</text></g><g><rect x="0" y="326.34146341463395" height="3.414634146341541" width="5" fill="#000"></rect><text x="11" y="328.0487804878047" dy="0.35em" text-anchor="start">2010</text></g><g><rect x="0" y="339.7560975609755" height="3.414634146341541" width="5" fill="#000"></rect><text x="11" y="341.46341463414626" dy="0.35em" text-anchor="start">2011</text></g><g><rect x="0" y="353.17073170731703" height="8.536585365853625" width="5" fill="#000"></rect><text x="11" y="357.43902439024384" dy="0.35em" text-anchor="start">2012</text></g><g><rect x="0" y="371.70731707317066" height="4.5528455284552365" width="5" fill="#000"></rect><text x="11" y="373.9837398373983" dy="0.35em" text-anchor="start">2013</text></g><g><rect x="0" y="386.2601626016259" height="16.504065040650516" width="5" fill="#000"></rect><text x="11" y="394.51219512195115" dy="0.35em" text-anchor="start">2014</text></g><g><rect x="0" y="412.7642276422764" height="9.105691056910644" width="5" fill="#000"></rect><text x="11" y="417.31707317073176" dy="0.35em" text-anchor="start">2015</text></g><g><rect x="0" y="431.86991869918705" height="13.089430894308975" width="5" fill="#000"></rect><text x="11" y="438.41463414634154" dy="0.35em" text-anchor="start">2016</text></g><g><rect x="0" y="454.95934959349603" height="13.65853658536605" width="5" fill="#000"></rect><text x="11" y="461.78861788617905" dy="0.35em" text-anchor="start">2017</text></g><g><rect x="0" y="478.6178861788621" height="10.243902439024396" width="5" fill="#000"></rect><text x="11" y="483.7398373983743" dy="0.35em" text-anchor="start">2018</text></g><g><rect x="0" y="498.8617886178865" height="1.1382113821138091" width="5" fill="#000"></rect><text x="11" y="499.4308943089434" dy="0.35em" text-anchor="start">2019</text></g></g></g></svg>