<svg width="847" height="520" xmlns="http://www.w3.org/2000/svg" version="1.1"><g transform="translate(0, 10)"><g class="links" fill="none" stroke-opacity="0.4"><path d="M5,19.67479674796791C213,19.67479674796791,213,154.67479674796738,421,154.67479674796738" stroke-width="9.105691056910569" style="stroke: rgb(191, 105, 105);"></path><path d="M5,113.45528455284555C213,113.45528455284555,213,208.45528455284537,421,208.45528455284537" stroke-width="7.3983739837398375" style="stroke: rgb(191, 122, 105);"></path><path d="M5,92.92682926829274C213,92.92682926829274,213,197.92682926829255,421,197.92682926829255" stroke-width="13.658536585365853" style="stroke: rgb(191, 138, 105);"></path><path d="M5,67.27642276422779C213,67.27642276422779,213,182.2764227642275,421,182.2764227642275" stroke-width="17.642276422764226" style="stroke: rgb(191, 155, 105);"></path><path d="M5,41.34146341463453C213,41.34146341463453,213,166.34146341463403,421,166.34146341463403" stroke-width="14.227642276422763" style="stroke: rgb(191, 171, 105);"></path><path d="M5,301.2195121951217C213,301.2195121951217,213,266.21951219512175,421,266.21951219512175" stroke-width="6.829268292682927" style="stroke: rgb(191, 188, 105);"></path><path d="M5,273.252032520325C213,273.252032520325,213,258.25203252032503,421,258.25203252032503" stroke-width="4.5528455284552845" style="stroke: rgb(177, 191, 105);"></path><path d="M5,233.8617886178861C213,233.8617886178861,213,248.86178861788602,421,248.86178861788602" stroke-width="6.260162601626016" style="stroke: rgb(160, 191, 105);"></path><path d="M5,216.74796747967468C213,216.74796747967468,213,241.74796747967463,421,241.74796747967463" stroke-width="7.967479674796747" style="stroke: rgb(144, 191, 105);"></path><path d="M5,394.51219512195087C213,394.51219512195087,213,299.51219512195104,421,299.51219512195104" stroke-width="16.504065040650406" style="stroke: rgb(127, 191, 105);"></path><path d="M5,373.98373983739805C213,373.98373983739805,213,288.98373983739816,421,288.98373983739816" stroke-width="4.5528455284552845" style="stroke: rgb(111, 191, 105);"></path><path d="M5,341.463414634146C213,341.463414634146,213,276.4634146341461,421,276.4634146341461" stroke-width="3.4146341463414633" style="stroke: rgb(105, 191, 116);"></path><path d="M5,286.6666666666664C213,286.6666666666664,213,261.66666666666646,421,261.66666666666646" stroke-width="2.2764227642276422" style="stroke: rgb(105, 191, 133);"></path><path d="M5,461.7886178861786C213,461.7886178861786,213,336.78861788617866,421,336.78861788617866" stroke-width="13.658536585365853" style="stroke: rgb(105, 191, 149);"></path><path d="M5,438.41463414634126C213,438.41463414634126,213,323.4146341463413,421,323.4146341463413" stroke-width="13.089430894308943" style="stroke: rgb(105, 191, 166);"></path><path d="M5,171.0975609756098C213,171.0975609756098,213,226.0975609756096,421,226.0975609756096" stroke-width="6.260162601626016" style="stroke: rgb(105, 191, 182);"></path><path d="M5,185.6504065040651C213,185.6504065040651,213,230.6504065040649,421,230.6504065040649" stroke-width="2.845528455284553" style="stroke: rgb(105, 182, 191);"></path><path d="M5,499.4308943089427C213,499.4308943089427,213,354.4308943089429,421,354.4308943089429" stroke-width="1.1382113821138211" style="stroke: rgb(105, 166, 191);"></path><path d="M5,155.4065040650407C213,155.4065040650407,213,220.4065040650405,421,220.4065040650405" stroke-width="5.121951219512195" style="stroke: rgb(105, 149, 191);"></path><path d="M5,248.4146341463414C213,248.4146341463414,213,253.4146341463413,421,253.4146341463413" stroke-width="2.845528455284553" style="stroke: rgb(105, 133, 191);"></path><path d="M5,128.57723577235774C213,128.57723577235774,213,213.5772357723576,421,213.5772357723576" stroke-width="2.845528455284553" style="stroke: rgb(105, 116, 191);"></path><path d="M5,417.31707317073136C213,417.31707317073136,213,312.31707317073153,421,312.31707317073153" stroke-width="9.105691056910569" style="stroke: rgb(111, 105, 191);"></path><path d="M5,199.91869918699183C213,199.91869918699183,213,234.91869918699172,421,234.91869918699172" stroke-width="5.691056910569106" style="stroke: rgb(127, 105, 191);"></path><path d="M5,141.42276422764232C213,141.42276422764232,213,216.42276422764215,421,216.42276422764215" stroke-width="2.845528455284553" style="stroke: rgb(144, 105, 191);"></path><path d="M5,357.4390243902436C213,357.4390243902436,213,282.4390243902437,421,282.4390243902437" stroke-width="8.536585365853659" style="stroke: rgb(160, 105, 191);"></path><path d="M5,2.560975609756524C213,2.560975609756524,213,147.56097560975599,421,147.56097560975599" stroke-width="5.121951219512195" style="stroke: rgb(177, 105, 191);"></path><path d="M5,483.7398373983737C213,483.7398373983737,213,348.7398373983738,421,348.7398373983738" stroke-width="10.24390243902439" style="stroke: rgb(191, 105, 188);"></path><path d="M5,328.04878048780444C213,328.04878048780444,213,273.0487804878046,421,273.0487804878046" stroke-width="3.4146341463414633" style="stroke: rgb(191, 105, 171);"></path><path d="M5,315.48780487804845C213,315.48780487804845,213,270.48780487804856,421,270.48780487804856" stroke-width="1.7073170731707317" style="stroke: rgb(191, 105, 155);"></path><path d="M5,260.40650406504045C213,260.40650406504045,213,255.40650406504048,421,255.40650406504048" stroke-width="1.1382113821138211" style="stroke: rgb(191, 105, 138);"></path><path d="M426,169.47154471544704C634,169.47154471544704,634,149.47154471544724,842,149.47154471544724" stroke-width="48.94308943089431" style="stroke: rgb(191, 105, 122);"></path><path d="M426,271.341463414634C634,271.341463414634,634,281.3414634146342,842,281.3414634146342" stroke-width="62.60162601626016" style="stroke: rgb(191, 105, 122);"></path><path d="M426,196.78861788617874C634,196.78861788617874,634,186.788617886179,842,186.788617886179" stroke-width="5.691056910569106" style="stroke: rgb(191, 105, 122);"></path><path d="M426,219.8373983739836C634,219.8373983739836,634,219.83739837398394,842,219.83739837398394" stroke-width="40.40650406504065" style="stroke: rgb(191, 105, 122);"></path><path d="M426,328.821138211382C634,328.821138211382,634,348.8211382113821,842,348.8211382113821" stroke-width="52.357723577235774" style="stroke: rgb(191, 105, 122);"></path></g><g class="nodes" font-family="Arial, Helvetica" font-size="10"><g><rect x="421" y="144.9999999999999" height="210.0000000000002" width="5" fill="#000"></rect><text x="415" y="250" dy="0.35em" text-anchor="end">0</text></g><g><rect x="842" y="125.00000000000009" height="48.94308943089436" width="5" fill="#000"></rect><text x="836" y="149.47154471544727" dy="0.35em" text-anchor="end">Africa (excl MENA)</text></g><g><rect x="842" y="183.94308943089445" height="5.691056910569159" width="5" fill="#000"></rect><text x="836" y="186.78861788617903" dy="0.35em" text-anchor="end">Americas</text></g><g><rect x="842" y="199.6341463414636" height="40.40650406504051" width="5" fill="#000"></rect><text x="836" y="219.83739837398386" dy="0.35em" text-anchor="end">Asia and Pacific</text></g><g><rect x="842" y="250.0406504065041" height="62.60162601626013" width="5" fill="#000"></rect><text x="836" y="281.3414634146342" dy="0.35em" text-anchor="end">Europe and Eurasia</text></g><g><rect x="842" y="322.6422764227642" height="52.357723577235674" width="5" fill="#000"></rect><text x="836" y="348.82113821138205" dy="0.35em" text-anchor="end">Middle East and North Africa</text></g><g><rect x="0" y="4.263256414560601e-13" height="5.121951219512198" width="5" fill="#000"></rect><text x="11" y="2.5609756097565253" dy="0.35em" text-anchor="start">1990</text></g><g><rect x="0" y="15.121951219512624" height="9.10569105691053" width="5" fill="#000"></rect><text x="11" y="19.67479674796789" dy="0.35em" text-anchor="start">1991</text></g><g><rect x="0" y="34.227642276423154" height="14.227642276422529" width="5" fill="#000"></rect><text x="11" y="41.34146341463442" dy="0.35em" text-anchor="start">1992</text></g><g><rect x="0" y="58.45528455284568" height="17.642276422764127" width="5" fill="#000"></rect><text x="11" y="67.27642276422775" dy="0.35em" text-anchor="start">1993</text></g><g><rect x="0" y="86.09756097560981" height="13.658536585365823" width="5" fill="#000"></rect><text x="11" y="92.92682926829272" dy="0.35em" text-anchor="start">1994</text></g><g><rect x="0" y="109.75609756097563" height="7.398373983739816" width="5" fill="#000"></rect><text x="11" y="113.45528455284554" dy="0.35em" text-anchor="start">1995</text></g><g><rect x="0" y="127.15447154471545" height="2.8455284552845796" width="5" fill="#000"></rect><text x="11" y="128.57723577235774" dy="0.35em" text-anchor="start">1996</text></g><g><rect x="0" y="140.00000000000003" height="2.8455284552845796" width="5" fill="#000"></rect><text x="11" y="141.42276422764232" dy="0.35em" text-anchor="start">1997</text></g><g><rect x="0" y="152.8455284552846" height="5.121951219512198" width="5" fill="#000"></rect><text x="11" y="155.4065040650407" dy="0.35em" text-anchor="start">1998</text></g><g><rect x="0" y="167.9674796747968" height="6.260162601626007" width="5" fill="#000"></rect><text x="11" y="171.0975609756098" dy="0.35em" text-anchor="start">1999</text></g><g><rect x="0" y="184.2276422764228" height="2.845528455284466" width="5" fill="#000"></rect><text x="11" y="185.65040650406505" dy="0.35em" text-anchor="start">2000</text></g><g><rect x="0" y="197.07317073170728" height="5.691056910569046" width="5" fill="#000"></rect><text x="11" y="199.9186991869918" dy="0.35em" text-anchor="start">2001</text></g><g><rect x="0" y="212.76422764227632" height="7.9674796747967775" width="5" fill="#000"></rect><text x="11" y="216.7479674796747" dy="0.35em" text-anchor="start">2002</text></g><g><rect x="0" y="230.7317073170731" height="6.260162601626007" width="5" fill="#000"></rect><text x="11" y="233.8617886178861" dy="0.35em" text-anchor="start">2003</text></g><g><rect x="0" y="246.9918699186991" height="2.845528455284466" width="5" fill="#000"></rect><text x="11" y="248.41463414634134" dy="0.35em" text-anchor="start">2004</text></g><g><rect x="0" y="259.83739837398355" height="1.1382113821138091" width="5" fill="#000"></rect><text x="11" y="260.40650406504045" dy="0.35em" text-anchor="start">2005</text></g><g><rect x="0" y="270.97560975609736" height="4.5528455284552365" width="5" fill="#000"></rect><text x="11" y="273.252032520325" dy="0.35em" text-anchor="start">2006</text></g><g><rect x="0" y="285.5284552845526" height="2.2764227642276182" width="5" fill="#000"></rect><text x="11" y="286.6666666666664" dy="0.35em" text-anchor="start">2007</text></g><g><rect x="0" y="297.8048780487802" height="6.829268292682855" width="5" fill="#000"></rect><text x="11" y="301.21951219512164" dy="0.35em" text-anchor="start">2008</text></g><g><rect x="0" y="314.63414634146307" height="1.7073170731706568" width="5" fill="#000"></rect><text x="11" y="315.4878048780484" dy="0.35em" text-anchor="start">2009</text></g><g><rect x="0" y="326.3414634146337" height="3.414634146341541" width="5" fill="#000"></rect><text x="11" y="328.0487804878045" dy="0.35em" text-anchor="start">2010</text></g><g><rect x="0" y="339.75609756097526" height="3.414634146341541" width="5" fill="#000"></rect><text x="11" y="341.46341463414603" dy="0.35em" text-anchor="start">2011</text></g><g><rect x="0" y="353.1707317073168" height="8.536585365853625" width="5" fill="#000"></rect><text x="11" y="357.4390243902436" dy="0.35em" text-anchor="start">2012</text></g><g><rect x="0" y="371.70731707317043" height="4.5528455284552365" width="5" fill="#000"></rect><text x="11" y="373.98373983739805" dy="0.35em" text-anchor="start">2013</text></g><g><rect x="0" y="386.26016260162567" height="16.504065040650374" width="5" fill="#000"></rect><text x="11" y="394.51219512195087" dy="0.35em" text-anchor="start">2014</text></g><g><rect x="0" y="412.76422764227607" height="9.1056910569107" width="5" fill="#000"></rect><text x="11" y="417.3170731707314" dy="0.35em" text-anchor="start">2015</text></g><g><rect x="0" y="431.86991869918677" height="13.089430894308919" width="5" fill="#000"></rect><text x="11" y="438.4146341463412" dy="0.35em" text-anchor="start">2016</text></g><g><rect x="0" y="454.9593495934957" height="13.658536585365823" width="5" fill="#000"></rect><text x="11" y="461.7886178861786" dy="0.35em" text-anchor="start">2017</text></g><g><rect x="0" y="478.6178861788615" height="10.243902439024282" width="5" fill="#000"></rect><text x="11" y="483.73983739837365" dy="0.35em" text-anchor="start">2018</text></g><g><rect x="0" y="498.8617886178858" height="1.1382113821138091" width="5" fill="#000"></rect><text x="11" y="499.4308943089427" dy="0.35em" text-anchor="start">2019</text></g></g></g></svg>