<svg width="848" height="520" xmlns="http://www.w3.org/2000/svg" version="1.1"><g transform="translate(0, 10)"><g class="links" fill="none" stroke-opacity="0.4"><path d="M5,193.21138211382097C424,193.21138211382097,424,193.2113821138213,843,193.2113821138213" stroke-width="386.42276422764223" style="stroke: rgb(191, 105, 105);"></path><path d="M5,414.3089430894307C424,414.3089430894307,424,458.83468834688347,843,458.83468834688347" stroke-width="55.77235772357723" style="stroke: rgb(191, 105, 105);"></path><path d="M5,469.45799457994565C424,469.45799457994565,424,403.68563685636866,843,403.68563685636866" stroke-width="34.52574525745257" style="stroke: rgb(105, 191, 191);"></path><path d="M5,493.36043360433587C424,493.36043360433587,424,493.36043360433604,843,493.36043360433604" stroke-width="13.279132791327912" style="stroke: rgb(105, 191, 191);"></path></g><g class="nodes" font-family="Arial, Helvetica" font-size="10"><g><rect x="0" y="-1.4210854715202004e-13" height="442.19512195121945" width="5" fill="#000"></rect><text x="11" y="221.09756097560958" dy="0.35em" text-anchor="start">0</text></g><g><rect x="0" y="452.19512195121933" height="47.804878048780836" width="5" fill="#000"></rect><text x="11" y="476.0975609756098" dy="0.35em" text-anchor="start">1</text></g><g><rect x="843" y="1.7053025658242404e-13" height="420.9485094850947" width="5" fill="#000"></rect><text x="837" y="210.47425474254752" dy="0.35em" text-anchor="end">0</text></g><g><rect x="843" y="430.94850948509486" height="69.05149051490497" width="5" fill="#000"></rect><text x="837" y="465.4742547425474" dy="0.35em" text-anchor="end">1</text></g></g></g></svg>