<svg width="847" height="520" xmlns="http://www.w3.org/2000/svg" version="1.1"><g transform="translate(0, 10)"><g class="links" fill="none" stroke-opacity="0.4"><path d="M5,19.674796747967655C213,19.674796747967655,213,139.67479674796755,421,139.67479674796755" stroke-width="9.105691056910569" style="stroke: rgb(191, 105, 105);"></path><path d="M5,113.4552845528457C213,113.4552845528457,213,192.31707317073173,421,192.31707317073173" stroke-width="7.3983739837398375" style="stroke: rgb(191, 120, 105);"></path><path d="M5,92.35772357723592C213,92.35772357723592,213,182.3577235772358,421,182.3577235772358" stroke-width="12.520325203252032" style="stroke: rgb(191, 135, 105);"></path><path d="M5,98.90243902439038C213,98.90243902439038,213,356.869918699187,421,356.869918699187" stroke-width="0.5691056910569106" style="stroke: rgb(191, 135, 105);"></path><path d="M5,99.47154471544728C213,99.47154471544728,213,369.1463414634146,421,369.1463414634146" stroke-width="0.5691056910569106" style="stroke: rgb(191, 135, 105);"></path><path d="M5,67.27642276422779C213,67.27642276422779,213,167.27642276422768,421,167.27642276422768" stroke-width="17.642276422764226" style="stroke: rgb(191, 150, 105);"></path><path d="M5,41.34146341463433C213,41.34146341463433,213,151.3414634146342,421,151.3414634146342" stroke-width="14.227642276422763" style="stroke: rgb(191, 166, 105);"></path><path d="M5,301.21951219512204C213,301.21951219512204,213,249.51219512195124,421,249.51219512195124" stroke-width="6.829268292682927" style="stroke: rgb(191, 181, 105);"></path><path d="M5,273.2520325203253C213,273.2520325203253,213,241.5447154471545,421,241.5447154471545" stroke-width="4.5528455284552845" style="stroke: rgb(186, 191, 105);"></path><path d="M5,233.86178861788636C213,233.86178861788636,213,232.72357723577238,421,232.72357723577238" stroke-width="6.260162601626016" style="stroke: rgb(171, 191, 105);"></path><path d="M5,216.74796747967494C213,216.74796747967494,213,225.609756097561,421,225.609756097561" stroke-width="7.967479674796747" style="stroke: rgb(155, 191, 105);"></path><path d="M5,393.9430894308943C213,393.9430894308943,213,282.2357723577237,421,282.2357723577237" stroke-width="15.365853658536585" style="stroke: rgb(140, 191, 105);"></path><path d="M5,401.9105691056911C213,401.9105691056911,213,346.3008130081301,421,346.3008130081301" stroke-width="0.5691056910569106" style="stroke: rgb(140, 191, 105);"></path><path d="M5,402.479674796748C213,402.479674796748,213,357.4390243902439,421,357.4390243902439" stroke-width="0.5691056910569106" style="stroke: rgb(140, 191, 105);"></path><path d="M5,373.9837398373984C213,373.9837398373984,213,272.27642276422773,421,272.27642276422773" stroke-width="4.5528455284552845" style="stroke: rgb(125, 191, 105);"></path><path d="M5,341.4634146341463C213,341.4634146341463,213,259.75609756097566,421,259.75609756097566" stroke-width="3.4146341463414633" style="stroke: rgb(110, 191, 105);"></path><path d="M5,286.66666666666674C213,286.66666666666674,213,244.95934959349594,421,244.95934959349594" stroke-width="2.2764227642276422" style="stroke: rgb(105, 191, 115);"></path><path d="M5,461.50406504065035C213,461.50406504065035,213,318.0894308943091,421,318.0894308943091" stroke-width="13.089430894308943" style="stroke: rgb(105, 191, 130);"></path><path d="M5,468.33333333333326C213,468.33333333333326,213,358.5772357723577,421,358.5772357723577" stroke-width="0.5691056910569106" style="stroke: rgb(105, 191, 130);"></path><path d="M5,438.4146341463414C213,438.4146341463414,213,305.00000000000017,421,305.00000000000017" stroke-width="13.089430894308943" style="stroke: rgb(105, 191, 145);"></path><path d="M5,171.09756097560995C213,171.09756097560995,213,209.95934959349597,421,209.95934959349597" stroke-width="6.260162601626016" style="stroke: rgb(105, 191, 161);"></path><path d="M5,185.65040650406524C213,185.65040650406524,213,214.51219512195127,421,214.51219512195127" stroke-width="2.845528455284553" style="stroke: rgb(105, 191, 176);"></path><path d="M5,499.430894308943C213,499.430894308943,213,335.4471544715448,421,335.4471544715448" stroke-width="1.1382113821138211" style="stroke: rgb(105, 191, 191);"></path><path d="M5,155.40650406504085C213,155.40650406504085,213,204.26829268292687,421,204.26829268292687" stroke-width="5.121951219512195" style="stroke: rgb(105, 176, 191);"></path><path d="M5,248.13008130081317C213,248.13008130081317,213,236.9918699186992,421,236.9918699186992" stroke-width="2.2764227642276422" style="stroke: rgb(105, 161, 191);"></path><path d="M5,249.55284552845546C213,249.55284552845546,213,369.7154471544715,421,369.7154471544715" stroke-width="0.5691056910569106" style="stroke: rgb(105, 161, 191);"></path><path d="M5,128.57723577235788C213,128.57723577235788,213,197.43902439024396,421,197.43902439024396" stroke-width="2.845528455284553" style="stroke: rgb(105, 145, 191);"></path><path d="M5,417.03252032520305C213,417.03252032520305,213,294.1869918699188,421,294.1869918699188" stroke-width="8.536585365853659" style="stroke: rgb(105, 130, 191);"></path><path d="M5,421.5853658536584C213,421.5853658536584,213,358.0081300813008,421,358.0081300813008" stroke-width="0.5691056910569106" style="stroke: rgb(105, 130, 191);"></path><path d="M5,199.9186991869921C213,199.9186991869921,213,218.78048780487808,421,218.78048780487808" stroke-width="5.691056910569106" style="stroke: rgb(105, 115, 191);"></path><path d="M5,141.42276422764246C213,141.42276422764246,213,200.2845528455285,421,200.2845528455285" stroke-width="2.845528455284553" style="stroke: rgb(110, 105, 191);"></path><path d="M5,357.43902439024396C213,357.43902439024396,213,265.73170731707324,421,265.73170731707324" stroke-width="8.536585365853659" style="stroke: rgb(125, 105, 191);"></path><path d="M5,2.5609756097562113C213,2.5609756097562113,213,132.56097560975616,421,132.56097560975616" stroke-width="5.121951219512195" style="stroke: rgb(140, 105, 191);"></path><path d="M5,483.7398373983739C213,483.7398373983739,213,329.7560975609757,421,329.7560975609757" stroke-width="10.24390243902439" style="stroke: rgb(155, 105, 191);"></path><path d="M5,328.0487804878049C213,328.0487804878049,213,256.3414634146342,421,256.3414634146342" stroke-width="3.4146341463414633" style="stroke: rgb(171, 105, 191);"></path><path d="M5,315.4878048780488C213,315.4878048780488,213,253.78048780487808,421,253.78048780487808" stroke-width="1.7073170731707317" style="stroke: rgb(186, 105, 191);"></path><path d="M5,260.4065040650408C213,260.4065040650408,213,238.69918699186994,421,238.69918699186994" stroke-width="1.1382113821138211" style="stroke: rgb(191, 105, 181);"></path><path d="M426,153.3333333333334C634,153.3333333333334,634,148.33333333333337,842,148.33333333333337" stroke-width="46.666666666666664" style="stroke: rgb(191, 105, 166);"></path><path d="M426,253.78048780487808C634,253.78048780487808,634,281.05691056910564,842,281.05691056910564" stroke-width="62.03252032520325" style="stroke: rgb(191, 105, 166);"></path><path d="M426,179.51219512195127C634,179.51219512195127,634,186.78861788617888,842,186.78861788617888" stroke-width="5.691056910569106" style="stroke: rgb(191, 105, 166);"></path><path d="M426,202.56097560975616C634,202.56097560975616,634,219.83739837398372,842,219.83739837398372" stroke-width="40.40650406504065" style="stroke: rgb(191, 105, 166);"></path><path d="M426,310.40650406504074C634,310.40650406504074,634,348.2520325203253,842,348.2520325203253" stroke-width="51.21951219512195" style="stroke: rgb(191, 105, 166);"></path><path d="M426,357.4390243902439C634,357.4390243902439,634,312.35772357723573,842,312.35772357723573" stroke-width="0.5691056910569106" style="stroke: rgb(191, 105, 150);"></path><path d="M426,356.869918699187C634,356.869918699187,634,172.52032520325204,842,172.52032520325204" stroke-width="0.5691056910569106" style="stroke: rgb(191, 105, 150);"></path><path d="M426,358.29268292682923C634,358.29268292682923,634,374.4308943089432,842,374.4308943089432" stroke-width="1.1382113821138211" style="stroke: rgb(191, 105, 150);"></path><path d="M426,346.3008130081301C634,346.3008130081301,634,171.95121951219514,842,171.95121951219514" stroke-width="0.5691056910569106" style="stroke: rgb(191, 105, 135);"></path><path d="M426,369.43089430894304C634,369.43089430894304,634,173.3739837398374,842,173.3739837398374" stroke-width="1.1382113821138211" style="stroke: rgb(191, 105, 120);"></path></g><g class="nodes" font-family="Arial, Helvetica" font-size="10"><g><rect x="421" y="130.00000000000006" height="206.01626016260158" width="5" fill="#000"></rect><text x="415" y="233.00813008130086" dy="0.35em" text-anchor="end">0</text></g><g><rect x="421" y="346.0162601626016" height="0.5691056910569046" width="5" fill="#000"></rect><text x="415" y="346.30081300813004" dy="0.35em" text-anchor="end">1</text></g><g><rect x="421" y="356.5853658536585" height="2.2764227642276182" width="5" fill="#000"></rect><text x="415" y="357.7235772357723" dy="0.35em" text-anchor="end">2</text></g><g><rect x="421" y="368.86178861788613" height="1.1382113821138091" width="5" fill="#000"></rect><text x="415" y="369.43089430894304" dy="0.35em" text-anchor="end">3</text></g><g><rect x="842" y="125.00000000000003" height="48.943089430894304" width="5" fill="#000"></rect><text x="836" y="149.47154471544718" dy="0.35em" text-anchor="end">Africa (excl MENA)</text></g><g><rect x="842" y="183.94308943089433" height="5.691056910569046" width="5" fill="#000"></rect><text x="836" y="186.78861788617886" dy="0.35em" text-anchor="end">Americas</text></g><g><rect x="842" y="199.63414634146338" height="40.40650406504062" width="5" fill="#000"></rect><text x="836" y="219.8373983739837" dy="0.35em" text-anchor="end">Asia and Pacific</text></g><g><rect x="842" y="250.040650406504" height="62.6016260162603" width="5" fill="#000"></rect><text x="836" y="281.3414634146342" dy="0.35em" text-anchor="end">Europe and Eurasia</text></g><g><rect x="842" y="322.6422764227643" height="52.357723577235674" width="5" fill="#000"></rect><text x="836" y="348.82113821138216" dy="0.35em" text-anchor="end">Middle East and North Africa</text></g><g><rect x="0" y="1.1368683772161603e-13" height="5.121951219512255" width="5" fill="#000"></rect><text x="11" y="2.560975609756241" dy="0.35em" text-anchor="start">1990</text></g><g><rect x="0" y="15.121951219512368" height="9.105691056910587" width="5" fill="#000"></rect><text x="11" y="19.67479674796766" dy="0.35em" text-anchor="start">1991</text></g><g><rect x="0" y="34.227642276422955" height="14.227642276422728" width="5" fill="#000"></rect><text x="11" y="41.34146341463432" dy="0.35em" text-anchor="start">1992</text></g><g><rect x="0" y="58.45528455284568" height="17.642276422764212" width="5" fill="#000"></rect><text x="11" y="67.27642276422779" dy="0.35em" text-anchor="start">1993</text></g><g><rect x="0" y="86.0975609756099" height="13.65853658536588" width="5" fill="#000"></rect><text x="11" y="92.92682926829283" dy="0.35em" text-anchor="start">1994</text></g><g><rect x="0" y="109.75609756097577" height="7.398373983739816" width="5" fill="#000"></rect><text x="11" y="113.45528455284568" dy="0.35em" text-anchor="start">1995</text></g><g><rect x="0" y="127.15447154471559" height="2.8455284552845796" width="5" fill="#000"></rect><text x="11" y="128.57723577235788" dy="0.35em" text-anchor="start">1996</text></g><g><rect x="0" y="140.00000000000017" height="2.8455284552845796" width="5" fill="#000"></rect><text x="11" y="141.42276422764246" dy="0.35em" text-anchor="start">1997</text></g><g><rect x="0" y="152.84552845528475" height="5.121951219512198" width="5" fill="#000"></rect><text x="11" y="155.40650406504085" dy="0.35em" text-anchor="start">1998</text></g><g><rect x="0" y="167.96747967479695" height="6.260162601626007" width="5" fill="#000"></rect><text x="11" y="171.09756097560995" dy="0.35em" text-anchor="start">1999</text></g><g><rect x="0" y="184.22764227642296" height="2.8455284552845796" width="5" fill="#000"></rect><text x="11" y="185.65040650406524" dy="0.35em" text-anchor="start">2000</text></g><g><rect x="0" y="197.07317073170753" height="5.691056910569046" width="5" fill="#000"></rect><text x="11" y="199.91869918699206" dy="0.35em" text-anchor="start">2001</text></g><g><rect x="0" y="212.76422764227658" height="7.9674796747967775" width="5" fill="#000"></rect><text x="11" y="216.74796747967497" dy="0.35em" text-anchor="start">2002</text></g><g><rect x="0" y="230.73170731707336" height="6.260162601626007" width="5" fill="#000"></rect><text x="11" y="233.86178861788636" dy="0.35em" text-anchor="start">2003</text></g><g><rect x="0" y="246.99186991869936" height="2.845528455284523" width="5" fill="#000"></rect><text x="11" y="248.41463414634163" dy="0.35em" text-anchor="start">2004</text></g><g><rect x="0" y="259.8373983739839" height="1.1382113821138091" width="5" fill="#000"></rect><text x="11" y="260.4065040650408" dy="0.35em" text-anchor="start">2005</text></g><g><rect x="0" y="270.9756097560977" height="4.5528455284552365" width="5" fill="#000"></rect><text x="11" y="273.2520325203253" dy="0.35em" text-anchor="start">2006</text></g><g><rect x="0" y="285.52845528455293" height="2.2764227642276182" width="5" fill="#000"></rect><text x="11" y="286.66666666666674" dy="0.35em" text-anchor="start">2007</text></g><g><rect x="0" y="297.80487804878055" height="6.829268292682855" width="5" fill="#000"></rect><text x="11" y="301.219512195122" dy="0.35em" text-anchor="start">2008</text></g><g><rect x="0" y="314.6341463414634" height="1.7073170731707705" width="5" fill="#000"></rect><text x="11" y="315.4878048780488" dy="0.35em" text-anchor="start">2009</text></g><g><rect x="0" y="326.3414634146342" height="3.4146341463414274" width="5" fill="#000"></rect><text x="11" y="328.0487804878049" dy="0.35em" text-anchor="start">2010</text></g><g><rect x="0" y="339.7560975609756" height="3.414634146341541" width="5" fill="#000"></rect><text x="11" y="341.4634146341464" dy="0.35em" text-anchor="start">2011</text></g><g><rect x="0" y="353.17073170731715" height="8.536585365853625" width="5" fill="#000"></rect><text x="11" y="357.43902439024396" dy="0.35em" text-anchor="start">2012</text></g><g><rect x="0" y="371.70731707317077" height="4.5528455284552365" width="5" fill="#000"></rect><text x="11" y="373.9837398373984" dy="0.35em" text-anchor="start">2013</text></g><g><rect x="0" y="386.260162601626" height="16.504065040650232" width="5" fill="#000"></rect><text x="11" y="394.5121951219511" dy="0.35em" text-anchor="start">2014</text></g><g><rect x="0" y="412.76422764227624" height="9.1056910569107" width="5" fill="#000"></rect><text x="11" y="417.3170731707316" dy="0.35em" text-anchor="start">2015</text></g><g><rect x="0" y="431.86991869918694" height="13.089430894308919" width="5" fill="#000"></rect><text x="11" y="438.4146341463414" dy="0.35em" text-anchor="start">2016</text></g><g><rect x="0" y="454.95934959349586" height="13.658536585365823" width="5" fill="#000"></rect><text x="11" y="461.78861788617877" dy="0.35em" text-anchor="start">2017</text></g><g><rect x="0" y="478.6178861788617" height="10.243902439024396" width="5" fill="#000"></rect><text x="11" y="483.7398373983739" dy="0.35em" text-anchor="start">2018</text></g><g><rect x="0" y="498.8617886178861" height="1.1382113821138091" width="5" fill="#000"></rect><text x="11" y="499.430894308943" dy="0.35em" text-anchor="start">2019</text></g></g></g></svg>