<svg width="847" height="520" xmlns="http://www.w3.org/2000/svg" version="1.1"><g transform="translate(0, 10)"><g class="links" fill="none" stroke-opacity="0.4"><path d="M5,19.10569105691063C213,19.10569105691063,213,147.39837398373987,421,147.39837398373987" stroke-width="7.967479674796747" style="stroke: rgb(191, 105, 105);"></path><path d="M5,23.658536585365916C213,23.658536585365916,213,346.3414634146342,421,346.3414634146342" stroke-width="1.1382113821138211" style="stroke: rgb(191, 105, 105);"></path><path d="M5,113.45528455284564C213,113.45528455284564,213,199.47154471544718,421,199.47154471544718" stroke-width="7.3983739837398375" style="stroke: rgb(191, 121, 105);"></path><path d="M5,92.92682926829274C213,92.92682926829274,213,188.94308943089436,421,188.94308943089436" stroke-width="13.658536585365853" style="stroke: rgb(191, 137, 105);"></path><path d="M5,66.99186991869922C213,66.99186991869922,213,173.57723577235777,421,173.57723577235777" stroke-width="17.073170731707318" style="stroke: rgb(191, 153, 105);"></path><path d="M5,75.81300813008134C213,75.81300813008134,213,347.76422764227647,421,347.76422764227647" stroke-width="0.5691056910569106" style="stroke: rgb(191, 153, 105);"></path><path d="M5,41.05691056910577C213,41.05691056910577,213,158.2113821138212,421,158.2113821138212" stroke-width="13.658536585365853" style="stroke: rgb(191, 169, 105);"></path><path d="M5,48.170731707317145C213,48.170731707317145,213,347.19512195121956,421,347.19512195121956" stroke-width="0.5691056910569106" style="stroke: rgb(191, 169, 105);"></path><path d="M5,301.2195121951221C213,301.2195121951221,213,253.82113821138213,421,253.82113821138213" stroke-width="6.829268292682927" style="stroke: rgb(191, 185, 105);"></path><path d="M5,274.95934959349614C213,274.95934959349614,213,350.8943089430894,421,350.8943089430894" stroke-width="1.1382113821138211" style="stroke: rgb(180, 191, 105);"></path><path d="M5,272.68292682926847C213,272.68292682926847,213,246.42276422764232,421,246.42276422764232" stroke-width="3.4146341463414633" style="stroke: rgb(180, 191, 105);"></path><path d="M5,233.86178861788648C213,233.86178861788648,213,238.17073170731712,421,238.17073170731712" stroke-width="6.260162601626016" style="stroke: rgb(164, 191, 105);"></path><path d="M5,216.17886178861815C213,216.17886178861815,213,231.62601626016263,421,231.62601626016263" stroke-width="6.829268292682927" style="stroke: rgb(148, 191, 105);"></path><path d="M5,220.16260162601654C213,220.16260162601654,213,349.1869918699187,421,349.1869918699187" stroke-width="1.1382113821138211" style="stroke: rgb(148, 191, 105);"></path><path d="M5,393.37398373983746C213,393.37398373983746,213,283.13008130081306,421,283.13008130081306" stroke-width="14.227642276422763" style="stroke: rgb(132, 191, 105);"></path><path d="M5,401.62601626016266C213,401.62601626016266,213,355.44715447154465,421,355.44715447154465" stroke-width="2.2764227642276422" style="stroke: rgb(132, 191, 105);"></path><path d="M5,373.69918699187C213,373.69918699187,213,274.0243902439025,421,274.0243902439025" stroke-width="3.9837398373983737" style="stroke: rgb(116, 191, 105);"></path><path d="M5,375.9756097560977C213,375.9756097560977,213,354.0243902439024,421,354.0243902439024" stroke-width="0.5691056910569106" style="stroke: rgb(116, 191, 105);"></path><path d="M5,341.17886178861795C213,341.17886178861795,213,263.7804878048781,421,263.7804878048781" stroke-width="2.845528455284553" style="stroke: rgb(105, 191, 110);"></path><path d="M5,342.8861788617887C213,342.8861788617887,213,351.7479674796748,421,351.7479674796748" stroke-width="0.5691056910569106" style="stroke: rgb(105, 191, 110);"></path><path d="M5,286.6666666666668C213,286.6666666666668,213,249.26829268292684,421,249.26829268292684" stroke-width="2.2764227642276422" style="stroke: rgb(105, 191, 126);"></path><path d="M5,461.219512195122C213,461.219512195122,213,316.9918699186992,421,316.9918699186992" stroke-width="12.520325203252032" style="stroke: rgb(105, 191, 143);"></path><path d="M5,468.0487804878049C213,468.0487804878049,213,358.8617886178861,421,358.8617886178861" stroke-width="1.1382113821138211" style="stroke: rgb(105, 191, 143);"></path><path d="M5,438.130081300813C213,438.130081300813,213,304.4715447154472,421,304.4715447154472" stroke-width="12.520325203252032" style="stroke: rgb(105, 191, 159);"></path><path d="M5,444.6747967479675C213,444.6747967479675,213,358.00813008130075,421,358.00813008130075" stroke-width="0.5691056910569106" style="stroke: rgb(105, 191, 159);"></path><path d="M5,173.9430894308945C213,173.9430894308945,213,348.33333333333337,421,348.33333333333337" stroke-width="0.5691056910569106" style="stroke: rgb(105, 191, 175);"></path><path d="M5,170.8130081300815C213,170.8130081300815,213,216.82926829268297,421,216.82926829268297" stroke-width="5.691056910569106" style="stroke: rgb(105, 191, 175);"></path><path d="M5,185.65040650406524C213,185.65040650406524,213,221.0975609756098,421,221.0975609756098" stroke-width="2.845528455284553" style="stroke: rgb(105, 191, 191);"></path><path d="M5,499.43089430894304C213,499.43089430894304,213,333.4959349593496,421,333.4959349593496" stroke-width="1.1382113821138211" style="stroke: rgb(105, 175, 191);"></path><path d="M5,155.40650406504085C213,155.40650406504085,213,211.42276422764232,421,211.42276422764232" stroke-width="5.121951219512195" style="stroke: rgb(105, 159, 191);"></path><path d="M5,248.1300813008133C213,248.1300813008133,213,242.43902439024393,421,242.43902439024393" stroke-width="2.2764227642276422" style="stroke: rgb(105, 143, 191);"></path><path d="M5,249.55284552845558C213,249.55284552845558,213,350.0406504065041,421,350.0406504065041" stroke-width="0.5691056910569106" style="stroke: rgb(105, 143, 191);"></path><path d="M5,128.57723577235782C213,128.57723577235782,213,204.5934959349594,421,204.5934959349594" stroke-width="2.845528455284553" style="stroke: rgb(105, 126, 191);"></path><path d="M5,416.7479674796748C213,416.7479674796748,213,294.22764227642284,421,294.22764227642284" stroke-width="7.967479674796747" style="stroke: rgb(105, 110, 191);"></path><path d="M5,421.30081300813004C213,421.30081300813004,213,357.15447154471536,421,357.15447154471536" stroke-width="1.1382113821138211" style="stroke: rgb(105, 110, 191);"></path><path d="M5,199.9186991869921C213,199.9186991869921,213,225.36585365853662,421,225.36585365853662" stroke-width="5.691056910569106" style="stroke: rgb(116, 105, 191);"></path><path d="M5,141.4227642276424C213,141.4227642276424,213,207.43902439024396,421,207.43902439024396" stroke-width="2.845528455284553" style="stroke: rgb(132, 105, 191);"></path><path d="M5,356.5853658536587C213,356.5853658536587,213,268.61788617886185,421,268.61788617886185" stroke-width="6.829268292682927" style="stroke: rgb(148, 105, 191);"></path><path d="M5,360.8536585365855C213,360.8536585365855,213,352.8861788617886,421,352.8861788617886" stroke-width="1.7073170731707317" style="stroke: rgb(148, 105, 191);"></path><path d="M5,1.7073170731707885C213,1.7073170731707885,213,141.7073170731708,421,141.7073170731708" stroke-width="3.4146341463414633" style="stroke: rgb(164, 105, 191);"></path><path d="M5,4.268292682926886C213,4.268292682926886,213,344.91869918699194,421,344.91869918699194" stroke-width="1.7073170731707317" style="stroke: rgb(164, 105, 191);"></path><path d="M5,483.45528455284546C213,483.45528455284546,213,328.0894308943089,421,328.0894308943089" stroke-width="9.674796747967479" style="stroke: rgb(180, 105, 191);"></path><path d="M5,488.5772357723577C213,488.5772357723577,213,359.71544715447146,421,359.71544715447146" stroke-width="0.5691056910569106" style="stroke: rgb(180, 105, 191);"></path><path d="M5,328.04878048780495C213,328.04878048780495,213,260.650406504065,421,260.650406504065" stroke-width="3.4146341463414633" style="stroke: rgb(191, 105, 185);"></path><path d="M5,315.48780487804885C213,315.48780487804885,213,258.089430894309,421,258.089430894309" stroke-width="1.7073170731707317" style="stroke: rgb(191, 105, 169);"></path><path d="M5,260.40650406504085C213,260.40650406504085,213,244.14634146341467,421,244.14634146341467" stroke-width="1.1382113821138211" style="stroke: rgb(191, 105, 153);"></path><path d="M426,162.47967479674801C634,162.47967479674801,634,147.47967479674796,842,147.47967479674796" stroke-width="44.959349593495936" style="stroke: rgb(191, 105, 137);"></path><path d="M426,254.959349593496C634,254.959349593496,634,280.2032520325205,842,280.2032520325205" stroke-width="60.325203252032516" style="stroke: rgb(191, 105, 137);"></path><path d="M426,186.66666666666674C634,186.66666666666674,634,185.65040650406505,842,185.65040650406505" stroke-width="3.4146341463414633" style="stroke: rgb(191, 105, 137);"></path><path d="M426,206.5853658536586C634,206.5853658536586,634,217.8455284552846,842,217.8455284552846" stroke-width="36.422764227642276" style="stroke: rgb(191, 105, 137);"></path><path d="M426,309.59349593495944C634,309.59349593495944,634,347.1138211382115,842,347.1138211382115" stroke-width="48.94308943089431" style="stroke: rgb(191, 105, 137);"></path><path d="M426,355.44715447154476C634,355.44715447154476,634,311.5040650406505,842,311.5040650406505" stroke-width="2.2764227642276422" style="stroke: rgb(191, 105, 121);"></path><path d="M426,346.05691056910575C634,346.05691056910575,634,171.95121951219514,842,171.95121951219514" stroke-width="3.9837398373983737" style="stroke: rgb(191, 105, 121);"></path><path d="M426,349.18699186991876C634,349.18699186991876,634,188.49593495934957,842,188.49593495934957" stroke-width="2.2764227642276422" style="stroke: rgb(191, 105, 121);"></path><path d="M426,358.2926829268293C634,358.2926829268293,634,373.29268292682934,842,373.29268292682934" stroke-width="3.4146341463414633" style="stroke: rgb(191, 105, 121);"></path><path d="M426,352.31707317073176C634,352.31707317073176,634,238.04878048780495,842,238.04878048780495" stroke-width="3.9837398373983737" style="stroke: rgb(191, 105, 121);"></path></g><g class="nodes" font-family="Arial, Helvetica" font-size="10"><g><rect x="421" y="140.00000000000006" height="194.06504065040647" width="5" fill="#000"></rect><text x="415" y="237.03252032520328" dy="0.35em" text-anchor="end">0</text></g><g><rect x="421" y="344.06504065040656" height="15.934959349593441" width="5" fill="#000"></rect><text x="415" y="352.0325203252033" dy="0.35em" text-anchor="end">1</text></g><g><rect x="842" y="125" height="48.943089430894304" width="5" fill="#000"></rect><text x="836" y="149.47154471544715" dy="0.35em" text-anchor="end">Africa (excl MENA)</text></g><g><rect x="842" y="183.9430894308943" height="5.691056910569159" width="5" fill="#000"></rect><text x="836" y="186.78861788617888" dy="0.35em" text-anchor="end">Americas</text></g><g><rect x="842" y="199.63414634146346" height="40.406504065040735" width="5" fill="#000"></rect><text x="836" y="219.83739837398383" dy="0.35em" text-anchor="end">Asia and Pacific</text></g><g><rect x="842" y="250.0406504065042" height="62.6016260162601" width="5" fill="#000"></rect><text x="836" y="281.34146341463423" dy="0.35em" text-anchor="end">Europe and Eurasia</text></g><g><rect x="842" y="322.6422764227643" height="52.35772357723573" width="5" fill="#000"></rect><text x="836" y="348.82113821138216" dy="0.35em" text-anchor="end">Middle East and North Africa</text></g><g><rect x="0" y="5.684341886080802e-14" height="5.121951219512198" width="5" fill="#000"></rect><text x="11" y="2.560975609756156" dy="0.35em" text-anchor="start">1990</text></g><g><rect x="0" y="15.121951219512255" height="9.105691056910587" width="5" fill="#000"></rect><text x="11" y="19.674796747967548" dy="0.35em" text-anchor="start">1991</text></g><g><rect x="0" y="34.22764227642284" height="14.227642276422728" width="5" fill="#000"></rect><text x="11" y="41.341463414634205" dy="0.35em" text-anchor="start">1992</text></g><g><rect x="0" y="58.45528455284557" height="17.64227642276424" width="5" fill="#000"></rect><text x="11" y="67.27642276422769" dy="0.35em" text-anchor="start">1993</text></g><g><rect x="0" y="86.09756097560981" height="13.658536585365908" width="5" fill="#000"></rect><text x="11" y="92.92682926829276" dy="0.35em" text-anchor="start">1994</text></g><g><rect x="0" y="109.75609756097572" height="7.398373983739816" width="5" fill="#000"></rect><text x="11" y="113.45528455284563" dy="0.35em" text-anchor="start">1995</text></g><g><rect x="0" y="127.15447154471553" height="2.8455284552845796" width="5" fill="#000"></rect><text x="11" y="128.57723577235782" dy="0.35em" text-anchor="start">1996</text></g><g><rect x="0" y="140.0000000000001" height="2.8455284552846365" width="5" fill="#000"></rect><text x="11" y="141.42276422764243" dy="0.35em" text-anchor="start">1997</text></g><g><rect x="0" y="152.84552845528475" height="5.121951219512198" width="5" fill="#000"></rect><text x="11" y="155.40650406504085" dy="0.35em" text-anchor="start">1998</text></g><g><rect x="0" y="167.96747967479695" height="6.260162601626007" width="5" fill="#000"></rect><text x="11" y="171.09756097560995" dy="0.35em" text-anchor="start">1999</text></g><g><rect x="0" y="184.22764227642296" height="2.8455284552845796" width="5" fill="#000"></rect><text x="11" y="185.65040650406524" dy="0.35em" text-anchor="start">2000</text></g><g><rect x="0" y="197.07317073170753" height="5.691056910569159" width="5" fill="#000"></rect><text x="11" y="199.91869918699211" dy="0.35em" text-anchor="start">2001</text></g><g><rect x="0" y="212.7642276422767" height="7.9674796747967775" width="5" fill="#000"></rect><text x="11" y="216.74796747967508" dy="0.35em" text-anchor="start">2002</text></g><g><rect x="0" y="230.73170731707347" height="6.260162601626007" width="5" fill="#000"></rect><text x="11" y="233.86178861788648" dy="0.35em" text-anchor="start">2003</text></g><g><rect x="0" y="246.99186991869948" height="2.845528455284466" width="5" fill="#000"></rect><text x="11" y="248.4146341463417" dy="0.35em" text-anchor="start">2004</text></g><g><rect x="0" y="259.83739837398394" height="1.1382113821138091" width="5" fill="#000"></rect><text x="11" y="260.40650406504085" dy="0.35em" text-anchor="start">2005</text></g><g><rect x="0" y="270.97560975609775" height="4.5528455284552365" width="5" fill="#000"></rect><text x="11" y="273.2520325203254" dy="0.35em" text-anchor="start">2006</text></g><g><rect x="0" y="285.528455284553" height="2.2764227642276182" width="5" fill="#000"></rect><text x="11" y="286.6666666666668" dy="0.35em" text-anchor="start">2007</text></g><g><rect x="0" y="297.8048780487806" height="6.829268292682855" width="5" fill="#000"></rect><text x="11" y="301.21951219512204" dy="0.35em" text-anchor="start">2008</text></g><g><rect x="0" y="314.63414634146346" height="1.7073170731707705" width="5" fill="#000"></rect><text x="11" y="315.48780487804885" dy="0.35em" text-anchor="start">2009</text></g><g><rect x="0" y="326.34146341463423" height="3.4146341463414274" width="5" fill="#000"></rect><text x="11" y="328.04878048780495" dy="0.35em" text-anchor="start">2010</text></g><g><rect x="0" y="339.75609756097566" height="3.414634146341541" width="5" fill="#000"></rect><text x="11" y="341.46341463414643" dy="0.35em" text-anchor="start">2011</text></g><g><rect x="0" y="353.1707317073172" height="8.536585365853625" width="5" fill="#000"></rect><text x="11" y="357.439024390244" dy="0.35em" text-anchor="start">2012</text></g><g><rect x="0" y="371.7073170731708" height="4.5528455284552365" width="5" fill="#000"></rect><text x="11" y="373.98373983739845" dy="0.35em" text-anchor="start">2013</text></g><g><rect x="0" y="386.26016260162606" height="16.504065040650346" width="5" fill="#000"></rect><text x="11" y="394.5121951219512" dy="0.35em" text-anchor="start">2014</text></g><g><rect x="0" y="412.7642276422764" height="9.105691056910587" width="5" fill="#000"></rect><text x="11" y="417.3170731707317" dy="0.35em" text-anchor="start">2015</text></g><g><rect x="0" y="431.869918699187" height="13.089430894308975" width="5" fill="#000"></rect><text x="11" y="438.4146341463415" dy="0.35em" text-anchor="start">2016</text></g><g><rect x="0" y="454.959349593496" height="13.658536585365766" width="5" fill="#000"></rect><text x="11" y="461.7886178861788" dy="0.35em" text-anchor="start">2017</text></g><g><rect x="0" y="478.61788617886174" height="10.243902439024396" width="5" fill="#000"></rect><text x="11" y="483.73983739837394" dy="0.35em" text-anchor="start">2018</text></g><g><rect x="0" y="498.86178861788613" height="1.1382113821138091" width="5" fill="#000"></rect><text x="11" y="499.43089430894304" dy="0.35em" text-anchor="start">2019</text></g></g></g></svg>