<svg width="847" height="520" xmlns="http://www.w3.org/2000/svg" version="1.1"><g transform="translate(0, 10)"><g class="links" fill="none" stroke-opacity="0.4"><path d="M5,19.674796747967427C213,19.674796747967427,213,148.5365853658537,421,148.5365853658537" stroke-width="9.105691056910569" style="stroke: rgb(191, 105, 105);"></path><path d="M5,113.4552845528455C213,113.4552845528455,213,200.609756097561,421,200.609756097561" stroke-width="7.3983739837398375" style="stroke: rgb(191, 121, 105);"></path><path d="M5,92.07317073170731C213,92.07317073170731,213,190.93495934959353,421,190.93495934959353" stroke-width="11.951219512195122" style="stroke: rgb(191, 137, 105);"></path><path d="M5,98.90243902439025C213,98.90243902439025,213,341.5040650406504,421,341.5040650406504" stroke-width="1.7073170731707317" style="stroke: rgb(191, 137, 105);"></path><path d="M5,67.27642276422753C213,67.27642276422753,213,176.13821138211384,421,176.13821138211384" stroke-width="17.642276422764226" style="stroke: rgb(191, 153, 105);"></path><path d="M5,41.341463414634106C213,41.341463414634106,213,160.20325203252037,421,160.20325203252037" stroke-width="14.227642276422763" style="stroke: rgb(191, 169, 105);"></path><path d="M5,300.65040650406513C213,300.65040650406513,213,252.1138211382114,421,252.1138211382114" stroke-width="5.691056910569106" style="stroke: rgb(191, 185, 105);"></path><path d="M5,304.06504065040656C213,304.06504065040656,213,348.6178861788617,421,348.6178861788617" stroke-width="1.1382113821138211" style="stroke: rgb(191, 185, 105);"></path><path d="M5,275.24390243902445C213,275.24390243902445,213,347.19512195121945,421,347.19512195121945" stroke-width="0.5691056910569106" style="stroke: rgb(180, 191, 105);"></path><path d="M5,272.9674796747968C213,272.9674796747968,213,245.56910569105693,421,245.56910569105693" stroke-width="3.9837398373983737" style="stroke: rgb(180, 191, 105);"></path><path d="M5,233.86178861788616C213,233.86178861788616,213,237.60162601626018,421,237.60162601626018" stroke-width="6.260162601626016" style="stroke: rgb(164, 191, 105);"></path><path d="M5,219.87804878048786C213,219.87804878048786,213,344.91869918699183,421,344.91869918699183" stroke-width="1.7073170731707317" style="stroke: rgb(148, 191, 105);"></path><path d="M5,215.8943089430895C213,215.8943089430895,213,231.34146341463418,421,231.34146341463418" stroke-width="6.260162601626016" style="stroke: rgb(148, 191, 105);"></path><path d="M5,401.6260162601627C213,401.6260162601627,213,352.60162601626,421,352.60162601626" stroke-width="2.2764227642276422" style="stroke: rgb(132, 191, 105);"></path><path d="M5,393.3739837398375C213,393.3739837398375,213,281.4227642276424,421,281.4227642276424" stroke-width="14.227642276422763" style="stroke: rgb(132, 191, 105);"></path><path d="M5,375.69105691056916C213,375.69105691056916,213,350.8943089430893,421,350.8943089430893" stroke-width="1.1382113821138211" style="stroke: rgb(116, 191, 105);"></path><path d="M5,373.4146341463415C213,373.4146341463415,213,272.60162601626024,421,272.60162601626024" stroke-width="3.4146341463414633" style="stroke: rgb(116, 191, 105);"></path><path d="M5,342.88617886178866C213,342.88617886178866,213,350.04065040650397,421,350.04065040650397" stroke-width="0.5691056910569106" style="stroke: rgb(105, 191, 110);"></path><path d="M5,341.1788617886179C213,341.1788617886179,213,260.93495934959356,421,260.93495934959356" stroke-width="2.845528455284553" style="stroke: rgb(105, 191, 110);"></path><path d="M5,286.3821138211383C213,286.3821138211383,213,248.41463414634146,421,248.41463414634146" stroke-width="1.7073170731707317" style="stroke: rgb(105, 191, 126);"></path><path d="M5,287.5203252032521C213,287.5203252032521,213,347.76422764227635,421,347.76422764227635" stroke-width="0.5691056910569106" style="stroke: rgb(105, 191, 126);"></path><path d="M5,461.2195121951221C213,461.2195121951221,213,311.8699186991871,421,311.8699186991871" stroke-width="12.520325203252032" style="stroke: rgb(105, 191, 143);"></path><path d="M5,468.048780487805C213,468.048780487805,213,359.4308943089429,421,359.4308943089429" stroke-width="1.1382113821138211" style="stroke: rgb(105, 191, 143);"></path><path d="M5,443.8211382113822C213,443.8211382113822,213,357.7235772357722,421,357.7235772357722" stroke-width="2.2764227642276422" style="stroke: rgb(105, 191, 159);"></path><path d="M5,437.27642276422773C213,437.27642276422773,213,300.2032520325205,421,300.2032520325205" stroke-width="10.8130081300813" style="stroke: rgb(105, 191, 159);"></path><path d="M5,170.8130081300813C213,170.8130081300813,213,217.96747967479678,421,217.96747967479678" stroke-width="5.691056910569106" style="stroke: rgb(105, 191, 175);"></path><path d="M5,173.9430894308943C213,173.9430894308943,213,342.6422764227642,421,342.6422764227642" stroke-width="0.5691056910569106" style="stroke: rgb(105, 191, 175);"></path><path d="M5,185.65040650406505C213,185.65040650406505,213,222.23577235772362,421,222.23577235772362" stroke-width="2.845528455284553" style="stroke: rgb(105, 191, 191);"></path><path d="M5,499.4308943089432C213,499.4308943089432,213,328.9430894308944,421,328.9430894308944" stroke-width="1.1382113821138211" style="stroke: rgb(105, 175, 191);"></path><path d="M5,155.40650406504065C213,155.40650406504065,213,212.56097560975613,421,212.56097560975613" stroke-width="5.121951219512195" style="stroke: rgb(105, 159, 191);"></path><path d="M5,247.84552845528452C213,247.84552845528452,213,241.58536585365854,421,241.58536585365854" stroke-width="1.7073170731707317" style="stroke: rgb(105, 143, 191);"></path><path d="M5,249.2682926829268C213,249.2682926829268,213,346.34146341463406,421,346.34146341463406" stroke-width="1.1382113821138211" style="stroke: rgb(105, 143, 191);"></path><path d="M5,128.57723577235768C213,128.57723577235768,213,205.73170731707322,421,205.73170731707322" stroke-width="2.845528455284553" style="stroke: rgb(105, 126, 191);"></path><path d="M5,415.8943089430895C213,415.8943089430895,213,291.6666666666668,421,291.6666666666668" stroke-width="6.260162601626016" style="stroke: rgb(105, 110, 191);"></path><path d="M5,420.4471544715448C213,420.4471544715448,213,355.1626016260161,421,355.1626016260161" stroke-width="2.845528455284553" style="stroke: rgb(105, 110, 191);"></path><path d="M5,199.34959349593498C213,199.34959349593498,213,225.93495934959353,421,225.93495934959353" stroke-width="4.5528455284552845" style="stroke: rgb(116, 105, 191);"></path><path d="M5,202.19512195121953C213,202.19512195121953,213,343.49593495934954,421,343.49593495934954" stroke-width="1.1382113821138211" style="stroke: rgb(116, 105, 191);"></path><path d="M5,141.42276422764226C213,141.42276422764226,213,208.57723577235777,421,208.57723577235777" stroke-width="2.845528455284553" style="stroke: rgb(132, 105, 191);"></path><path d="M5,357.43902439024384C213,357.43902439024384,213,266.62601626016266,421,266.62601626016266" stroke-width="8.536585365853659" style="stroke: rgb(148, 105, 191);"></path><path d="M5,1.99186991869913C213,1.99186991869913,213,141.99186991869925,421,141.99186991869925" stroke-width="3.9837398373983737" style="stroke: rgb(164, 105, 191);"></path><path d="M5,4.552845528455228C213,4.552845528455228,213,340.0813008130081,421,340.0813008130081" stroke-width="1.1382113821138211" style="stroke: rgb(164, 105, 191);"></path><path d="M5,483.7398373983741C213,483.7398373983741,213,323.2520325203253,421,323.2520325203253" stroke-width="10.24390243902439" style="stroke: rgb(180, 105, 191);"></path><path d="M5,327.76422764227635C213,327.76422764227635,213,258.089430894309,421,258.089430894309" stroke-width="2.845528455284553" style="stroke: rgb(191, 105, 185);"></path><path d="M5,329.4715447154471C213,329.4715447154471,213,349.47154471544707,421,349.47154471544707" stroke-width="0.5691056910569106" style="stroke: rgb(191, 105, 185);"></path><path d="M5,315.4878048780488C213,315.4878048780488,213,255.8130081300813,421,255.8130081300813" stroke-width="1.7073170731707317" style="stroke: rgb(191, 105, 169);"></path><path d="M5,260.4065040650407C213,260.4065040650407,213,243.00813008130083,421,243.00813008130083" stroke-width="1.1382113821138211" style="stroke: rgb(191, 105, 153);"></path><path d="M426,159.06504065040656C634,159.06504065040656,634,144.06504065040662,842,144.06504065040662" stroke-width="38.13008130081301" style="stroke: rgb(191, 105, 137);"></path><path d="M426,249.83739837398377C634,249.83739837398377,634,280.77235772357716,842,280.77235772357716" stroke-width="61.46341463414634" style="stroke: rgb(191, 105, 137);"></path><path d="M426,180.12195121951225C634,180.12195121951225,634,185.9349593495936,842,185.9349593495936" stroke-width="3.9837398373983737" style="stroke: rgb(191, 105, 137);"></path><path d="M426,200.60975609756102C634,200.60975609756102,634,218.13008130081306,842,218.13008130081306" stroke-width="36.99186991869919" style="stroke: rgb(191, 105, 137);"></path><path d="M426,305.04065040650414C634,305.04065040650414,634,347.1138211382112,842,347.1138211382112" stroke-width="48.94308943089431" style="stroke: rgb(191, 105, 137);"></path><path d="M426,356.0162601626016C634,356.0162601626016,634,312.0731707317072,842,312.0731707317072" stroke-width="1.1382113821138211" style="stroke: rgb(191, 105, 121);"></path><path d="M426,344.91869918699183C634,344.91869918699183,634,168.53658536585377,842,168.53658536585377" stroke-width="10.8130081300813" style="stroke: rgb(191, 105, 121);"></path><path d="M426,351.1788617886179C634,351.1788617886179,634,188.78048780487813,842,188.78048780487813" stroke-width="1.7073170731707317" style="stroke: rgb(191, 105, 121);"></path><path d="M426,353.73983739837394C634,353.73983739837394,634,238.3333333333334,842,238.3333333333334" stroke-width="3.4146341463414633" style="stroke: rgb(191, 105, 121);"></path><path d="M426,358.29268292682923C634,358.29268292682923,634,373.29268292682906,842,373.29268292682906" stroke-width="3.4146341463414633" style="stroke: rgb(191, 105, 121);"></path></g><g class="nodes" font-family="Arial, Helvetica" font-size="10"><g><rect x="421" y="140.00000000000006" height="189.51219512195112" width="5" fill="#000"></rect><text x="415" y="234.7560975609756" dy="0.35em" text-anchor="end">0</text></g><g><rect x="421" y="339.5121951219512" height="20.48780487804879" width="5" fill="#000"></rect><text x="415" y="349.7560975609756" dy="0.35em" text-anchor="end">1</text></g><g><rect x="842" y="125.00000000000011" height="48.943089430894304" width="5" fill="#000"></rect><text x="836" y="149.47154471544727" dy="0.35em" text-anchor="end">Africa (excl MENA)</text></g><g><rect x="842" y="183.94308943089442" height="5.691056910569046" width="5" fill="#000"></rect><text x="836" y="186.78861788617894" dy="0.35em" text-anchor="end">Americas</text></g><g><rect x="842" y="199.63414634146346" height="40.40650406504051" width="5" fill="#000"></rect><text x="836" y="219.83739837398372" dy="0.35em" text-anchor="end">Asia and Pacific</text></g><g><rect x="842" y="250.04065040650397" height="62.60162601626007" width="5" fill="#000"></rect><text x="836" y="281.341463414634" dy="0.35em" text-anchor="end">Europe and Eurasia</text></g><g><rect x="842" y="322.64227642276404" height="52.357723577235845" width="5" fill="#000"></rect><text x="836" y="348.82113821138194" dy="0.35em" text-anchor="end">Middle East and North Africa</text></g><g><rect x="0" y="-5.684341886080802e-14" height="5.121951219512198" width="5" fill="#000"></rect><text x="11" y="2.560975609756042" dy="0.35em" text-anchor="start">1990</text></g><g><rect x="0" y="15.121951219512141" height="9.105691056910587" width="5" fill="#000"></rect><text x="11" y="19.674796747967434" dy="0.35em" text-anchor="start">1991</text></g><g><rect x="0" y="34.22764227642273" height="14.2276422764227" width="5" fill="#000"></rect><text x="11" y="41.34146341463408" dy="0.35em" text-anchor="start">1992</text></g><g><rect x="0" y="58.45528455284543" height="17.642276422764326" width="5" fill="#000"></rect><text x="11" y="67.27642276422759" dy="0.35em" text-anchor="start">1993</text></g><g><rect x="0" y="86.09756097560975" height="13.658536585365823" width="5" fill="#000"></rect><text x="11" y="92.92682926829266" dy="0.35em" text-anchor="start">1994</text></g><g><rect x="0" y="109.75609756097558" height="7.398373983739816" width="5" fill="#000"></rect><text x="11" y="113.45528455284548" dy="0.35em" text-anchor="start">1995</text></g><g><rect x="0" y="127.15447154471539" height="2.8455284552845796" width="5" fill="#000"></rect><text x="11" y="128.57723577235768" dy="0.35em" text-anchor="start">1996</text></g><g><rect x="0" y="139.99999999999997" height="2.8455284552845796" width="5" fill="#000"></rect><text x="11" y="141.42276422764226" dy="0.35em" text-anchor="start">1997</text></g><g><rect x="0" y="152.84552845528455" height="5.121951219512198" width="5" fill="#000"></rect><text x="11" y="155.40650406504065" dy="0.35em" text-anchor="start">1998</text></g><g><rect x="0" y="167.96747967479675" height="6.260162601626007" width="5" fill="#000"></rect><text x="11" y="171.09756097560975" dy="0.35em" text-anchor="start">1999</text></g><g><rect x="0" y="184.22764227642276" height="2.8455284552845796" width="5" fill="#000"></rect><text x="11" y="185.65040650406505" dy="0.35em" text-anchor="start">2000</text></g><g><rect x="0" y="197.07317073170734" height="5.691056910569159" width="5" fill="#000"></rect><text x="11" y="199.91869918699192" dy="0.35em" text-anchor="start">2001</text></g><g><rect x="0" y="212.7642276422765" height="7.967479674796664" width="5" fill="#000"></rect><text x="11" y="216.74796747967483" dy="0.35em" text-anchor="start">2002</text></g><g><rect x="0" y="230.73170731707316" height="6.260162601626007" width="5" fill="#000"></rect><text x="11" y="233.86178861788616" dy="0.35em" text-anchor="start">2003</text></g><g><rect x="0" y="246.99186991869917" height="2.8455284552845796" width="5" fill="#000"></rect><text x="11" y="248.41463414634146" dy="0.35em" text-anchor="start">2004</text></g><g><rect x="0" y="259.8373983739838" height="1.1382113821138091" width="5" fill="#000"></rect><text x="11" y="260.4065040650407" dy="0.35em" text-anchor="start">2005</text></g><g><rect x="0" y="270.9756097560976" height="4.55284552845535" width="5" fill="#000"></rect><text x="11" y="273.25203252032526" dy="0.35em" text-anchor="start">2006</text></g><g><rect x="0" y="285.52845528455293" height="2.2764227642276182" width="5" fill="#000"></rect><text x="11" y="286.66666666666674" dy="0.35em" text-anchor="start">2007</text></g><g><rect x="0" y="297.80487804878055" height="6.829268292682855" width="5" fill="#000"></rect><text x="11" y="301.219512195122" dy="0.35em" text-anchor="start">2008</text></g><g><rect x="0" y="314.6341463414634" height="1.7073170731706568" width="5" fill="#000"></rect><text x="11" y="315.48780487804873" dy="0.35em" text-anchor="start">2009</text></g><g><rect x="0" y="326.34146341463406" height="3.414634146341541" width="5" fill="#000"></rect><text x="11" y="328.04878048780483" dy="0.35em" text-anchor="start">2010</text></g><g><rect x="0" y="339.7560975609756" height="3.4146341463414274" width="5" fill="#000"></rect><text x="11" y="341.4634146341463" dy="0.35em" text-anchor="start">2011</text></g><g><rect x="0" y="353.17073170731703" height="8.536585365853739" width="5" fill="#000"></rect><text x="11" y="357.4390243902439" dy="0.35em" text-anchor="start">2012</text></g><g><rect x="0" y="371.70731707317077" height="4.55284552845535" width="5" fill="#000"></rect><text x="11" y="373.98373983739845" dy="0.35em" text-anchor="start">2013</text></g><g><rect x="0" y="386.2601626016261" height="16.504065040650374" width="5" fill="#000"></rect><text x="11" y="394.5121951219513" dy="0.35em" text-anchor="start">2014</text></g><g><rect x="0" y="412.7642276422765" height="9.105691056910587" width="5" fill="#000"></rect><text x="11" y="417.3170731707318" dy="0.35em" text-anchor="start">2015</text></g><g><rect x="0" y="431.8699186991871" height="13.089430894308975" width="5" fill="#000"></rect><text x="11" y="438.4146341463416" dy="0.35em" text-anchor="start">2016</text></g><g><rect x="0" y="454.9593495934961" height="13.658536585365823" width="5" fill="#000"></rect><text x="11" y="461.788617886179" dy="0.35em" text-anchor="start">2017</text></g><g><rect x="0" y="478.6178861788619" height="10.243902439024396" width="5" fill="#000"></rect><text x="11" y="483.7398373983741" dy="0.35em" text-anchor="start">2018</text></g><g><rect x="0" y="498.8617886178863" height="1.1382113821138091" width="5" fill="#000"></rect><text x="11" y="499.4308943089432" dy="0.35em" text-anchor="start">2019</text></g></g></g></svg>